<?xml version="1.0" encoding="utf-8"?><svg xmlns="http://www.w3.org/2000/svg" viewBox="0 0 116.89 137.22"><defs><style>.cls-1{fill:#00cfcc;}.cls-2{fill:#ececec;}</style></defs><title>Artboard 53</title><g id="Layer_2" data-name="Layer 2"><path class="cls-1" d="M116.89,137.22A115.93,115.93,0,0,0,1,23.12H0V137.22Z"/><path class="cls-2" d="M27.61,52.09h-.47v-.47h-.55v.47h-.48v.53h.48v.46s0,0,0,0h.53s0,0,0,0v-.46h.48V52.1Z"/><path class="cls-2" d="M31.18,52.09h-.47v-.47h-.55v.47h-.48v.53h.48v.46s0,0,0,0h.53s0,0,0,0v-.46h.48V52.1Z"/><path class="cls-2" d="M34.75,52.09h-.47v-.47h-.55v.47h-.48v.53h.48v.48h.53s0,0,0,0v-.46h.48V52.1Z"/><path class="cls-2" d="M38.32,52.09h-.46v-.47H37.3v.47h-.48v.53h.48v.48h.53l0,0v-.46h.47V52.1Z"/><path class="cls-2" d="M27.61,48.65h-.47v-.47h-.55v.47h-.48v.53h.48v.46s0,0,0,0h.53s0,0,0,0V49.2h.48v-.53Z"/><path class="cls-2" d="M31.18,48.65h-.47v-.47h-.55v.47h-.48v.53h.48v.46s0,0,0,0h.53s0,0,0,0V49.2h.48v-.53Z"/><path class="cls-2" d="M34.75,48.65h-.47v-.47h-.55v.47h-.48v.53h.48v.46a0,0,0,0,0,0,0h.53s0,0,0,0V49.2h.47a0,0,0,0,0,0,0v-.53Z"/><path class="cls-2" d="M38.32,48.65h-.46v-.47H37.3v.47h-.48v.53h.48v.46a0,0,0,0,0,0,0h.53a0,0,0,0,0,0,0V49.2h.46a0,0,0,0,0,0,0v-.53Z"/><path class="cls-2" d="M27.61,45.2h-.47v-.46s0,0,0,0H26.6s0,0,0,0v.46h-.47v.55h.48v.46s0,0,0,0h.53s0,0,0,0v-.46h.48V45.2Z"/><path class="cls-2" d="M31.18,45.2h-.47v-.46s0,0,0,0h-.53s0,0,0,0v.46H29.7l0,0v.53h.48v.46s0,0,0,0h.53s0,0,0,0v-.46h.48V45.2Z"/><path class="cls-2" d="M34.75,45.2h-.47v-.46s0,0,0,0h-.53a0,0,0,0,0,0,0v.46h-.46a0,0,0,0,0,0,0v.53h.48v.48h.53s0,0,0,0v-.46h.48v-.53S34.76,45.2,34.75,45.2Z"/><path class="cls-2" d="M38.32,45.2h-.46v-.46s0,0,0,0h-.53a0,0,0,0,0,0,0v.46h-.46a0,0,0,0,0,0,0v.53h.48v.48h.53l0,0v-.46h.47v-.53S38.33,45.2,38.32,45.2Z"/><path class="cls-2" d="M27.61,41.76h-.47V41.3h-.55v.46h-.47v.55h.48v.46s0,0,0,0h.53s0,0,0,0v-.46h.48v-.55Z"/><path class="cls-2" d="M31.18,41.76h-.47V41.3h-.55v.46H29.7l0,0v.53h.48v.46s0,0,0,0h.53s0,0,0,0v-.46h.48v-.55Z"/><path class="cls-2" d="M34.75,41.76h-.47V41.3h-.55v.46h-.46a0,0,0,0,0,0,0v.53h.48v.48h.53s0,0,0,0v-.46h.48v-.53S34.76,41.76,34.75,41.76Z"/><path class="cls-2" d="M38.32,41.76h-.46V41.3H37.3v.46h-.46a0,0,0,0,0,0,0v.53h.48v.48h.53l0,0v-.46h.47v-.53S38.33,41.76,38.32,41.76Z"/><path class="cls-2" d="M27.61,38.32h-.47v-.46h-.55v.46h-.47a0,0,0,0,0,0,0v.54h.47v.46s0,0,0,0h.53s0,0,0,0v-.46h.47v-.54A0,0,0,0,0,27.61,38.32Z"/><path class="cls-2" d="M31.18,38.32h-.47v-.46h-.55v.46H29.7a0,0,0,0,0,0,0v.52l0,0h.46v.46s0,0,0,0h.53s0,0,0,0v-.46h.47v-.54A0,0,0,0,0,31.18,38.32Z"/><path class="cls-2" d="M34.75,38.32h-.47v-.46h-.55v.46h-.46a0,0,0,0,0,0,0v.52a0,0,0,0,0,0,0h.46v.48h.53s0,0,0,0v-.46h.47s0,0,0,0v-.52S34.76,38.32,34.75,38.32Z"/><path class="cls-2" d="M38.32,38.32h-.46v-.46H37.3v.46h-.46a0,0,0,0,0,0,0v.52a0,0,0,0,0,0,0h.46v.48h.53l0,0v-.46h.46s0,0,0,0v-.52S38.33,38.32,38.32,38.32Z"/><path class="cls-2" d="M27.61,34.88h-.47v-.46s0,0,0,0H26.6s0,0,0,0v.46h-.47v.56h.47v.46s0,0,0,0h.53s0,0,0,0v-.46h.47v-.56Z"/><path class="cls-2" d="M31.18,34.88h-.47v-.46s0,0,0,0h-.53s0,0,0,0v.46H29.7l0,0v.52l0,0h.46v.46s0,0,0,0h.53s0,0,0,0v-.46h.47v-.56Z"/><path class="cls-2" d="M34.75,34.88h-.47v-.46s0,0,0,0h-.53a0,0,0,0,0,0,0v.46h-.46l0,0v.52a0,0,0,0,0,0,0h.46v.48h.53s0,0,0,0v-.46h.47s0,0,0,0V34.9S34.76,34.88,34.75,34.88Z"/><path class="cls-2" d="M38.32,34.88h-.46v-.46s0,0,0,0h-.53a0,0,0,0,0,0,0v.46h-.46l0,0v.52a0,0,0,0,0,0,0h.46v.48h.53a0,0,0,0,0,0,0v-.46h.46s0,0,0,0V34.9S38.33,34.88,38.32,34.88Z"/><path class="cls-2" d="M27.61,31.44h-.47V31s0,0,0,0H26.6s0,0,0,0v.46h-.47a0,0,0,0,0,0,0V32h.47v.46s0,0,0,0h.53s0,0,0,0V32h.47v-.54A0,0,0,0,0,27.61,31.44Z"/><path class="cls-2" d="M31.18,31.44h-.47V31s0,0,0,0h-.53s0,0,0,0v.46H29.7a0,0,0,0,0,0,0V32l0,0h.46v.46s0,0,0,0h.53s0,0,0,0V32h.47v-.54A0,0,0,0,0,31.18,31.44Z"/><path class="cls-2" d="M34.75,31.44h-.47V31s0,0,0,0h-.53a0,0,0,0,0,0,0v.46h-.46a0,0,0,0,0,0,0V32a0,0,0,0,0,0,0h.46v.48h.53s0,0,0,0V32h.47s0,0,0,0v-.52S34.76,31.44,34.75,31.44Z"/><path class="cls-2" d="M38.32,31.44h-.46V31s0,0,0,0h-.53a0,0,0,0,0,0,0v.46h-.46a0,0,0,0,0,0,0V32a0,0,0,0,0,0,0h.46v.48h.53l0,0V32h.46s0,0,0,0v-.52S38.33,31.44,38.32,31.44Z"/><path class="cls-2" d="M27.61,28h-.47v-.46s0,0,0,0H26.6s0,0,0,0V28h-.47v.54a0,0,0,0,0,0,0h.47V29s0,0,0,0h.53s0,0,0,0v-.46h.47a0,0,0,0,0,0,0V28Z"/><path class="cls-2" d="M31.18,28h-.47v-.46s0,0,0,0h-.53s0,0,0,0V28H29.7l0,0v.52a0,0,0,0,0,0,0h.46V29s0,0,0,0h.53s0,0,0,0v-.46h.47a0,0,0,0,0,0,0V28Z"/><path class="cls-2" d="M34.75,28h-.47v-.46s0,0,0,0h-.53V28h-.46a0,0,0,0,0,0,0v.52a0,0,0,0,0,0,0h.46V29a0,0,0,0,0,0,0h.53s0,0,0,0v-.46h.47s0,0,0,0V28S34.76,28,34.75,28Z"/><path class="cls-2" d="M38.32,28h-.46v-.46a0,0,0,0,0,0,0h-.53V28h-.46a0,0,0,0,0,0,0v.52a0,0,0,0,0,0,0h.46V29a0,0,0,0,0,0,0h.53s0,0,0,0v-.46h.46s0,0,0,0V28S38.33,28,38.32,28Z"/><path class="cls-2" d="M27.61,24.56h-.47V24.1s0,0,0,0H26.6s0,0,0,0v.46h-.47v.56h.47v.46s0,0,0,0h.53s0,0,0,0v-.46h.47v-.56Z"/><path class="cls-2" d="M31.18,24.56h-.47V24.1s0,0,0,0h-.53s0,0,0,0v.46H29.7l0,0v.52l0,0h.46v.46s0,0,0,0h.53s0,0,0,0v-.46h.47v-.56Z"/><path class="cls-2" d="M34.75,24.56h-.47V24.1s0,0,0,0h-.53a0,0,0,0,0,0,0v.46h-.46a0,0,0,0,0,0,0v.52a0,0,0,0,0,0,0h.46v.46a0,0,0,0,0,0,0h.53s0,0,0,0v-.46h.47s0,0,0,0v-.52S34.76,24.56,34.75,24.56Z"/><path class="cls-2" d="M38.32,24.56h-.46V24.1a0,0,0,0,0,0,0h-.53a0,0,0,0,0,0,0v.46h-.46a0,0,0,0,0,0,0v.52a0,0,0,0,0,0,0h.46v.46a0,0,0,0,0,0,0h.53s0,0,0,0v-.46h.46s0,0,0,0v-.52S38.33,24.56,38.32,24.56Z"/><path class="cls-2" d="M27.61,21.12h-.47v-.46s0,0,0,0H26.6s0,0,0,0v.46h-.47a0,0,0,0,0,0,0v.52a0,0,0,0,0,0,0h.47v.46h.55v-.46h.47a0,0,0,0,0,0,0v-.52A0,0,0,0,0,27.61,21.12Z"/><path class="cls-2" d="M31.18,21.12h-.47v-.46s0,0,0,0h-.53s0,0,0,0v.46H29.7a0,0,0,0,0,0,0v.52a0,0,0,0,0,0,0h.46v.46h.55v-.46h.47a0,0,0,0,0,0,0v-.52A0,0,0,0,0,31.18,21.12Z"/><path class="cls-2" d="M34.75,21.12h-.47v-.46s0,0,0,0h-.53a0,0,0,0,0,0,0v.46h-.46a0,0,0,0,0,0,0v.52a0,0,0,0,0,0,0h.46v.46h.55v-.46h.47s0,0,0,0v-.52S34.76,21.12,34.75,21.12Z"/><path class="cls-2" d="M38.32,21.12h-.46v-.46a0,0,0,0,0,0,0h-.53a0,0,0,0,0,0,0v.46h-.46a0,0,0,0,0,0,0v.52a0,0,0,0,0,0,0h.46v.46h.56v-.46h.46s0,0,0,0v-.52S38.33,21.12,38.32,21.12Z"/><path class="cls-2" d="M27.61,17.68h-.47v-.46s0,0,0,0H26.6s0,0,0,0v.46h-.48v.53a0,0,0,0,0,0,0h.47v.46s0,0,0,0h.53s0,0,0,0v-.46h.47a0,0,0,0,0,0,0v-.53Z"/><path class="cls-2" d="M31.18,17.68h-.47v-.46s0,0,0,0h-.53s0,0,0,0v.46h-.48v.53a0,0,0,0,0,0,0h.46v.46s0,0,0,0h.53s0,0,0,0v-.46h.47a0,0,0,0,0,0,0v-.53Z"/><path class="cls-2" d="M34.75,17.68h-.47v-.46s0,0,0,0h-.53v.48h-.48v.53a0,0,0,0,0,0,0h.46v.46a0,0,0,0,0,0,0h.53s0,0,0,0v-.46h.47s0,0,0,0v-.53A0,0,0,0,0,34.75,17.68Z"/><path class="cls-2" d="M38.32,17.68h-.46v-.46a0,0,0,0,0,0,0h-.53v.48h-.48v.53a0,0,0,0,0,0,0h.46v.46a0,0,0,0,0,0,0h.53s0,0,0,0v-.46h.46s0,0,0,0v-.53A0,0,0,0,0,38.32,17.68Z"/><path class="cls-2" d="M27.61,14.24h-.47v-.46s0,0,0,0H26.6s0,0,0,0v.46h-.48v.55h.47v.46h.55V14.8h.47v-.55Z"/><path class="cls-2" d="M31.18,14.24h-.47v-.46s0,0,0,0h-.53s0,0,0,0v.46h-.48v.53l0,0h.46v.46h.55V14.8h.47v-.55Z"/><path class="cls-2" d="M34.75,14.24h-.47v-.46s0,0,0,0h-.53v.48h-.48v.53a0,0,0,0,0,0,0h.46v.46h.55V14.8h.47s0,0,0,0v-.53Z"/><path class="cls-2" d="M38.32,14.24h-.46v-.46l0,0h-.53v.48h-.48v.53a0,0,0,0,0,0,0h.46v.46h.56V14.8h.46s0,0,0,0v-.53Z"/><path class="cls-2" d="M27.61,10.8h-.47v-.46s0,0,0,0H26.6s0,0,0,0v.46h-.48v.53h.48v.47h.55v-.47h.48v-.53Z"/><path class="cls-2" d="M31.18,10.8h-.47v-.46s0,0,0,0h-.53s0,0,0,0v.46h-.48v.53h.48v.47h.55v-.47h.48v-.53Z"/><path class="cls-2" d="M34.75,10.8h-.47v-.46s0,0,0,0h-.53v.48h-.48v.53h.48v.47h.55v-.47h.48v-.53Z"/><path class="cls-2" d="M38.32,10.8h-.46v-.46l0,0h-.53v.48h-.48v.53h.48v.47h.56v-.47h.47v-.53Z"/><path class="cls-2" d="M27.61,7.36h-.47V6.9s0,0,0,0H26.6s0,0,0,0v.46h-.48V7.9h.48v.47h.55V7.91h.48V7.37Z"/><path class="cls-2" d="M31.18,7.36h-.47V6.9s0,0,0,0h-.53s0,0,0,0v.46h-.48V7.9h.48v.47h.55V7.91h.48V7.37Z"/><path class="cls-2" d="M34.75,7.36h-.47V6.9s0,0,0,0h-.53a0,0,0,0,0,0,0v.46h-.48V7.9h.48v.47h.55V7.91h.48V7.37Z"/><path class="cls-2" d="M38.32,7.36h-.46V6.9a0,0,0,0,0,0,0h-.53a0,0,0,0,0,0,0v.46h-.48V7.9h.48v.47h.56V7.91h.47V7.37Z"/><path class="cls-2" d="M27.61,3.92h-.47V3.46s0,0,0,0H26.6s0,0,0,0v.46h-.47a0,0,0,0,0,0,0v.53h.48v.47h.55V4.47h.48V3.93A0,0,0,0,0,27.61,3.92Z"/><path class="cls-2" d="M31.18,3.92h-.47V3.46s0,0,0,0h-.53s0,0,0,0v.46H29.7s0,0,0,0v.53h.48v.47h.55V4.47h.48V3.93A0,0,0,0,0,31.18,3.92Z"/><path class="cls-2" d="M34.75,3.92h-.47V3.46s0,0,0,0h-.53v.48h-.46s0,0,0,0v.53h.48v.47h.55V4.47h.48V3.93S34.76,3.92,34.75,3.92Z"/><path class="cls-2" d="M38.32,3.92h-.46V3.46a0,0,0,0,0,0,0h-.53v.48h-.46s0,0,0,0v.53h.48v.47h.56V4.47h.47V3.93S38.33,3.92,38.32,3.92Z"/><path class="cls-2" d="M27.61.48h-.47V0h-.55V.48h-.47a0,0,0,0,0,0,0V1a0,0,0,0,0,0,0h.47V1.5a0,0,0,0,0,0,0h.53a0,0,0,0,0,0,0V1h.47a0,0,0,0,0,0,0V.49A0,0,0,0,0,27.61.48Z"/><path class="cls-2" d="M31.18.48h-.47V0h-.55V.48H29.7s0,0,0,0V1s0,0,0,0h.46V1.5a0,0,0,0,0,0,0h.53a0,0,0,0,0,0,0V1h.47a0,0,0,0,0,0,0V.49A0,0,0,0,0,31.18.48Z"/><path class="cls-2" d="M34.75.48h-.47V0h-.55V.48h-.46s0,0,0,0V1s0,0,0,0h.46V1.5h.54a0,0,0,0,0,0,0V1h.47s0,0,0,0V.49S34.76.48,34.75.48Z"/><path class="cls-2" d="M38.32.48h-.46V0H37.3V.48h-.46s0,0,0,0V1s0,0,0,0h.46V1.5h.56V1h.46s0,0,0,0V.49S38.33.48,38.32.48Z"/></g></svg>