<svg id="Group_186" data-name="Group 186" xmlns="http://www.w3.org/2000/svg" width="77.882" height="84.671" viewBox="0 0 77.882 84.671">
  <path id="Path_95" data-name="Path 95" d="M1058.862,55.561c.114-7.853-2.5-9.218-3.813-13.827-1.318-4.64.023-7.809-1.536-12.945-1.451-4.78-4.087-5.587-4.894-12.376C1047.254,4.918,1034.849-1,1028.7-1a6.593,6.593,0,0,0-3.722.969,2.727,2.727,0,0,1-3.026,0A6.593,6.593,0,0,0,1018.234-1c-6.146,0-18.55,5.918-19.916,17.412-.807,6.789-3.443,7.6-4.894,12.376-1.559,5.136-.219,8.305-1.536,12.945-1.309,4.609-3.926,5.975-3.812,13.827.132,9.106-5.121,11.153-3.073,17.185,1.529,4.5,9.787,8.194,9.787,8.194h57.358s8.259-3.693,9.787-8.194C1063.983,66.714,1058.73,64.668,1058.862,55.561Z" transform="translate(-984.528 1)" fill="#64505a"/>
  <path id="Path_96" data-name="Path 96" d="M1023.469.427a2.738,2.738,0,0,1-1.513-.458A6.593,6.593,0,0,0,1018.234-1c-6.146,0-18.55,5.918-19.916,17.412-.807,6.789-3.443,7.6-4.894,12.376-1.559,5.136-.219,8.305-1.536,12.945-1.309,4.609-3.926,5.975-3.812,13.827.132,9.106-5.121,11.153-3.073,17.185,1.529,4.5,9.787,8.194,9.787,8.194h28.679Z" transform="translate(-984.528 1)" fill="#5a4650"/>
  <path id="Path_97" data-name="Path 97" d="M1087.418,313.48l-14.1-4.978a5.463,5.463,0,0,1-3.645-5.151v-7.06H1053.28v7.06a5.463,5.463,0,0,1-3.645,5.151l-14.1,4.978a8.194,8.194,0,0,0-5.467,7.727V327.7a4.1,4.1,0,0,0,4.1,4.1h54.627a4.1,4.1,0,0,0,4.1-4.1v-6.494A8.194,8.194,0,0,0,1087.418,313.48Z" transform="translate(-1022.534 -247.126)" fill="#b67f5f"/>
  <path id="Path_98" data-name="Path 98" d="M1087.418,383.471l-9.411-3.322c-3.7,5.12-8.745,10.765-14.613,13.894a4.089,4.089,0,0,1-3.839,0c-5.868-3.128-10.908-8.774-14.613-13.894l-9.411,3.322a8.194,8.194,0,0,0-5.467,7.727v6.494a4.1,4.1,0,0,0,4.1,4.1h54.627a4.1,4.1,0,0,0,4.1-4.1V391.2A8.194,8.194,0,0,0,1087.418,383.471Z" transform="translate(-1022.534 -317.117)" fill="#b4e6a0"/>
  <path id="Path_99" data-name="Path 99" d="M1170.451,300.005a20.084,20.084,0,0,0,16.388,0V296.29h-16.388v3.715Z" transform="translate(-1139.704 -247.126)" fill="#a06e50"/>
  <path id="Path_100" data-name="Path 100" d="M1130.4,106.035h0a17.754,17.754,0,0,1-17.754-17.754V65.065h35.507V88.281A17.754,17.754,0,0,1,1130.4,106.035Z" transform="translate(-1091.458 -54.14)" fill="#cd916e"/>
  <path id="Path_101" data-name="Path 101" d="M1112.645,65.065V88.281A17.636,17.636,0,0,0,1133.13,105.8a17.742,17.742,0,0,1-15.022-17.522v-7.1a5.977,5.977,0,0,1,.943-3.16l.009-.015c2.242-3.6,4.341-4.127,6.772-4.74a13.974,13.974,0,0,0,4.567-1.791,13.977,13.977,0,0,0,4.567,1.791c2.43.612,4.529,1.141,6.772,4.739a22.294,22.294,0,0,0,6.415,6.627V65.065Z" transform="translate(-1091.458 -54.14)" fill="#b67f5f"/>
  <path id="Path_102" data-name="Path 102" d="M1192.43,242.581a7.309,7.309,0,0,1-5.056-1.759,1.366,1.366,0,0,1,1.918-1.944,5.551,5.551,0,0,0,6.276,0,1.366,1.366,0,1,1,1.918,1.944A7.306,7.306,0,0,1,1192.43,242.581Z" transform="translate(-1153.489 -198.88)" fill="#a06e50"/>
  <g id="Group_182" data-name="Group 182" transform="translate(28.016 25.948)">
    <path id="Path_103" data-name="Path 103" d="M1163.56,184.775a1.365,1.365,0,0,1-1.366-1.366v-1.366a1.366,1.366,0,0,1,2.731,0v1.366A1.365,1.365,0,0,1,1163.56,184.775Z" transform="translate(-1160.828 -176.581)" fill="#5a4650"/>
    <path id="Path_104" data-name="Path 104" d="M1262.656,184.775a1.365,1.365,0,0,1-1.365-1.366v-1.366a1.366,1.366,0,1,1,2.731,0v1.366A1.365,1.365,0,0,1,1262.656,184.775Z" transform="translate(-1243.537 -176.581)" fill="#5a4650"/>
    <path id="Path_105" data-name="Path 105" d="M1158.033,158.634H1155.3a1.366,1.366,0,1,1,0-2.731h2.731a1.366,1.366,0,0,1,0,2.731Z" transform="translate(-1153.936 -155.903)" fill="#5a4650"/>
    <path id="Path_106" data-name="Path 106" d="M1257.129,158.634H1254.4a1.366,1.366,0,1,1,0-2.731h2.731a1.366,1.366,0,1,1,0,2.731Z" transform="translate(-1236.644 -155.903)" fill="#5a4650"/>
  </g>
  <g id="Group_183" data-name="Group 183" transform="translate(8.766 67.74)">
    <path id="Path_107" data-name="Path 107" d="M1046.3,414.67l-6.971-6.053a8.179,8.179,0,0,0-1.794,2.058l6.975,6.057a4.1,4.1,0,0,1,1.411,3.094v5.723h2.731v-5.723A6.823,6.823,0,0,0,1046.3,414.67Z" transform="translate(-1037.533 -408.617)" fill="#9bdc9b"/>
    <path id="Path_108" data-name="Path 108" d="M1337.966,414.67l6.971-6.053a8.174,8.174,0,0,1,1.794,2.058l-6.975,6.057a4.1,4.1,0,0,0-1.411,3.094v5.723h-2.731v-5.723A6.823,6.823,0,0,1,1337.966,414.67Z" transform="translate(-1286.319 -408.617)" fill="#9bdc9b"/>
  </g>
  <path id="Path_109" data-name="Path 109" d="M1251.581,41.734c-1.317-4.64.023-7.809-1.536-12.945-1.451-4.78-4.087-5.587-4.894-12.376C1243.785,4.918,1231.38-1,1225.235-1a6.594,6.594,0,0,0-3.722.969A2.737,2.737,0,0,1,1220,.427v12.23c3.528,4.438,8.763.91,13.656,8.763,4.16,6.674,9.383,6.506,11.22,11.768.527,1.508.241,3.12.367,4.712.7,8.9,7.533,13,10.6,22.282a19.826,19.826,0,0,1-.452-4.62C1255.507,47.709,1252.89,46.343,1251.581,41.734Z" transform="translate(-1181.059 1)" fill="#6e5a64"/>
  <path id="Path_110" data-name="Path 110" d="M1007.51,41.734c1.318-4.64-.023-7.809,1.536-12.945,1.451-4.78,4.087-5.587,4.893-12.376C1015.306,4.918,1027.711-1,1033.856-1a6.593,6.593,0,0,1,3.722.969,2.737,2.737,0,0,0,1.513.458v12.23c-3.528,4.438-8.763.91-13.657,8.763-4.159,6.674-9.383,6.506-11.22,11.768-.526,1.508-.241,3.12-.367,4.712-.7,8.9-7.532,13-10.6,22.282a19.826,19.826,0,0,0,.452-4.62C1003.584,47.709,1006.2,46.343,1007.51,41.734Z" transform="translate(-1000.15 1)" fill="#64505a"/>
  <path id="Path_111" data-name="Path 111" d="M1087.418,358.6l-14.1-4.978h-23.677l-14.1,4.978a8.194,8.194,0,0,0-5.467,7.727v9.225a4.1,4.1,0,0,0,4.1,4.1h54.627a4.1,4.1,0,0,0,4.1-4.1v-9.225A8.194,8.194,0,0,0,1087.418,358.6Z" transform="translate(-1022.534 -294.973)" fill="#edebed"/>
  <rect id="Rectangle_103" data-name="Rectangle 103" width="13.657" height="25.947" transform="translate(32.112 58.724)" fill="#a5cdff"/>
  <path id="Path_112" data-name="Path 112" d="M1178.71,358.887a10.9,10.9,0,0,0,13.657,0V353.1H1178.71Z" transform="translate(-1146.597 -294.539)" fill="#8cb4eb"/>
  <g id="Group_184" data-name="Group 184" transform="translate(14.359 72.38)">
    <path id="Path_113" data-name="Path 113" d="M1327.291,440.092h-2.048v-2.048a1.366,1.366,0,0,0-2.731,0v2.048h-2.048a1.366,1.366,0,1,0,0,2.731h2.048v2.048a1.366,1.366,0,0,0,2.731,0v-2.048h2.048a1.366,1.366,0,1,0,0-2.731Z" transform="translate(-1278.127 -436.678)" fill="#a5cdff"/>
    <path id="Path_114" data-name="Path 114" d="M1083.645,469.646H1072.72a1.366,1.366,0,0,1-1.366-1.366v-5.463a1.366,1.366,0,0,1,1.366-1.366h10.925a1.365,1.365,0,0,1,1.365,1.366v5.463A1.365,1.365,0,0,1,1083.645,469.646Z" transform="translate(-1071.354 -457.355)" fill="#a5cdff"/>
  </g>
  <path id="Path_115" data-name="Path 115" d="M1105.752,443.506a1.365,1.365,0,0,1-1.365-1.366v-4.1a1.366,1.366,0,1,1,2.731,0v4.1A1.365,1.365,0,0,1,1105.752,443.506Z" transform="translate(-1084.565 -364.298)" fill="#fff"/>
  <g id="Group_185" data-name="Group 185" transform="translate(23.589 53.493)">
    <path id="Path_116" data-name="Path 116" d="M1234.242,325.321l-6.048-2.853L1220,353.646h6.828l7.553-16.366a2.731,2.731,0,0,0-.208-2.66l-1.883-2.825,2.674-3.564A1.935,1.935,0,0,0,1234.242,325.321Z" transform="translate(-1204.648 -322.468)" fill="#dbd9dc"/>
    <path id="Path_117" data-name="Path 117" d="M1128.279,325.321l6.048-2.853,8.194,31.178h-6.828l-7.553-16.366a2.732,2.732,0,0,1,.207-2.66l1.884-2.825-2.674-3.564A1.935,1.935,0,0,1,1128.279,325.321Z" transform="translate(-1127.169 -322.468)" fill="#dbd9dc"/>
  </g>
  <path id="Path_118" data-name="Path 118" d="M1083.645,487.592H1072.72a1.366,1.366,0,0,1-1.366-1.366v2.731a1.366,1.366,0,0,0,1.366,1.366h10.925a1.365,1.365,0,0,0,1.365-1.366v-2.731A1.365,1.365,0,0,1,1083.645,487.592Z" transform="translate(-1056.995 -405.652)" fill="#8cb4eb"/>
</svg>
