<svg xmlns="http://www.w3.org/2000/svg" width="34.112" height="34.112" viewBox="0 0 34.112 34.112"><defs><style>.a{fill:#fff;}</style></defs><g transform="translate(0)"><path class="a" d="M-59.849,832.521a1.662,1.662,0,0,0-1.016-.372,1.551,1.551,0,0,0-.983.383,2.923,2.923,0,0,0-.933,1.584,5.627,5.627,0,0,0,.579,3.766A8.6,8.6,0,0,0-59.608,841c.089.064.2.144.324.215a5.321,5.321,0,0,0,1.017-.492c2.066-1.288,3.839-4.066,3.055-6.676-.268-.89-.685-1.419-1.241-1.571-.71-.195-1.224.44-1.636.95l-.073.091c-.069.084-.136.171-.2.26.116.25.218.507.318.757l.038.1c.029.073.06.145.09.218a3.484,3.484,0,0,1,.257.77,1.344,1.344,0,0,1-.218,1,.777.777,0,0,1-.568.3,1.08,1.08,0,0,1-1.1-1.046,3.219,3.219,0,0,1,.614-1.99l.093-.142A3.612,3.612,0,0,0-59.849,832.521Z" transform="translate(75.606 -820.541)"/><path class="a" d="M-117.05,797.272l.3-.1a6.863,6.863,0,0,1,3.933-.4,5.565,5.565,0,0,1,2.775,2.026l.077.086a5.678,5.678,0,0,0,1.4,1.211,6.374,6.374,0,0,0,1.9.705,5.447,5.447,0,0,0,2.393-.036,6.98,6.98,0,0,1-.719-.6,9.109,9.109,0,0,1-2.43-3.638,5.232,5.232,0,0,1,.058-3.9,2.774,2.774,0,0,1,1.365-1.367,1.871,1.871,0,0,1,1.849.266,3.867,3.867,0,0,1,1.108,1.229,4.611,4.611,0,0,1,1.057-1.085,1.486,1.486,0,0,1,1.733.079,3.024,3.024,0,0,1,1.031,1.78c.625,2.512-.869,5.539-3.476,7.04a5.566,5.566,0,0,1-.5.257,1.391,1.391,0,0,0,.144.021c.337.032.685.044,1.021.055h.027a8.1,8.1,0,0,0,2.346-.2,7.8,7.8,0,0,0,3.014-1.755c.288-.247.573-.507.85-.758.534-.484,1.086-.985,1.681-1.426a6.934,6.934,0,0,1,3.316-1.381,14.23,14.23,0,0,1,4.386.316l.078.014.345.064-.026-4.665a.464.464,0,0,0-.465-.46l-10.322.057-.056-10.322a.464.464,0,0,0-.465-.46l-11.555.063a.463.463,0,0,0-.46.465l.057,10.322-10.322.057a.464.464,0,0,0-.46.465l.037,6.779A13.749,13.749,0,0,0-117.05,797.272Z" transform="translate(120.075 -779.925)"/><path class="a" d="M-45.707,843.511a.487.487,0,0,0,.465.057.573.573,0,0,0,.306-.433,1.734,1.734,0,0,0-.206-.955l-.05-.12c-.04-.1-.08-.2-.119-.3-.065-.164-.13-.328-.2-.49a3.143,3.143,0,0,0-.481,1.206C-46.068,843.008-45.976,843.346-45.707,843.511Z" transform="translate(62.478 -827.636)"/><path class="a" d="M-89.8,850.982a6.808,6.808,0,0,0-4.16,1.527c-.5.387-.97.817-1.428,1.233-.481.437-.978.889-1.507,1.295a6.884,6.884,0,0,1-3.7,1.5c-.318.026-.639.04-.956.042a11.432,11.432,0,0,1-1.5-.088,2.042,2.042,0,0,1-.612-.186,5.928,5.928,0,0,1-3.076.12,6.707,6.707,0,0,1-1.991-.778,6.594,6.594,0,0,1-1.535-1.38l-.108-.123a6.582,6.582,0,0,0-1.37-1.29,4.067,4.067,0,0,0-2.308-.558,9.734,9.734,0,0,0-2.975.717,16,16,0,0,1-1.839.573,8.038,8.038,0,0,1-1.033.163l.024,4.36a.464.464,0,0,0,.465.46l10.322-.057.057,10.322a.463.463,0,0,0,.465.46l11.555-.063a.464.464,0,0,0,.46-.465l-.057-10.322,10.322-.056a.464.464,0,0,0,.46-.465l-.036-6.5A17.6,17.6,0,0,0-89.8,850.982Z" transform="translate(119.937 -835.186)"/></g></svg>