<svg  xmlns="http://www.w3.org/2000/svg" viewBox="0 0 163.9 163.9">
    <style>.st7{fill:#037098}</style>
    <path class="st7"
          d="M75.8 57.5c-1.6-1.2-3.2-1.8-4.9-1.8-1.6 0-3.3.6-4.7 1.8-2.8 2.2-4 5.4-4.5 7.6-1.3 5.5-.4 11.9 2.7 18.1 3 6.1 7.4 11.5 12.4 15.1.4.3 1 .7 1.6 1 1.7-.6 3.4-1.4 4.9-2.3 10-6.1 18.6-19.5 14.9-32.1-1.3-4.3-3.3-6.8-5.9-7.6-3.4-1-5.9 2.1-7.9 4.5l-.4.4c-.3.4-.7.8-1 1.2.6 1.2 1 2.4 1.5 3.7l.2.5c.1.4.3.7.4 1.1.5 1.2 1 2.4 1.2 3.7.2 1.3.1 3.4-1.1 4.8-.7.9-1.6 1.4-2.7 1.4-3 .2-5.1-2.4-5.3-5.1-.2-2.9.8-6.2 3-9.6.1-.2.3-.5.5-.7-1.4-2.3-2.9-4.2-4.9-5.7z"/>
    <path class="st7"
          d="M14.4 83l1.4-.5c7.6-2.6 13.6-3.2 18.9-1.8 6 1.5 9.7 5.7 13.3 9.8l.4.4c1.9 2.1 4 4.3 6.7 5.9 2.8 1.6 5.9 2.8 9.1 3.4 3.9.8 7.8.8 11.5-.1-1.2-.9-2.4-1.9-3.4-2.9-5.5-5.2-9.5-11.3-11.6-17.6-1.3-4-3.1-11.8.4-18.8 1.5-3.1 3.9-5.4 6.6-6.5 2.9-1.2 6-.7 8.9 1.3 2.1 1.5 3.9 3.5 5.3 5.9 1.7-2.3 3.4-4 5.1-5.2 2.5-1.7 5.7-1.5 8.3.4 2.3 1.7 3.9 4.6 4.9 8.6 3 12.2-4.2 26.7-16.8 33.9-.8.4-1.6.9-2.4 1.2.2 0 .5.1.7.1 1.6.2 3.3.2 4.9.3h.1c4.7.2 8.1-.1 11.3-.9 5.9-1.5 10.9-5.3 14.6-8.4 1.4-1.2 2.8-2.4 4.1-3.6 2.6-2.3 5.3-4.7 8.1-6.8 5.1-3.7 10.3-5.9 16-6.6 7-.9 14 .3 21.1 1.6l.4.1c.6.1 1.1.2 1.7.3V54.1c0-1.2-1-2.2-2.2-2.2H112V2.2c0-1.2-1-2.2-2.2-2.2H54.1c-1.2 0-2.2 1-2.2 2.2v49.7H2.2c-1.2 0-2.2 1-2.2 2.2v32.6c4.9-.5 9.6-2.1 14.4-3.7z"/>
    <path class="st7"
          d="M80.6 76.3c.8.5 1.6.6 2.2.3.7-.3 1.3-1.1 1.5-2.1.3-1.5-.3-3.1-1-4.6l-.2-.6c-.2-.5-.4-1-.6-1.4l-.9-2.4c-1.3 2-2.1 3.9-2.3 5.8-.4 2.5 0 4.2 1.3 5zm64.4-.1c-7.3.1-13.9 2.5-20.1 7.2-2.4 1.9-4.7 3.9-6.9 5.9-2.3 2.1-4.7 4.3-7.3 6.2-5.7 4.3-11.5 6.7-17.9 7.1-1.5.1-3.1.2-4.6.2-2.5 0-4.9-.2-7.2-.5-1-.1-1.9-.4-2.9-.9-4.7 1.5-9.8 1.6-14.8.5-3.5-.8-6.7-2.1-9.6-3.8-3-1.8-5.3-4.3-7.3-6.7l-.5-.6c-2-2.3-4-4.6-6.6-6.2-3-1.9-6.8-2.9-11.1-2.7-5 .1-9.8 1.8-14.3 3.4-2.9 1-5.9 2-8.9 2.7-1.7.4-3.4.6-5 .8v21c0 1.2 1 2.2 2.2 2.2h49.7v49.7c0 1.2 1 2.2 2.2 2.2h55.6c1.2 0 2.2-1 2.2-2.2V112h49.7c1.2 0 2.2-1 2.2-2.2V78.5c-6.3-1.4-12.6-2.4-18.8-2.3z"/>
</svg>
