<svg xmlns="http://www.w3.org/2000/svg" width="212.279" height="34.112" viewBox="0 0 212.279 34.112"><g transform="translate(120.075 -779.925)"><g transform="translate(-71.754 788.794)"><path d="M108.372,837.516h-2v-6.37H99.3v6.37H97.329V822.885H99.3v6.456h7.072v-6.456h2Z" transform="translate(-97.329 -822.206)" fill="#fff"/><path d="M156.46,848.28a5.192,5.192,0,0,1,10.384,0,5.192,5.192,0,1,1-10.384,0Zm8.452,0a3.27,3.27,0,0,0-6.54,0,3.271,3.271,0,1,0,6.54,0Z" transform="translate(-143.317 -837.96)" fill="#fff"/><path d="M208.938,845.668c.149-1.444,1.677-2.527,3.44-2.527,1.678,0,3.27.786,3.44,2.8H213.97a1.422,1.422,0,0,0-1.55-1.126,1.466,1.466,0,0,0-1.487.892,1.1,1.1,0,0,0,.021.786,1.742,1.742,0,0,0,1.168.765l1.465.361c2.06.51,2.57,1.763,2.57,2.888,0,1.847-1.784,2.973-3.844,2.973a3.474,3.474,0,0,1-3.695-3.185h1.763a1.534,1.534,0,0,0,.807,1.125,2.618,2.618,0,0,0,1.571.34c.892-.064,1.487-.573,1.508-1.3s-.595-1.083-1.317-1.253l-1.359-.319C209.787,848.407,208.768,847.494,208.938,845.668Z" transform="translate(-183.883 -837.96)" fill="#fff"/><path d="M252.869,844.9a4.027,4.027,0,0,1,3.462-1.762,4.941,4.941,0,0,1,4.969,5.2,4.887,4.887,0,0,1-4.969,5.139,3.928,3.928,0,0,1-3.462-1.7v6.307h-1.932V843.353h1.932Zm3.27,6.689a3.094,3.094,0,0,0,3.207-3.228,3.23,3.23,0,1,0-6.456,0A3.146,3.146,0,0,0,256.14,851.593Z" transform="translate(-216.795 -837.96)" fill="#fff"/><path d="M305.866,822.025a1.256,1.256,0,1,1-1.338,1.253A1.276,1.276,0,0,1,305.866,822.025Zm.956,4.906H304.91v9.917h1.911Z" transform="translate(-258.475 -821.537)" fill="#fff"/><path d="M327.636,831.019v1.635h-2.1v8.282H323.6v-8.282h-1.784v-1.635H323.6v-3.738h1.933v3.738Z" transform="translate(-271.921 -825.625)" fill="#fff"/><path d="M359.851,851.741a4.048,4.048,0,0,1-3.483,1.742,5.173,5.173,0,0,1,0-10.342,4.015,4.015,0,0,1,3.483,1.7v-1.486h1.911v9.917h-1.911Zm-3.313-6.71a3.128,3.128,0,0,0-3.227,3.249,3.26,3.26,0,1,0,3.227-3.249Z" transform="translate(-294.879 -837.96)" fill="#fff"/><path d="M411.827,819.829V835.14h-1.932V819.829Z" transform="translate(-340.423 -819.829)" fill="#fff"/><path d="M462.588,834.608a7.147,7.147,0,0,1-5.543,2.527,7.507,7.507,0,0,1,0-15.013,7.124,7.124,0,0,1,5.5,2.484l-1.487,1.232a5.517,5.517,0,1,0-4.014,9.386,5.293,5.293,0,0,0,4.056-1.869Z" transform="translate(-371.329 -821.612)" fill="#fff"/><path d="M511.631,848.28a5.192,5.192,0,0,1,10.384,0,5.192,5.192,0,1,1-10.384,0Zm8.452,0a3.27,3.27,0,0,0-6.541,0,3.271,3.271,0,1,0,6.541,0Z" transform="translate(-419.547 -837.96)" fill="#fff"/><path d="M575.808,847.919v5.351h-1.932v-5.628c0-1.635-.849-2.612-2.145-2.612a2.626,2.626,0,0,0-2.761,2.888v5.351h-1.932v-9.917h1.932v1.486a3.485,3.485,0,0,1,2.739-1.656,4.508,4.508,0,0,1,1.083.064,3.16,3.16,0,0,1,2.591,1.932,3.66,3.66,0,0,1,3.44-2.038c2.484,0,3.822,1.614,3.822,4.4v5.734h-1.932v-5.606c0-1.635-.85-2.633-2.272-2.633A2.615,2.615,0,0,0,575.808,847.919Z" transform="translate(-462.639 -837.96)" fill="#fff"/><path d="M650.264,844.9a4.027,4.027,0,0,1,3.462-1.762,4.942,4.942,0,0,1,4.969,5.2,4.888,4.888,0,0,1-4.969,5.139,3.928,3.928,0,0,1-3.462-1.7v6.307h-1.932V843.353h1.932Zm3.27,6.689a3.094,3.094,0,0,0,3.207-3.228,3.23,3.23,0,1,0-6.456,0A3.146,3.146,0,0,0,653.534,851.593Z" transform="translate(-525.864 -837.96)" fill="#fff"/><path d="M709.2,851.741a4.048,4.048,0,0,1-3.483,1.742,5.173,5.173,0,0,1,0-10.342,4.015,4.015,0,0,1,3.483,1.7v-1.486h1.911v9.917H709.2Zm-3.313-6.71a3.128,3.128,0,0,0-3.227,3.249,3.26,3.26,0,1,0,3.227-3.249Z" transform="translate(-566.577 -837.96)" fill="#fff"/><path d="M761.172,853.27H759.24v-9.917h1.932v2.23c.51-1.741,1.465-2.442,2.761-2.442a3.673,3.673,0,0,1,1.72.382l-.3,1.805a3.448,3.448,0,0,0-1.465-.34c-1.911,0-2.718,2.039-2.718,4.672Z" transform="translate(-612.121 -837.96)" fill="#fff"/><path d="M799.98,849.044h-8.048a3.075,3.075,0,0,0,3.207,2.7,3.21,3.21,0,0,0,2.845-1.529c.51.213,1.126.424,1.656.637a5.158,5.158,0,1,1-4.566-7.708A4.8,4.8,0,0,1,800,848.28C800,848.513,800,848.832,799.98,849.044Zm-1.89-1.507a2.914,2.914,0,0,0-3.015-2.655,3.007,3.007,0,0,0-3.143,2.655Z" transform="translate(-636.044 -837.96)" fill="#fff"/></g><g transform="translate(-120.075 779.925)"><path d="M-59.849,832.521a1.662,1.662,0,0,0-1.016-.372,1.551,1.551,0,0,0-.983.383,2.923,2.923,0,0,0-.933,1.584,5.627,5.627,0,0,0,.579,3.766A8.6,8.6,0,0,0-59.608,841c.089.064.2.144.324.215a5.321,5.321,0,0,0,1.017-.492c2.066-1.288,3.839-4.066,3.055-6.676-.268-.89-.685-1.419-1.241-1.571-.71-.195-1.224.44-1.636.95l-.073.091c-.069.084-.136.171-.2.26.116.25.218.507.318.757l.038.1c.029.073.06.145.09.218a3.484,3.484,0,0,1,.257.77,1.344,1.344,0,0,1-.218,1,.777.777,0,0,1-.568.3,1.08,1.08,0,0,1-1.1-1.046,3.219,3.219,0,0,1,.614-1.99l.093-.142A3.612,3.612,0,0,0-59.849,832.521Z" transform="translate(75.606 -820.541)" fill="#fff"/><path d="M-117.05,797.272l.3-.1a6.863,6.863,0,0,1,3.933-.4,5.565,5.565,0,0,1,2.775,2.026l.077.086a5.678,5.678,0,0,0,1.4,1.211,6.374,6.374,0,0,0,1.9.705,5.447,5.447,0,0,0,2.393-.036,6.98,6.98,0,0,1-.719-.6,9.109,9.109,0,0,1-2.43-3.638,5.232,5.232,0,0,1,.058-3.9,2.774,2.774,0,0,1,1.365-1.367,1.871,1.871,0,0,1,1.849.266,3.867,3.867,0,0,1,1.108,1.229,4.611,4.611,0,0,1,1.057-1.085,1.486,1.486,0,0,1,1.733.079,3.024,3.024,0,0,1,1.031,1.78c.625,2.512-.869,5.539-3.476,7.04a5.566,5.566,0,0,1-.5.257,1.391,1.391,0,0,0,.144.021c.337.032.685.044,1.021.055h.027a8.1,8.1,0,0,0,2.346-.2,7.8,7.8,0,0,0,3.014-1.755c.288-.247.573-.507.85-.758.534-.484,1.086-.985,1.681-1.426a6.934,6.934,0,0,1,3.316-1.381,14.23,14.23,0,0,1,4.386.316l.078.014.345.064-.026-4.665a.464.464,0,0,0-.465-.46l-10.322.057-.056-10.322a.464.464,0,0,0-.465-.46l-11.555.063a.463.463,0,0,0-.46.465l.057,10.322-10.322.057a.464.464,0,0,0-.46.465l.037,6.779A13.749,13.749,0,0,0-117.05,797.272Z" transform="translate(120.075 -779.925)" fill="#fff"/><path d="M-45.707,843.511a.487.487,0,0,0,.465.057.573.573,0,0,0,.306-.433,1.734,1.734,0,0,0-.206-.955l-.05-.12c-.04-.1-.08-.2-.119-.3-.065-.164-.13-.328-.2-.49a3.143,3.143,0,0,0-.481,1.206C-46.068,843.008-45.976,843.346-45.707,843.511Z" transform="translate(62.478 -827.636)" fill="#fff"/><path d="M-89.8,850.982a6.808,6.808,0,0,0-4.16,1.527c-.5.387-.97.817-1.428,1.233-.481.437-.978.889-1.507,1.295a6.884,6.884,0,0,1-3.7,1.5c-.318.026-.639.04-.956.042a11.432,11.432,0,0,1-1.5-.088,2.042,2.042,0,0,1-.612-.186,5.928,5.928,0,0,1-3.076.12,6.707,6.707,0,0,1-1.991-.778,6.594,6.594,0,0,1-1.535-1.38l-.108-.123a6.582,6.582,0,0,0-1.37-1.29,4.067,4.067,0,0,0-2.308-.558,9.734,9.734,0,0,0-2.975.717,16,16,0,0,1-1.839.573,8.038,8.038,0,0,1-1.033.163l.024,4.36a.464.464,0,0,0,.465.46l10.322-.057.057,10.322a.463.463,0,0,0,.465.46l11.555-.063a.464.464,0,0,0,.46-.465l-.057-10.322,10.322-.056a.464.464,0,0,0,.46-.465l-.036-6.5A17.6,17.6,0,0,0-89.8,850.982Z" transform="translate(119.937 -835.186)" fill="#fff"/></g></g></svg>
