<?xml version="1.0" encoding="utf-8"?>
<!-- Generator: Adobe Illustrator 23.0.2, SVG Export Plug-In . SVG Version: 6.00 Build 0)  -->
<svg version="1.1" id="Layer_1" xmlns="http://www.w3.org/2000/svg" xmlns:xlink="http://www.w3.org/1999/xlink" x="0px" y="0px"
	 viewBox="0 0 56.6 55.7" style="enable-background:new 0 0 56.6 55.7;" xml:space="preserve">
<style type="text/css">
	.st0{fill:#FFFFFF;}
</style>
<g>
	<rect x="4" class="st0" width="47.6" height="8"/>
	<g>
		<path class="st0" d="M51.6,8l5,0L11.3,53.7c-1.3,1.3-3,2-4.7,2c-0.8,0-1.6-0.1-2.3-0.4c-2.5-0.8-4.2-3.1-4.2-5.7L0,8h4"/>
	</g>
	<g>
		<path d="M6.6,55.7c-0.8,0-1.6-0.1-2.3-0.4c-2.5-0.8-4.2-3.1-4.2-5.7L0,8h4v41.5c0,0.9,0.6,1.7,1.5,2c0.4,0.1,0.7,0.2,1,0.2
			c0.7,0,1.4-0.3,1.9-0.8L51.6,8l5,0L11.3,53.7C10,55,8.3,55.7,6.6,55.7z"/>
	</g>
</g>
</svg>
