<?xml version="1.0" encoding="utf-8"?>
<!-- Generator: Adobe Illustrator 23.1.0, SVG Export Plug-In . SVG Version: 6.00 Build 0)  -->
<svg version="1.1"  xmlns="http://www.w3.org/2000/svg" xmlns:xlink="http://www.w3.org/1999/xlink" x="0px" y="0px"
	 viewBox="0 0 56.6 55.7" style="enable-background:new 0 0 56.6 55.7;" xml:space="preserve">
<style type="text/css">
	.st0{fill:#FFFFFF;}
</style>
<g>
	<g>
		<path class="st0" d="M51.6,0v8L8.4,50.9c-0.5,0.5-1.2,0.8-1.9,0.8c-0.3,0-0.6-0.1-1-0.2c-0.9-0.3-1.5-1.1-1.5-2V0H51.6z"/>
		<path class="st0" d="M56.6,8L11.3,53.7c-1.3,1.3-3,2-4.7,2c-0.8,0-1.6-0.1-2.3-0.4c-2.5-0.8-4.2-3.1-4.2-5.7L0,8h4v41.5
			c0,0.9,0.6,1.7,1.5,2c0.4,0.1,0.7,0.2,1,0.2c0.7,0,1.4-0.3,1.9-0.8L51.6,8H56.6z"/>
	</g>
	<g>
		<path d="M56.6,8L11.3,53.7c-1.3,1.3-3,2-4.7,2c-0.8,0-1.6-0.1-2.3-0.4c-2.5-0.8-4.2-3.1-4.2-5.7L0,8h4v41.5c0,0.9,0.6,1.7,1.5,2
			c0.4,0.1,0.7,0.2,1,0.2c0.7,0,1.4-0.3,1.9-0.8L51.6,8H56.6z"/>
	</g>
</g>
</svg>
