<svg xmlns="http://www.w3.org/2000/svg" width="30" height="28" viewBox="0 0 30 28">
    <g>
        <g>
            <path fill="#fff" d="M2.341 14.636c-.051 0-.103 0-.205.054a2.435 2.435 0 0 1-.566-.215c.155-.107.412-.053.771.161zM28.4.21c-1.336-.75-2.827.697-3.7 1.555-2.005 2.038-3.701 4.398-5.603 6.544-2.107 2.36-4.06 4.72-6.22 7.026-1.233 1.287-2.569 2.681-3.391 4.29-1.85-1.877-3.444-3.915-5.5-5.578-1.49-1.18-3.958-2.038-3.906.805.103 3.7 3.238 7.67 5.55 10.19.977 1.073 2.262 2.199 3.753 2.253 1.799.107 3.65-2.146 4.728-3.38 1.902-2.145 3.444-4.558 5.192-6.757 2.261-2.896 4.574-5.739 6.784-8.688 1.388-1.824 5.757-6.33 2.313-8.26z"/>
        </g>
    </g>
</svg>
