<svg xmlns="http://www.w3.org/2000/svg" viewBox="0 0 500 500">
    <defs>
        <clipPath id="a">
            <path fill="none" d="M500.05 0H.04v500h500.01V0"/>
        </clipPath>
    </defs>
    <g style="isolation:isolate">
        <path fill="#e5f0f4" d="M500.05 0H.04v500h500.01V0"/>
        <g clip-path="url(#a)">
            <path d="M854.33 327c-55 0-111.65-8.84-164.16-31.87-24.26-10.61-45.87-19.82-66.07-28.13-39.74-16.36-84.79-34.9-130.17-45.25-16.58-3.78-31-5.66-44-5.78h-.7c-34.16 0-62.15 20.94-82.76 39.23l-5.22 4.66c-14.61 13.09-28.42 25.45-47 33.24-20.64 8.63-48.83 12.64-73.18 2.15a84.74 84.74 0 01-29.87 4.53c-18.9-.49-37-7.49-53.82-20.82-7-5.55-13.14-12.05-19.06-18.34-8.62-9.15-16.77-17.79-27.5-23.94C87.6 223.4 60.75 228 33 234.33c-19.54 4.46-39.32 9.8-58.45 15-40 10.79-81.34 22-123.41 25.92-75 7-145.83-18.68-214.34-43.58-83.91-30.49-163.14-59.29-250.21-33.75-20.84 6.12-41.59 13.19-61.66 20-55.25 18.84-112.39 38.32-174.37 38.32h-.15c-37.14 0-74.19-10.65-102.33-19.91-21.77-7.16-43.35-15.85-64.22-24.25-38.46-15.49-78.24-31.5-120.25-38.3-67.75-11-131 20.13-192.18 50.22-23.19 11.41-47.17 23.21-70.63 32.21-87.72 33.65-178.56 37.23-262.7 10.36a398.78 398.78 0 01-95.63-45.18c-24.74-16.06-44.9-30.26-62.86-47.39l3.52-3.7c17.68 16.85 37.62 30.9 62.13 46.8a393.48 393.48 0 0094.4 44.6c83 26.52 172.69 23 259.31-10.27 23.25-8.92 46-20.14 70.2-32 61.87-30.44 125.84-62 195.26-50.68 42.58 6.89 82.62 23 121.34 38.61 20.79 8.37 42.29 17 63.91 24.14 27.77 9.14 64.32 19.63 100.73 19.65h.16c61.12 0 115.32-18.48 172.72-38.05 20.11-6.86 40.91-13.95 61.87-20.1 88.64-26 172.4 4.43 253.38 33.86 68 24.7 138.26 50.28 212.13 43.28 41.63-3.91 82.77-15 122.55-25.76 19.18-5.17 39-10.52 58.64-15 28.79-6.58 56.69-11.3 81.47 2.89 11.4 6.52 20.19 15.85 28.69 24.87 5.8 6.16 11.8 12.52 18.51 17.84 15.93 12.62 33 19.25 50.78 19.71a79.14 79.14 0 0023-2.74 68.33 68.33 0 01-9.13-6.16c-14.24-11.35-23.45-28.9-31-44.46-9.91-20.55-13.36-39.27-10.83-58.89s13.65-40.57 32.84-43.38c11.52-1.66 22.61 5.45 33.8 21.84.95 1.38 1.91 2.92 2.88 4.56 7.32-9.36 19-19.22 30.35-19.31h.12c15.82 0 24.08 24.73 24.43 25.78.54 1.57 13.16 39.67-13.76 79.66-14.62 21.73-30.72 34.14-46 40.91 21.71 7.38 46 3.5 64.15-4.1 17.81-7.45 31.3-19.53 45.58-32.33l5.23-4.68c21.29-18.88 50.29-40.51 86.15-40.51h.88c13.42.12 28.17 2.05 45.12 5.91 45.8 10.44 91.05 29.07 131 45.51 20.24 8.32 41.89 17.55 66.19 28.22 177.88 78 413.21-12.75 446.71-48.7l3.74 3.48c-25.18 26.91-151.52 81.7-288.43 81.7zM219.48 143.91a17.38 17.38 0 00-2.49.18c-16.54 2.42-26.23 21.31-28.51 39-2.42 18.85.77 36.13 10.37 56 7.26 15.06 16.14 32 29.54 42.7a63.73 63.73 0 0012.84 8c15.87-5.87 33.06-17.92 48.6-41 25.45-37.81 13.28-74.82 13.15-75.19-2-6.23-9.52-22.29-19.59-22.29h-.07c-9.78.08-21.09 9.77-27.72 19 6.41 12.24 12 28.23 10.23 37.72-2 10.54-10 12.81-14.06 12.43-2.72.35-9.67-1.28-12.75-9.52-3.49-9.3 2.42-23.16 7.17-34.3l.36-.85a40.56 40.56 0 013.13-5.73 84.816 84.816 0 00-3.85-6.23c-9.09-13.4-17.74-19.92-26.35-19.92zm33 31.33q-.69 1.29-1.2 2.49l-.36.84c-4.17 9.76-9.87 23.12-7.1 30.5 2.5 6.68 7.86 6.24 7.94 6.23 1.15.09 7.45.16 9.07-8.3 1.35-7.19-2.72-20.31-8.37-31.76z" fill="#ececec"/>
        </g>
    </g>
</svg>