<?xml version="1.0" encoding="utf-8"?><svg xmlns="http://www.w3.org/2000/svg" viewBox="0 0 12.22 53.12"><defs><style>.cls-1{fill:#037098;}</style></defs><title>Artboard 55</title><g id="Layer_2" data-name="Layer 2"><path class="cls-1" d="M1.5,52.09H1v-.47H.48v.47H0v.53H.48v.46s0,0,0,0H1s0,0,0,0v-.46h.48V52.1Z"/><path class="cls-1" d="M5.07,52.09H4.6v-.47H4.05v.47H3.57v.53h.48v.46s0,0,0,0h.53s0,0,0,0v-.46h.48V52.1Z"/><path class="cls-1" d="M8.64,52.09H8.18v-.47H7.62v.47H7.14v.53h.48v.48h.53l0,0v-.46h.47V52.1Z"/><path class="cls-1" d="M12.21,52.09h-.46v-.47h-.56v.47h-.48v.53h.48v.46l0,0h.52l0,0v-.46h.47V52.1Z"/><path class="cls-1" d="M1.5,48.65H1v-.47H.48v.47H0v.53H.48v.46s0,0,0,0H1s0,0,0,0V49.2h.48v-.53Z"/><path class="cls-1" d="M5.07,48.65H4.6v-.47H4.05v.47H3.57v.53h.48v.46s0,0,0,0h.53s0,0,0,0V49.2h.48v-.53Z"/><path class="cls-1" d="M8.64,48.65H8.18v-.47H7.62v.47H7.14v.53h.48v.46a0,0,0,0,0,0,0h.53a0,0,0,0,0,0,0V49.2h.46a0,0,0,0,0,0,0v-.53Z"/><path class="cls-1" d="M12.21,48.65h-.46v-.47h-.56v.47h-.48v.53h.48v.46a0,0,0,0,0,0,0h.52a0,0,0,0,0,0,0V49.2h.46a0,0,0,0,0,0,0v-.53Z"/><path class="cls-1" d="M1.5,45.2H1v-.46s0,0,0,0H.49s0,0,0,0v.46H0v.55H.48v.46s0,0,0,0H1s0,0,0,0v-.46h.48V45.2Z"/><path class="cls-1" d="M5.07,45.2H4.6v-.46s0,0,0,0H4.06s0,0,0,0v.46H3.59l0,0v.53h.48v.46s0,0,0,0h.53s0,0,0,0v-.46h.48V45.2Z"/><path class="cls-1" d="M8.64,45.2H8.18v-.46s0,0,0,0H7.63a0,0,0,0,0,0,0v.46H7.16l0,0v.53h.48v.48h.53l0,0v-.46h.47v-.53S8.65,45.2,8.64,45.2Z"/><path class="cls-1" d="M12.21,45.2h-.46v-.46s0,0,0,0h-.52s0,0,0,0v.46h-.46l0,0v.53h.48v.46a0,0,0,0,0,0,0h.52l0,0v-.46h.47v-.53S12.22,45.2,12.21,45.2Z"/><path class="cls-1" d="M1.5,41.76H1V41.3H.48v.46H0v.55H.48v.46s0,0,0,0H1s0,0,0,0v-.46h.48v-.55Z"/><path class="cls-1" d="M5.07,41.76H4.6V41.3H4.05v.46H3.59l0,0v.53h.48v.46s0,0,0,0h.53s0,0,0,0v-.46h.48v-.55Z"/><path class="cls-1" d="M8.64,41.76H8.18V41.3H7.62v.46H7.16l0,0v.53h.48v.48h.53l0,0v-.46h.47v-.53S8.65,41.76,8.64,41.76Z"/><path class="cls-1" d="M12.21,41.76h-.46V41.3h-.56v.46h-.46l0,0v.53h.48v.46l0,0h.52l0,0v-.46h.47v-.53S12.22,41.76,12.21,41.76Z"/><path class="cls-1" d="M1.5,38.32H1v-.46H.48v.46H0a0,0,0,0,0,0,0v.54H.48v.46s0,0,0,0H1s0,0,0,0v-.46H1.5v-.54A0,0,0,0,0,1.5,38.32Z"/><path class="cls-1" d="M5.07,38.32H4.6v-.46H4.05v.46H3.59a0,0,0,0,0,0,0v.52l0,0h.46v.46s0,0,0,0h.53s0,0,0,0v-.46h.47v-.54A0,0,0,0,0,5.07,38.32Z"/><path class="cls-1" d="M8.64,38.32H8.18v-.46H7.62v.46H7.16a0,0,0,0,0,0,0v.52l0,0h.46v.48h.53l0,0v-.46h.46s0,0,0,0v-.52S8.65,38.32,8.64,38.32Z"/><path class="cls-1" d="M12.21,38.32h-.46v-.46h-.56v.46h-.46a0,0,0,0,0,0,0v.52l0,0h.46v.46l0,0h.52l0,0v-.46h.46s0,0,0,0v-.52S12.22,38.32,12.21,38.32Z"/><path class="cls-1" d="M1.5,34.88H1v-.46s0,0,0,0H.49s0,0,0,0v.46H0v.56H.48v.46s0,0,0,0H1s0,0,0,0v-.46H1.5v-.56Z"/><path class="cls-1" d="M5.07,34.88H4.6v-.46s0,0,0,0H4.06s0,0,0,0v.46H3.59l0,0v.52l0,0h.46v.46s0,0,0,0h.53s0,0,0,0v-.46h.47v-.56Z"/><path class="cls-1" d="M8.64,34.88H8.18v-.46s0,0,0,0H7.63a0,0,0,0,0,0,0v.46H7.16l0,0v.52l0,0h.46v.48h.53a0,0,0,0,0,0,0v-.46h.46s0,0,0,0V34.9S8.65,34.88,8.64,34.88Z"/><path class="cls-1" d="M12.21,34.88h-.46v-.46s0,0,0,0h-.52s0,0,0,0v.46h-.46l0,0v.52l0,0h.46v.46a0,0,0,0,0,0,0h.52a0,0,0,0,0,0,0v-.46h.46s0,0,0,0V34.9S12.22,34.88,12.21,34.88Z"/><path class="cls-1" d="M1.5,31.44H1V31s0,0,0,0H.49s0,0,0,0v.46H0a0,0,0,0,0,0,0V32H.48v.46s0,0,0,0H1s0,0,0,0V32H1.5v-.54A0,0,0,0,0,1.5,31.44Z"/><path class="cls-1" d="M5.07,31.44H4.6V31s0,0,0,0H4.06s0,0,0,0v.46H3.59a0,0,0,0,0,0,0V32l0,0h.46v.46s0,0,0,0h.53s0,0,0,0V32h.47v-.54A0,0,0,0,0,5.07,31.44Z"/><path class="cls-1" d="M8.64,31.44H8.18V31s0,0,0,0H7.63a0,0,0,0,0,0,0v.46H7.16a0,0,0,0,0,0,0V32l0,0h.46v.48h.53l0,0V32h.46s0,0,0,0v-.52S8.65,31.44,8.64,31.44Z"/><path class="cls-1" d="M12.21,31.44h-.46V31s0,0,0,0h-.52s0,0,0,0v.46h-.46a0,0,0,0,0,0,0V32l0,0h.46v.46l0,0h.52l0,0V32h.46s0,0,0,0v-.52S12.22,31.44,12.21,31.44Z"/><path class="cls-1" d="M1.5,28H1v-.46s0,0,0,0H.49s0,0,0,0V28H0v.54a0,0,0,0,0,0,0H.48V29s0,0,0,0H1s0,0,0,0v-.46H1.5a0,0,0,0,0,0,0V28Z"/><path class="cls-1" d="M5.07,28H4.6v-.46s0,0,0,0H4.06s0,0,0,0V28H3.59l0,0v.52a0,0,0,0,0,0,0h.46V29s0,0,0,0h.53s0,0,0,0v-.46h.47a0,0,0,0,0,0,0V28Z"/><path class="cls-1" d="M8.64,28H8.18v-.46a0,0,0,0,0,0,0H7.63V28H7.16l0,0v.52a0,0,0,0,0,0,0h.46V29a0,0,0,0,0,0,0h.53s0,0,0,0v-.46h.46s0,0,0,0V28S8.65,28,8.64,28Z"/><path class="cls-1" d="M12.21,28h-.46v-.46a0,0,0,0,0,0,0h-.52a0,0,0,0,0,0,0V28h-.46l0,0v.52a0,0,0,0,0,0,0h.46V29s0,0,0,0h.52s0,0,0,0v-.46h.46s0,0,0,0V28S12.22,28,12.21,28Z"/><path class="cls-1" d="M1.5,24.56H1V24.1s0,0,0,0H.49s0,0,0,0v.46H0v.56H.48v.46s0,0,0,0H1s0,0,0,0v-.46H1.5v-.56Z"/><path class="cls-1" d="M5.07,24.56H4.6V24.1s0,0,0,0H4.06s0,0,0,0v.46H3.59l0,0v.52l0,0h.46v.46s0,0,0,0h.53s0,0,0,0v-.46h.47v-.56Z"/><path class="cls-1" d="M8.64,24.56H8.18V24.1a0,0,0,0,0,0,0H7.63a0,0,0,0,0,0,0v.46H7.16l0,0v.52l0,0h.46v.46a0,0,0,0,0,0,0h.53s0,0,0,0v-.46h.46s0,0,0,0v-.52S8.65,24.56,8.64,24.56Z"/><path class="cls-1" d="M12.21,24.56h-.46V24.1a0,0,0,0,0,0,0h-.52a0,0,0,0,0,0,0v.46h-.46a0,0,0,0,0,0,0v.52a0,0,0,0,0,0,0h.46v.46s0,0,0,0h.52s0,0,0,0v-.46h.46s0,0,0,0v-.52S12.22,24.56,12.21,24.56Z"/><path class="cls-1" d="M1.5,21.12H1v-.46s0,0,0,0H.49s0,0,0,0v.46H0a0,0,0,0,0,0,0v.52a0,0,0,0,0,0,0H.48v.46H1v-.46H1.5a0,0,0,0,0,0,0v-.52A0,0,0,0,0,1.5,21.12Z"/><path class="cls-1" d="M5.07,21.12H4.6v-.46s0,0,0,0H4.06s0,0,0,0v.46H3.59a0,0,0,0,0,0,0v.52a0,0,0,0,0,0,0h.46v.46H4.6v-.46h.47a0,0,0,0,0,0,0v-.52A0,0,0,0,0,5.07,21.12Z"/><path class="cls-1" d="M8.64,21.12H8.18v-.46a0,0,0,0,0,0,0H7.63a0,0,0,0,0,0,0v.46H7.16a0,0,0,0,0,0,0v.52a0,0,0,0,0,0,0h.46v.46h.56v-.46h.46s0,0,0,0v-.52S8.65,21.12,8.64,21.12Z"/><path class="cls-1" d="M12.21,21.12h-.46v-.46a0,0,0,0,0,0,0h-.52a0,0,0,0,0,0,0v.46h-.46a0,0,0,0,0,0,0v.52a0,0,0,0,0,0,0h.46v.46h.56v-.46h.46s0,0,0,0v-.52S12.22,21.12,12.21,21.12Z"/><path class="cls-1" d="M1.5,17.68H1v-.46s0,0,0,0H.49s0,0,0,0v.46H0v.53a0,0,0,0,0,0,0H.48v.46s0,0,0,0H1s0,0,0,0v-.46H1.5a0,0,0,0,0,0,0v-.53Z"/><path class="cls-1" d="M5.07,17.68H4.6v-.46s0,0,0,0H4.06s0,0,0,0v.46H3.57v.53a0,0,0,0,0,0,0h.46v.46s0,0,0,0h.53s0,0,0,0v-.46h.47a0,0,0,0,0,0,0v-.53Z"/><path class="cls-1" d="M8.64,17.68H8.18v-.46a0,0,0,0,0,0,0H7.63v.48H7.14v.53a0,0,0,0,0,0,0h.46v.46a0,0,0,0,0,0,0h.53s0,0,0,0v-.46h.46s0,0,0,0v-.53A0,0,0,0,0,8.64,17.68Z"/><path class="cls-1" d="M12.21,17.68h-.46v-.46a0,0,0,0,0,0,0h-.52a0,0,0,0,0,0,0v.46h-.48v.53a0,0,0,0,0,0,0h.46v.46s0,0,0,0h.52s0,0,0,0v-.46h.46s0,0,0,0v-.53A0,0,0,0,0,12.21,17.68Z"/><path class="cls-1" d="M1.5,14.24H1v-.46s0,0,0,0H.49s0,0,0,0v.46H0v.55H.48v.46H1V14.8H1.5v-.55Z"/><path class="cls-1" d="M5.07,14.24H4.6v-.46s0,0,0,0H4.06s0,0,0,0v.46H3.57v.53l0,0h.46v.46H4.6V14.8h.47v-.55Z"/><path class="cls-1" d="M8.64,14.24H8.18v-.46l0,0H7.63v.48H7.14v.53l0,0h.46v.46h.56V14.8h.46s0,0,0,0v-.53Z"/><path class="cls-1" d="M12.21,14.24h-.46v-.46l0,0h-.52l0,0v.46h-.48v.53a0,0,0,0,0,0,0h.46v.46h.56V14.8h.46s0,0,0,0v-.53Z"/><path class="cls-1" d="M1.5,10.8H1v-.46s0,0,0,0H.49s0,0,0,0v.46H0v.53H.48v.47H1v-.47h.48v-.53Z"/><path class="cls-1" d="M5.07,10.8H4.6v-.46s0,0,0,0H4.06s0,0,0,0v.46H3.57v.53h.48v.47H4.6v-.47h.48v-.53Z"/><path class="cls-1" d="M8.64,10.8H8.18v-.46l0,0H7.63v.48H7.14v.53h.48v.47h.56v-.47h.47v-.53Z"/><path class="cls-1" d="M12.21,10.8h-.46v-.46l0,0h-.52a0,0,0,0,0,0,0v.46h-.48v.53h.48v.47h.56v-.47h.47v-.53Z"/><path class="cls-1" d="M1.5,7.36H1V6.9s0,0,0,0H.49s0,0,0,0v.46H0V7.9H.48v.47H1V7.91h.48V7.37Z"/><path class="cls-1" d="M5.07,7.36H4.6V6.9s0,0,0,0H4.06s0,0,0,0v.46H3.57V7.9h.48v.47H4.6V7.91h.48V7.37Z"/><path class="cls-1" d="M8.64,7.36H8.18V6.9a0,0,0,0,0,0,0H7.63a0,0,0,0,0,0,0v.46H7.14V7.9h.48v.47h.56V7.91h.47V7.37Z"/><path class="cls-1" d="M12.21,7.36h-.46V6.9a0,0,0,0,0,0,0h-.52a0,0,0,0,0,0,0v.46h-.48V7.9h.48v.47h.56V7.91h.47V7.37Z"/><path class="cls-1" d="M1.5,3.92H1V3.46s0,0,0,0H.49s0,0,0,0v.46H0a0,0,0,0,0,0,0v.53H.48v.47H1V4.47h.48V3.93A0,0,0,0,0,1.5,3.92Z"/><path class="cls-1" d="M5.07,3.92H4.6V3.46s0,0,0,0H4.06s0,0,0,0v.46H3.59s0,0,0,0v.53h.48v.47H4.6V4.47h.48V3.93A0,0,0,0,0,5.07,3.92Z"/><path class="cls-1" d="M8.64,3.92H8.18V3.46a0,0,0,0,0,0,0H7.63v.48H7.16s0,0,0,0v.53h.48v.47h.56V4.47h.47V3.93S8.65,3.92,8.64,3.92Z"/><path class="cls-1" d="M12.21,3.92h-.46V3.46a0,0,0,0,0,0,0h-.52a0,0,0,0,0,0,0v.46h-.46s0,0,0,0v.53h.48v.47h.56V4.47h.47V3.93S12.22,3.92,12.21,3.92Z"/><path class="cls-1" d="M1.5.48H1V0H.48V.48H0a0,0,0,0,0,0,0V1A0,0,0,0,0,0,1H.48V1.5a0,0,0,0,0,0,0H1a0,0,0,0,0,0,0V1H1.5a0,0,0,0,0,0,0V.49A0,0,0,0,0,1.5.48Z"/><path class="cls-1" d="M5.07.48H4.6V0H4.05V.48H3.59s0,0,0,0V1s0,0,0,0h.46V1.5a0,0,0,0,0,0,0h.53a0,0,0,0,0,0,0V1h.47a0,0,0,0,0,0,0V.49A0,0,0,0,0,5.07.48Z"/><path class="cls-1" d="M8.64.48H8.18V0H7.62V.48H7.16s0,0,0,0V1s0,0,0,0h.46V1.5h.56V1h.46s0,0,0,0V.49S8.65.48,8.64.48Z"/><path class="cls-1" d="M12.21.48h-.46V0h-.56V.48h-.46s0,0,0,0V1s0,0,0,0h.46V1.5h.56V1h.46s0,0,0,0V.49S12.22.48,12.21.48Z"/></g></svg>
