<svg xmlns="http://www.w3.org/2000/svg" viewBox="0 0 116.89 137.22">
    <defs/>
    <g id="Layer_2" data-name="Layer 2">
        <path d="M116.89 137.22A115.93 115.93 0 001 23.12H0v114.1z" fill="#037098"/>
        <path class="cls-2"
              d="M27.61 52.09h-.47v-.47h-.55v.47h-.48v.53h.48v.46h.53v-.46h.48v-.52zM31.18 52.09h-.47v-.47h-.55v.47h-.48v.53h.48v.46h.53v-.46h.48v-.52zM34.75 52.09h-.47v-.47h-.55v.47h-.48v.53h.48v.48h.53v-.46h.48v-.54zM38.32 52.09h-.46v-.47h-.56v.47h-.48v.53h.48v.48h.53v-.46h.47v-.54zM27.61 48.65h-.47v-.47h-.55v.47h-.48v.53h.48v.46h.53v-.44h.48v-.53zM31.18 48.65h-.47v-.47h-.55v.47h-.48v.53h.48v.46h.53v-.44h.48v-.53zM34.75 48.65h-.47v-.47h-.55v.47h-.48v.53h.48v.46h.53v-.44h.47v-.53zM38.32 48.65h-.46v-.47h-.56v.47h-.48v.53h.48v.46h.53v-.44h.46v-.53zM27.61 45.2h-.47v-.46h-.54v.46h-.47v.55h.48v.46h.53v-.46h.48v-.55zM31.18 45.2h-.47v-.46h-.53v.46h-.48v.53h.48v.46h.53v-.46h.48v-.53zM34.75 45.2h-.47v-.46h-.53v.46h-.46v.53h.48v.48h.53v-.46h.48v-.53s-.02-.02-.03-.02zM38.32 45.2h-.46v-.46h-.53v.46h-.46v.53h.48v.48h.53v-.46h.47v-.53s-.02-.02-.03-.02zM27.61 41.76h-.47v-.46h-.55v.46h-.47v.55h.48v.46h.53v-.46h.48v-.55zM31.18 41.76h-.47v-.46h-.55v.46h-.46v.53h.48v.46h.53v-.46h.48v-.55zM34.75 41.76h-.47v-.46h-.55v.46h-.46v.53h.48v.48h.53v-.46h.48v-.53s0-.02-.01-.02zM38.32 41.76h-.46v-.46h-.56v.46h-.46v.53h.48v.48h.53v-.46h.47v-.53s.01-.02 0-.02zM27.61 38.32h-.47v-.46h-.55v.46h-.47v.54h.47v.46h.53v-.46h.47v-.54h.02zM31.18 38.32h-.47v-.46h-.55v.46h-.46v.52h.46v.46h.53v-.46h.47v-.54l.02.02zM34.75 38.32h-.47v-.46h-.55v.46h-.46v.52h.46v.48h.53v-.46h.47v-.52s.03-.02.02-.02zM38.32 38.32h-.46v-.46h-.56v.46h-.46v.52h.46v.48h.53v-.46h.46v-.52s.04-.02.03-.02zM27.61 34.88h-.47v-.46h-.54v.46h-.47v.56h.47v.46h.53v-.46h.47v-.56zM31.18 34.88h-.47v-.46h-.53v.46h-.48v.52h.46v.46h.53v-.46h.47v-.56zM34.75 34.88h-.47v-.46h-.53v.46h-.46v.52h.46v.48h.53v-.46h.47v-.52s.01-.02 0-.02zM38.32 34.88h-.46v-.46h-.53v.46h-.46v.52h.46v.48h.53v-.46h.46v-.52s.01-.02 0-.02zM27.61 31.44h-.47V31h-.54v.46h-.47V32h.47v.46h.53V32h.47v-.54l.01-.02zM31.18 31.44h-.47V31h-.53v.46h-.48V32h.46v.46h.53V32h.47v-.54l.02-.02zM34.75 31.44h-.47V31h-.53v.46h-.46V32h.46v.48h.53V32h.47v-.52s.01-.04 0-.04zM38.32 31.44h-.46V31h-.53v.46h-.46V32h.46v.48h.53V32h.46v-.52s.01-.04 0-.04zM27.61 28h-.47v-.46h-.54V28h-.47v.54h.47V29h.53v-.46h.47V28zM31.18 28h-.47v-.46h-.53V28h-.48v.52h.46V29h.53v-.46h.47V28zM34.75 28h-.47v-.46h-.53V28h-.46v.52h.46V29h.53v-.46h.47V28s.01 0 0 0zM38.32 28h-.46v-.46h-.53V28h-.46v.52h.46V29h.53v-.46h.46V28s.01 0 0 0zM27.61 24.56h-.47v-.46h-.54v.46h-.47v.56h.47v.46h.53v-.46h.47v-.56zM31.18 24.56h-.47v-.46h-.53v.46h-.48v.52h.46v.46h.53v-.46h.47v-.56zM34.75 24.56h-.47v-.46h-.53v.46h-.46v.52h.46v.46h.53v-.46h.47v-.52s.01 0 0 0zM38.32 24.56h-.46v-.46h-.53v.46h-.46v.52h.46v.46h.53v-.46h.46v-.52s.01 0 0 0zM27.61 21.12h-.47v-.46h-.54v.46h-.47v.52h.47v.46h.55v-.46h.47v-.52h-.01zM31.18 21.12h-.47v-.46h-.53v.46h-.48v.52h.46v.46h.55v-.46h.47v-.52zM34.75 21.12h-.47v-.46h-.53v.46h-.46v.52h.46v.46h.55v-.46h.47v-.52h-.02zM38.32 21.12h-.46v-.46h-.53v.46h-.46v.52h.46v.46h.56v-.46h.46v-.52h-.03zM27.61 17.68h-.47v-.46h-.54v.46h-.48v.53h.47v.46h.53v-.46h.47v-.53zM31.18 17.68h-.47v-.46h-.53v.46h-.48v.53h.46v.46h.53v-.46h.47v-.53zM34.75 17.68h-.47v-.46h-.53v.48h-.48v.53h.46v.46h.53v-.46h.47v-.53l.02-.02zM38.32 17.68h-.46v-.46h-.53v.48h-.48v.53h.46v.46h.53v-.46h.46v-.53l.02-.02zM27.61 14.24h-.47v-.46h-.54v.46h-.48v.55h.47v.46h.55v-.45h.47v-.55zM31.18 14.24h-.47v-.46h-.53v.46h-.48v.53h.46v.46h.55v-.43h.47v-.55zM34.75 14.24h-.47v-.46h-.53v.48h-.48v.53h.46v.46h.55v-.45h.47v-.53zM38.32 14.24h-.46v-.46h-.53v.48h-.48v.53h.46v.46h.56v-.45h.46v-.53zM27.61 10.8h-.47v-.46h-.54v.46h-.48v.53h.48v.47h.55v-.47h.48v-.53zM31.18 10.8h-.47v-.46h-.53v.46h-.48v.53h.48v.47h.55v-.47h.48v-.53zM34.75 10.8h-.47v-.46h-.53v.48h-.48v.53h.48v.47h.55v-.47h.48v-.53zM38.32 10.8h-.46v-.46h-.53v.48h-.48v.53h.48v.47h.56v-.47h.47v-.53zM27.61 7.36h-.47V6.9h-.54v.46h-.48v.54h.48v.47h.55v-.46h.48v-.54zM31.18 7.36h-.47V6.9h-.53v.46h-.48v.54h.48v.47h.55v-.46h.48v-.54zM34.75 7.36h-.47V6.9h-.53v.46h-.48v.54h.48v.47h.55v-.46h.48v-.54zM38.32 7.36h-.46V6.9h-.53v.46h-.48v.54h.48v.47h.56v-.46h.47v-.54zM27.61 3.92h-.47v-.46h-.54v.46h-.47v.53h.48v.47h.55v-.45h.48v-.54l-.03-.01zM31.18 3.92h-.47v-.46h-.53v.46h-.48v.53h.48v.47h.55v-.45h.48v-.54l-.03-.01zM34.75 3.92h-.47v-.46h-.53v.48h-.46v.53h.48v.47h.55v-.47h.48v-.54s-.04-.01-.05-.01zM38.32 3.92h-.46v-.46h-.53v.48h-.46v.53h.48v.47h.56v-.47h.47v-.54s-.05-.01-.06-.01zM27.61.48h-.47V0h-.55v.48h-.47V1h.47v.5h.53V1h.47V.49l.02-.01zM31.18.48h-.47V0h-.55v.48h-.46V1h.46v.5h.53V1h.47V.49l.02-.01zM34.75.48h-.47V0h-.55v.48h-.46V1h.46v.5h.54V1h.47V.49s.02-.01.01-.01zM38.32.48h-.46V0h-.56v.48h-.46V1h.46v.5h.56V1h.46V.49s.01-.01 0-.01z"/>
    </g>
</svg>
