<svg xmlns="http://www.w3.org/2000/svg" viewBox="0 0 12.22 53.12">
    <defs/>
    <g id="Layer_2" data-name="Layer 2">
        <path class="cls-1"
              d="M1.5 52.09H1v-.47H.48v.47H0v.53h.48v.46H1v-.46h.48v-.52zM5.07 52.09H4.6v-.47h-.55v.47h-.48v.53h.48v.46h.53v-.46h.48v-.52zM8.64 52.09h-.46v-.47h-.56v.47h-.48v.53h.48v.48h.53v-.46h.47v-.54zM12.21 52.09h-.46v-.47h-.56v.47h-.48v.53h.48v.46h.52v-.46h.47v-.52zM1.5 48.65H1v-.47H.48v.47H0v.53h.48v.46H1v-.44h.48v-.53zM5.07 48.65H4.6v-.47h-.55v.47h-.48v.53h.48v.46h.53v-.44h.48v-.53zM8.64 48.65h-.46v-.47h-.56v.47h-.48v.53h.48v.46h.53v-.44h.46v-.53zM12.21 48.65h-.46v-.47h-.56v.47h-.48v.53h.48v.46h.52v-.44h.46v-.53zM1.5 45.2H1v-.46H.49v.46H0v.55h.48v.46H1v-.46h.48v-.55zM5.07 45.2H4.6v-.46h-.54v.46h-.47v.53h.48v.46h.53v-.46h.48v-.53zM8.64 45.2h-.46v-.46h-.55v.46h-.47v.53h.48v.48h.53v-.46h.47v-.53s.01-.02 0-.02zM12.21 45.2h-.46v-.46h-.52v.46h-.46v.53h.48v.46h.52v-.46h.47v-.53h-.03zM1.5 41.76H1v-.46H.48v.46H0v.55h.48v.46H1v-.46h.48v-.55zM5.07 41.76H4.6v-.46h-.55v.46h-.46v.53h.48v.46h.53v-.46h.48v-.55zM8.64 41.76h-.46v-.46h-.56v.46h-.46v.53h.48v.48h.53v-.46h.47v-.53s.01-.02 0-.02zM12.21 41.76h-.46v-.46h-.56v.46h-.46v.53h.48v.46h.52v-.46h.47v-.53h.01zM1.5 38.32H1v-.46H.48v.46H0v.54h.48v.46H1v-.46h.5v-.54zM5.07 38.32H4.6v-.46h-.55v.46h-.46v.52h.46v.46h.53v-.46h.47v-.54l.02.02zM8.64 38.32h-.46v-.46h-.56v.46h-.46v.52h.46v.48h.53v-.46h.46v-.52s.04-.02.03-.02zM12.21 38.32h-.46v-.46h-.56v.46h-.46v.52h.46v.46h.52v-.46h.46v-.52h.04zM1.5 34.88H1v-.46H.49v.46H0v.56h.48v.46H1v-.46h.5v-.56zM5.07 34.88H4.6v-.46h-.54v.46h-.47v.52h.46v.46h.53v-.46h.47v-.56zM8.64 34.88h-.46v-.46h-.55v.46h-.47v.52h.46v.48h.53v-.46h.46v-.52s.04-.02.03-.02zM12.21 34.88h-.46v-.46h-.52v.46h-.46v.52h.46v.46h.52v-.46h.46v-.5s.01-.02 0-.02zM1.5 31.44H1V31H.49v.46H0V32h.48v.46H1V32h.5v-.54-.02zM5.07 31.44H4.6V31h-.54v.46h-.47V32h.46v.46h.53V32h.47v-.54l.02-.02zM8.64 31.44h-.46V31h-.55v.46h-.47V32h.46v.48h.53V32h.46v-.52s.04-.04.03-.04zM12.21 31.44h-.46V31h-.52v.46h-.46V32h.46v.46h.52V32h.46v-.52s.01-.04 0-.04zM1.5 28H1v-.46H.49V28H0v.54h.48V29H1v-.46h.5V28zM5.07 28H4.6v-.46h-.54V28h-.47v.52h.46V29h.53v-.46h.47V28zM8.64 28h-.46v-.46h-.55V28h-.47v.52h.46V29h.53v-.46h.46V28h.03zM12.21 28h-.46v-.46h-.52V28h-.46v.52h.46V29h.52v-.46h.46V28s.01 0 0 0zM1.5 24.56H1v-.46H.49v.46H0v.56h.48v.46H1v-.46h.5v-.56zM5.07 24.56H4.6v-.46h-.54v.46h-.47v.52h.46v.46h.53v-.46h.47v-.56zM8.64 24.56h-.46v-.46h-.55v.46h-.47v.52h.46v.46h.53v-.46h.46v-.52h.03zM12.21 24.56h-.46v-.46h-.52v.46h-.46v.52h.46v.46h.52v-.46h.46v-.52s.01 0 0 0zM1.5 21.12H1v-.46H.49v.46H0v.52h.48v.46H1v-.46h.5v-.52zM5.07 21.12H4.6v-.46h-.54v.46h-.47v.52h.46v.46h.55v-.46h.47v-.52zM8.64 21.12h-.46v-.46h-.55v.46h-.47v.52h.46v.46h.56v-.46h.46v-.52s.01 0 0 0zM12.21 21.12h-.46v-.46h-.52v.46h-.46v.52h.46v.46h.56v-.46h.46v-.52h-.04zM1.5 17.68H1v-.46H.49v.46H0v.53h.48v.46H1v-.46h.5v-.53zM5.07 17.68H4.6v-.46h-.54v.46h-.49v.53h.46v.46h.53v-.46h.47v-.53zM8.64 17.68h-.46v-.46h-.55v.48h-.49v.53h.46v.46h.53v-.46h.46v-.53l.05-.02zM12.21 17.68h-.46v-.46h-.52v.46h-.48v.53h.46v.46h.52v-.46h.46v-.53h.02zM1.5 14.24H1v-.46H.49v.46H0v.55h.48v.46H1v-.45h.5v-.55zM5.07 14.24H4.6v-.46h-.54v.46h-.49v.53h.46v.46h.57v-.43h.47v-.55zM8.64 14.24h-.46v-.46h-.55v.48h-.49v.53h.46v.46h.56v-.45h.46v-.53zM12.21 14.24h-.46v-.46h-.52v.46h-.48v.53h.46v.46h.56v-.43h.46v-.53zM1.5 10.8H1v-.46H.49v.46H0v.53h.48v.47H1v-.47h.48v-.53zM5.07 10.8H4.6v-.46h-.54v.46h-.49v.53h.48v.47h.55v-.47h.48v-.53zM8.64 10.8h-.46v-.46h-.55v.48h-.49v.53h.48v.47h.56v-.47h.47v-.53zM12.21 10.8h-.46v-.46h-.52v.46h-.48v.53h.48v.47h.56v-.47h.47v-.53zM1.5 7.36H1V6.9H.49v.46H0v.54h.48v.47H1v-.46h.48v-.54zM5.07 7.36H4.6V6.9h-.54v.46h-.49v.54h.48v.47h.55v-.46h.48v-.54zM8.64 7.36h-.46V6.9h-.55v.46h-.49v.54h.48v.47h.56v-.46h.47v-.54zM12.21 7.36h-.46V6.9h-.52v.46h-.48v.54h.48v.47h.56v-.46h.47v-.54zM1.5 3.92H1v-.46H.49v.46H0v.53h.48v.47H1v-.45h.48v-.54l.02-.01zM5.07 3.92H4.6v-.46h-.54v.46h-.47v.53h.48v.47h.53v-.45h.48v-.54l-.01-.01zM8.64 3.92h-.46v-.46h-.55v.48h-.47v.53h.48v.47h.56v-.47h.47v-.54s-.02-.01-.03-.01zM12.21 3.92h-.46v-.46h-.52v.46h-.46v.53h.48v.47h.56v-.45h.47v-.54s-.06-.01-.07-.01zM1.5.48H1V0H.48v.48H0V1h.48v.5H1V1h.5V.49.48zM5.07.48H4.6V0h-.55v.48h-.46V1h.46v.5h.53V1h.47V.49l.02-.01zM8.64.48h-.46V0h-.56v.48h-.46V1h.46v.5h.56V1h.46V.49s.01-.01 0-.01zM12.21.48h-.46V0h-.56v.48h-.46V1h.46v.5h.56V1h.46V.49s.01-.01 0-.01z"/>
    </g>
</svg>
