<svg xmlns="http://www.w3.org/2000/svg" viewBox="0 0 139.51 77.48">
    <path d="M138.4.75c.75 7.66.61 16.11-3.15 23-3.31 6.11-10 9.29-16.75 9.86-9.47.8-19.09-3-27.76-6.38-9.57-3.68-19.26-7.19-29.3-9.34C39.1 13.13 6.38 16.49 1.2 44c-.77 4.1-.67 8.51 1.22 12.22C4.83 61 9.83 62.89 14.89 63c9.42.28 20.6-3.63 26.14-11.6a13.23 13.23 0 002.53-7c.19-5.88-4.86-11.88-10.8-12.28s-11 4.57-13.52 9.59a28.94 28.94 0 00-2.3 7.46c-1.76 9-2.11 18.35-2.21 27.54" fill="none" stroke="#037098" stroke-linecap="round" stroke-linejoin="round" stroke-width="1.5" data-name="Layer 2"/>
</svg>