<svg xmlns="http://www.w3.org/2000/svg" width="24" height="24" viewBox="0 0 24 24">
    <g>
        <g>
            <path class="carousel-arrow-bg" fill="#037098" d="M0 12C0 5.373 5.373 0 12 0s12 5.373 12 12-5.373 12-12 12S0 18.627 0 12z"/>
        </g>
        <g>
            <path class="carousel-arrow-chevron" fill="#fff"
                  d="M10.392 11.66l3.912-3.912a.567.567 0 0 0 .167-.405.568.568 0 0 0-.167-.404l-.343-.343a.567.567 0 0 0-.405-.167.567.567 0 0 0-.404.167l-4.657 4.658a.567.567 0 0 0-.167.405c0 .154.058.299.167.407l4.653 4.653a.567.567 0 0 0 .404.167c.153 0 .297-.06.405-.167l.342-.343a.573.573 0 0 0 0-.809z"/>
        </g>
    </g>
</svg>
