<svg xmlns="http://www.w3.org/2000/svg" width="24" height="24" viewBox="0 0 24 24">
    <g>
        <g>
            <path class="carousel-arrow-bg" fill="#00cecd" d="M24 12c0 6.627-5.373 12-12 12S0 18.627 0 12 5.373 0 12 0s12 5.373 12 12z"/>
        </g>
        <g>
            <path class="carousel-arrow-chevron" fill="#fff"
                  d="M13.608 12.34l-3.912 3.912a.567.567 0 0 0-.167.405c0 .153.06.296.167.404l.343.343a.567.567 0 0 0 .405.167c.153 0 .296-.06.404-.167l4.658-4.658a.567.567 0 0 0 .166-.405.567.567 0 0 0-.166-.407l-4.654-4.653a.567.567 0 0 0-.404-.167.568.568 0 0 0-.405.167l-.342.343a.573.573 0 0 0 0 .809z"/>
        </g>
    </g>
</svg>
