<svg xmlns="http://www.w3.org/2000/svg" width="30" height="30" viewBox="0 0 30 30">
  <g id="Group_263" data-name="Group 263" transform="translate(-1399 -574)">
    <g id="Group_133" data-name="Group 133" transform="translate(1399 574)">
      <g id="Rounded_Rectangle_1_copy_8" data-name="Rounded Rectangle 1 copy 8" fill="rgba(27,112,243,0)" stroke="#fff" stroke-linejoin="round" stroke-width="2">
        <rect width="30" height="30" rx="15" stroke="none"/>
        <rect x="1" y="1" width="28" height="28" rx="14" fill="none"/>
      </g>
    </g>
    <g id="wishlist" transform="translate(1406.314 582.388)">
      <g id="Group_132" data-name="Group 132">
        <path id="Path_80" data-name="Path 80" d="M11.735,0A4.056,4.056,0,0,0,8.4,1.827a6.3,6.3,0,0,0-.448.713,6.039,6.039,0,0,0-.433-.71A3.972,3.972,0,0,0,4.2,0,4.321,4.321,0,0,0,0,4.56C0,7.374,2.266,9.3,5.7,12.227c.616.526,1.254,1.071,1.933,1.662A.463.463,0,0,0,7.938,14a.469.469,0,0,0,.308-.115c.722-.632,1.4-1.2,2.051-1.762,3.2-2.708,5.64-4.719,5.64-7.567A4.321,4.321,0,0,0,11.735,0ZM9.693,11.421c-.563.479-1.142.971-1.756,1.5-.57-.495-1.111-.956-1.634-1.4C3.013,8.716.928,6.942.928,4.56A3.4,3.4,0,0,1,4.2.928,3.049,3.049,0,0,1,6.739,2.35a5.465,5.465,0,0,1,.75,1.51.466.466,0,0,0,.9.006C8.4,3.838,9.276.928,11.735.928A3.4,3.4,0,0,1,15.01,4.56C15.01,6.914,12.89,8.706,9.693,11.421Z" fill="#fff"/>
      </g>
    </g>
  </g>
</svg>
