<?xml version="1.0" encoding="utf-8"?><svg xmlns="http://www.w3.org/2000/svg" viewBox="0 0 20.21 17.77"><defs><style>.cls-1{fill:#037098;}</style></defs><title>compare-heart-blue</title><g id="Labels"><path class="cls-1" d="M5.59,0A5.6,5.6,0,0,0,0,5.6a5.55,5.55,0,0,0,1.65,4l8,8.05a.57.57,0,0,0,.81,0l8.07-8a5.61,5.61,0,0,0,0-7.92,5.55,5.55,0,0,0-4-1.64,5.61,5.61,0,0,0-4,1.64l-.55.56-.56-.57A5.61,5.61,0,0,0,5.59,0ZM10.1,16.37,2.46,8.74A4.44,4.44,0,1,1,8.73,2.46l1,1a.54.54,0,0,0,.41.17.56.56,0,0,0,.41-.17l1-1a4.44,4.44,0,0,1,6.27,6.28L10.1,16.37Z"/></g></svg>