<?xml version="1.0" encoding="utf-8"?><svg  data-name="Layer 1" xmlns="http://www.w3.org/2000/svg" viewBox="0 0 83.69 63.23"><defs><style>.cls-1{fill:#fff;}.cls-2{fill:#ccc;}.cls-3{opacity:0.1;isolation:isolate;}.cls-4{fill:#037098;}.cls-5,.cls-6,.cls-7{fill:#8c02fc;}.cls-5{opacity:0.9;}.cls-6{opacity:0.7;}.cls-7{opacity:0.5;}.cls-8{fill:#b9bcbf;}.cls-10,.cls-9{fill:none;stroke-miterlimit:10;}.cls-9{stroke:#485059;stroke-linecap:round;stroke-width:0.85px;}.cls-10{stroke:#ccc;stroke-width:0.85px;}.cls-11{fill:#8e00fe;}.cls-12{fill:#0d69f2;}</style></defs><title>comparison-website</title><path class="cls-1" d="M77.34,56.5h-71a1.62,1.62,0,0,1-1.61-1.62V8.1A1.61,1.61,0,0,1,6.35,6.49h71A1.61,1.61,0,0,1,79,8.1V54.88A1.62,1.62,0,0,1,77.34,56.5Z"/><path class="cls-2" d="M80,3.7V52.1H3.7V3.7H80M81.84,0h-80A1.85,1.85,0,0,0,0,1.85V54a1.84,1.84,0,0,0,1.85,1.84h80A1.84,1.84,0,0,0,83.69,54V1.85A1.85,1.85,0,0,0,81.84,0Z"/><rect class="cls-2" x="33.08" y="55.67" width="17.53" height="6.25" rx="0.12"/><path class="cls-2" d="M50.49,55.79v6H33.21v-6H50.49m0-.25H33.21a.25.25,0,0,0-.25.25v6a.25.25,0,0,0,.25.25H50.49a.25.25,0,0,0,.25-.25v-6a.26.26,0,0,0-.25-.25Z"/><path class="cls-2" d="M29.85,63.11a.12.12,0,0,1-.11-.09.12.12,0,0,1,0-.14l3.35-2.41,17.36,0,3.42,2.43A.15.15,0,0,1,54,63a.14.14,0,0,1-.12.09Z"/><path class="cls-2" d="M50.49,60.58,53.84,63h-24l3.36-2.4H50.49m0-.25H33.21a.24.24,0,0,0-.15,0l-3.35,2.41a.24.24,0,0,0-.09.28.25.25,0,0,0,.23.17h24a.25.25,0,0,0,.23-.17.24.24,0,0,0-.09-.28l-3.35-2.41a.23.23,0,0,0-.14,0Z"/><polyline class="cls-1" points="79.99 3.7 79.99 52.1 3.7 52.1 3.7 3.7 79.99 3.7"/><path class="cls-3" d="M81.84,0H67.09l-40,55.79H81.84A1.84,1.84,0,0,0,83.69,54V1.85A1.85,1.85,0,0,0,81.84,0Z"/><path class="cls-4" d="M71,22.32l-.62-.63a.08.08,0,0,0-.11,0l-3.37,3.37-1.51-1.5a.08.08,0,0,0-.11,0l-.62.62a.08.08,0,0,0,0,.11l1.56,1.57.62.62a.08.08,0,0,0,.11,0l.63-.62L71,22.43A.08.08,0,0,0,71,22.32Z"/><path class="cls-4" d="M71,29.21l-.62-.62a.08.08,0,0,0-.11,0L66.87,32l-1.51-1.51a.08.08,0,0,0-.11,0l-.62.63a.08.08,0,0,0,0,.11l1.56,1.56.62.62a.08.08,0,0,0,.11,0l.63-.62L71,29.32A.08.08,0,0,0,71,29.21Z"/><path class="cls-4" d="M71,36.11l-.62-.63a.08.08,0,0,0-.11,0l-3.37,3.37-1.51-1.5a.07.07,0,0,0-.11,0l-.62.62a.08.08,0,0,0,0,.11l1.56,1.56.62.63a.08.08,0,0,0,.11,0l.63-.63L71,36.22A.08.08,0,0,0,71,36.11Z"/><circle class="cls-5" cx="6.88" cy="7.08" r="0.87"/><circle class="cls-6" cx="10.34" cy="7.08" r="0.87"/><circle class="cls-7" cx="13.8" cy="7.08" r="0.87"/><path class="cls-2" d="M74.81,7.92H18.39a.84.84,0,0,1,0-1.68H74.81Z"/><path class="cls-2" d="M20.62,13.69H6.44a.84.84,0,0,1,0-1.68H20.62a.84.84,0,0,1,0,1.68Z"/><path class="cls-8" d="M21.27,25.19H13.34a.84.84,0,0,1,0-1.68h7.93a.83.83,0,0,1,.84.84A.85.85,0,0,1,21.27,25.19Z"/><path class="cls-8" d="M10.48,25.19h0a.84.84,0,0,1,0-1.68h0a.84.84,0,0,1,0,1.68Z"/><path class="cls-8" d="M21.27,31.06H13.34a.84.84,0,0,1,0-1.68h7.93a.84.84,0,0,1,0,1.68Z"/><path class="cls-8" d="M10.48,31.06h0a.84.84,0,0,1,0-1.68h0a.84.84,0,0,1,0,1.68Z"/><path class="cls-8" d="M21.27,36.93H13.34a.84.84,0,1,1,0-1.67h7.93a.83.83,0,0,1,.84.83A.84.84,0,0,1,21.27,36.93Z"/><path class="cls-8" d="M10.48,36.93h0a.84.84,0,0,1,0-1.67h0a.84.84,0,1,1,0,1.67Z"/><path class="cls-8" d="M46.21,47.36l-8.73-.08a.92.92,0,0,1-.92-.92V44.43a.92.92,0,0,1,.92-.92h8.73a.92.92,0,0,1,.92.92v2A.92.92,0,0,1,46.21,47.36Z"/><line class="cls-9" x1="39.93" y1="30.98" x2="43.76" y2="30.99"/><line class="cls-9" x1="39.93" y1="37.71" x2="43.76" y2="37.72"/><path class="cls-4" d="M45.19,22.32l-.63-.63a.08.08,0,0,0-.11,0l-3.37,3.37-1.5-1.5a.08.08,0,0,0-.11,0l-.63.62a.08.08,0,0,0,0,.11l1.56,1.57.63.62a.08.08,0,0,0,.11,0l.63-.62,3.42-3.43A.08.08,0,0,0,45.19,22.32Z"/><path class="cls-8" d="M72.17,47.36l-8.74-.08a.92.92,0,0,1-.92-.92V44.43a.92.92,0,0,1,.92-.92h8.74a.93.93,0,0,1,.92.92v2A.92.92,0,0,1,72.17,47.36Z"/><line class="cls-10" x1="28.88" y1="18.62" x2="28.88" y2="52.1"/><line class="cls-10" x1="54.87" y1="18.62" x2="54.87" y2="52.1"/><line class="cls-10" x1="3.7" y1="18.62" x2="79.99" y2="18.62"/><path class="cls-11" d="M44.07,12H42.84V10.79a.1.1,0,0,0-.1-.1H41.3a.1.1,0,0,0-.11.1V12H40a.1.1,0,0,0-.11.1v1.44a.1.1,0,0,0,.11.1h1.23v1.24a.11.11,0,0,0,.11.1h1.44a.11.11,0,0,0,.1-.1V13.67h1.23a.1.1,0,0,0,.11-.1V12.13A.1.1,0,0,0,44.07,12Z"/><path class="cls-12" d="M69.86,12H68.62V10.79a.09.09,0,0,0-.1-.1H67.08a.09.09,0,0,0-.1.1V12H65.74a.09.09,0,0,0-.1.1v1.44a.09.09,0,0,0,.1.1H67v1.24a.1.1,0,0,0,.1.1h1.44a.1.1,0,0,0,.1-.1V13.67h1.24a.1.1,0,0,0,.1-.1V12.13A.1.1,0,0,0,69.86,12Z"/></svg>
