<?xml version="1.0" encoding="utf-8"?>
<!-- Generator: Adobe Illustrator 23.1.0, SVG Export Plug-In . SVG Version: 6.00 Build 0)  -->
<svg version="1.1" id="Layer_1" xmlns="http://www.w3.org/2000/svg" xmlns:xlink="http://www.w3.org/1999/xlink" x="0px" y="0px"
	 viewBox="0 0 30 30" style="enable-background:new 0 0 30 30;" xml:space="preserve">
<style type="text/css">
	.st0{fill:none;stroke:#FFFFFF;stroke-width:2;stroke-linejoin:round;}
	.st1{fill:#FFFFFF;}
</style>
<g>
	<g>
		<g>
			<path d="M15,0L15,0c8.3,0,15,6.7,15,15l0,0c0,8.3-6.7,15-15,15l0,0C6.7,30,0,23.3,0,15l0,0C0,6.7,6.7,0,15,0z"/>
			<path class="st0" d="M15,1L15,1c7.7,0,14,6.3,14,14l0,0c0,7.7-6.3,14-14,14l0,0C7.3,29,1,22.7,1,15l0,0C1,7.3,7.3,1,15,1z"/>
		</g>
	</g>
	<g>
		<path class="st1" d="M18.8,8c-1.3,0-2.6,0.7-3.3,1.8c-0.2,0.2-0.3,0.5-0.4,0.7c-0.1-0.2-0.3-0.5-0.4-0.7c-0.7-1.1-2-1.8-3.3-1.8
			C8.8,8.1,7,10,7,12.4c0,0,0,0.1,0,0.1c0,2.8,2.3,4.7,5.7,7.7c0.6,0.6,1.3,1.1,1.9,1.7C14.7,22,14.9,22,15,22c0.1,0,0.2,0,0.3-0.1
			c0.7-0.6,1.4-1.2,2.1-1.8c3.2-2.7,5.6-4.7,5.6-7.6c0.1-2.4-1.7-4.4-4.1-4.6C18.8,8,18.8,8,18.8,8z"/>
	</g>
</g>
</svg>
