<?xml version="1.0" encoding="utf-8"?><svg xmlns="http://www.w3.org/2000/svg" viewBox="0 0 23.47 23.47"><defs><style>.cls-1{fill:none;stroke:#fff;stroke-miterlimit:10;}.cls-2{fill:#fff;}</style></defs><title>compare-heart-white</title><g id="Labels"><path class="cls-1" d="M18,7.4a4.12,4.12,0,0,0-5.83,0l-.41.41-.41-.41A4.14,4.14,0,0,0,8.4,6.18a4.12,4.12,0,0,0-2.9,7.05l5.93,5.93a.44.44,0,0,0,.6,0L18,13.24A4.14,4.14,0,0,0,18,7.4Z"/><path class="cls-2" d="M11.73,23.47A11.74,11.74,0,1,1,23.47,11.73,11.74,11.74,0,0,1,11.73,23.47Zm0-22.14a10.41,10.41,0,1,0,10.41,10.4A10.42,10.42,0,0,0,11.73,1.33Z"/></g></svg>