<svg xmlns="http://www.w3.org/2000/svg" viewBox="0 0 490 493">
    <g fill="#037098">
        <path
            d="M245.5 6C112.9 6 5 113.9 5 246.5S112.9 487 245.5 487 486 379.1 486 246.5 378.1 6 245.5 6zm0 453.2c-117.3 0-212.7-95.4-212.7-212.7S128.2 33.8 245.5 33.8s212.7 95.4 212.7 212.7-95.4 212.7-212.7 212.7z"/>
        <path
            d="M352.9 146.6L216.7 299.9l-80.3-64.2c-2.9-2.3-6.5-3.4-10.2-3-3.7.4-7 2.2-9.3 5.1-4.8 6-3.8 14.8 2.2 19.6l90.6 72.5c2.5 2 5.5 3 8.7 3 4 0 7.8-1.7 10.4-4.7l145-163.1c2.5-2.8 3.7-6.4 3.5-10.1-.2-3.7-1.9-7.1-4.6-9.6-5.9-5-14.7-4.5-19.8 1.2z"/>
    </g>
</svg>
