<svg xmlns="http://www.w3.org/2000/svg" viewBox="0 0 512.003 512.003">
    <path fill="#04cecc"
        d="M207.906 160.322a7.5 7.5 0 00-7.5 7.5v8.017a7.5 7.5 0 007.5 7.5 7.5 7.5 0 007.5-7.5v-8.017a7.5 7.5 0 00-7.5-7.5zM304.098 160.322a7.499 7.499 0 00-7.5 7.5v8.017c0 4.143 3.357 7.5 7.5 7.5s7.5-3.357 7.5-7.5v-8.017a7.5 7.5 0 00-7.5-7.5zM285.389 218.669a7.496 7.496 0 00-10.605-.072c-2.738 2.7-9.3 5.854-18.782 5.854s-16.043-3.154-18.781-5.854a7.497 7.497 0 00-10.606.071 7.5 7.5 0 00.071 10.606c6.459 6.372 17.418 10.177 29.316 10.177 11.897 0 22.856-3.805 29.315-10.177a7.498 7.498 0 00.072-10.605zM215.921 136.274H199.89c-4.142 0-7.5 3.357-7.5 7.5s3.358 7.5 7.5 7.5h16.032a7.5 7.5 0 10-.001-15zM312.114 136.274h-16.032c-4.143 0-7.5 3.357-7.5 7.5s3.358 7.5 7.5 7.5h16.032c4.143 0 7.5-3.357 7.5-7.5s-3.357-7.5-7.5-7.5z"/>
    <path fill="#04cecc"
        d="M416.63 357.239l-54.059-16.62a17.307 17.307 0 00-.417-4.917 17.275 17.275 0 00-9.108-11.509l-33.432-16.715V283.64c25.013-17.396 42.617-44.741 47.019-76.253h4.458c14.617 0 27.155-10.861 28.543-24.728.778-7.771-1.764-15.529-6.974-21.286a27.534 27.534 0 00-8.917-6.533V71.629c0-30.656-24.94-55.597-55.597-55.597l-1.268.001C313.375 6.073 293.538 0 271.533 0c-46.849 0-68.372 9.76-93.292 21.061-13.313 6.037-27.078 12.279-46.59 17.985a7.5 7.5 0 00-4.815 10.091c.228.546 3.579 8.325 12.224 17.775-3.733 4.595-10.799 16.346-10.799 39.453v48.809c-8.63 4.115-14.929 12.266-15.89 21.857-.779 7.771 1.762 15.53 6.972 21.289a27.593 27.593 0 0020.426 9.066h5.598c4.398 31.522 22.003 58.87 47.022 76.264v23.827l-33.433 16.715a17.276 17.276 0 00-9.108 11.51 17.333 17.333 0 00-.417 4.916l-54.059 16.62c-23.481 7.22-39.258 28.575-39.258 53.142v94.12a7.5 7.5 0 007.5 7.5 7.5 7.5 0 007.5-7.5v-94.119c0-17.938 11.52-33.532 28.667-38.804l56.231-17.288 9.925 13.234-11.276 11.277a23.502 23.502 0 00-4.409 27.164l21.47 42.939h-20.445v-8.532a7.5 7.5 0 00-7.5-7.5 7.5 7.5 0 00-7.5 7.5v8.532h-32.581a7.5 7.5 0 00-7.5 7.5V504.5a7.5 7.5 0 007.5 7.5h80.162a7.5 7.5 0 007.5-7.5v-16.326l9.84 19.681a7.499 7.499 0 0010.062 3.353 7.5 7.5 0 003.354-10.063l-50.945-101.891a8.522 8.522 0 011.599-9.849l15.877-15.878a7.5 7.5 0 00.697-9.803l-16.992-22.655a2.286 2.286 0 01-.401-1.921 2.285 2.285 0 011.218-1.54l29.54-14.77 20.854 71.499a7.501 7.501 0 0014.4-4.199l-3.287-11.27a87.866 87.866 0 0028.83 4.873 87.823 87.823 0 0028.828-4.868l-28.829 98.84-16.186-55.494a7.5 7.5 0 10-14.4 4.199l23.386 80.18a7.5 7.5 0 0014.4 0l53.597-183.76 29.539 14.77a2.29 2.29 0 011.219 1.539 2.288 2.288 0 01-.401 1.922l-16.992 22.655a7.503 7.503 0 00.696 9.804l15.878 15.878a8.52 8.52 0 011.599 9.848L297.39 501.146a7.5 7.5 0 006.703 10.857c2.751 0 5.4-1.52 6.714-4.147l50.945-101.891a23.503 23.503 0 00-4.407-27.164l-11.278-11.278 9.924-13.233 56.232 17.289c17.146 5.271 28.666 20.865 28.666 38.804V504.5c0 4.143 3.357 7.5 7.5 7.5s7.5-3.357 7.5-7.5v-94.119c-.001-24.567-15.777-45.923-39.259-53.142zM176.356 497h-65.162v-33.097h25.081v.516a7.5 7.5 0 007.5 7.5 7.5 7.5 0 007.5-7.5v-.516h25.081V497zm8.079-462.278C208.734 23.703 227.926 15 271.533 15c27.67 0 52.396 11.58 57.515 26.937a7.5 7.5 0 0014.23-4.744 35.36 35.36 0 00-1.529-3.809c15.714 5.606 26.995 20.63 26.995 38.245v80.678h-8.532c-4.705 0-8.532-3.827-8.532-8.532v-8.017c0-34.771-25.174-60.344-26.246-61.416a7.51 7.51 0 00-7.562-1.849c-41.634 13.148-100.337 24.229-143.555 2.362-15.379-7.782-24.46-17.671-29.236-24.274 15.921-5.232 28.262-10.829 39.354-15.859zm120.18 276.32l-14.324 49.112a72.64 72.64 0 01-34.288 8.589c-11.993 0-23.796-2.961-34.287-8.581l-14.327-49.12v-18.607c14.705 7.137 31.199 11.147 48.613 11.147 17.412 0 33.906-4.012 48.613-11.154v18.614zm-48.613-22.461c-53.326 0-96.709-43.384-96.709-96.71a7.5 7.5 0 00-7.5-7.5 7.5 7.5 0 00-7.5 7.5v.516h-4.524a12.57 12.57 0 01-9.303-4.131c-2.406-2.659-3.532-6.114-3.17-9.729.631-6.292 6.613-11.221 13.619-11.221h10.878c12.976 0 23.532-10.557 23.532-23.532v-28.308a7.5 7.5 0 00-7.5-7.5 7.5 7.5 0 00-7.5 7.5v28.308c0 4.705-3.828 8.532-8.532 8.532h-8.532v-45.941c0-17.451 4.69-26.129 6.856-29.206 4.582 3.614 9.956 7.194 16.246 10.472 16.997 8.859 37.227 13.765 60.127 14.581 26.841.965 57.519-3.743 91.24-13.973 5.952 7.208 18.951 25.475 18.951 47.518v8.017c0 12.976 10.557 23.532 23.532 23.532h12.024a12.57 12.57 0 019.303 4.131c2.406 2.659 3.532 6.113 3.17 9.728-.63 6.293-6.611 11.222-13.617 11.222h-3.384v-.438a7.5 7.5 0 00-7.497-7.5h-.003a7.5 7.5 0 00-7.5 7.494c-.041 53.286-43.423 96.638-96.707 96.638z"/>
    <path fill="#04cecc"
        d="M408.309 452.911h-12.54v-12.54c0-4.143-3.357-7.5-7.5-7.5s-7.5 3.357-7.5 7.5v12.54h-12.541c-4.143 0-7.5 3.357-7.5 7.5s3.357 7.5 7.5 7.5h12.541v12.54c0 4.143 3.357 7.5 7.5 7.5s7.5-3.357 7.5-7.5v-12.54h12.54a7.5 7.5 0 000-15z"/>
</svg>
