<?xml version="1.0" encoding="utf-8"?><svg id="Layer_1" data-name="Layer 1" xmlns="http://www.w3.org/2000/svg" viewBox="0 0 19.58 19.58"><defs><style>.cls-1{fill:#00cecc;}</style></defs><title>4Artboard 35</title><path class="cls-1" d="M12.18,7.63a.31.31,0,1,0-.31.31A.31.31,0,0,0,12.18,7.63Z"/><path class="cls-1" d="M19.58,18.12a1.44,1.44,0,0,0-.43-1L14,11.89l0-.05A7.65,7.65,0,1,0,11.84,14l.05,0,0,0,5.15,5.14a1.44,1.44,0,0,0,1,.43,1.47,1.47,0,0,0,1.46-1.46Zm-7.84-4.81a7,7,0,1,1,1.57-1.57A7.09,7.09,0,0,1,11.74,13.31Zm1.86,1.48-1.2-1.2.06-.05a7.35,7.35,0,0,0,1.08-1.08l.05-.06,1.2,1.2,0,.05a8.79,8.79,0,0,1-1.1,1.1Zm5.11,3.92a.83.83,0,0,1-1.19,0L14,15.24l.06-.06a9.18,9.18,0,0,0,1.08-1.08l.05-.06.06.06,3.42,3.42a.83.83,0,0,1,0,1.19Z"/><path class="cls-1" d="M7.63,1.54a6.09,6.09,0,1,0,6.09,6.09A6.09,6.09,0,0,0,7.63,1.54Zm0,11.56A5.47,5.47,0,1,1,13.1,7.63,5.48,5.48,0,0,1,7.63,13.1Z"/><path class="cls-1" d="M11.7,6.41a.31.31,0,0,0,.18-.4A4.53,4.53,0,0,0,7.63,3.08a.31.31,0,0,0,0,.62A4,4,0,0,1,11.3,6.23.32.32,0,0,0,11.7,6.41Z"/></svg>