<?xml version="1.0" encoding="utf-8"?><svg id="Layer_1" data-name="Layer 1" xmlns="http://www.w3.org/2000/svg" viewBox="0 0 15.27 19.58"><defs><style>.cls-1{fill:#00cecc;}</style></defs><title>4Artboard 30</title><path class="cls-1" d="M1.54,7.48a.31.31,0,1,0,.31-.31A.31.31,0,0,0,1.54,7.48Z"/><path class="cls-1" d="M9.1,5.94a.31.31,0,0,0-.31-.31H6.48a.31.31,0,0,0-.31.31v2h-2a.31.31,0,0,0-.31.31v2.31a.31.31,0,0,0,.31.31h2v2a.31.31,0,0,0,.31.31H8.79a.31.31,0,0,0,.31-.31v-2h2a.31.31,0,0,0,.31-.31V8.25a.31.31,0,0,0-.31-.31h-2Zm1.69,2.62v1.69h-2a.31.31,0,0,0-.31.31v2H6.79v-2a.31.31,0,0,0-.31-.31h-2V8.56h2a.31.31,0,0,0,.31-.31v-2H8.48v2a.31.31,0,0,0,.31.31Z"/><path class="cls-1" d="M7.51,19.56a.33.33,0,0,0,.24,0,16.15,16.15,0,0,0,5.95-4.84A8,8,0,0,0,15.27,10V2.09a1.11,1.11,0,0,0-.58-1,1.05,1.05,0,0,0-1.07,0,3.9,3.9,0,0,1-2.13.63,3.94,3.94,0,0,1-3-1.4A1.06,1.06,0,0,0,7.63,0a1.08,1.08,0,0,0-.84.4,3.93,3.93,0,0,1-3,1.4,4,4,0,0,1-2.14-.63A1,1,0,0,0,1.08,1a1.2,1.2,0,0,0-.51.13,1.12,1.12,0,0,0-.57,1V10a8,8,0,0,0,1.56,4.76A16.19,16.19,0,0,0,7.51,19.56ZM.62,2.09a.47.47,0,0,1,.25-.41.41.41,0,0,1,.43,0,4.55,4.55,0,0,0,2.48.73A4.56,4.56,0,0,0,7.27.8.47.47,0,0,1,8,.8a4.56,4.56,0,0,0,3.49,1.62A4.52,4.52,0,0,0,14,1.69a.43.43,0,0,1,.44,0,.47.47,0,0,1,.25.41V10a7.38,7.38,0,0,1-1.44,4.39,16.17,16.17,0,0,1-5.54,4.57H7.6a16,16,0,0,1-5.54-4.57A7.31,7.31,0,0,1,.62,10Z"/><path class="cls-1" d="M7.49,17.82a.3.3,0,0,0,.29,0,14.93,14.93,0,0,0,4.69-4A6.36,6.36,0,0,0,13.72,10V3.32a.31.31,0,0,0-.13-.25h0a.31.31,0,0,0-.28,0,5.41,5.41,0,0,1-1.82.32A5.48,5.48,0,0,1,7.84,2a.3.3,0,0,0-.41,0,5.49,5.49,0,0,1-3.65,1.4A5.37,5.37,0,0,1,2,3a.33.33,0,0,0-.29,0,.31.31,0,0,0-.13.25V5.94a.31.31,0,0,0,.62,0V3.75l.1,0A5.92,5.92,0,0,0,3.78,4,6.14,6.14,0,0,0,7.59,2.63l0,0,0,0A6.14,6.14,0,0,0,11.49,4,6,6,0,0,0,13,3.77l.09,0V10A5.78,5.78,0,0,1,12,13.42a14.44,14.44,0,0,1-4.3,3.75l0,0,0,0a14.5,14.5,0,0,1-4.31-3.75A5.78,5.78,0,0,1,2.16,10V9a.31.31,0,0,0-.62,0V10A6.37,6.37,0,0,0,2.8,13.79,15,15,0,0,0,7.49,17.82Z"/></svg>