<?xml version="1.0" encoding="utf-8"?><svg id="Layer_1" data-name="Layer 1" xmlns="http://www.w3.org/2000/svg" viewBox="0 0 17.58 19.58"><defs><style>.cls-1{fill:#00cecc;}</style></defs><title>4Artboard 31</title><path class="cls-1" d="M7.25,15.61a.31.31,0,1,0-.31-.31A.31.31,0,0,0,7.25,15.61Z"/><path class="cls-1" d="M.72,11.58l.05,0v6.9a1.08,1.08,0,0,0,1.08,1.08H15.73a1.08,1.08,0,0,0,1.08-1.08V11.6l.05,0a1.08,1.08,0,0,0,.72-1V7.48A1.08,1.08,0,0,0,16.5,6.4h-2V.31A.31.31,0,0,0,14.18,0H3.39a.31.31,0,0,0-.31.31V6.4h-2A1.08,1.08,0,0,0,0,7.48v3.08A1.08,1.08,0,0,0,.72,11.58ZM16.19,18.5a.47.47,0,0,1-.46.46H1.85a.47.47,0,0,1-.46-.46V11.64h14.8ZM14.5,8.56h.92v.92H14.5ZM3.7.62H13.87V9.48H3.7ZM.62,7.48A.46.46,0,0,1,1.08,7h2v.92H1.85a.31.31,0,0,0-.31.31V9.79a.31.31,0,0,0,.31.31H15.73A.31.31,0,0,0,16,9.79V8.25a.31.31,0,0,0-.31-.31H14.5V7h2a.46.46,0,0,1,.46.46v3.08a.46.46,0,0,1-.46.46H1.08a.46.46,0,0,1-.46-.46ZM3.08,8.56v.92H2.16V8.56Z"/><path class="cls-1" d="M4.93,17.15h7.71a.31.31,0,0,0,.31-.31V13.76a.31.31,0,0,0-.31-.31H4.93a.31.31,0,0,0-.31.31v3.08A.31.31,0,0,0,4.93,17.15Zm.32-3.08h7.08v2.46H5.25Z"/><path class="cls-1" d="M8.48,15.3a.31.31,0,0,0,.31.31h1.54a.31.31,0,1,0,0-.62H8.79A.31.31,0,0,0,8.48,15.3Z"/><path class="cls-1" d="M6.17,7.48a.31.31,0,0,0,.62,0,2,2,0,0,1,4,0,.31.31,0,0,0,.62,0,2.62,2.62,0,0,0-5.24,0Z"/><path class="cls-1" d="M6.48,3.93a.31.31,0,0,0,.31-.31V2.85a.31.31,0,0,0-.62,0v.77A.31.31,0,0,0,6.48,3.93Z"/><path class="cls-1" d="M11.1,3.93a.31.31,0,0,0,.31-.31V2.85a.31.31,0,0,0-.62,0v.77A.31.31,0,0,0,11.1,3.93Z"/></svg>