<?xml version="1.0" encoding="utf-8"?><svg id="Layer_1" data-name="Layer 1" xmlns="http://www.w3.org/2000/svg" viewBox="0 0 11.73 19.4"><defs><style>.cls-1{fill:#00cecc;}</style></defs><title>4Artboard 24</title><path class="cls-1" d="M0,5.9A1.49,1.49,0,0,0,1.48,7.36a1.49,1.49,0,0,0,1-.45,1.42,1.42,0,0,0,.42-1,1.09,1.09,0,0,1,0-.18A2.92,2.92,0,0,1,5.86,3H6a2.91,2.91,0,0,1,0,5.82,1.66,1.66,0,0,0-1.55,1.62V13a.93.93,0,0,0,.93.92h1.1A.93.93,0,0,0,7.34,13V11.53l.12,0A5.86,5.86,0,1,0,0,5.9ZM5.4.78a5.1,5.1,0,0,1,1.85,10,.93.93,0,0,0-.67.9v1.48H5.15V10.39A.89.89,0,0,1,6,9.53,3.67,3.67,0,0,0,9.36,7,3.73,3.73,0,0,0,8.59,3.4,3.67,3.67,0,0,0,5.87,2.19a3.54,3.54,0,0,0-.73.07A3.7,3.7,0,0,0,2.2,5.63a1.85,1.85,0,0,0,0,.23A.71.71,0,0,1,2,6.37a.74.74,0,0,1-.51.21h0A.74.74,0,0,1,1,6.36a.69.69,0,0,1-.19-.51A5.09,5.09,0,0,1,5.4.78Z"/><path class="cls-1" d="M5.86,15.35a2,2,0,1,0,2,2A2,2,0,0,0,5.86,15.35Zm0,3.28a1.26,1.26,0,1,1,1.27-1.26A1.26,1.26,0,0,1,5.86,18.63Z"/></svg>