<?xml version="1.0" encoding="utf-8"?><svg id="Layer_1" data-name="Layer 1" xmlns="http://www.w3.org/2000/svg" viewBox="0 0 19.58 19.58"><defs><style>.cls-1{fill:#00cecc;}</style></defs><title>4Artboard 32</title><path class="cls-1" d="M17.55,6.26l-.05,0V6.18a3.18,3.18,0,0,0-.16-1.7,3.53,3.53,0,0,0-3-2.27A3.65,3.65,0,0,0,11.8,3L11.72,3l0-.09A4.73,4.73,0,0,0,7.29,0h0A4.71,4.71,0,0,0,2.59,4.29a4.23,4.23,0,0,0,.2,1.62l0,.08L2.73,6A3.49,3.49,0,0,0,0,9.4a4.18,4.18,0,0,0,4.37,3.92.33.33,0,0,0,.25-.11A.37.37,0,0,0,4.7,13a.34.34,0,0,0-.35-.3H4.22a3.51,3.51,0,0,1-2.35-.87A3.44,3.44,0,0,1,.67,9.4,2.86,2.86,0,0,1,3.31,6.59l.47,0-.19-.43a3.69,3.69,0,0,1-.33-1.79,4,4,0,0,1,4-3.66h0a4,4,0,0,1,3.94,3.06l.15.66.43-.51a2.9,2.9,0,0,1,2.51-1,2.86,2.86,0,0,1,2.4,1.83,2.53,2.53,0,0,1,.06,1.63l-.09.31.3.1A2.84,2.84,0,0,1,18.91,9.4a2.65,2.65,0,0,1-2.57,2.65.33.33,0,0,0-.31.33.33.33,0,0,0,.11.25.37.37,0,0,0,.26.09A3.34,3.34,0,0,0,19.58,9.4,3.51,3.51,0,0,0,17.55,6.26Z"/><path class="cls-1" d="M15.7,13.6a4.65,4.65,0,0,0-1.23-1.27l-.15-.1a3.73,3.73,0,0,0-.39-.25l-.11-.07h0l-.09-.05A2.9,2.9,0,1,0,8.53,9.5a3,3,0,0,0-.31,0h0L8,9.49a2.84,2.84,0,0,0-2.64,2.84,2.88,2.88,0,0,0,.36,1.37,4.38,4.38,0,0,0-2.74,4V19a.56.56,0,0,0,.56.56h9.34a.56.56,0,0,0,.56-.56V17.74s0-.06,0-.09,0-.1,0-.15H16a.56.56,0,0,0,.56-.56v-.43a5.13,5.13,0,0,0-.91-2.92ZM11.36,8.06a2.14,2.14,0,0,1,2.14,2.15,2.16,2.16,0,0,1-2.16,2.16,2.06,2.06,0,0,1-.26,0h0A2.85,2.85,0,0,0,9.27,9.68,2.17,2.17,0,0,1,11.36,8.06ZM8.22,10.22a2.11,2.11,0,1,1-2.1,2.11A2.12,2.12,0,0,1,8.22,10.22Zm4.56,8.69H3.66V17.74A3.71,3.71,0,0,1,6.1,14.26h0a2.82,2.82,0,0,0,2.09.93,2.86,2.86,0,0,0,2.1-.93h0a3.71,3.71,0,0,1,2.44,3.48Zm3.14-2.4v.32H13.34a4.36,4.36,0,0,0-2.61-3.14h0a2.52,2.52,0,0,0,.25-.61c.13,0,.25,0,.38,0a2.89,2.89,0,0,0,1.91-.73l.11,0A4.51,4.51,0,0,1,15.92,16.51Z"/></svg>