<?xml version="1.0" encoding="utf-8"?><svg id="Layer_1" data-name="Layer 1" xmlns="http://www.w3.org/2000/svg" viewBox="0 0 19.59 19.59"><defs><style>.cls-1{fill:#00cecc;}</style></defs><title>4Artboard 34</title><path class="cls-1" d="M6.18,13.81a.31.31,0,1,0-.53.22.32.32,0,0,0,.44,0A.31.31,0,0,0,6.18,13.81Z"/><path class="cls-1" d="M19.59,15.52A2.1,2.1,0,0,0,19,14l-2.79-2.79a2.14,2.14,0,0,0-3,0l-1.41,1.41-.06-.05L7,7.83l0,0L8.36,6.42a2.13,2.13,0,0,0,0-3L5.57.62A2.1,2.1,0,0,0,4.07,0,2.14,2.14,0,0,0,2.56.62l-.73.74a6.26,6.26,0,0,0,0,8.85l2.71,2.71a.31.31,0,0,0,.44,0,.31.31,0,0,0,0-.44L2.27,9.77a5.63,5.63,0,0,1-.48-7.42l.05-.07,3,3a.31.31,0,0,0,.44,0,.31.31,0,0,0,0-.44l-3-3,.06-.05L3,1.06a1.51,1.51,0,0,1,2.14,0L7.92,3.85a1.5,1.5,0,0,1,.44,1.06A1.52,1.52,0,0,1,7.92,6L6.29,7.61a.31.31,0,0,0,0,.44l5.25,5.25a.31.31,0,0,0,.44,0l.44-.44.05.05,4.84,4.84-.07.06a5.65,5.65,0,0,1-7.42-.49L7.07,14.57a.31.31,0,0,0-.22-.09.33.33,0,0,0-.22.09.31.31,0,0,0,0,.44l2.75,2.75a6.26,6.26,0,0,0,8.85,0L19,17A2.14,2.14,0,0,0,19.59,15.52Zm-1.81,1.82-.06-.05-4.86-4.87.05-.05.7-.7a1.48,1.48,0,0,1,1.07-.44,1.46,1.46,0,0,1,1.06.44l2.79,2.79A1.5,1.5,0,0,1,19,15.52a1.54,1.54,0,0,1-.44,1.07Z"/><path class="cls-1" d="M5.67,6a.36.36,0,0,0,.09.22.33.33,0,0,0,.44,0A.31.31,0,0,0,6.29,6a.28.28,0,0,0-.09-.22A.3.3,0,0,0,6,5.67a.32.32,0,0,0-.22.1A.32.32,0,0,0,5.67,6Z"/></svg>