<?xml version="1.0" encoding="utf-8"?><svg id="Layer_1" data-name="Layer 1" xmlns="http://www.w3.org/2000/svg" viewBox="0 0 58.01 95.45"><defs><style>.cls-1{fill:none;}.cls-2{fill:#00cecc;}</style></defs><title>4Artboard 38</title><path class="cls-1" d="M14.8,20.81a14.18,14.18,0,0,1,28.35,0V36h3.64V20.81a17.82,17.82,0,0,0-35.63,0V44.17H14.8Z"/><path class="cls-1" d="M27.77,70.45v4.13a1.2,1.2,0,0,0,2.4,0V70.45a1.22,1.22,0,0,1,.59-1,3.5,3.5,0,0,0-2-6.51,3.5,3.5,0,0,0-1.56,6.51A1.2,1.2,0,0,1,27.77,70.45Z"/><path class="cls-1" d="M3.1,89.56a2.51,2.51,0,0,0,2.51,2.51H52.34a2.5,2.5,0,0,0,2.5-2.51v-1H3.1Z"/><path class="cls-1" d="M3.1,86.16H54.84V52.51H3.1ZM28.6,60.48H29A5.85,5.85,0,0,1,33,62.08,5.91,5.91,0,0,1,34.9,66.4,6,6,0,0,1,32.73,71l-.14.1v3.49a3.62,3.62,0,0,1-7.24,0V71.09l-.13-.1A5.94,5.94,0,0,1,28.6,60.48Z"/><path class="cls-1" d="M52.34,46.6H5.61A2.51,2.51,0,0,0,3.1,49.1v1H54.84v-1A2.5,2.5,0,0,0,52.34,46.6Z"/><path class="cls-2" d="M52.34,44.17H17.21V20.81a11.76,11.76,0,0,1,23.52,0v16.4a1.22,1.22,0,0,0,1.21,1.22H48a1.22,1.22,0,0,0,1.21-1.22V20.81a20.24,20.24,0,0,0-40.47,0V44.17H5.61A4.93,4.93,0,0,0,.68,49.1V89.56a4.93,4.93,0,0,0,4.93,4.93H52.34a4.93,4.93,0,0,0,4.93-4.93V49.1A4.93,4.93,0,0,0,52.34,44.17ZM11.16,20.81a17.82,17.82,0,0,1,35.63,0V36H43.15V20.81a14.18,14.18,0,0,0-28.35,0V44.17H11.16ZM54.84,89.56a2.5,2.5,0,0,1-2.5,2.51H5.61A2.51,2.51,0,0,1,3.1,89.56v-1H54.84Zm0-3.4H3.1V52.51H54.84Zm0-36.07H3.1v-1a2.51,2.51,0,0,1,2.51-2.5H52.34a2.5,2.5,0,0,1,2.5,2.5Z"/><path class="cls-2" d="M25.35,71.09v3.49a3.62,3.62,0,0,0,7.24,0V71.09l.14-.1A6,6,0,0,0,34.9,66.4,5.91,5.91,0,0,0,33,62.08,5.85,5.85,0,0,0,29,60.47H28.6A5.94,5.94,0,0,0,25.22,71Zm3.39-8.19a3.5,3.5,0,0,1,2,6.51,1.22,1.22,0,0,0-.59,1v4.13a1.2,1.2,0,0,1-2.4,0V70.45a1.2,1.2,0,0,0-.59-1,3.5,3.5,0,0,1,1.56-6.51Z"/></svg>