<?xml version="1.0" encoding="utf-8"?><svg id="Layer_1" data-name="Layer 1" xmlns="http://www.w3.org/2000/svg" viewBox="0 0 19.58 17.99"><defs><style>.cls-1{fill:#00cecc;}</style></defs><title>4Artboard 27</title><path class="cls-1" d="M12.93,6.78a3.33,3.33,0,1,0,6.65,0,.31.31,0,0,0-.32-.31h-.32V6.41a19.92,19.92,0,0,0-2.15-4.55l0-.06.06,0A.93.93,0,0,0,17.22,1a1,1,0,1,0-1.51.79l.06,0,0,.06a19.49,19.49,0,0,0-2.14,4.55l0,.06h-.32A.31.31,0,0,0,12.93,6.78ZM16.26.64a.33.33,0,0,1,0,.66.33.33,0,0,1,0-.66Zm-2,5.73a20.49,20.49,0,0,1,2-4l.07-.1.06.1a20.88,20.88,0,0,1,1.95,4l0,.1H14.22Zm4.69.73v.09a2.69,2.69,0,0,1-5.32,0l0-.09Z"/><path class="cls-1" d="M3.33,12.93A3.32,3.32,0,0,0,6.65,9.61a.32.32,0,0,0-.32-.32H6V9.23A19.65,19.65,0,0,0,3.85,4.69l0-.06.06,0a1,1,0,0,0,.41-.66V3.88h0L8.53,3l0,0a1.54,1.54,0,0,0,.27.36l0,0V14.49H7.77a.31.31,0,0,0-.32.31v1.08H6.33A.31.31,0,0,0,6,16.2v1.47a.32.32,0,0,0,.31.32h7a.33.33,0,0,0,.32-.32V16.2a.32.32,0,0,0-.32-.32H12.18V14.8a.32.32,0,0,0-.32-.31H10.78V3.4l0,0a1.46,1.46,0,0,0,.42-.94V2.38h.06L13,2a.3.3,0,0,0,.2-.13.33.33,0,0,0-.34-.49l-1.72.37,0-.05A1.44,1.44,0,0,0,9.81,1,1.41,1.41,0,0,0,8.4,2.29v0l-.05,0-4.21.9,0,0a1,1,0,0,0-.78-.4,1,1,0,0,0-.55,1.77l.06,0,0,.06A19.65,19.65,0,0,0,.65,9.23v.06H.32A.32.32,0,0,0,0,9.61,3.33,3.33,0,0,0,3.33,12.93ZM13,16.51v.84H6.65v-.84ZM9.81,1.59A.78.78,0,1,1,9,2.37.78.78,0,0,1,9.81,1.59Zm.34,2.16V14.49H9.47V3.75h.09a1.06,1.06,0,0,0,.5,0Zm1.39,11.37v.76H8.08v-.76ZM3.33,3.46a.33.33,0,0,1,0,.66.33.33,0,0,1,0-.66Zm-2,5.74a19.69,19.69,0,0,1,1.95-4l.06-.11.07.11a21.18,21.18,0,0,1,1.95,4l0,.09H1.29ZM6,9.93,6,10A2.68,2.68,0,0,1,.67,10l0-.08Z"/><path class="cls-1" d="M13.8,1.53a.32.32,0,0,0,.37.25l.29-.07a.32.32,0,0,0,.25-.38.34.34,0,0,0-.32-.25h-.06L14,1.15A.32.32,0,0,0,13.8,1.53Z"/></svg>