<?xml version="1.0" encoding="utf-8"?><svg id="Layer_1" data-name="Layer 1" xmlns="http://www.w3.org/2000/svg" viewBox="0 0 19.27 13.17"><defs><style>.cls-1{fill:#00cecc;}</style></defs><title>4Artboard 33</title><path class="cls-1" d="M11,10.9,8,1.24A1.76,1.76,0,0,0,6.31,0H4.73A1.75,1.75,0,0,0,3.05,1.24L.07,11a1.73,1.73,0,0,0,.26,1.51,1.7,1.7,0,0,0,3-.56l.55-2H7l0,.06.58,1.92a1.73,1.73,0,0,0,1.68,1.25A1.75,1.75,0,0,0,11,10.9Zm-.74,1.2a1.17,1.17,0,0,1-.93.48,1.14,1.14,0,0,1-1.11-.83L7.54,9.56a.3.3,0,0,0-.29-.21H3.65a.31.31,0,0,0-.29.22l-.61,2.2a1.09,1.09,0,0,1-1.06.81,1.11,1.11,0,0,1-.88-.45,1.08,1.08,0,0,1-.16-1l3-9.74A1.16,1.16,0,0,1,4.73.6H6.31a1.16,1.16,0,0,1,1.11.81h0l3,9.66A1.13,1.13,0,0,1,10.24,12.1Z"/><path class="cls-1" d="M6.34,4.77c-.18-.63-.38-1.42-.54-2l-.09-.37a.29.29,0,0,0-.29-.22h0a.29.29,0,0,0-.29.22q-.1.42-.21.9l0,.08c-.12.52-.23,1-.35,1.44L3.77,7.44a.34.34,0,0,0,0,.26.33.33,0,0,0,.24.12H6.84a.3.3,0,0,0,.24-.12.31.31,0,0,0,0-.26ZM4.46,7.22l.63-2.29c.08-.26.16-.59.26-1l.06-.29.08.29c.1.39.2.73.28,1l.67,2.29Z"/><path class="cls-1" d="M17,10.48l-.07,0A1.74,1.74,0,0,0,17,10V9.18a.29.29,0,0,0-.29-.3h-.09a2.79,2.79,0,0,0-2,.57,1.21,1.21,0,0,0-.36.9,1.14,1.14,0,0,0,1.21,1.19,1.59,1.59,0,0,0,1.5-1.07ZM16.37,10a1.48,1.48,0,0,1,0,.31,1,1,0,0,1-.93.64.53.53,0,0,1-.61-.59A.65.65,0,0,1,15,9.87a2.09,2.09,0,0,1,1.31-.39h.08Zm.25.47v-.15h0Z"/><path class="cls-1" d="M19.27,12.13c0-.33,0-.75,0-1.24V8.29C19.23,6,18,4.77,15.64,4.77a7.25,7.25,0,0,0-2.35.38,1.06,1.06,0,0,0-.66,1.28v0a1.05,1.05,0,0,0,.53.64,1,1,0,0,0,.83.07A3.9,3.9,0,0,1,15.23,7c.53,0,.86.13,1,.37l.06.11h-.13A5.17,5.17,0,0,0,12.69,8.6a2.7,2.7,0,0,0-.78,2,2.56,2.56,0,0,0,.72,1.8,2.75,2.75,0,0,0,2,.79,3.15,3.15,0,0,0,1.93-.6l.07-.05,0,.07a.81.81,0,0,0,.71.41h1.08a.82.82,0,0,0,.6-.25A.85.85,0,0,0,19.27,12.13Zm-.66.21a.22.22,0,0,1-.16.07H17.37a.22.22,0,0,1-.21-.18l-.06-.33a.3.3,0,0,0-.3-.24h0a.3.3,0,0,0-.23.11,2.41,2.41,0,0,1-1.91.81,2,2,0,0,1-2.12-2A2.08,2.08,0,0,1,13.12,9a4.77,4.77,0,0,1,3.41-1h.06a.29.29,0,0,0,.3-.29V7.62a1.17,1.17,0,0,0-.34-.85,1.88,1.88,0,0,0-1.32-.41,4.57,4.57,0,0,0-1.42.24.48.48,0,0,1-.37,0,.49.49,0,0,1-.23-.28v0a.43.43,0,0,1,.28-.54,6.46,6.46,0,0,1,2.15-.35c2,0,3,1,3,2.92v2.6c0,.5,0,.93,0,1.28A.19.19,0,0,1,18.61,12.34Z"/></svg>