<?xml version="1.0" encoding="utf-8"?><svg id="Layer_1" data-name="Layer 1" xmlns="http://www.w3.org/2000/svg" xmlns:xlink="http://www.w3.org/1999/xlink" viewBox="0 0 67.83 71.04"><defs><style>.cls-1{fill:none;}.cls-2{fill:#07cdca;}.cls-3{fill:#027096;}.cls-4{fill:#037098;}.cls-5{fill:#0d69f2;}.cls-6{fill:#8e00fe;}.cls-7{fill:#e5e5e5;}.cls-8{clip-path:url(#clip-path);}.cls-9{opacity:0.05;}</style><clipPath id="clip-path"><path class="cls-1" d="M38.18,44.28,51.44,49a.33.33,0,0,1,.21.26.31.31,0,0,1-.13.3l-3.26,2.39,4,3.94a.34.34,0,0,1,0,.46l-2.39,2.39a.33.33,0,0,1-.23.09.35.35,0,0,1-.23-.09l-3.94-3.95L43,58a.3.3,0,0,1-.3.13.33.33,0,0,1-.26-.21l-4.7-13.26a.33.33,0,0,1,.41-.41Z"/></clipPath></defs><title>faq-make-choice</title><circle class="cls-2" cx="33.91" cy="40.36" r="9.11"/><circle class="cls-2" cx="33.91" cy="40.36" r="9.11"/><circle class="cls-3" cx="33.91" cy="40.36" r="9.11"/><path class="cls-4" d="M34,29.29a1.18,1.18,0,0,1-1.18-1.15L32.64,20a1.17,1.17,0,0,1,1.15-1.2h0A1.18,1.18,0,0,1,35,20l.13,8.13A1.17,1.17,0,0,1,34,29.29Z"/><circle class="cls-5" cx="33.91" cy="7.74" r="7.74"/><circle class="cls-6" cx="7.74" cy="14.19" r="7.74"/><circle class="cls-2" cx="60.09" cy="14.19" r="7.74"/><path class="cls-4" d="M24.66,32.42a1.16,1.16,0,0,1-.83-.34l-7.94-7.94a1.18,1.18,0,1,1,1.66-1.67l7.94,8a1.17,1.17,0,0,1-.83,2Z"/><path class="cls-4" d="M42.89,32.42a1.17,1.17,0,0,1-.83-2l7.95-8a1.18,1.18,0,1,1,1.66,1.67l-8,7.94A1.16,1.16,0,0,1,42.89,32.42Z"/><path class="cls-7" d="M38.23,44.28,51.49,49a.33.33,0,0,1,.21.26.31.31,0,0,1-.13.3l-3.26,2.39,3.94,3.94a.32.32,0,0,1,0,.46l-2.39,2.39a.31.31,0,0,1-.22.09.33.33,0,0,1-.23-.09l-3.94-3.95L43.08,58a.31.31,0,0,1-.31.13.33.33,0,0,1-.25-.21l-4.7-13.26a.33.33,0,0,1,.07-.33A.33.33,0,0,1,38.23,44.28Z"/><g class="cls-8"><g class="cls-9"><path d="M35.73,71a13.7,13.7,0,1,0-2.57-27.27L51.56,42l2.57,27.27Z"/></g></g></svg>