<?xml version="1.0" encoding="utf-8"?><svg id="Layer_1" data-name="Layer 1" xmlns="http://www.w3.org/2000/svg" viewBox="0 0 64.51 53.82"><defs><style>.cls-1{fill:#f9f9f9;}.cls-2{opacity:0.9;}.cls-3{fill:#8c02fc;}.cls-4{opacity:0.7;}.cls-5{opacity:0.5;}.cls-6{fill:#ccc;}.cls-7{fill:#b9bcbf;}.cls-8{fill:#485059;}.cls-9{fill:#037098;}.cls-10{fill:#8e00fe;}.cls-11{fill:#0d69f2;}</style></defs><title>faq-3</title><path class="cls-1" d="M64.51,0V51.24a2.58,2.58,0,0,1-2.58,2.58H2.58A2.58,2.58,0,0,1,0,51.24V2.58A2.59,2.59,0,0,1,2.58,0H64.51"/><g class="cls-2"><circle class="cls-3" cx="2.69" cy="2.86" r="0.73"/></g><g class="cls-4"><circle class="cls-3" cx="5.62" cy="2.86" r="0.73"/></g><g class="cls-5"><circle class="cls-3" cx="8.55" cy="2.86" r="0.73"/></g><path class="cls-6" d="M60.13,3.57H12.42a.71.71,0,0,1,0-1.42H60.13Z"/><path class="cls-6" d="M14.3,8.45h-12A.71.71,0,1,1,2.32,7h12a.71.71,0,0,1,0,1.42Z"/><path class="cls-7" d="M14.86,18.17H8.15a.71.71,0,1,1,0-1.42h6.71a.71.71,0,0,1,0,1.42Z"/><path class="cls-7" d="M5.74,18.17h0a.71.71,0,1,1,0-1.42h0a.71.71,0,0,1,0,1.42Z"/><path class="cls-7" d="M14.86,23.13H8.15a.71.71,0,1,1,0-1.41h6.71a.71.71,0,1,1,0,1.41Z"/><path class="cls-7" d="M5.74,23.13h0a.71.71,0,1,1,0-1.41h0a.71.71,0,1,1,0,1.41Z"/><path class="cls-7" d="M14.86,28.1H8.15a.71.71,0,1,1,0-1.42h6.71a.71.71,0,0,1,0,1.42Z"/><path class="cls-7" d="M5.74,28.1h0a.71.71,0,1,1,0-1.42h0a.71.71,0,0,1,0,1.42Z"/><path class="cls-8" d="M33.89,23.77H30.77a.65.65,0,1,1,0-1.29H33.9a.65.65,0,0,1,0,1.29Z"/><path class="cls-8" d="M33.89,29.27H30.77a.64.64,0,1,1,0-1.28H33.9a.64.64,0,0,1,.64.64A.65.65,0,0,1,33.89,29.27Z"/><path class="cls-9" d="M35.07,16l-.51-.51a.07.07,0,0,0-.1,0l-2.75,2.75L30.48,17a.07.07,0,0,0-.09,0l-.52.51a.07.07,0,0,0,0,.09l1.28,1.28.51.51a.06.06,0,0,0,.09,0l.52-.51,2.8-2.8A.07.07,0,0,0,35.07,16Z"/><path class="cls-8" d="M33.89,40.56H30.77a.65.65,0,0,1-.65-.64.66.66,0,0,1,.65-.65H33.9a.65.65,0,1,1,0,1.29Z"/><path class="cls-9" d="M35.07,32.82l-.51-.51a.07.07,0,0,0-.1,0l-2.75,2.75-1.23-1.23a.07.07,0,0,0-.09,0l-.52.51a.09.09,0,0,0,0,.1l1.28,1.27.51.51a.06.06,0,0,0,.09,0l.52-.51,2.8-2.8A.08.08,0,0,0,35.07,32.82Z"/><path class="cls-7" d="M36,47.64l-7.39-.07a.77.77,0,0,1-.78-.77V45.17a.78.78,0,0,1,.78-.78H36a.78.78,0,0,1,.77.78v1.7A.77.77,0,0,1,36,47.64Z"/><path class="cls-7" d="M57.89,47.64l-7.39-.07a.76.76,0,0,1-.77-.77V45.17a.77.77,0,0,1,.77-.78h7.39a.78.78,0,0,1,.78.78v1.7A.77.77,0,0,1,57.89,47.64Z"/><path class="cls-9" d="M56.9,16l-.51-.51a.06.06,0,0,0-.09,0l-2.75,2.75L52.31,17a.07.07,0,0,0-.09,0l-.51.51a.07.07,0,0,0,0,.09L53,18.92l.51.51a.06.06,0,0,0,.09,0l.51-.51,2.8-2.8A.06.06,0,0,0,56.9,16Z"/><path class="cls-9" d="M56.9,21.67l-.51-.51a.06.06,0,0,0-.09,0l-2.75,2.75-1.24-1.23a.07.07,0,0,0-.09,0l-.51.51a.07.07,0,0,0,0,.09L53,24.56l.51.51a.06.06,0,0,0,.09,0l.51-.51,2.8-2.8A.06.06,0,0,0,56.9,21.67Z"/><path class="cls-9" d="M56.9,27.31l-.51-.51a.06.06,0,0,0-.09,0l-2.75,2.75-1.24-1.23a.07.07,0,0,0-.09,0l-.51.51a.07.07,0,0,0,0,.09L53,30.2l.51.51a.06.06,0,0,0,.09,0l.51-.51,2.8-2.8A.06.06,0,0,0,56.9,27.31Z"/><path class="cls-8" d="M55.73,35H52.6a.64.64,0,0,1,0-1.28h3.13a.64.64,0,1,1,0,1.28Z"/><path class="cls-9" d="M56.9,27.26l-.51-.51a.07.07,0,0,0-.09,0l-2.75,2.76-1.24-1.23a.06.06,0,0,0-.09,0l-.51.51a.07.07,0,0,0,0,.09L53,30.16l.51.51a.07.07,0,0,0,.09,0l.51-.51,2.8-2.8A.07.07,0,0,0,56.9,27.26Z"/><path class="cls-9" d="M56.9,38.61l-.51-.52a.07.07,0,0,0-.09,0l-2.75,2.76-1.24-1.23a.06.06,0,0,0-.09,0l-.51.51a.07.07,0,0,0,0,.09L53,41.5l.51.51a.06.06,0,0,0,.09,0l.51-.51,2.8-2.8A.06.06,0,0,0,56.9,38.61Z"/><rect class="cls-6" x="20.75" y="12.61" width="1.1" height="41.21"/><rect class="cls-6" x="42.71" y="12.61" width="1.1" height="41.21"/><rect class="cls-6" y="12.06" width="64.51" height="1.1"/><path class="cls-10" d="M34.17,6.83h-1v-1a.09.09,0,0,0-.09-.08H31.88a.09.09,0,0,0-.09.08v1h-1a.09.09,0,0,0-.08.09V8.1a.09.09,0,0,0,.08.09h1v1a.08.08,0,0,0,.09.08h1.18a.08.08,0,0,0,.09-.08v-1h1a.08.08,0,0,0,.08-.09V6.92A.08.08,0,0,0,34.17,6.83Z"/><path class="cls-11" d="M55.87,6.83h-1v-1a.09.09,0,0,0-.09-.08H53.57a.09.09,0,0,0-.08.08v1h-1a.08.08,0,0,0-.08.09V8.1a.08.08,0,0,0,.08.09h1v1a.08.08,0,0,0,.08.08h1.19a.08.08,0,0,0,.09-.08v-1h1A.09.09,0,0,0,56,8.1V6.92A.09.09,0,0,0,55.87,6.83Z"/></svg>