<?xml version="1.0" encoding="utf-8"?><svg xmlns="http://www.w3.org/2000/svg" viewBox="0 0 59.36 59.89"><defs><style>.cls-1,.cls-4{isolation:isolate;}.cls-2{fill:#72b3e7;}.cls-3{fill:#00707c;}.cls-4{opacity:0.1;}.cls-5{fill:#fff;}.cls-6{fill:#037098;}.cls-7{fill:#485059;}.cls-8{fill:#ed9e0d;}.cls-9{opacity:0.75;}.cls-10,.cls-9{mix-blend-mode:screen;}.cls-10{opacity:0.5;}</style></defs><title>legal-rights</title><g class="cls-1"><g id="Layer_1" data-name="Layer 1"><g id="SVGCleanerId_0" data-name="SVGCleanerId 0"><path class="cls-2" d="M45.44,59.88H3.67A3.67,3.67,0,0,1,0,56.2V3.67A3.67,3.67,0,0,1,3.67,0H45.44a3.67,3.67,0,0,1,3.67,3.67V56.2A3.67,3.67,0,0,1,45.44,59.88Z"/></g><g id="SVGCleanerId_0-2" data-name="SVGCleanerId 0"><path class="cls-3" d="M46.54,59.89H2.59A2.58,2.58,0,0,1,0,57.31V2.59A2.57,2.57,0,0,1,2.59,0h44a2.57,2.57,0,0,1,2.58,2.58V57.31A2.58,2.58,0,0,1,46.54,59.89Z"/></g><g class="cls-4"><path d="M3.91,55.43V9A2.2,2.2,0,0,1,6.15,6.87H43A2.2,2.2,0,0,1,45.22,9V55.43A2.2,2.2,0,0,1,43,57.6H6.15A2.2,2.2,0,0,1,3.91,55.43Z"/></g><path class="cls-5" d="M3.91,54.88V5A1.28,1.28,0,0,1,5.2,3.73H43.93A1.29,1.29,0,0,1,45.22,5V54.88a1.29,1.29,0,0,1-1.29,1.29H5.2A1.29,1.29,0,0,1,3.91,54.88Z"/><path class="cls-6" d="M39.49,15.52H30.94a1,1,0,0,1,0-2.09h8.55a1,1,0,0,1,0,2.09Z"/><path class="cls-6" d="M39.49,10.84H28.24a1,1,0,0,1,0-2.09H39.49a1,1,0,0,1,0,2.09Z"/><path class="cls-7" d="M37.75,25.26H11.36a1,1,0,0,1,0-2.09H37.75a1,1,0,1,1,0,2.09Z"/><path class="cls-7" d="M37.75,30H11.36a1,1,0,0,1,0-2.09H37.75a1,1,0,1,1,0,2.09Z"/><path class="cls-7" d="M37.75,34.63H11.36a1,1,0,0,1,0-2.09H37.75a1,1,0,1,1,0,2.09Z"/><path class="cls-7" d="M37.75,39.32H11.36a1,1,0,0,1,0-2.09H37.75a1,1,0,1,1,0,2.09Z"/><g class="cls-4"><path d="M45.44,0a3.67,3.67,0,0,1,3.67,3.67V56.2a3.67,3.67,0,0,1-3.67,3.68H23C40.37,51,39,17.33,38.55,0Z"/></g><path class="cls-7" d="M19.52,45a19.15,19.15,0,0,0-4,2.54A3.48,3.48,0,0,0,15,46a1.47,1.47,0,0,0-1.19-.65c-1.26,0-2.63,1.56-3.16,2.24a.93.93,0,0,0,1.46,1.14,6.65,6.65,0,0,1,1.47-1.43,4.45,4.45,0,0,1,.12.73c.07.62.16,1.41.91,1.7a1.22,1.22,0,0,0,.46.09,2.61,2.61,0,0,0,1.55-.75,17.21,17.21,0,0,1,3.68-2.33.93.93,0,0,0-.75-1.7Z"/><path class="cls-8" d="M45,45.32H51.4a.65.65,0,0,1,.65.64v2.25H44.34V46A.64.64,0,0,1,45,45.32Z"/><path class="cls-8" d="M53.49,34.72a5.3,5.3,0,1,0-8.63,4.12,3.94,3.94,0,0,1,1.41,3.08v3.4h3.85V41.83a3.79,3.79,0,0,1,1.37-3,5.27,5.27,0,0,0,2-4.14"/><g class="cls-9"><path class="cls-8" d="M53.49,34.72a5.3,5.3,0,1,0-8.63,4.12,3.94,3.94,0,0,1,1.41,3.08v3.4h3.85V41.83a3.79,3.79,0,0,1,1.37-3,5.27,5.27,0,0,0,2-4.14"/></g><rect class="cls-3" x="37.02" y="48.2" width="22.33" height="9.14" rx="1.29" transform="matrix(1, 0, 0, 1, -0.05, 0.05)"/><g id="Shape"><path class="cls-3" d="M39.06,57.35l18.27,0v1.89a.65.65,0,0,1-.64.65h-17a.63.63,0,0,1-.65-.64Z"/></g><g id="Shape-2" data-name="Shape" class="cls-10"><path class="cls-3" d="M39.06,57.34H57.33v1.89a.65.65,0,0,1-.65.65h-17a.64.64,0,0,1-.64-.65Z"/></g><g class="cls-4"><path d="M59.35,49.48a1.29,1.29,0,0,0-1.29-1.29l-19.75,0A1.3,1.3,0,0,0,37,49.51v1.24H59.35Z"/></g></g></g></svg>