<?xml version="1.0" encoding="utf-8"?><svg id="Layer_1" data-name="Layer 1" xmlns="http://www.w3.org/2000/svg" viewBox="0 0 19.58 19.58"><defs><style>.cls-1{fill:#00cecc;}</style></defs><title>4Artboard 25</title><path class="cls-1" d="M6.08,15.39l0,0h.13l.06,0,0,0,0,0a.1.1,0,0,1,0-.05.14.14,0,0,0,0-.06.08.08,0,0,0,0-.05.22.22,0,0,0,0-.13.14.14,0,0,0,0-.06.09.09,0,0,0,0-.05l0,0,0,0,0,0-.06,0H6.14l-.06,0s0,0,0,0l0,0,0,0,0,.06,0,0v.12l0,.06,0,.06,0,.05,0,0Z"/><path class="cls-1" d="M.31,18.87H2.6a.31.31,0,0,0,.31-.31v-.41H4.06a.31.31,0,0,0,.31-.31v-.19h.08a2.77,2.77,0,0,1,1.44.52A25.48,25.48,0,0,0,8.2,19.35a3.46,3.46,0,0,0,1.23.23,3.1,3.1,0,0,0,1.24-.26l6-2.14a1.58,1.58,0,0,0,.93-2h0a1.53,1.53,0,0,0-2.08-.76l-2.76.76,0-.07a1.67,1.67,0,0,0-1-1l-3-1h0A2.91,2.91,0,0,0,6.29,12a3,3,0,0,0-2.35,1.41l0,0H.31A.31.31,0,0,0,0,13.7v4.86A.31.31,0,0,0,.31,18.87Zm4.06-5v0a2.46,2.46,0,0,1,1.91-1.24,2.27,2.27,0,0,1,1.94.92.31.31,0,0,0,.17.13l3.06,1a.94.94,0,0,1,.68,1.11.82.82,0,0,1-1,.57L7.67,15.25a.29.29,0,0,0-.24,0,.31.31,0,0,0-.13.41.31.31,0,0,0,.18.16l3.46,1.09a1.44,1.44,0,0,0,1.8-1s0-.06,0-.09v0l0,0,2.9-.8c.62-.21,1.09-.07,1.3.41a1,1,0,0,1-.62,1.21h0l-6,2.13a2.35,2.35,0,0,1-1,.22,2.77,2.77,0,0,1-1-.18,21.79,21.79,0,0,1-2.23-1.14h0A3.43,3.43,0,0,0,4.44,17H4.37ZM2.91,14h.84v3.52H2.91ZM.62,14H2.29v4.24H.62Z"/><path class="cls-1" d="M13.21,4.81l0,0a.1.1,0,0,0,0,.05l0,0s0,0,0,.06v.12l0,.06,0,0,0,0,0,0,.06,0h.24l.05,0,0,0,0,0,0,0a.14.14,0,0,0,0-.06s0,0,0-.06,0,0,0-.06a.14.14,0,0,0,0-.06l0,0,0-.05,0,0-.06,0h-.23Z"/><path class="cls-1" d="M19.27,1.31H17a.31.31,0,0,0-.31.31V2H15.52a.31.31,0,0,0-.31.31v.2h-.08A2.81,2.81,0,0,1,13.69,2,22.6,22.6,0,0,0,11.38.83h0a3.17,3.17,0,0,0-2.45,0l-1.6.57,0,0L6,.09a.31.31,0,0,0-.44,0L1.24,4.38a.3.3,0,0,0,0,.44l7.33,7.34a.36.36,0,0,0,.44,0L13,8.21h.35a3,3,0,0,0,2.34-1.41l0,0h3.6a.31.31,0,0,0,.31-.31V1.62A.31.31,0,0,0,19.27,1.31ZM5.75.75,5.8.8l1,1-.08.05a1.78,1.78,0,0,1-.92.26,1.75,1.75,0,0,1-.92-.26l-.08-.05ZM2.94,5.52l0,.08-1-1,.06,0,.94-.95,0,.09a1.74,1.74,0,0,1,0,1.83Zm6.78,5.05-.93.93,0-.05-1-.95.08-.05a1.74,1.74,0,0,1,1.84,0l.08.05Zm1.44-1.44-.93.93-.05,0A2.37,2.37,0,0,0,7.4,10l-.05,0,0-.05-4-4,0,0A2.29,2.29,0,0,0,3.82,4.6a2.33,2.33,0,0,0-.45-1.39l0,0,0,0,.93-.93.05,0a2.35,2.35,0,0,0,1.39.45,2.4,2.4,0,0,0,1.39-.45l.05,0,0,.05.94.94L8,3.2a1.35,1.35,0,0,0-.5.17A1.34,1.34,0,0,0,6.94,4l0,0h0A2.11,2.11,0,0,0,5.77,7.62a2.1,2.1,0,0,0,3,0,2,2,0,0,0,.55-1l0-.07,1.44.49v.06A2.39,2.39,0,0,0,11.16,9l0,.06ZM7.9,6.1h0l.83.28,0,.07a1.54,1.54,0,0,1-.4.74,1.5,1.5,0,0,1-1.06.43,1.48,1.48,0,0,1-1.06-.43,1.5,1.5,0,0,1,0-2.13,1.34,1.34,0,0,1,.49-.32l.09,0v.1A1.65,1.65,0,0,0,7.9,6.1Zm3.74,2.54,0-.08a1.66,1.66,0,0,1-.26-.84V7.57l.13.09a2.64,2.64,0,0,0,.66.36l.11,0Zm3.57-2.3v0a2.46,2.46,0,0,1-1.9,1.25l-.42,0h-.06a2.25,2.25,0,0,1-1.41-.8l0,0,0,0a.28.28,0,0,0-.18-.14l-3.06-1a.94.94,0,0,1-.68-1.1V4.35h0a.82.82,0,0,1,.38-.44.84.84,0,0,1,.62-.08l3.45,1.1a.31.31,0,0,0,.39-.2.29.29,0,0,0,0-.24.3.3,0,0,0-.18-.15L9.32,3.45h0V3.4L7.79,1.92l1.34-.48h0a2.68,2.68,0,0,1,2,0,23.15,23.15,0,0,1,2.25,1.15,3.34,3.34,0,0,0,1.76.6h.07Zm1.46-.17h-.84V2.64h.84Zm2.29,0H17.29V1.93H19Z"/></svg>