<?xml version="1.0" encoding="utf-8"?><svg id="Layer_1" data-name="Layer 1" xmlns="http://www.w3.org/2000/svg" viewBox="0 0 19.35 16.81"><defs><style>.cls-1{fill:#00cecc;}</style></defs><title>4Artboard 29</title><path class="cls-1" d="M19.35,1.71a1.72,1.72,0,0,0-3.43,0A1.74,1.74,0,0,0,16.52,3l.12.1-.08.14L13,9.29l-.15,0a1.68,1.68,0,0,0-1,0l-.11,0,0,0L8.47,5.83l0-.12A1.66,1.66,0,0,0,8.68,5a1.72,1.72,0,1,0-2.9,1.24l.11.1,0,0L2.09,13.42,2,13.4a1.06,1.06,0,0,0-.25,0,1.71,1.71,0,1,0,1.22.5l-.11-.1,0,0L6.63,6.67h.13L7,6.7a1.76,1.76,0,0,0,.81-.2l.13-.08L11,9.7l-.1.13a1.69,1.69,0,0,0-.34,1,1.72,1.72,0,1,0,3.43,0,1.68,1.68,0,0,0-.29-.94l-.06-.1,0,0,3.8-6.35h.21A1.72,1.72,0,0,0,19.35,1.71ZM1.71,16a.9.9,0,1,1,.9-.9A.89.89,0,0,1,1.71,16ZM7,5.88a.9.9,0,1,1,0-1.8.9.9,0,0,1,0,1.8Zm5.26,5.87a.9.9,0,1,1,.9-.9A.9.9,0,0,1,12.23,11.75Zm5.4-9.14a.9.9,0,1,1,.9-.9A.9.9,0,0,1,17.63,2.61Z"/></svg>