<?xml version="1.0" encoding="utf-8"?><svg id="Layer_1" data-name="Layer 1" xmlns="http://www.w3.org/2000/svg" viewBox="0 0 19.58 19.58"><defs><style>.cls-1{fill:#00cecc;}</style></defs><title>4Artboard 28</title><path class="cls-1" d="M16.57,5.48a.31.31,0,1,0,0-.62.31.31,0,0,0,0,.62Z"/><path class="cls-1" d="M18,6.32a.31.31,0,0,0-.62,0,.85.85,0,1,1-1.69,0V6.23a.31.31,0,0,0-.27-.35h0a.34.34,0,0,0-.19.07.31.31,0,0,0-.11.21.86.86,0,0,0,0,.16,1.47,1.47,0,1,0,2.93,0Z"/><path class="cls-1" d="M19.58,6.32a3,3,0,1,0-4.13,2.79l0,0v4A4.41,4.41,0,0,1,11,17.3a4.58,4.58,0,0,1-3.3-1.5,4.06,4.06,0,0,1-1.14-3.08v-.05h0A4.63,4.63,0,0,0,10.1,8.85l.83-5A2.63,2.63,0,0,0,9,.84L8.7.77v0A1.47,1.47,0,1,0,7.41,2.93,1.49,1.49,0,0,0,8,2.83H8l.48.12a.46.46,0,0,1,.34.52L8.55,4.91,8,8.51a2.52,2.52,0,0,1-5,0H3v0l-.83-5a.46.46,0,0,1,.34-.52L3,2.82H3A1.48,1.48,0,0,0,5,1.47,1.47,1.47,0,0,0,2.28.74v0L2,.84A2.63,2.63,0,0,0,0,3.83l.82,5a4.64,4.64,0,0,0,3.5,3.82l.06,0v.06a6.5,6.5,0,0,0,1.85,4.73A6.67,6.67,0,0,0,11,19.58a6.55,6.55,0,0,0,6.64-6.28V9.13l0,0A3,3,0,0,0,19.58,6.32Zm-12.17-4a.85.85,0,1,1,.85-.84A.85.85,0,0,1,7.41,2.31ZM3.56.62a.85.85,0,1,1-.85.85A.85.85,0,0,1,3.56.62ZM1.48,8.75v0l-.83-5A2,2,0,0,1,2,1.48l.09,0v.1a1.57,1.57,0,0,0,.23.7l.05.08-.09,0a1.09,1.09,0,0,0-.72,1.21l.83,5a3.13,3.13,0,0,0,6.19,0L9.16,5l.25-1.44a1.09,1.09,0,0,0-.72-1.21l-.09,0,.05-.08a1.57,1.57,0,0,0,.23-.7v-.1l.09,0a2,2,0,0,1,1.35,2.25l-.83,5a4,4,0,0,1-4,3.43h0A4,4,0,0,1,1.48,8.75ZM17,13.3A6,6,0,0,1,6.75,17.08,5.85,5.85,0,0,1,5,12.86v-.08h.08a4.82,4.82,0,0,0,.76,0H6v.08A4.75,4.75,0,0,0,7.33,16.3,5.2,5.2,0,0,0,11,17.92a5,5,0,0,0,5.09-4.74V9.3h.09a3.14,3.14,0,0,0,.75,0H17Zm-.46-4.59h0A2.39,2.39,0,1,1,18.24,8,2.35,2.35,0,0,1,16.58,8.71Z"/></svg>