<?xml version="1.0" encoding="utf-8"?><svg xmlns="http://www.w3.org/2000/svg" xmlns:xlink="http://www.w3.org/1999/xlink" viewBox="0 0 71.14 70.94"><defs><style>.cls-1{fill:none;}.cls-2,.cls-5{isolation:isolate;}.cls-3{fill:#f9f9f9;}.cls-4{clip-path:url(#clip-path);}.cls-5{opacity:0.1;}.cls-6{opacity:0.1;}.cls-7{fill:#3e90ca;}.cls-8,.cls-9{fill:#333;}.cls-8{opacity:0.25;}.cls-10{fill:#037098;}.cls-11{opacity:0.5;mix-blend-mode:multiply;}.cls-12{fill:#e5e5e5;}</style><clipPath id="clip-path"><path id="SVGCleanerId_0" data-name="SVGCleanerId 0" class="cls-1" d="M70.94,16.75V66.24a4.35,4.35,0,0,1-4.35,4.35H4.35A4.35,4.35,0,0,1,0,66.24V16.75A4.35,4.35,0,0,1,4.35,12.4H66.59A4.35,4.35,0,0,1,70.94,16.75Z"/></clipPath></defs><title>faster-treatment-times</title><g class="cls-2"><g id="Layer_1" data-name="Layer 1"><path id="SVGCleanerId_0-2" data-name="SVGCleanerId 0" class="cls-3" d="M70.94,15.9V67.09a3.5,3.5,0,0,1-3.5,3.5H3.5A3.5,3.5,0,0,1,0,67.09V15.9a3.5,3.5,0,0,1,3.5-3.5H67.44A3.5,3.5,0,0,1,70.94,15.9Z"/><g class="cls-4"><path class="cls-5" d="M66.79,0a4.35,4.35,0,0,1,4.35,4.35V66.59a4.35,4.35,0,0,1-4.35,4.35H40.2C60.78,60.4,59.19,20.53,58.63,0Z"/></g><path class="cls-6" d="M0,29.44c.13-2.21.28-4.42.48-6.63H70.94c.19,2.21-.13,4.42,0,6.63"/><path class="cls-7" d="M70.94,16.75a4.35,4.35,0,0,0-4.35-4.35H4.35A4.35,4.35,0,0,0,0,16.75V27.17H70.94Z"/><path class="cls-8" d="M10.74,34.47H6.36a1.26,1.26,0,0,0,0,2.52h4.38a1.26,1.26,0,1,0,0-2.52Z"/><path class="cls-8" d="M19.82,37H24.2a1.26,1.26,0,1,0,0-2.52H19.82a1.26,1.26,0,1,0,0,2.52Z"/><path class="cls-8" d="M33.28,37h4.38a1.26,1.26,0,1,0,0-2.52H33.28a1.26,1.26,0,1,0,0,2.52Z"/><path class="cls-8" d="M46.74,37h4.38a1.26,1.26,0,1,0,0-2.52H46.74a1.26,1.26,0,0,0,0,2.52Z"/><path class="cls-8" d="M64.58,34.47H60.2a1.26,1.26,0,1,0,0,2.52h4.38a1.26,1.26,0,1,0,0-2.52Z"/><path class="cls-8" d="M10.74,40.8H6.36a1.26,1.26,0,1,0,0,2.52h4.38a1.26,1.26,0,1,0,0-2.52Z"/><path class="cls-8" d="M19.82,43.32H24.2a1.26,1.26,0,0,0,0-2.52H19.82a1.26,1.26,0,0,0,0,2.52Z"/><path class="cls-8" d="M33.28,43.32h4.38a1.26,1.26,0,1,0,0-2.52H33.28a1.26,1.26,0,0,0,0,2.52Z"/><path class="cls-9" d="M46.74,43.32h4.38a1.26,1.26,0,1,0,0-2.52H46.74a1.26,1.26,0,0,0,0,2.52Z"/><path d="M64.58,40.8H60.2a1.26,1.26,0,0,0,0,2.52h4.38a1.26,1.26,0,0,0,0-2.52Z"/><path d="M10.74,47.47H6.36a1.26,1.26,0,0,0,0,2.52h4.38a1.26,1.26,0,1,0,0-2.52Z"/><path d="M19.82,50H24.2a1.26,1.26,0,1,0,0-2.52H19.82a1.26,1.26,0,1,0,0,2.52Z"/><path d="M33.28,50h4.38a1.26,1.26,0,1,0,0-2.52H33.28a1.26,1.26,0,1,0,0,2.52Z"/><path d="M46.74,50h4.38a1.26,1.26,0,1,0,0-2.52H46.74a1.26,1.26,0,0,0,0,2.52Z"/><path d="M64.58,47.47H60.2a1.26,1.26,0,0,0,0,2.52h4.38a1.26,1.26,0,1,0,0-2.52Z"/><path d="M10.74,53.81H6.36a1.26,1.26,0,0,0,0,2.52h4.38a1.26,1.26,0,1,0,0-2.52Z"/><path d="M19.82,56.33H24.2a1.26,1.26,0,1,0,0-2.52H19.82a1.26,1.26,0,0,0,0,2.52Z"/><path d="M46.74,56.33h4.38a1.26,1.26,0,1,0,0-2.52H46.74a1.26,1.26,0,0,0,0,2.52Z"/><path d="M64.58,53.81H60.2a1.26,1.26,0,0,0,0,2.52h4.38a1.26,1.26,0,1,0,0-2.52Z"/><path d="M10.74,60.47H6.36a1.26,1.26,0,1,0,0,2.52h4.38a1.26,1.26,0,1,0,0-2.52Z"/><path d="M19.82,63H24.2a1.26,1.26,0,0,0,0-2.52H19.82a1.26,1.26,0,0,0,0,2.52Z"/><path class="cls-10" d="M38.89,52.86l-.78-.78a.1.1,0,0,0-.14,0l-4.21,4.21-1.88-1.88a.1.1,0,0,0-.14,0l-.78.78a.1.1,0,0,0,0,.14l1.95,2,.78.78a.1.1,0,0,0,.14,0l.78-.78L38.89,53A.1.1,0,0,0,38.89,52.86Z"/><g class="cls-11"><path class="cls-10" d="M70.94,15.9a3.5,3.5,0,0,0-3.5-3.5H3.5A3.5,3.5,0,0,0,0,15.9V27.17H70.94Z"/></g><path class="cls-12" d="M12.44,19a3.35,3.35,0,0,1-3.36-3.36V9.15a3.36,3.36,0,0,1,6.72,0v6.5A3.35,3.35,0,0,1,12.44,19Z"/><path class="cls-12" d="M58.5,19a3.35,3.35,0,0,1-3.36-3.36V9.15a3.36,3.36,0,0,1,6.72,0v6.5A3.35,3.35,0,0,1,58.5,19Z"/><path class="cls-6" d="M13.65,18.8a3.42,3.42,0,0,1-1.21.22,3.35,3.35,0,0,1-3.36-3.36V9.16A3.35,3.35,0,0,1,12.44,5.8,3.42,3.42,0,0,1,13.65,6,3.38,3.38,0,0,0,11.5,9.16v6.5A3.38,3.38,0,0,0,13.65,18.8Z"/><path class="cls-6" d="M59.72,18.8A3.52,3.52,0,0,1,58.5,19a3.35,3.35,0,0,1-3.36-3.36V9.16A3.35,3.35,0,0,1,58.5,5.8,3.52,3.52,0,0,1,59.72,6a3.37,3.37,0,0,0-2.15,3.14v6.5A3.37,3.37,0,0,0,59.72,18.8Z"/></g></g></svg>