<?xml version="1.0" encoding="utf-8"?><svg xmlns="http://www.w3.org/2000/svg" viewBox="0 0 43.81 45.22"><defs><style>.cls-1{fill:#fff;}</style></defs><title>filters</title><g id="Labels"><g id="Layer_1-2" data-name="Layer 1"><path class="cls-1" d="M5.75,11.3a5.66,5.66,0,0,0,5.59-4.85H42.91a.8.8,0,0,0,.89-.71.81.81,0,0,0-.71-.9H11.34A5.65,5.65,0,1,0,5.75,11.3Zm0-9.69a4,4,0,1,1-4,4,4,4,0,0,1,4-4Z"/><path class="cls-1" d="M38.09,33.92a5.67,5.67,0,0,0-5.59,4.85H.9a.81.81,0,1,0,0,1.62H32.47a5.65,5.65,0,1,0,5.62-6.47Zm0,9.7a4,4,0,1,1,4-4A4,4,0,0,1,38.09,43.62Z"/><path class="cls-1" d="M42.91,21.81h-15a5.82,5.82,0,0,0-11.57,0H.9a.81.81,0,0,0-.18,1.61H16.34a5.82,5.82,0,0,0,11.47,0h15.1a.8.8,0,0,0,.89-.71.81.81,0,0,0-.71-.9ZM22.09,26.65a4.21,4.21,0,1,1,4.21-4.21h0a4.2,4.2,0,0,1-4.2,4.2Z"/></g></g></svg>