<svg data-name="Layer 1" xmlns="http://www.w3.org/2000/svg" viewBox="0 0 1742 216">
    <path
        d="M1728.9 130.1c-16.5-9.2-35.2-13.5-53.6-17.6-29.3-6.6-60.5-13-88.6-2.7-40.4 14.8-64.1 60.4-105.3 72.9-15.5 4.7-31.8 4.1-47.7 2.6-6.9-.6-10.8-.4-16.6-4.4a97.54 97.54 0 01-16.2-13.9c-16.6-17.9-30.3-41-34.7-65.3-3.6-19.9-1.6-42.4 12.2-57.3 5.6-6 13.4-10.6 21.6-9.8 7.6.7 13.9 5.9 19.2 11.3 10.4 10.8 13.6 24.2 18.9 38.3 1.8 4.9 3.3 10.1 2.3 15.2s-4.3 9.7-9.5 9.6a12.53 12.53 0 01-10.6-7.3c-1.6-3.9-1.5-8.4-1-12.6 1.8-15.2 13.7-30.2 24.3-41.2 2.5-2.6 5.3-5.1 8.7-6.3 5.8-2.1 12.6-.2 17.5 3.7s8 9.6 10.2 15.4c10.1 26 3.6 56.5-12.2 79.5-12.9 18.9-31 35.6-53.3 42.3-23.1 6.9-50.6.4-70.3-13.1-16.9-11.6-25.5-32.6-42.6-43.8-16.7-11-38.6-10.7-57.9-5.5-105.4 28.2-229.7 57.5-338.2 26C829 123.9 760.4 71.3 680.8 69c-84.7-2.5-160.2 52.7-243.6 67.7-76.8 13.8-155.7-7.2-228.4-35.7-32-12.6-63.7-26.7-97.3-34.1s-70-7.7-101.1 6.9"
        fill="none" stroke="#fff" stroke-width="6"/>
</svg>
