<svg xmlns="http://www.w3.org/2000/svg" width="18" height="15" viewBox="0 0 18 15">
    <g>
        <g>
            <path fill="#fff"
                  d="M11.14 12.129c-.6.511-1.218 1.036-1.872 1.6-.608-.528-1.185-1.019-1.743-1.497C4.015 9.244 1.79 7.352 1.79 4.81 1.79 2.606 3.295.936 5.284.936c1.075 0 1.985.515 2.706 1.518.568.79.797 1.603.8 1.61a.497.497 0 0 0 .956.007c.01-.03.95-3.135 3.573-3.135 1.989 0 3.493 1.67 3.493 3.875 0 2.51-2.261 4.423-5.671 7.318zM13.32-.053c-1.405 0-2.636.674-3.563 1.949a6.72 6.72 0 0 0-.478.76 6.442 6.442 0 0 0-.461-.757C7.913.621 6.692-.053 5.284-.053 2.654-.053.8 2.16.8 4.81c0 3.002 2.417 5.06 6.076 8.178a257.19 257.19 0 0 1 2.062 1.773.5.5 0 0 0 .657 0c.771-.674 1.492-1.285 2.189-1.88C15.195 9.995 17.8 7.85 17.8 4.812c0-2.653-1.856-4.864-4.482-4.864z"/>
        </g>
    </g>
</svg>
