<svg id="Layer_1" data-name="Layer 1" xmlns="http://www.w3.org/2000/svg" viewBox="0 0 17 14.94">
    <defs>
        <style>.cls-1{fill:#037098;}</style>
    </defs>
    <title>heart</title>
    <path class="cls-1"
          d="M11.14,12.13c-.6.51-1.22,1-1.87,1.6l-1.74-1.5C4,9.24,1.79,7.35,1.79,4.81A3.62,3.62,0,0,1,5.28.94,3.25,3.25,0,0,1,8,2.45a5.73,5.73,0,0,1,.8,1.61.5.5,0,0,0,1,0S10.7.94,13.32.94a3.62,3.62,0,0,1,3.49,3.87c0,2.51-2.26,4.42-5.67,7.32ZM13.32,0a4.29,4.29,0,0,0-3.56,2,5.41,5.41,0,0,0-.48.76,6.39,6.39,0,0,0-.46-.76A4.25,4.25,0,0,0,5.28,0,4.6,4.6,0,0,0,.8,4.81c0,3,2.42,5.06,6.08,8.18l2.06,1.77a.49.49,0,0,0,.66,0l2.18-1.88c3.41-2.89,6-5,6-8.07A4.61,4.61,0,0,0,13.32,0Z"
          transform="translate(-0.8 0.05)"/>
</svg>
