<svg xmlns="http://www.w3.org/2000/svg" xmlns:xlink="http://www.w3.org/1999/xlink" version="1.1" id="Layer_1" x="0px"
     y="0px" viewBox="0 0 2049.1 157.8" style="enable-background:new 0 0 2049.1 157.8;" xml:space="preserve">
<path style="fill:#ffffff;"
      d="M2049.1,100.9c-7.4,2.6-14.7,5.3-22,8.2c-0.3,0-0.6,0.1-1,0.2c-43.3,16.6-89.3,24.9-135.6,24.6  c-45.2-0.3-87.5-10.2-129.9-25.6c-41.2-14.9-82-30.7-125.7-36.6c-19.7-2.7-40.2-2.7-58.9,4.8c-14.4,5.8-26.8,15.4-38.4,25.6  c-13.2,11.7-25.6,24.5-40.3,34.4c-18.8,12.7-39.2,16.4-61.7,15.1c-6.4-0.4-11.9-0.9-17.1-2.3c18.6-8.4,34.6-23.4,46.2-41.7  c10.9-17.1,17-37.9,15.3-58.2c-1.3-15.7-7.5-38.4-25.3-42.6c-12.7-2.9-23.6,8-31.4,19c-4.7-9-11-17-20.1-22.2  c-16.2-9.1-32.7,1.9-40.9,16.3c-9.3,16.3-9.5,36.5-5.7,54.5c4.5,21.1,15.5,40.5,29.3,57c5.1,6.1,10.8,12.3,17.2,17.2  c-7.9,2-16.1,2.6-24.5,1.7c-21.9-2.4-41.4-12.9-55.4-29.7c-10.7-12.9-20.2-26.9-36.2-33.7c-16.3-6.9-34.7-5.6-51.5-1.3  c-20.4,5.2-40.6,10.7-61,15.6c-43.8,10.4-88.2,19-133.2,22.4c-44.1,3.4-89.1,1.8-132.1-9.2c-41.1-10.4-79-29.9-117.6-47.1  c-35.4-15.8-72.3-30.1-111.4-32.6c-39.7-2.5-78.5,8.1-115.4,21.7c-39.5,14.5-78,32.4-119.1,42.3c-44.8,10.8-91.2,9.4-136.2,0.5  c-44.7-8.9-87.3-24.7-129.4-41.6C140.5,41.6,99.4,26.1,56.2,27.2c-18.9,0.5-37.3,4.5-54.6,12.2c-3.5,1.6-0.5,6.8,3,5.2  c47.9-21.5,101.1-9,148,8.5c47.8,17.8,94.2,38.2,144.3,49.4c47.2,10.5,96.2,13.7,143.8,3.4c45.8-10,88.2-30.5,132.1-46.1  c45.4-16.1,91.7-25,139.5-14.5c46,10.2,87.8,33,130.6,51.7c42.4,18.5,85.7,30.5,132,33.3c48.5,3,97.2-2.5,144.8-11.3  c24.8-4.6,49.3-10.2,73.8-16.3c22-5.5,45.3-14.8,68.1-14.7c26.3,0.1,40.4,15.6,55.6,34.5c12.7,15.7,28.3,26.3,48,31.3  c15.6,4,30.5,3.2,44.3-1.1c8.5,4.6,18.6,4.5,28.1,4.9c21.2,1,41.2-2.4,59.4-13.8c15.8-9.9,29-23.4,42.9-35.7  c15.8-14.1,32.9-26.7,54.2-30.7c26.5-4.9,54.6,1.7,80.3,8.1c47.5,11.8,91.7,34.2,139.4,45.5c46.6,11.1,96.3,11.4,143.4,3.4  c20.7-3.5,41-8.8,60.8-15.8c0.5,0.2,30.5-12.6,31.2-12.9V100.9z M1423.3,40.8c1.6,4.2,3.1,8.5,4.5,12.7c1,2.9,2,5.6,2.2,8.7  c0.4,5-1.5,12.8-8.3,12.1c-11-1.2-6.8-19.2-4.7-24.9c1.4-3.8,3.3-7.5,5.4-11C1422.7,39.2,1423,40,1423.3,40.8z M1403.5,140.9  c-9.3-8-17.2-17.9-23.9-28.2c-11.7-18.1-19.5-39-19.1-60.7c0.3-21.2,18.1-61.3,44.6-39.8c6.6,5.4,11.1,12.1,14.5,19.5  c-1.1,1.8-2.2,3.6-3.1,5.2c-6.6,11.2-14.7,34.6,1.2,42.2c16.9,8.1,20.2-14.4,16.6-25.6c-2.3-6.9-4.7-14.2-7.7-21.2  c6.7-9.8,17.2-23,29.3-18.7c11,4,15.5,18.2,17.4,28.7c2.3,12.1,1.3,24.7-2,36.4c-8.1,29.1-31.3,56.9-60.1,67.5  C1408.5,144.8,1406,143.1,1403.5,140.9z"/>
</svg>
