<svg xmlns="http://www.w3.org/2000/svg" viewBox="0 0 505 392.9">
    <path
        d="M334 392.9H203.4c-4.8 0-8.7-3.9-8.7-8.7V271H81.5c-4.8 0-8.7-3.9-8.7-8.7V131.6c0-4.8 3.9-8.7 8.7-8.7h113.2V9.7c0-4.8 3.9-8.7 8.7-8.7H334c4.8 0 8.7 3.9 8.7 8.7v113.2h113.2c4.8 0 8.7 3.9 8.7 8.7v130.6c0 4.8-3.9 8.7-8.7 8.7H342.7v113.2c0 4.9-3.9 8.8-8.7 8.8zm-252.5-263c-.9 0-1.7.8-1.7 1.7v130.6c0 .9.8 1.7 1.7 1.7h120.2v120.2c0 .9.8 1.7 1.7 1.7H334c.9 0 1.7-.8 1.7-1.7V264h120.2c.9 0 1.7-.8 1.7-1.7V131.6c0-.9-.8-1.7-1.7-1.7H335.7V9.7c0-.9-.8-1.7-1.7-1.7H203.4c-.9 0-1.7.8-1.7 1.7v120.2H81.5z"
        fill="#04cecc" stroke="#037098" stroke-width="2" stroke-miterlimit="10"/>
    <path
        d="M503 196.7h0c-14.3-7.1-30.3-10.2-45.8-13.1l-.9-.2c-16-3-33-5.8-49.6-3.8-13.3 1.6-25.6 6.7-37.6 15.4-6.8 4.9-13 10.6-19.1 16-3.1 2.8-6.4 5.7-9.6 8.5-8.6 7.3-20.2 16.1-34.2 19.6-7.4 1.9-15.6 2.5-26.7 2.1-3.8-.1-7.8-.3-11.6-.7-.5-.1-1.1-.1-1.6-.2 2-.9 3.9-1.8 5.7-2.9 29.6-16.8 46.6-50.9 39.7-79.4-2.3-9.4-6.2-16.2-11.5-20.2-6.1-4.5-13.8-4.9-19.6-1-4 2.7-7.9 6.7-12 12.2-3.3-5.7-7.5-10.4-12.4-14-6.7-4.8-14.1-5.9-20.9-3.1-6.4 2.6-11.9 8.1-15.5 15.4-8.2 16.3-4.1 34.6-.9 44 5 14.8 14.4 29.1 27.2 41.3 2.5 2.4 5.2 4.8 8.1 6.9-8.7 2.1-17.8 2.2-27.1.3-7.6-1.6-14.8-4.3-21.4-8.1-6.4-3.7-11.4-8.8-15.7-13.8l-.9-1c-8.5-9.6-17.3-19.6-31.2-23.1-12.6-3.1-26.7-1.8-44.5 4.3l-3.3 1.1c-15.1 5.2-29.4 10.1-45.6 9.2-16.5-.9-31.7-7.1-42.7-17.5-5.4-5.1-9.6-11-12.6-17.6-.3-.8-1.1-1.3-1.9-1.4-.9.1-1.8.5-2.3 1.1-.4.6-.5 1.3-.2 2.1 10.9 24.6 42.9 45 83.1 36.1 7.2-1.6 14.1-4 20.8-6.4 10.7-3.8 21.8-7.6 33.7-7.9 10.1-.2 19.1 2 26.1 6.5 6 3.9 10.8 9.3 15.4 14.7l1.2 1.4c4.9 5.6 10.3 11.5 17.3 15.7 6.8 4.1 14.3 7.1 22.5 8.9 11.8 2.7 23.8 2.3 34.8-1.2 2.3 1.1 4.7 1.8 6.9 2.1 5.4.7 11.1 1.1 17 1.1 3.6 0 7.2-.1 10.8-.4 14.9-1.1 28.6-6.6 41.9-16.8 6-4.6 11.7-9.6 17.1-14.5 5.2-4.7 10.6-9.5 16.2-13.8 14.5-11.2 29.9-16.7 47.1-17 18.8-.4 38 3.7 57.6 8.2 10.8 2.5 19.2 5.3 26.6 9 1.3.7 2.7 0 3.2-1.1s.1-2.4-1.1-3zm-232.9-32.9c.4 1.1.9 2.2 1.3 3.4l.6 1.4c1.5 3.5 3 7.2 2.3 10.8-.4 2.3-1.7 4.1-3.5 4.9-1.6.7-3.4.5-5.3-.7-3-1.9-4-5.7-3.1-11.7.7-4.3 2.5-8.8 5.5-13.6.7 1.8 1.5 3.7 2.2 5.5zm-13.6 71.6h0c-11.7-8.5-22-21.1-29.1-35.5-7.2-14.7-9.5-29.8-6.3-42.6 1.3-5.2 4.2-12.6 10.6-17.8 3.5-2.8 7.3-4.3 11.1-4.3 3.9 0 7.8 1.4 11.5 4.3 4.6 3.5 8.2 8.1 11.3 13.9-.4.5-.7 1.1-1.1 1.6-5.2 8-7.6 15.6-7.1 22.5.5 6.2 5.3 12.4 12.4 11.9 2.6-.2 4.8-1.4 6.4-3.4 2.7-3.4 3-8.2 2.5-11.3-.5-3.1-1.7-5.9-2.9-8.7-.3-.8-.7-1.7-1-2.5l-.4-1c-1.1-2.8-2.3-5.8-3.6-8.6.7-1 1.5-2 2.3-2.9l.8-1c4.7-5.7 10.5-12.9 18.6-10.6 6.3 1.8 11 7.8 13.9 17.8 8.7 29.5-11.5 60.8-34.9 75.3-3.6 2.2-7.5 4.1-11.5 5.5-1.2-1-2.5-1.9-3.5-2.6z"
        fill="#04cecc" stroke="#037098" stroke-width="2" stroke-miterlimit="10"/>
</svg>
