<?xml version="1.0" encoding="utf-8"?>
<!-- Generator: Adobe Illustrator 21.1.0, SVG Export Plug-In . SVG Version: 6.00 Build 0)  -->
<svg version="1.1" id="Capa_1" xmlns="http://www.w3.org/2000/svg" xmlns:xlink="http://www.w3.org/1999/xlink" x="0px" y="0px"
	 viewBox="0 0 505 392.9" style="enable-background:new 0 0 505 392.9;" xml:space="preserve">
<path style="fill:#04CECC;stroke:#00CECD;stroke-width:2;stroke-miterlimit:10;" d="M334,392.9H203.4c-4.8,0-8.7-3.9-8.7-8.7V271
	H81.5c-4.8,0-8.7-3.9-8.7-8.7V131.6c0-4.8,3.9-8.7,8.7-8.7h113.2V9.7c0-4.8,3.9-8.7,8.7-8.7H334c4.8,0,8.7,3.9,8.7,8.7v113.2h113.2
	c4.8,0,8.7,3.9,8.7,8.7v130.6c0,4.8-3.9,8.7-8.7,8.7H342.7v113.2C342.7,389,338.8,392.9,334,392.9z M81.5,129.9
	c-0.9,0-1.7,0.8-1.7,1.7v130.6c0,0.9,0.8,1.7,1.7,1.7h120.2v120.2c0,0.9,0.8,1.7,1.7,1.7H334c0.9,0,1.7-0.8,1.7-1.7V264h120.2
	c0.9,0,1.7-0.8,1.7-1.7V131.6c0-0.9-0.8-1.7-1.7-1.7H335.7V9.7c0-0.9-0.8-1.7-1.7-1.7H203.4c-0.9,0-1.7,0.8-1.7,1.7v120.2H81.5z"/>
<path style="fill:#04CECC;stroke:#00CECD;stroke-width:2;stroke-miterlimit:10;" d="M503,196.7L503,196.7
	c-14.3-7.1-30.3-10.2-45.8-13.1l-0.9-0.2c-16-3-33-5.8-49.6-3.8c-13.3,1.6-25.6,6.7-37.6,15.4c-6.8,4.9-13,10.6-19.1,16
	c-3.1,2.8-6.4,5.7-9.6,8.5c-8.6,7.3-20.2,16.1-34.2,19.6c-7.4,1.9-15.6,2.5-26.7,2.1c-3.8-0.1-7.8-0.3-11.6-0.7
	c-0.5-0.1-1.1-0.1-1.6-0.2c2-0.9,3.9-1.8,5.7-2.9c29.6-16.8,46.6-50.9,39.7-79.4c-2.3-9.4-6.2-16.2-11.5-20.2
	c-6.1-4.5-13.8-4.9-19.6-1c-4,2.7-7.9,6.7-12,12.2c-3.3-5.7-7.5-10.4-12.4-14c-6.7-4.8-14.1-5.9-20.9-3.1
	c-6.4,2.6-11.9,8.1-15.5,15.4c-8.2,16.3-4.1,34.6-0.9,44c5,14.8,14.4,29.1,27.2,41.3c2.5,2.4,5.2,4.8,8.1,6.9
	c-8.7,2.1-17.8,2.2-27.1,0.3c-7.6-1.6-14.8-4.3-21.4-8.1c-6.4-3.7-11.4-8.8-15.7-13.8l-0.9-1c-8.5-9.6-17.3-19.6-31.2-23.1
	c-12.6-3.1-26.7-1.8-44.5,4.3l-3.3,1.1c-15.1,5.2-29.4,10.1-45.6,9.2c-16.5-0.9-31.7-7.1-42.7-17.5c-5.4-5.1-9.6-11-12.6-17.6
	c-0.3-0.8-1.1-1.3-1.9-1.4C6.4,172,5.5,172.4,5,173c-0.4,0.6-0.5,1.3-0.2,2.1c10.9,24.6,42.9,45,83.1,36.1c7.2-1.6,14.1-4,20.8-6.4
	c10.7-3.8,21.8-7.6,33.7-7.9c10.1-0.2,19.1,2,26.1,6.5c6,3.9,10.8,9.3,15.4,14.7l1.2,1.4c4.9,5.6,10.3,11.5,17.3,15.7
	c6.8,4.1,14.3,7.1,22.5,8.9c11.8,2.7,23.8,2.3,34.8-1.2c2.3,1.1,4.7,1.8,6.9,2.1c5.4,0.7,11.1,1.1,17,1.1c3.6,0,7.2-0.1,10.8-0.4
	c14.9-1.1,28.6-6.6,41.9-16.8c6-4.6,11.7-9.6,17.1-14.5c5.2-4.7,10.6-9.5,16.2-13.8c14.5-11.2,29.9-16.7,47.1-17
	c18.8-0.4,38,3.7,57.6,8.2c10.8,2.5,19.2,5.3,26.6,9c1.3,0.7,2.7,0,3.2-1.1C504.6,198.6,504.2,197.3,503,196.7z M270.1,163.8
	c0.4,1.1,0.9,2.2,1.3,3.4l0.6,1.4c1.5,3.5,3,7.2,2.3,10.8c-0.4,2.3-1.7,4.1-3.5,4.9c-1.6,0.7-3.4,0.5-5.3-0.7c-3-1.9-4-5.7-3.1-11.7
	c0.7-4.3,2.5-8.8,5.5-13.6C268.6,160.1,269.4,162,270.1,163.8z M256.5,235.4L256.5,235.4c-11.7-8.5-22-21.1-29.1-35.5
	c-7.2-14.7-9.5-29.8-6.3-42.6c1.3-5.2,4.2-12.6,10.6-17.8c3.5-2.8,7.3-4.3,11.1-4.3c3.9,0,7.8,1.4,11.5,4.3
	c4.6,3.5,8.2,8.1,11.3,13.9c-0.4,0.5-0.7,1.1-1.1,1.6c-5.2,8-7.6,15.6-7.1,22.5c0.5,6.2,5.3,12.4,12.4,11.9c2.6-0.2,4.8-1.4,6.4-3.4
	c2.7-3.4,3-8.2,2.5-11.3c-0.5-3.1-1.7-5.9-2.9-8.7c-0.3-0.8-0.7-1.7-1-2.5l-0.4-1c-1.1-2.8-2.3-5.8-3.6-8.6c0.7-1,1.5-2,2.3-2.9
	l0.8-1c4.7-5.7,10.5-12.9,18.6-10.6c6.3,1.8,11,7.8,13.9,17.8c8.7,29.5-11.5,60.8-34.9,75.3c-3.6,2.2-7.5,4.1-11.5,5.5
	C258.8,237,257.5,236.1,256.5,235.4z"/>
</svg>
