<?xml version="1.0" encoding="utf-8"?><svg id="Layer_1" data-name="Layer 1" xmlns="http://www.w3.org/2000/svg" viewBox="0 0 17.46 17.52"><defs><style>.cls-1{fill:#011c19;}</style></defs><title>4Artboard 4</title><path class="cls-1" d="M14.51,7H2.87a.65.65,0,0,1-.65-.65V4.79a.65.65,0,0,1,.65-.65H14.51a.65.65,0,0,1,.64.65V6.38A.65.65,0,0,1,14.51,7ZM2.87,4.47a.32.32,0,0,0-.32.32V6.38a.32.32,0,0,0,.32.32H14.51a.32.32,0,0,0,.31-.32V4.79a.32.32,0,0,0-.31-.32Z"/><path class="cls-1" d="M14.51,10.64H2.87A.65.65,0,0,1,2.22,10V8.4a.64.64,0,0,1,.65-.64H14.51a.64.64,0,0,1,.64.64V10A.65.65,0,0,1,14.51,10.64ZM2.87,8.09a.31.31,0,0,0-.32.31V10a.32.32,0,0,0,.32.32H14.51a.31.31,0,0,0,.31-.32V8.4a.31.31,0,0,0-.31-.31Z"/><rect class="cls-1" x="5.57" y="12.07" width="6.24" height="1.81" rx="0.9"/><rect class="cls-1" x="3.7" y="5.3" width="6.19" height="0.6"/><rect class="cls-1" x="3.7" y="8.87" width="2.95" height="0.6"/><path class="cls-1" d="M15.85.13H1.6A1.52,1.52,0,0,0,.08,1.65h0V15.89h0A1.53,1.53,0,0,0,1.45,17.4h14.4a1.53,1.53,0,0,0,1.52-1.52V1.65A1.53,1.53,0,0,0,15.85.13ZM16.92,9v6.9A1.07,1.07,0,0,1,15.85,17H1.6a1.07,1.07,0,0,1-.41-.08,1.08,1.08,0,0,1-.66-1V1.65a1.06,1.06,0,0,1,.66-1A.91.91,0,0,1,1.6.57H15.85a1.07,1.07,0,0,1,1.07,1.08V9Z"/></svg>