<?xml version="1.0" encoding="utf-8"?><svg id="Layer_1" data-name="Layer 1" xmlns="http://www.w3.org/2000/svg" viewBox="0 0 20.08 19.52"><defs><style>.cls-1{fill:#011c19;}</style></defs><title>4Artboard 3</title><path class="cls-1" d="M.54,15.89V1.65A1.08,1.08,0,0,1,1.61.57H15.86a1.08,1.08,0,0,1,1.07,1.08V9h.45V1.65A1.53,1.53,0,0,0,15.86.13H1.61A1.53,1.53,0,0,0,.09,1.65V15.89a1.53,1.53,0,0,0,1.52,1.52H9.93V17H1.61A1.07,1.07,0,0,1,.54,15.89Z"/><rect class="cls-1" x="1.39" y="1.42" width="0.45" height="0.45"/><rect class="cls-1" x="2.68" y="1.42" width="0.45" height="0.45"/><rect class="cls-1" x="3.98" y="1.42" width="0.45" height="0.45"/><rect class="cls-1" x="1.39" y="2.72" width="14.69" height="0.45"/><path class="cls-1" d="M4.17,5.34l0-.07.81-.8-.32-.32L3.81,5l-.07,0a1.53,1.53,0,1,0,.43.43ZM2.91,7.25a1.07,1.07,0,1,1,0-2.14,1.23,1.23,0,0,1,.46.1l.12.07L2.82,6l.32.32.67-.68.06.13A1,1,0,0,1,4,6.18,1.07,1.07,0,0,1,2.91,7.25Z"/><rect class="cls-1" x="5.6" y="5.31" width="5.3" height="0.45"/><rect class="cls-1" x="5.6" y="6.6" width="2.07" height="0.45"/><rect class="cls-1" x="8.51" y="6.6" width="4.33" height="0.45"/><rect class="cls-1" x="11.75" y="5.31" width="3.04" height="0.45"/><path class="cls-1" d="M4.17,9.23l0-.07.81-.81L4.62,8l-.81.81-.07,0a1.53,1.53,0,1,0,.13,2.45A1.52,1.52,0,0,0,4.17,9.23ZM2.91,11.14A1.08,1.08,0,1,1,2.91,9a1.11,1.11,0,0,1,.46.11l.12.06-.67.68.32.31.67-.67.06.12a1.11,1.11,0,0,1,.11.46A1.07,1.07,0,0,1,2.91,11.14Z"/><rect class="cls-1" x="5.6" y="9.19" width="5.3" height="0.45"/><rect class="cls-1" x="5.6" y="10.49" width="2.07" height="0.45"/><rect class="cls-1" x="8.51" y="10.49" width="2.39" height="0.45"/><rect class="cls-1" x="11.75" y="9.19" width="1.09" height="0.45"/><path class="cls-1" d="M4.17,13.11l0-.06.81-.81-.32-.32-.81.81-.07-.05a1.53,1.53,0,1,0,.43.43ZM2.91,15a1.07,1.07,0,1,1,0-2.14,1.23,1.23,0,0,1,.46.1l.12.07-.67.67.32.32.67-.68.06.13A1,1,0,0,1,4,14,1.07,1.07,0,0,1,2.91,15Z"/><rect class="cls-1" x="5.6" y="13.08" width="4.01" height="0.45"/><rect class="cls-1" x="5.6" y="14.37" width="2.07" height="0.45"/><rect class="cls-1" x="8.51" y="14.37" width="1.09" height="0.45"/><path class="cls-1" d="M15.21,9.84A4.76,4.76,0,1,0,20,14.6,4.76,4.76,0,0,0,15.21,9.84Zm0,9.07a4.31,4.31,0,1,1,0-8.62h0a4.31,4.31,0,0,1,0,8.62Z"/><path class="cls-1" d="M17.25,12.24l-3.6,3.6-.46-.93-.4.2.6,1.21a.27.27,0,0,0,.17.12.24.24,0,0,0,.19-.07l3.81-3.81Z"/></svg>