<?xml version="1.0" encoding="utf-8"?><svg id="Layer_1" data-name="Layer 1" xmlns="http://www.w3.org/2000/svg" viewBox="0 0 17 21.68"><defs><style>.cls-1{fill:#011c19;}</style></defs><title>4Artboard 2</title><path class="cls-1" d="M6.52,6.86a.22.22,0,0,0-.22.22v.34a.22.22,0,0,0,.22.22.22.22,0,0,0,.23-.22V7.08A.22.22,0,0,0,6.52,6.86Z"/><path class="cls-1" d="M10.56,6.86a.22.22,0,0,0-.23.22v.34a.22.22,0,0,0,.23.22.22.22,0,0,0,.22-.22V7.08A.22.22,0,0,0,10.56,6.86Z"/><path class="cls-1" d="M9.71,9.28a.21.21,0,0,0-.16-.07.23.23,0,0,0-.16.06,1.24,1.24,0,0,1-.85.28,1.22,1.22,0,0,1-.85-.28.23.23,0,0,0-.16-.06h0a.2.2,0,0,0-.16.07.22.22,0,0,0,0,.32,1.7,1.7,0,0,0,1.17.4,1.7,1.7,0,0,0,1.17-.4A.22.22,0,0,0,9.71,9.28Z"/><path class="cls-1" d="M6,6.07a.23.23,0,0,0,.23.23h.67a.22.22,0,0,0,.22-.23.22.22,0,0,0-.22-.22H6.19A.22.22,0,0,0,6,6.07Z"/><path class="cls-1" d="M11.12,6.07a.22.22,0,0,0-.23-.22h-.67a.22.22,0,0,0-.22.22.22.22,0,0,0,.22.23h.67A.23.23,0,0,0,11.12,6.07Z"/><path class="cls-1" d="M15.25,15.11l-2.33-.71v-.07a.59.59,0,0,0,0-.19.68.68,0,0,0-.34-.42L11.12,13V11.89l0,0a4.62,4.62,0,0,0,1.93-3.14V8.65h.27a1.11,1.11,0,0,0,1.11-1,1,1,0,0,0-.62-1.07l0,0V3.05A2.25,2.25,0,0,0,11.57.8h-.09l0,0A3.93,3.93,0,0,0,9.19.13,7.92,7.92,0,0,0,5.32,1a13.61,13.61,0,0,1-2,.76.28.28,0,0,0-.14.12.25.25,0,0,0,0,.19,3,3,0,0,0,.5.72l0,0,0,.06a2.52,2.52,0,0,0-.43,1.6V6.61l0,0a1.09,1.09,0,0,0-.62.85A1.06,1.06,0,0,0,3.66,8.65H4v.08a4.62,4.62,0,0,0,1.93,3.14l0,0V13l-1.45.72a.67.67,0,0,0-.34.43.51.51,0,0,0,0,.18v.07l-2.33.71A2.24,2.24,0,0,0,.24,17.26v3.95a.22.22,0,0,0,.23.22.22.22,0,0,0,.22-.22V17.26A1.8,1.8,0,0,1,2,15.54l2.42-.74.5.67L4.35,16a.9.9,0,0,0-.17,1l1,1.93H4.06v-.44a.23.23,0,1,0-.45,0V19H2.15a.23.23,0,0,0-.23.23v2a.23.23,0,0,0,.23.22H5.51a.22.22,0,0,0,.23-.22V20.14l.58,1.17a.23.23,0,0,0,.3.1.25.25,0,0,0,.12-.13.25.25,0,0,0,0-.17L4.59,16.83a.44.44,0,0,1,.08-.52l.67-.66a.26.26,0,0,0,0-.3l-.72-.95a.2.2,0,0,1,0-.15.21.21,0,0,1,.1-.13l1.34-.66.9,3.1a.22.22,0,0,0,.43-.13l-.18-.64.16.06a3.54,3.54,0,0,0,2.36,0l.16-.06L8.54,20.4l-.77-2.62a.21.21,0,0,0-.1-.14.25.25,0,0,0-.17,0,.23.23,0,0,0-.16.28l1,3.36a.23.23,0,0,0,.44,0L11,13.46l1.34.66a.22.22,0,0,1,.1.13.2.2,0,0,1,0,.15l-.72.95a.24.24,0,0,0,0,.3l.67.66a.44.44,0,0,1,.08.52l-2.13,4.28a.22.22,0,0,0,.1.3.23.23,0,0,0,.3-.1L12.9,17a.9.9,0,0,0-.17-1l-.53-.53.5-.67,2.42.74a1.8,1.8,0,0,1,1.27,1.72v3.95a.22.22,0,0,0,.22.22.22.22,0,0,0,.23-.22V17.26A2.24,2.24,0,0,0,15.25,15.11ZM5.29,21H2.38V19.41H3.61v.09a.23.23,0,0,0,.22.25.23.23,0,0,0,.23-.23v-.08l.09,0H5.29ZM3.74,2.12l.12,0a14.73,14.73,0,0,0,1.63-.66h0A7.44,7.44,0,0,1,9.19.58a2.62,2.62,0,0,1,2.5,1.19.22.22,0,0,0,.28.14.22.22,0,0,0,.15-.28l-.06-.15L12,1.29l.2.07a1.79,1.79,0,0,1,1.19,1.69V6.52h-.45a.45.45,0,0,1-.45-.45V5.74a4,4,0,0,0-1.07-2.52.22.22,0,0,0-.23-.05c-1.76.55-4.25,1-6.09.09a3.51,3.51,0,0,1-1.26-1Zm6.93,11-.62,2.1,0,0a3.15,3.15,0,0,1-3,0l0,0-.62-2.12v-.92l.13.06a4.58,4.58,0,0,0,4,0l.13-.06Zm-2.13-.87A4.15,4.15,0,0,1,4.39,8.09a.23.23,0,1,0-.45,0v.09l-.09,0H3.66A.59.59,0,0,1,3.21,8a.6.6,0,0,1-.16-.48A.64.64,0,0,1,3.71,7h.46a.9.9,0,0,0,.9-.9V4.88a.23.23,0,0,0-.46,0V6.07a.45.45,0,0,1-.44.45H3.72v-2A2.21,2.21,0,0,1,4,3.23l.06-.08.07.06a5.1,5.1,0,0,0,.67.43,5.81,5.81,0,0,0,2.48.6,12,12,0,0,0,3.8-.58l.06,0,0,0A3.43,3.43,0,0,1,12,5.74v.33a.9.9,0,0,0,.9.9h.51a.59.59,0,0,1,.45.2.6.6,0,0,1,.16.48.64.64,0,0,1-.66.55h-.23V8.11a.23.23,0,0,0-.23-.24.22.22,0,0,0-.22.22A4.17,4.17,0,0,1,8.54,12.24Z"/><path class="cls-1" d="M15.16,19.36a.23.23,0,0,0-.23-.23h-.62v-.61a.23.23,0,1,0-.45,0v.61h-.61a.23.23,0,1,0,0,.45h.61v.62a.22.22,0,0,0,.23.22.22.22,0,0,0,.22-.22v-.62h.62A.23.23,0,0,0,15.16,19.36Z"/></svg>