<?xml version="1.0" encoding="utf-8"?><svg id="Layer_1" data-name="Layer 1" xmlns="http://www.w3.org/2000/svg" viewBox="0 0 20.61 17.84"><defs><style>.cls-1{fill:#011c19;}</style></defs><title>4Artboard 5</title><path class="cls-1" d="M18.12,14a.25.25,0,0,0-.06.17.23.23,0,0,0,.06.16.25.25,0,0,0,.34,0,.24.24,0,0,0,.07-.16.26.26,0,0,0-.07-.17A.25.25,0,0,0,18.12,14Z"/><path class="cls-1" d="M8.05,13.27h0L6.72,12.6v-.27l.06,0a2.37,2.37,0,0,0,1.13-1.45l0,0,0,0A.92.92,0,0,0,8.46,10V9.62a.91.91,0,0,0-.36-.73l0,0v0C7.86,7.57,7,6.93,5.45,6.93H5.23A1.86,1.86,0,0,1,4,6.67a1.76,1.76,0,0,1-.34-.3.3.3,0,0,0-.24-.12l-.12,0a.3.3,0,0,0-.18.32A3.32,3.32,0,0,0,3.22,7c.07.35.08.37,0,.61l-.13.29a4,4,0,0,0-.24.89v0l0,0a1,1,0,0,0-.35.73V10a.92.92,0,0,0,.49.81l0,0,0,0A2.37,2.37,0,0,0,4.11,12.3l.06,0v.27l-1.37.67a1.38,1.38,0,0,0-.72,1.21v.46c0,.2,0,.82,3.37.82s3.36-.62,3.36-.82V14.5A1.38,1.38,0,0,0,8.05,13.27Zm.28,1.65-.05,0a7.56,7.56,0,0,1-2.83.33A7.58,7.58,0,0,1,2.61,15l0,0v-.44A.91.91,0,0,1,3,13.69L4.36,13a.5.5,0,0,0,.28-.45V12L4.5,12a2,2,0,0,1-1.11-1.4l0-.12-.12,0A.47.47,0,0,1,2.9,10V9.62a.46.46,0,0,1,.25-.4l.11-.06,0-.13a3.26,3.26,0,0,1,.22-.92l.12-.27a.91.91,0,0,0,.12-.59l0-.22.18.11a2.39,2.39,0,0,0,1.37.28h.18c1.34,0,2,.52,2.16,1.62l0,.13.11.06a.46.46,0,0,1,.25.4V10a.47.47,0,0,1-.33.43l-.12,0,0,.12A1.93,1.93,0,0,1,6.39,12L6.25,12v.56a.52.52,0,0,0,.27.45l1.31.67a.88.88,0,0,1,.5.8Z"/><path class="cls-1" d="M10.65,8.47h3.48a.24.24,0,0,0,0-.48H10.65a.24.24,0,0,0,0,.48Z"/><path class="cls-1" d="M11,13.9h-.35a.23.23,0,0,0-.23.23.23.23,0,0,0,.23.24H11a.24.24,0,0,0,.24-.24A.23.23,0,0,0,11,13.9Z"/><path class="cls-1" d="M13.08,13.9h-.69a.23.23,0,0,0-.24.23.24.24,0,0,0,.24.24h.69a.24.24,0,0,0,.24-.24A.23.23,0,0,0,13.08,13.9Z"/><path class="cls-1" d="M14.82,13.9h-.35a.23.23,0,0,0-.23.23.23.23,0,0,0,.23.24h.35a.24.24,0,0,0,.24-.24A.23.23,0,0,0,14.82,13.9Z"/><path class="cls-1" d="M16.9,13.9h-.69a.23.23,0,0,0-.24.23.24.24,0,0,0,.24.24h.69a.24.24,0,0,0,.24-.24A.23.23,0,0,0,16.9,13.9Z"/><path class="cls-1" d="M18.29,10.08H10.65a.23.23,0,0,0-.23.23.23.23,0,0,0,.23.24h7.64a.24.24,0,0,0,.24-.24A.23.23,0,0,0,18.29,10.08Z"/><path class="cls-1" d="M18.29,12.16H10.65a.23.23,0,0,0-.23.24.23.23,0,0,0,.23.23h7.64a.23.23,0,0,0,.24-.23A.24.24,0,0,0,18.29,12.16Z"/><path class="cls-1" d="M19.1,3.47H12.63V.69a.69.69,0,0,0-.7-.69H8.68A.69.69,0,0,0,8,.69V3.47H1.51A1.52,1.52,0,0,0,0,5V16.32a1.52,1.52,0,0,0,1.51,1.52H19.1a1.52,1.52,0,0,0,1.51-1.52V5A1.52,1.52,0,0,0,19.1,3.47ZM8.46.69A.22.22,0,0,1,8.68.47h3.25a.22.22,0,0,1,.22.22V5.34a.22.22,0,0,1-.22.22H8.68a.22.22,0,0,1-.22-.22ZM20.14,16.32a1,1,0,0,1-1,1H1.51a1,1,0,0,1-1-1V5a1,1,0,0,1,1-1H8V5.34A.69.69,0,0,0,8.68,6h3.25a.69.69,0,0,0,.7-.69V4H19.1a1,1,0,0,1,1,1Z"/><path class="cls-1" d="M11.59,2.32A1.28,1.28,0,1,0,9,2.32a1.28,1.28,0,1,0,2.56,0Zm-1.28.81a.81.81,0,0,1-.81-.81.81.81,0,1,1,.81.81Z"/></svg>