<?xml version="1.0" encoding="utf-8"?><svg id="Layer_1" data-name="Layer 1" xmlns="http://www.w3.org/2000/svg" viewBox="0 0 28.29 26.45"><defs><style>.cls-1{fill:none;}.cls-2{fill:#00cfcc;}</style></defs><title>4Artboard 12</title><path class="cls-1" d="M14.43,11.89V8.84H12v3.05a.13.13,0,0,1-.13.13H8.84v2.41h3.05a.12.12,0,0,1,.13.12v3.06h2.41V14.55a.12.12,0,0,1,.12-.12h3.06V12H14.55A.12.12,0,0,1,14.43,11.89Z"/><path class="cls-1" d="M13.22.75A12.48,12.48,0,1,0,20,23.68a4.44,4.44,0,0,1-.71-2.39,4.5,4.5,0,0,1,4.5-4.5,4.45,4.45,0,0,1,1.32.22A12.47,12.47,0,0,0,13.22.75Zm4.64,13.8a.13.13,0,0,1-.13.13H14.68v3.05a.13.13,0,0,1-.13.13H11.89a.13.13,0,0,1-.12-.13V14.68h-3a.13.13,0,0,1-.13-.13V11.89a.13.13,0,0,1,.13-.12h3v-3a.13.13,0,0,1,.12-.13h2.66a.13.13,0,0,1,.13.13v3h3.05a.13.13,0,0,1,.13.12Z"/><path class="cls-2" d="M13.22,25.7A12.48,12.48,0,1,1,25.11,17a4.12,4.12,0,0,1,.69.27,13,13,0,0,0,.65-4.06A13.23,13.23,0,1,0,13.22,26.45a13.09,13.09,0,0,0,7.23-2.17,4.47,4.47,0,0,1-.45-.6A12.42,12.42,0,0,1,13.22,25.7Z"/><path class="cls-2" d="M17.73,11.77H14.68v-3a.13.13,0,0,0-.13-.13H11.89a.13.13,0,0,0-.12.13v3h-3a.13.13,0,0,0-.13.12v2.66a.13.13,0,0,0,.13.13h3v3.05a.13.13,0,0,0,.12.13h2.66a.13.13,0,0,0,.13-.13V14.68h3.05a.13.13,0,0,0,.13-.13V11.89A.13.13,0,0,0,17.73,11.77Zm-.12,2.66H14.55a.12.12,0,0,0-.12.12v3.06H12V14.55a.12.12,0,0,0-.13-.12H8.84V12h3.05a.13.13,0,0,0,.13-.13V8.84h2.41v3.05a.12.12,0,0,0,.12.13h3.06Z"/><path class="cls-2" d="M25.8,17.28a4.12,4.12,0,0,0-.69-.27,4.45,4.45,0,0,0-1.32-.22,4.5,4.5,0,0,0-4.5,4.5,4.54,4.54,0,0,0,4.5,4.5,4.49,4.49,0,0,0,2-8.51Zm.67,2.47-3.54,3.54a.34.34,0,0,1-.46,0l-1.36-1.37a.31.31,0,0,1,0-.45.32.32,0,0,1,.46,0L22.7,22.6,26,19.29a.33.33,0,1,1,.46.46Z"/></svg>