<svg xmlns="http://www.w3.org/2000/svg" viewBox="0 0 3.92 3.92">
    <defs>
        <style>.cls-1{fill:#00cfcc;}</style>
    </defs>
    <title>Artboard 56</title>
    <g id="Layer_2" data-name="Layer 2">
        <path class="cls-1"
              d="M2,0a2,2,0,1,0,2,2A2,2,0,0,0,2,0ZM2,3.79A1.83,1.83,0,1,1,3.79,2,1.83,1.83,0,0,1,2,3.79Z"/>
        <path class="cls-1"
              d="M1.8.46V2a.07.07,0,0,0,.07.06h1A.07.07,0,0,0,3,2,.07.07,0,0,0,2.91,2h-1V.46A.07.07,0,0,0,1.87.39.07.07,0,0,0,1.8.46Z"/>
    </g>
</svg>
