<?xml version="1.0" encoding="utf-8"?><svg id="Layer_1" data-name="Layer 1" xmlns="http://www.w3.org/2000/svg" viewBox="0 0 28.29 26.45"><defs><style>.cls-1{fill:none;}.cls-2{fill:#037098;}</style></defs><title>4Artboard 13</title><path class="cls-1" d="M14.53,8.26a.38.38,0,0,0-.37-.38H12.67a.38.38,0,1,0,0,.75h1.49A.38.38,0,0,0,14.53,8.26Z"/><path class="cls-1" d="M12.83,9.49h.09a4,4,0,0,1,1,0H14V8.87H12.83Z"/><path class="cls-1" d="M13.41,13.23a.31.31,0,0,0-.31.31.32.32,0,1,0,.63,0A.31.31,0,0,0,13.41,13.23Z"/><path class="cls-1" d="M13.41,10.66a2.88,2.88,0,1,0,2.88,2.88A2.89,2.89,0,0,0,13.41,10.66Zm-.12.67a.12.12,0,0,1,.13-.12.12.12,0,0,1,.12.12v.19a.12.12,0,0,1-.12.12.12.12,0,0,1-.13-.12Zm-1.9,2.33H11.2a.12.12,0,1,1,0-.24h.19a.12.12,0,1,1,0,.24Zm2.14,2.09a.12.12,0,1,1-.24,0v-.19a.12.12,0,1,1,.24,0ZM15,12.17l-1.07,1.07,0,0a.57.57,0,0,1,.06.25.56.56,0,0,1-.56.56.57.57,0,0,1-.56-.56.57.57,0,0,1,.06-.25l0,0-.5-.5a.1.1,0,0,1,0-.09.14.14,0,0,1,.12-.12.1.1,0,0,1,.09,0l.5.5.06,0a.6.6,0,0,1,.49,0l.05,0L14.78,12A.13.13,0,0,1,15,12a.12.12,0,0,1,0,.09A.11.11,0,0,1,15,12.17Zm.79,1.37a.13.13,0,0,1-.12.13h-.2a.13.13,0,0,1-.12-.13.13.13,0,0,1,.12-.12h.2A.13.13,0,0,1,15.75,13.54Z"/><path class="cls-1" d="M13.22.75A12.48,12.48,0,1,0,20,23.68a4.48,4.48,0,0,1,3.8-6.89,4.45,4.45,0,0,1,1.32.22A12.47,12.47,0,0,0,13.22.75ZM7.29,14.91a.14.14,0,0,1-.17,0,.18.18,0,0,1,0-.09.15.15,0,0,1,0-.09.12.12,0,0,1,.09,0,.11.11,0,0,1,.08,0,.11.11,0,0,1,0,.09A.12.12,0,0,1,7.29,14.91Zm9,1.53a.14.14,0,0,1-.17,0,.11.11,0,0,1,0-.09.12.12,0,0,1,0-.09.11.11,0,0,1,.08,0,.12.12,0,0,1,.09,0,.18.18,0,0,1,0,.09A.15.15,0,0,1,16.31,16.44Zm-2.9.23a3.13,3.13,0,1,1,3.13-3.13A3.13,3.13,0,0,1,13.41,16.67Zm3.44-.9a.13.13,0,0,1-.17,0,.12.12,0,0,1,0-.17,3.89,3.89,0,0,0-.51-4.82,3.85,3.85,0,1,0-.63,5.95.13.13,0,0,1,.14.21,4.13,4.13,0,0,1-2.24.66l-.4,0a4.08,4.08,0,0,1-2.49-1.18A4.13,4.13,0,0,1,9.58,15l0-.06H8a.12.12,0,0,1,0-.24H9.48l0-.11a4.1,4.1,0,0,1-.13-.78v-.08h-1a.12.12,0,1,1,0-.24h1v-.08a4,4,0,0,1,.1-.78l0-.11H7.21a.12.12,0,1,1,0-.24H9.52l0-.06a3.93,3.93,0,0,1,.36-.78l.07-.13H8.62a.12.12,0,1,1,0-.24h1.53l0,0a3.25,3.25,0,0,1,.35-.39,4.09,4.09,0,0,1,2-1.1l.07,0V8.87h-.06a.62.62,0,0,1-.47-.6.61.61,0,0,1,.62-.62h1.49a.61.61,0,0,1,.61.62.62.62,0,0,1-.47.6h-.06v.66l.07,0a3.93,3.93,0,0,1,2,1.1,4.05,4.05,0,0,1,1.18,2.49A4.13,4.13,0,0,1,16.85,15.77Z"/><path class="cls-2" d="M16.31,10.65a3.93,3.93,0,0,0-2-1.1l-.07,0V8.87h.06a.62.62,0,0,0,.47-.6.61.61,0,0,0-.61-.62H12.67a.61.61,0,0,0-.62.62.62.62,0,0,0,.47.6h.06v.66l-.07,0a4.09,4.09,0,0,0-2,1.1,3.25,3.25,0,0,0-.35.39l0,0H8.62a.12.12,0,1,0,0,.24H10l-.07.13a3.93,3.93,0,0,0-.36.78l0,.06H7.21a.12.12,0,1,0,0,.24H9.45l0,.11a4,4,0,0,0-.1.78v.08h-1a.12.12,0,1,0,0,.24h1v.08a4.1,4.1,0,0,0,.13.78l0,.11H8a.12.12,0,0,0,0,.24H9.56l0,.06a4.13,4.13,0,0,0,.94,1.44A4.08,4.08,0,0,0,13,17.62l.4,0A4.13,4.13,0,0,0,15.65,17a.13.13,0,0,0-.14-.21,3.85,3.85,0,0,1-4.82-5.95,3.85,3.85,0,0,1,5.45,0,3.89,3.89,0,0,1,.51,4.82.12.12,0,0,0,0,.17.13.13,0,0,0,.17,0,4.13,4.13,0,0,0,.64-2.63A4.05,4.05,0,0,0,16.31,10.65ZM14,9.49h-.1a4,4,0,0,0-1,0h-.09V8.87H14Zm-1.33-.86a.38.38,0,1,1,0-.75h1.49a.38.38,0,0,1,0,.75Z"/><path class="cls-2" d="M16.22,16.23a.11.11,0,0,0-.08,0,.12.12,0,0,0,0,.09.11.11,0,0,0,0,.09.14.14,0,0,0,.17,0,.15.15,0,0,0,0-.09.18.18,0,0,0,0-.09A.12.12,0,0,0,16.22,16.23Z"/><path class="cls-2" d="M13.41,10.42a3.13,3.13,0,1,0,3.13,3.12A3.12,3.12,0,0,0,13.41,10.42Zm0,6a2.88,2.88,0,1,1,2.88-2.88A2.89,2.89,0,0,1,13.41,16.42Z"/><path class="cls-2" d="M14.78,12l-1.07,1.07-.05,0a.6.6,0,0,0-.49,0l-.06,0-.5-.5a.1.1,0,0,0-.09,0,.14.14,0,0,0-.12.12.1.1,0,0,0,0,.09l.5.5,0,0a.57.57,0,0,0-.06.25.57.57,0,0,0,.56.56.56.56,0,0,0,.56-.56.57.57,0,0,0-.06-.25l0,0L15,12.17a.11.11,0,0,0,0-.08A.12.12,0,0,0,15,12,.13.13,0,0,0,14.78,12Zm-1.37,1.86a.32.32,0,0,1-.31-.32.32.32,0,0,1,.63,0A.32.32,0,0,1,13.41,13.86Z"/><path class="cls-2" d="M15.31,13.54a.13.13,0,0,0,.12.13h.2a.13.13,0,0,0,.12-.13.13.13,0,0,0-.12-.12h-.2A.13.13,0,0,0,15.31,13.54Z"/><path class="cls-2" d="M11.39,13.42H11.2a.12.12,0,1,0,0,.24h.19a.12.12,0,1,0,0-.24Z"/><path class="cls-2" d="M13.42,11.64a.12.12,0,0,0,.12-.12v-.19a.12.12,0,0,0-.12-.12.12.12,0,0,0-.13.12v.19A.12.12,0,0,0,13.42,11.64Z"/><path class="cls-2" d="M13.41,15.44a.12.12,0,0,0-.12.12v.19a.12.12,0,1,0,.24,0v-.19A.12.12,0,0,0,13.41,15.44Z"/><path class="cls-2" d="M7.21,14.7a.12.12,0,0,0-.09,0,.15.15,0,0,0,0,.09.18.18,0,0,0,0,.09.14.14,0,0,0,.17,0,.12.12,0,0,0,0-.09.11.11,0,0,0,0-.09A.11.11,0,0,0,7.21,14.7Z"/><path class="cls-2" d="M13.22,25.7A12.48,12.48,0,1,1,25.11,17a4.12,4.12,0,0,1,.69.27,13,13,0,0,0,.65-4.06A13.23,13.23,0,1,0,13.22,26.45a13.09,13.09,0,0,0,7.23-2.17,5.59,5.59,0,0,1-.46-.6A12.36,12.36,0,0,1,13.22,25.7Z"/><path class="cls-2" d="M25.8,17.28a4.12,4.12,0,0,0-.69-.27,4.45,4.45,0,0,0-1.32-.22A4.48,4.48,0,0,0,20,23.68a5.59,5.59,0,0,0,.46.6,4.49,4.49,0,1,0,5.35-7Zm.67,2.47-3.54,3.54a.34.34,0,0,1-.46,0l-1.36-1.37a.31.31,0,0,1,0-.45.32.32,0,0,1,.46,0L22.7,22.6,26,19.29a.33.33,0,1,1,.46.46Z"/></svg>
