<?xml version="1.0" encoding="utf-8"?>
<svg xmlns="http://www.w3.org/2000/svg" viewBox="0 0 28.55 28.55">
    <title>4Artboard 20</title>
    <g  data-name="Layer 1">
        <circle fill="#037098" cx="14.27" cy="14.27" r="14.27"/>
        <path fill="#fff"
              d="M13.28,19a6,6,0,0,0-.47,1.67c0,.21.11.36.31.36.52-.05,1.88-1.45,2-1.66a.15.15,0,0,1,.24,0l.28.29c.11.1.16.15.05.26a6.47,6.47,0,0,1-4.81,2.7.66.66,0,0,1-.75-.72,30,30,0,0,1,1.45-4.63l.73-2a8.7,8.7,0,0,0,.42-1.51.28.28,0,0,0-.31-.31c-.42,0-1.62,1.35-2,1.77a.2.2,0,0,1-.31,0l-.26-.24c-.11-.08-.16-.13-.11-.23s2.5-3.18,4.79-3.18c.62,0,.94.32.94.84a10.2,10.2,0,0,1-.78,2.7ZM13.49,6.1A1.65,1.65,0,0,1,15.1,4.54,1.58,1.58,0,0,1,16.87,6a1.8,1.8,0,0,1-1.72,1.67A1.56,1.56,0,0,1,13.49,6.1Z"/>
    </g>
</svg>
