<?xml version="1.0" encoding="utf-8"?><svg id="Layer_1" data-name="Layer 1" xmlns="http://www.w3.org/2000/svg" viewBox="0 0 6.93 6.93"><defs><style>.cls-1{fill:#037098;}</style></defs><title>4Artboard 7</title><path class="cls-1" d="M6.47.45a1.56,1.56,0,0,0-2.19,0L1.09,3.65h0l-.62.62a1.56,1.56,0,0,0,0,2.19,1.53,1.53,0,0,0,2.19,0l3-3h0l.79-.79A1.54,1.54,0,0,0,6.47.45ZM6.33,2.5l-.58.58h0L2.5,6.33a1.35,1.35,0,0,1-1.9,0,1.33,1.33,0,0,1,0-1.9L1,4H1L4.43.6a1.34,1.34,0,0,1,2.29,1A1.34,1.34,0,0,1,6.33,2.5Z"/><path class="cls-1" d="M3.49,2.09a.1.1,0,0,0-.14,0l-.09.09h0L2.09,3.35a.11.11,0,0,0,0,.07.08.08,0,0,0,0,.07L3.43,4.83a.11.11,0,0,0,.07,0,.11.11,0,0,0,.08,0L4.83,3.58a.11.11,0,0,0,0-.08.11.11,0,0,0,0-.07Zm0,2.53L2.31,3.42l.94-.94h0l.16-.16L4.62,3.5Z"/><path class="cls-1" d="M4.23,1.81h0l0,0h0v0a.07.07,0,0,0,0-.05.07.07,0,0,0,0-.07h0s0,0-.06,0a.11.11,0,0,0-.07,0h0a.11.11,0,0,0,.08.17Z"/><path class="cls-1" d="M4.65,2,4.57,2,4.51,2h0a.14.14,0,0,0,0,.06.14.14,0,0,0,0,.07h0l.06,0h0a.1.1,0,0,0,.07,0h0a.11.11,0,0,0,0-.13Z"/><path class="cls-1" d="M4.93,2.3l-.07,0h0a.07.07,0,0,0,0,.06s0,0,0,.06h0l.06,0a.11.11,0,0,0,.07,0,.09.09,0,0,0,0-.13A.09.09,0,0,0,4.93,2.3Z"/><path class="cls-1" d="M5.35,2.68h0s0,0-.06,0a.11.11,0,0,0-.07,0h0a.11.11,0,0,0,0,.13h0l.06,0h0s0,0,.06,0h0a.09.09,0,0,0,0-.06.09.09,0,0,0,0-.07Z"/><path class="cls-1" d="M4.5,1.43h0l.06,0h0a.07.07,0,0,0,.06,0h0a.12.12,0,0,0,0-.14.11.11,0,0,0-.08,0l-.05,0h0v0s0,0,0,.05a.11.11,0,0,0,0,.07Z"/><path class="cls-1" d="M5,1.64H5l-.06,0a.07.07,0,0,0-.07,0l0,0a.09.09,0,0,0,0,.12l0,0,.06,0h0l.06,0H5a.07.07,0,0,0,0-.06s0-.05,0-.06Z"/><path class="cls-1" d="M5.2,2.13a.11.11,0,0,0,.07,0h0s0,0,0,0h0a.14.14,0,0,0,0-.07.08.08,0,0,0,0,0V2h0l0,0A.11.11,0,0,0,5.2,2a.11.11,0,0,0,0,.14Z"/><path class="cls-1" d="M5.68,2.32l-.07,0-.06,0h0a.09.09,0,0,0,0,.06.09.09,0,0,0,0,.07h0l.06,0h0a.07.07,0,0,0,.06,0h0a.11.11,0,0,0,0-.13Z"/><path class="cls-1" d="M4.85,1.1l.07,0h0L5,1.1H5A.14.14,0,0,0,5,1,.11.11,0,0,0,5,1H5l-.05,0a.08.08,0,0,0-.08,0V1a.09.09,0,0,0,0,.12Z"/><path class="cls-1" d="M5.19,1.44h0s0,0,.06,0h0a.09.09,0,0,0,.06,0h0a.11.11,0,0,0,0-.13h0a.11.11,0,0,0-.07,0s0,0-.06,0h0a.09.09,0,0,0,0,.07.09.09,0,0,0,0,.06Z"/><path class="cls-1" d="M5.54,1.78h0l0,0h0a.08.08,0,0,0,.07,0h0a.11.11,0,0,0,0-.13v0l-.08,0,0,0h0a.14.14,0,0,0,0,.06.14.14,0,0,0,0,.07Z"/><path class="cls-1" d="M6,2H6L6,2a.12.12,0,0,0-.08,0V2a.09.09,0,0,0,0,.12v0l.07,0H6l0,0H6a.14.14,0,0,0,0-.06A.11.11,0,0,0,6,2Z"/><path class="cls-1" d="M1.65,4.28h0l.06,0h0a.07.07,0,0,0,.06,0h0a.15.15,0,0,0,0-.13l0,0-.07,0-.06,0h0a.09.09,0,0,0,0,.06.09.09,0,0,0,0,.07Z"/><path class="cls-1" d="M2,4.64l.06,0h0l.06,0h0s0,0,0-.06,0,0,0-.06h0l-.06,0a.1.1,0,0,0-.07,0l0,0a.09.09,0,0,0,0,.12Z"/><path class="cls-1" d="M2.35,5a.11.11,0,0,0,.07,0h0a.05.05,0,0,0,0,0h0a.14.14,0,0,0,0-.06.14.14,0,0,0,0-.07h0l0,0a.13.13,0,0,0-.08,0h0a.11.11,0,0,0,0,.13Z"/><path class="cls-1" d="M2.83,5.17l-.07,0-.06,0h0a.09.09,0,0,0,0,.06.09.09,0,0,0,0,.07h0l.06,0h0a.07.07,0,0,0,.06,0h0a.11.11,0,0,0,0-.13Z"/><path class="cls-1" d="M1.32,4.63a.09.09,0,0,0,.06,0h0l.06,0a.11.11,0,0,0,0-.15l-.06,0a.11.11,0,0,0-.07,0l0,0a.11.11,0,0,0,0,.11Z"/><path class="cls-1" d="M1.66,5h0l.06,0h0s.05,0,.06,0h0a.11.11,0,0,0,0-.13l0,0-.07,0-.06,0h0a.14.14,0,0,0,0,.06.14.14,0,0,0,0,.07Z"/><path class="cls-1" d="M2,5.32H2l.06,0h0l.06,0,0,0a.11.11,0,0,0,0-.12l0,0A.11.11,0,0,0,2,5.25s0,0,0,.06Z"/><path class="cls-1" d="M2.5,5.53h0l-.06,0a.11.11,0,0,0-.07,0h0a.11.11,0,0,0,0,.13h0a.09.09,0,0,0,.06,0h0a.09.09,0,0,0,.06,0h0a.07.07,0,0,0,0-.06.08.08,0,0,0,0-.07Z"/><path class="cls-1" d="M1.11,4.83h0L1,4.8,1,4.82H1a.11.11,0,0,0,0,.06A.14.14,0,0,0,1,5H1L1,5,1.1,5h0a.14.14,0,0,0,0-.06.11.11,0,0,0,0-.06Z"/><path class="cls-1" d="M1.46,5.18h0s0,0-.05,0a.11.11,0,0,0-.08,0h0a.11.11,0,0,0,0,.13h0a.09.09,0,0,0,.07,0h0s0,0,.05,0h0a.14.14,0,0,0,0-.06.14.14,0,0,0,0-.07Z"/><path class="cls-1" d="M1.81,5.52h0l-.06,0-.07,0,0,0a.11.11,0,0,0,0,.13h0a.07.07,0,0,0,.06,0h0l.06,0h0a.08.08,0,0,0,0-.07.07.07,0,0,0,0-.06Z"/><path class="cls-1" d="M2.14,5.86a.08.08,0,0,0-.07,0L2,5.86H2a.11.11,0,0,0,0,.06A.14.14,0,0,0,2,6H2l.06,0h0l.06,0,0,0a.09.09,0,0,0,0-.12Z"/></svg>
