<?xml version="1.0" encoding="utf-8"?><svg id="Layer_1" data-name="Layer 1" xmlns="http://www.w3.org/2000/svg" viewBox="0 0 28.29 26.45"><defs><style>.cls-1{fill:none;}.cls-2{fill:#037098;}</style></defs><title>4Artboard 11</title><rect class="cls-1" x="10.39" y="11.7" width="8.53" height="0.89"/><rect class="cls-1" x="7.95" y="11.7" width="1.09" height="0.89"/><rect class="cls-1" x="10.39" y="13.86" width="8.53" height="0.89"/><rect class="cls-1" x="10.39" y="16.02" width="8.53" height="0.89"/><rect class="cls-1" x="7.95" y="16.02" width="1.09" height="0.89"/><rect class="cls-1" x="7.95" y="13.86" width="1.09" height="0.89"/><rect class="cls-1" x="7.95" y="9.53" width="1.09" height="0.89"/><path class="cls-1" d="M13.22.75A12.48,12.48,0,1,0,20,23.68a4.44,4.44,0,0,1-.71-2.39,4.5,4.5,0,0,1,4.5-4.5,4.45,4.45,0,0,1,1.32.22A12.47,12.47,0,0,0,13.22.75ZM9.29,17a.12.12,0,0,1-.12.12H7.82A.12.12,0,0,1,7.7,17V15.9a.12.12,0,0,1,.12-.13H9.17a.12.12,0,0,1,.12.13Zm0-2.16a.12.12,0,0,1-.12.12H7.82a.12.12,0,0,1-.12-.12V13.73a.12.12,0,0,1,.12-.12H9.17a.12.12,0,0,1,.12.12Zm0-2.17a.12.12,0,0,1-.12.13H7.82a.12.12,0,0,1-.12-.13V11.57a.12.12,0,0,1,.12-.12H9.17a.12.12,0,0,1,.12.12Zm0-2.16a.12.12,0,0,1-.12.12H7.82a.12.12,0,0,1-.12-.12V9.41a.12.12,0,0,1,.12-.13H9.17a.12.12,0,0,1,.12.13ZM19.17,17a.12.12,0,0,1-.13.12H10.26a.12.12,0,0,1-.12-.12V15.9a.12.12,0,0,1,.12-.13H19a.13.13,0,0,1,.13.13Zm0-2.16A.13.13,0,0,1,19,15H10.26a.12.12,0,0,1-.12-.12V13.73a.12.12,0,0,1,.12-.12H19a.13.13,0,0,1,.13.12Zm0-2.17a.13.13,0,0,1-.13.13H10.26a.12.12,0,0,1-.12-.13V11.57a.12.12,0,0,1,.12-.12H19a.12.12,0,0,1,.13.12Zm0-2.16a.12.12,0,0,1-.13.12H10.26a.12.12,0,0,1-.12-.12V9.41a.12.12,0,0,1,.12-.13H19a.13.13,0,0,1,.13.13Z"/><rect class="cls-1" x="10.39" y="9.53" width="8.53" height="0.89"/><path class="cls-2" d="M13.22,25.7A12.48,12.48,0,1,1,25.11,17a4.12,4.12,0,0,1,.69.27,13,13,0,0,0,.65-4.06A13.23,13.23,0,1,0,13.22,26.45a13.09,13.09,0,0,0,7.23-2.17,4.47,4.47,0,0,1-.45-.6A12.42,12.42,0,0,1,13.22,25.7Z"/><path class="cls-2" d="M19,9.28H10.26a.12.12,0,0,0-.12.13v1.14a.12.12,0,0,0,.12.12H19a.12.12,0,0,0,.13-.12V9.41A.13.13,0,0,0,19,9.28Zm-.12,1.14H10.39V9.53h8.53Z"/><path class="cls-2" d="M9.17,9.28H7.82a.12.12,0,0,0-.12.13v1.14a.12.12,0,0,0,.12.12H9.17a.12.12,0,0,0,.12-.12V9.41A.12.12,0,0,0,9.17,9.28ZM9,10.42H8V9.53H9Z"/><path class="cls-2" d="M19,11.45H10.26a.12.12,0,0,0-.12.12v1.14a.12.12,0,0,0,.12.13H19a.13.13,0,0,0,.13-.13V11.57A.12.12,0,0,0,19,11.45Zm-.12,1.14H10.39V11.7h8.53Z"/><path class="cls-2" d="M9.17,11.45H7.82a.12.12,0,0,0-.12.12v1.14a.12.12,0,0,0,.12.13H9.17a.12.12,0,0,0,.12-.13V11.57A.12.12,0,0,0,9.17,11.45ZM9,12.59H8V11.7H9Z"/><path class="cls-2" d="M19,13.61H10.26a.12.12,0,0,0-.12.12v1.15a.12.12,0,0,0,.12.12H19a.13.13,0,0,0,.13-.12V13.73A.13.13,0,0,0,19,13.61Zm-.12,1.14H10.39v-.89h8.53Z"/><path class="cls-2" d="M9.17,13.61H7.82a.12.12,0,0,0-.12.12v1.15a.12.12,0,0,0,.12.12H9.17a.12.12,0,0,0,.12-.12V13.73A.12.12,0,0,0,9.17,13.61ZM9,14.75H8v-.89H9Z"/><path class="cls-2" d="M19,15.77H10.26a.12.12,0,0,0-.12.13V17a.12.12,0,0,0,.12.12H19a.12.12,0,0,0,.13-.12V15.9A.13.13,0,0,0,19,15.77Zm-.12,1.14H10.39V16h8.53Z"/><path class="cls-2" d="M9.17,15.77H7.82a.12.12,0,0,0-.12.13V17a.12.12,0,0,0,.12.12H9.17A.12.12,0,0,0,9.29,17V15.9A.12.12,0,0,0,9.17,15.77ZM9,16.91H8V16H9Z"/><path class="cls-2" d="M25.8,17.28a4.12,4.12,0,0,0-.69-.27,4.45,4.45,0,0,0-1.32-.22,4.5,4.5,0,0,0-4.5,4.5,4.54,4.54,0,0,0,4.5,4.5,4.49,4.49,0,0,0,2-8.51Zm.67,2.47-3.54,3.54a.33.33,0,0,1-.23.09.35.35,0,0,1-.23-.09l-1.36-1.37a.31.31,0,0,1,0-.45.32.32,0,0,1,.46,0L22.7,22.6,26,19.29a.31.31,0,0,1,.45,0A.32.32,0,0,1,26.47,19.75Z"/></svg>
