<?xml version="1.0" encoding="utf-8"?><svg  data-name="Layer 1" xmlns="http://www.w3.org/2000/svg" viewBox="0 0 579.67 36.83"><title>4Artboard 19</title><path d="M523.25,36.83a79.77,79.77,0,0,1-32.11-6.24c-4.79-2.1-9-3.9-12.93-5.51-7.77-3.2-16.59-6.83-25.46-8.85a40.21,40.21,0,0,0-8.61-1.13H444c-6.68,0-12.16,4.09-16.19,7.67l-1,.91c-2.86,2.56-5.56,5-9.2,6.5-4,1.69-9.55,2.48-14.31.43a16.78,16.78,0,0,1-5.85.88,17.45,17.45,0,0,1-10.52-4.07,36.29,36.29,0,0,1-3.73-3.59,23.86,23.86,0,0,0-5.38-4.68c-4.54-2.6-9.79-1.7-15.22-.46-3.83.87-7.7,1.92-11.44,2.93-7.82,2.11-15.91,4.29-24.14,5.07-14.68,1.37-28.53-3.66-41.93-8.53-16.42-6-31.92-11.59-48.95-6.6-4.08,1.2-8.14,2.58-12.06,3.92C213.25,19.16,202.07,23,190,23h0c-7.26,0-14.51-2.08-20-3.89-4.26-1.4-8.48-3.1-12.57-4.74-7.52-3-15.3-6.17-23.52-7.5-13.26-2.14-25.63,3.94-37.6,9.83C91.68,18.9,87,21.21,82.4,23,65.24,29.55,47.47,30.25,31,25A78.09,78.09,0,0,1,12.3,16.16,82.2,82.2,0,0,1,0,6.89l.69-.73a81,81,0,0,0,12.15,9.16A76.82,76.82,0,0,0,31.31,24c16.24,5.19,33.78,4.5,50.73-2,4.55-1.74,9-3.94,13.73-6.26,12.11-6,24.62-12.12,38.2-9.91,8.33,1.34,16.16,4.5,23.74,7.55,4.07,1.64,8.27,3.33,12.5,4.72C175.65,19.92,182.8,22,189.92,22h0c12,0,22.56-3.61,33.78-7.44,3.94-1.34,8-2.73,12.11-3.93,17.34-5.09,33.73.86,49.57,6.62,13.3,4.84,27,9.84,41.5,8.47,8.14-.77,16.19-2.94,24-5,3.75-1,7.63-2.06,11.47-2.94,5.64-1.28,11.09-2.2,15.94.57a25.15,25.15,0,0,1,5.62,4.87,34.16,34.16,0,0,0,3.62,3.49,16.49,16.49,0,0,0,9.93,3.85A15.59,15.59,0,0,0,402,30a13.73,13.73,0,0,1-1.79-1.21c-2.79-2.22-4.59-5.65-6.06-8.7A19.81,19.81,0,0,1,392,8.53c.5-3.83,2.67-7.93,6.43-8.48,2.25-.33,4.42,1.06,6.61,4.27.19.27.37.57.56.89,1.44-1.83,3.72-3.76,5.94-3.78h0c3.1,0,4.72,4.84,4.78,5.05a18.5,18.5,0,0,1-2.69,15.58,21.53,21.53,0,0,1-9,8,18.3,18.3,0,0,0,12.55-.81c3.48-1.46,6.12-3.82,8.92-6.33l1-.91C431.31,18.33,437,14.1,444,14.1h.15A41.49,41.49,0,0,1,453,15.25c8.95,2,17.81,5.69,25.62,8.91,3.92,1.61,8.16,3.41,13,5.52,34.8,15.26,80.84-2.5,87.39-9.53l.74.68C574.75,26.1,550,36.83,523.25,36.83ZM399.06,1a2.77,2.77,0,0,0-.49,0c-3.23.47-5.13,4.17-5.57,7.62a18.6,18.6,0,0,0,2,11c1.43,2.94,3.16,6.26,5.78,8.35a13,13,0,0,0,2.51,1.56c3.11-1.15,6.47-3.51,9.51-8A17.92,17.92,0,0,0,415.4,6.79c-.4-1.22-1.87-4.36-3.84-4.36h0c-1.91,0-4.13,1.92-5.42,3.72,1.25,2.4,2.35,5.52,2,7.38A2.67,2.67,0,0,1,405.38,16a2.59,2.59,0,0,1-2.5-1.86c-.68-1.82.48-4.53,1.4-6.71l.08-.16A7.58,7.58,0,0,1,405,6.1c-.25-.43-.5-.84-.76-1.22C402.44,2.28,400.74,1,399.06,1Zm6.45,6.13a4.26,4.26,0,0,0-.23.49l-.08.17c-.81,1.9-1.92,4.52-1.38,6A1.6,1.6,0,0,0,405.38,15a1.72,1.72,0,0,0,1.76-1.63C407.41,11.94,406.62,9.37,405.51,7.13Z"/></svg>
