<?xml version="1.0" encoding="utf-8"?><svg id="Layer_1" data-name="Layer 1" xmlns="http://www.w3.org/2000/svg" viewBox="0 0 140.33 78.4"><defs><style>.cls-1{fill:#00cfcc;}</style></defs><title>4Artboard 18</title><path class="cls-1" d="M15.16,78.08h0a.74.74,0,0,1-.74-.76c0-4.21.14-8.56.42-12.94-3.65-.19-9.7-1.43-12.65-7.22C.43,53.72,0,49.33.9,44.47A30.9,30.9,0,0,1,14.53,23.69c13.49-9,33.38-8.93,47.5-5.9,10.5,2.26,20.69,6,29.41,9.38l.81.32c8.26,3.18,17.63,6.78,26.62,6C126.1,32.9,132.14,29.36,135,24c3-5.61,4-12.8,3.07-22.61a.75.75,0,1,1,1.49-.15c.62,6.37,1,15.74-3.24,23.47-3.13,5.77-9.61,9.6-17.34,10.25-9.35.8-18.88-2.88-27.29-6.11l-.81-.32c-8.67-3.33-18.79-7.07-29.19-9.31-13.81-3-33.24-3-46.35,5.68a29.49,29.49,0,0,0-13,19.81c-.59,3.16-.88,7.76,1.15,11.73,2.61,5.14,8.11,6.23,11.42,6.4a109.53,109.53,0,0,1,1.7-13.23A29.52,29.52,0,0,1,19,42c2.45-4.9,7.63-10.48,14.25-10,6.21.42,11.69,6.65,11.5,13.06a13.92,13.92,0,0,1-2.68,7.42C36.31,60.75,25.2,64.38,16.33,64.41c-.28,4.37-.38,8.72-.42,12.93A.75.75,0,0,1,15.16,78.08ZM32.5,33.47c-5.56,0-10,4.88-12.16,9.2a28.22,28.22,0,0,0-2.23,7.26,109.17,109.17,0,0,0-1.67,13c8.44,0,19-3.49,24.4-11.3A12.45,12.45,0,0,0,43.25,45c.17-5.55-4.74-11.15-10.1-11.51C32.93,33.47,32.72,33.47,32.5,33.47Z"/></svg>