<?xml version="1.0" encoding="utf-8"?><svg id="Layer_1" data-name="Layer 1" xmlns="http://www.w3.org/2000/svg" viewBox="0 0 20.87 20.61"><defs><style>.cls-1{fill:none;}.cls-2{fill:#00cfcc;}</style></defs><title>4Artboard 16</title><path class="cls-1" d="M.72,19.89H20.16V6.22H.72ZM18,8.38a.36.36,0,0,1,0,.72.36.36,0,0,1,0-.72Zm0,2.88A.36.36,0,1,1,18,12a.36.36,0,1,1,0-.72Zm0,2.52a.36.36,0,0,1,.36.36.37.37,0,0,1-.36.36.36.36,0,0,1-.36-.36A.36.36,0,0,1,18,13.78Zm-2.52-5.4a.36.36,0,0,1,0,.72.36.36,0,0,1,0-.72Zm0,2.88a.36.36,0,0,1,0,.72.36.36,0,0,1,0-.72Zm0,2.52a.36.36,0,0,1,.36.36.37.37,0,0,1-.36.36.36.36,0,0,1-.36-.36A.36.36,0,0,1,15.48,13.78ZM13,8.38a.36.36,0,1,1-.36.36A.36.36,0,0,1,13,8.38Zm0,2.88a.36.36,0,1,1-.36.36A.36.36,0,0,1,13,11.26Zm0,2.52a.36.36,0,0,1,.36.36.36.36,0,1,1-.72,0A.36.36,0,0,1,13,13.78Zm0,2.88a.36.36,0,0,1,.36.36.36.36,0,1,1-.72,0A.36.36,0,0,1,13,16.66ZM10.44,8.38a.36.36,0,1,1-.36.36A.36.36,0,0,1,10.44,8.38Zm0,2.88a.36.36,0,1,1-.36.36A.36.36,0,0,1,10.44,11.26Zm0,2.52a.36.36,0,0,1,.36.36.36.36,0,1,1-.72,0A.36.36,0,0,1,10.44,13.78Zm0,2.88a.36.36,0,0,1,.36.36.36.36,0,0,1-.72,0A.36.36,0,0,1,10.44,16.66ZM7.92,8.38a.36.36,0,1,1-.36.36A.36.36,0,0,1,7.92,8.38Zm0,2.88a.36.36,0,1,1-.36.36A.36.36,0,0,1,7.92,11.26Zm0,2.52a.36.36,0,0,1,.36.36.36.36,0,0,1-.72,0A.36.36,0,0,1,7.92,13.78Zm0,2.88a.36.36,0,0,1,.36.36.36.36,0,0,1-.72,0A.36.36,0,0,1,7.92,16.66ZM5.4,11.26a.36.36,0,1,1-.36.36A.36.36,0,0,1,5.4,11.26Zm0,2.52a.36.36,0,0,1,.36.36.36.36,0,0,1-.72,0A.36.36,0,0,1,5.4,13.78Zm0,2.88a.36.36,0,0,1,.36.36A.36.36,0,0,1,5,17,.36.36,0,0,1,5.4,16.66Zm-2.52-5.4a.36.36,0,1,1-.36.36A.36.36,0,0,1,2.88,11.26Zm0,2.52a.36.36,0,0,1,.36.36.36.36,0,1,1-.72,0A.36.36,0,0,1,2.88,13.78Zm0,2.88a.36.36,0,0,1,.36.36.36.36,0,0,1-.72,0A.36.36,0,0,1,2.88,16.66Z"/><path class="cls-2" d="M15.44,1.54A1.8,1.8,0,0,0,13.68.1a.36.36,0,0,0,0,.72,1.08,1.08,0,0,1,0,2.16.36.36,0,0,0,0,.72,1.8,1.8,0,0,0,1.76-1.44h4.72V5.5H.72V2.26H6.84a.36.36,0,0,0,0-.72H6.18A1.08,1.08,0,1,1,7.2,3a.36.36,0,0,0,0,.72A1.8,1.8,0,1,0,5.43,1.54H0V20.61H20.87V1.54Zm4.72,18.35H.72V6.22H20.16Z"/><path class="cls-2" d="M9.36.82A1.08,1.08,0,0,1,9.36,3a.36.36,0,1,0,0,.72,1.8,1.8,0,1,0,0-3.6.36.36,0,0,0,0,.72Z"/><path class="cls-2" d="M11.52.82a1.08,1.08,0,0,1,0,2.16.36.36,0,1,0,0,.72,1.8,1.8,0,1,0,0-3.6.36.36,0,0,0,0,.72Z"/><path class="cls-2" d="M7.92,9.1a.36.36,0,1,0-.36-.36A.36.36,0,0,0,7.92,9.1Z"/><path class="cls-2" d="M10.44,9.1a.36.36,0,1,0-.36-.36A.36.36,0,0,0,10.44,9.1Z"/><path class="cls-2" d="M13,9.1a.36.36,0,1,0-.36-.36A.36.36,0,0,0,13,9.1Z"/><path class="cls-2" d="M15.48,9.1a.36.36,0,0,0,0-.72.36.36,0,0,0,0,.72Z"/><path class="cls-2" d="M18,9.1a.36.36,0,0,0,0-.72.36.36,0,0,0,0,.72Z"/><path class="cls-2" d="M2.88,12a.36.36,0,1,0-.36-.36A.36.36,0,0,0,2.88,12Z"/><path class="cls-2" d="M5.4,12A.36.36,0,1,0,5,11.62.36.36,0,0,0,5.4,12Z"/><path class="cls-2" d="M7.92,12a.36.36,0,1,0-.36-.36A.36.36,0,0,0,7.92,12Z"/><path class="cls-2" d="M10.44,12a.36.36,0,1,0-.36-.36A.36.36,0,0,0,10.44,12Z"/><path class="cls-2" d="M13,12a.36.36,0,1,0-.36-.36A.36.36,0,0,0,13,12Z"/><path class="cls-2" d="M15.48,12a.36.36,0,0,0,0-.72.36.36,0,0,0,0,.72Z"/><path class="cls-2" d="M18,12a.36.36,0,1,0,0-.72A.36.36,0,1,0,18,12Z"/><circle class="cls-2" cx="2.88" cy="14.14" r="0.36"/><path class="cls-2" d="M5.4,14.5a.36.36,0,0,0,.36-.36.36.36,0,1,0-.72,0A.36.36,0,0,0,5.4,14.5Z"/><circle class="cls-2" cx="7.92" cy="14.14" r="0.36"/><path class="cls-2" d="M10.44,14.5a.36.36,0,0,0,.36-.36.36.36,0,1,0-.72,0A.36.36,0,0,0,10.44,14.5Z"/><circle class="cls-2" cx="12.96" cy="14.14" r="0.36"/><path class="cls-2" d="M15.48,14.5a.37.37,0,0,0,.36-.36.36.36,0,0,0-.36-.36.36.36,0,0,0-.36.36A.36.36,0,0,0,15.48,14.5Z"/><circle class="cls-2" cx="18" cy="14.14" r="0.36"/><path class="cls-2" d="M2.88,17.38A.36.36,0,0,0,3.24,17a.36.36,0,0,0-.72,0A.36.36,0,0,0,2.88,17.38Z"/><path class="cls-2" d="M5.4,17.38A.36.36,0,0,0,5.76,17,.36.36,0,0,0,5,17,.36.36,0,0,0,5.4,17.38Z"/><path class="cls-2" d="M7.92,17.38A.36.36,0,0,0,8.28,17a.36.36,0,1,0-.72,0A.36.36,0,0,0,7.92,17.38Z"/><path class="cls-2" d="M10.44,17.38A.36.36,0,0,0,10.8,17a.36.36,0,0,0-.72,0A.36.36,0,0,0,10.44,17.38Z"/><path class="cls-2" d="M13,17.38a.36.36,0,0,0,.36-.36.36.36,0,0,0-.72,0A.36.36,0,0,0,13,17.38Z"/></svg>