<?xml version="1.0" encoding="utf-8"?><svg xmlns="http://www.w3.org/2000/svg" viewBox="0 0 17.24 17.24"><defs><style>.cls-1{fill:#fff;}</style></defs><title>Artboard 53</title><g id="Layer_2" data-name="Layer 2"><path class="cls-1" d="M16.78,13.3,13.3,11a1,1,0,0,0-1.37.22l-1,1.31a.45.45,0,0,1-.56.12l-.19-.11a11.75,11.75,0,0,1-3-2.39,11.68,11.68,0,0,1-2.39-3l-.11-.19a.45.45,0,0,1,.12-.56L6,5.3a1,1,0,0,0,.23-1.36L3.94.45A1,1,0,0,0,2.57.14L1.11,1A2.07,2.07,0,0,0,.18,2.24C-.35,4.15.05,7.46,4.91,12.32c3.87,3.87,6.76,4.92,8.74,4.92A5.16,5.16,0,0,0,15,17.06a2,2,0,0,0,1.21-.94l.88-1.46A1,1,0,0,0,16.78,13.3Zm-.18,1.07-.88,1.46a1.51,1.51,0,0,1-.87.68c-1.77.48-4.86.08-9.53-4.59S.25,4.16.73,2.39a1.53,1.53,0,0,1,.68-.88L2.87.64a.44.44,0,0,1,.59.13l1.27,1.9L5.79,4.26a.45.45,0,0,1-.1.59l-1.31,1a1,1,0,0,0-.26,1.29l.1.19a12.38,12.38,0,0,0,2.49,3.17A12,12,0,0,0,9.89,13l.19.11a1,1,0,0,0,1.29-.27l1-1.31a.44.44,0,0,1,.59-.09l3.49,2.33A.44.44,0,0,1,16.6,14.37Z"/><path class="cls-1" d="M9.77,2.87a4.9,4.9,0,0,1,4.88,4.89.28.28,0,0,0,.29.28.27.27,0,0,0,.28-.28A5.45,5.45,0,0,0,9.77,2.3a.29.29,0,0,0-.29.29A.28.28,0,0,0,9.77,2.87Z"/><path class="cls-1" d="M9.77,4.6a3.17,3.17,0,0,1,3.16,3.16.29.29,0,0,0,.57,0A3.74,3.74,0,0,0,9.77,4a.29.29,0,0,0,0,.58Z"/><path class="cls-1" d="M9.77,6.32A1.43,1.43,0,0,1,11.2,7.76a.29.29,0,0,0,.58,0,2,2,0,0,0-2-2A.28.28,0,0,0,9.48,6,.29.29,0,0,0,9.77,6.32Z"/></g></svg>