<?xml version="1.0" encoding="utf-8"?>
<!-- Generator: Adobe Illustrator 23.1.0, SVG Export Plug-In . SVG Version: 6.00 Build 0)  -->
<svg version="1.1"  xmlns="http://www.w3.org/2000/svg" xmlns:xlink="http://www.w3.org/1999/xlink" x="0px" y="0px"
	 viewBox="0 0 29 15.7" style="enable-background:new 0 0 29 15.7;" xml:space="preserve">
<title>4Artboard 17</title>
<g>
	<path d="M1.2,0c0.3,0,0.6,0.1,0.9,0.4l12.4,12.4L26.9,0.4c0.5-0.5,1.2-0.5,1.7,0c0,0,0,0,0,0c0.5,0.5,0.5,1.2,0,1.7c0,0,0,0,0,0
		L15.4,15.4c-0.5,0.5-1.2,0.5-1.7,0c0,0,0,0,0,0L0.4,2.1c-0.5-0.5-0.5-1.3,0-1.7C0.6,0.1,0.9,0,1.2,0z"/>
</g>
</svg>
