<?xml version="1.0" encoding="utf-8"?><svg id="Layer_1" data-name="Layer 1" xmlns="http://www.w3.org/2000/svg" viewBox="0 0 36.34 6.91"><defs><style>.cls-1{fill:#f6ab3f;}</style></defs><title>4Artboard 9</title><polygon class="cls-1" points="3.63 0 4.74 2.29 7.27 2.64 5.43 4.4 5.88 6.91 3.63 5.71 1.39 6.91 1.84 4.4 0 2.64 2.52 2.29 3.63 0"/><polygon class="cls-1" points="10.9 0 12.01 2.29 14.54 2.64 12.7 4.4 13.15 6.91 10.9 5.71 8.65 6.91 9.1 4.4 7.27 2.64 9.79 2.29 10.9 0"/><polygon class="cls-1" points="18.17 0 19.28 2.29 21.8 2.64 19.96 4.4 20.41 6.91 18.17 5.71 15.92 6.91 16.37 4.4 14.54 2.64 17.06 2.29 18.17 0"/><polygon class="cls-1" points="25.44 0 26.55 2.29 29.07 2.64 27.23 4.4 27.68 6.91 25.44 5.71 23.19 6.91 23.64 4.4 21.8 2.64 24.32 2.29 25.44 0"/><polygon class="cls-1" points="32.7 0 33.81 2.29 36.34 2.64 34.5 4.4 34.95 6.91 32.7 5.71 30.46 6.91 30.91 4.4 29.07 2.64 31.59 2.29 32.7 0"/></svg>