<?xml version="1.0" encoding="utf-8"?><svg id="Layer_1" data-name="Layer 1" xmlns="http://www.w3.org/2000/svg" viewBox="0 0 98.03 94.29"><defs><style>.cls-1{fill:none;}.cls-2{fill:#00cfcc;}</style></defs><title>4Artboard 36</title><path class="cls-1" d="M47.33,13.05a34,34,0,1,0,34,34A34,34,0,0,0,47.33,13.05Zm1.62,34a1.61,1.61,0,0,1-1.62,1.62H31.11a1.62,1.62,0,1,1,0-3.24h14.6V23.3a1.62,1.62,0,0,1,3.24,0Z"/><polygon class="cls-1" points="89.37 38.55 93.26 37.28 89.78 33.23 89.37 38.55"/><path class="cls-2" d="M47.33,9.81A37.24,37.24,0,1,0,84.57,47.05,37.27,37.27,0,0,0,47.33,9.81Zm0,71.24a34,34,0,1,1,34-34A34,34,0,0,1,47.33,81.05Z"/><path class="cls-2" d="M47.33,21.68a1.62,1.62,0,0,0-1.62,1.62V45.43H31.11a1.62,1.62,0,1,0,0,3.24H47.33A1.61,1.61,0,0,0,49,47.05V23.3A1.62,1.62,0,0,0,47.33,21.68Z"/><path class="cls-2" d="M97.3,37l-7.6-8.88A1.63,1.63,0,0,0,88,27.65a1.62,1.62,0,0,0-1.11,1.42l-.91,11.65a1.62,1.62,0,0,0,1.62,1.75,1.42,1.42,0,0,0,.5-.08l2.14-.7a43.18,43.18,0,1,1-13-25.92,1.62,1.62,0,0,0,2.24-2.35A46.46,46.46,0,0,0,14.48,79.9,46.47,46.47,0,0,0,91.71,60.81a47,47,0,0,0,1.64-20.14l3.22-1.05A1.63,1.63,0,0,0,97.3,37Zm-7.93,1.53.41-5.33,3.48,4.06Z"/><path class="cls-2" d="M82.8,23.09a1.62,1.62,0,1,0-1.63-1A1.63,1.63,0,0,0,82.8,23.09Z"/></svg>