<?xml version="1.0" encoding="utf-8"?><svg  data-name="Layer 1" xmlns="http://www.w3.org/2000/svg" viewBox="0 0 25.69 24.77"><defs><style>.cls-1{fill:none;}.cls-2{fill:#037098;}</style></defs><title>4Artboard 17</title><path class="cls-1" d="M3.84,8.93a.22.22,0,0,0-.28,0l-.69.69a.19.19,0,0,0,0,.28l5.27,5.27a.21.21,0,0,0,.28,0l.68-.69a.19.19,0,0,0,0-.28Z"/><path class="cls-1" d="M14.77,22H1.82a.9.9,0,0,0-.91.9v1H15.67v-1A.9.9,0,0,0,14.77,22Z"/><path class="cls-1" d="M16.08,7.22a.19.19,0,0,0,.28,0l.69-.68a.24.24,0,0,0,.05-.14.2.2,0,0,0-.05-.14L11.78,1a.19.19,0,0,0-.28,0l-.68.69a.19.19,0,0,0,0,.28Z"/><polygon class="cls-1" points="12.71 9.21 14.84 7.08 10.96 3.19 5.08 9.08 8.96 12.96 11.09 10.83 11.09 10.83 12.71 9.21 12.71 9.21"/><path class="cls-1" d="M19.5,15.53a.21.21,0,0,0-.12,0,.17.17,0,0,0-.12,0l-1.73,1.73-.12.12a.17.17,0,0,0-.05.12.21.21,0,0,0,.05.12l5.23,5.22a.17.17,0,0,0,.24,0L24.72,21a.15.15,0,0,0,.05-.12.14.14,0,0,0-.05-.12Z"/><path class="cls-2" d="M25.27,20.21,20,15a.91.91,0,0,0-.66-.28.93.93,0,0,0-.49.14L16,11.91a.39.39,0,0,0-.55.55l2.92,2.91-1.08,1.08L11.91,11.1,13,10l.72.71a.38.38,0,0,0,.54-.54l-.71-.72,1.86-1.86.14.15a1,1,0,0,0,.69.28,1,1,0,0,0,.68-.28l.69-.69a1,1,0,0,0,.28-.68,1,1,0,0,0-.28-.69L12.33.45a1,1,0,0,0-.69-.29A.92.92,0,0,0,11,.45l-.69.68a1,1,0,0,0-.28.69,1,1,0,0,0,.28.68l.15.15L4.53,8.54l-.15-.15A1,1,0,0,0,3,8.39l-.68.69A1,1,0,0,0,2,9.76a1,1,0,0,0,.29.69l5.26,5.26a1,1,0,0,0,.69.28A1,1,0,0,0,9,15.71L9.65,15h0a1,1,0,0,0,0-1.37l-.15-.14,1.86-1.87L16.73,17a.92.92,0,0,0,.14,1.15l5.22,5.23a1,1,0,0,0,.67.27.94.94,0,0,0,.66-.27l1.85-1.85a.94.94,0,0,0,.27-.66A1,1,0,0,0,25.27,20.21ZM10.82,1.68,11.5,1a.19.19,0,0,1,.28,0l5.27,5.27a.2.2,0,0,1,.05.14.24.24,0,0,1-.05.14l-.69.68a.19.19,0,0,1-.28,0L10.82,2a.19.19,0,0,1,0-.28ZM9.1,14.48l-.68.69a.21.21,0,0,1-.28,0L2.87,9.9a.19.19,0,0,1,0-.28l.69-.69a.22.22,0,0,1,.28,0L9.1,14.2A.19.19,0,0,1,9.1,14.48Zm2-3.65h0L9,13,5.08,9.08,11,3.2l3.88,3.88L12.71,9.21h0ZM24.72,21l-1.84,1.84a.17.17,0,0,1-.24,0l-5.23-5.22a.21.21,0,0,1-.05-.12.17.17,0,0,1,.05-.12l.12-.12,1.73-1.73a.17.17,0,0,1,.12,0,.21.21,0,0,1,.12,0l5.22,5.23a.14.14,0,0,1,.05.12A.15.15,0,0,1,24.72,21Z"/><path class="cls-2" d="M14.77,21.22h-.59v-2a.83.83,0,0,0-.82-.83H6.72a.39.39,0,0,0,0,.78h6.64a0,0,0,0,1,.05.05v2H3.18v-2a0,0,0,0,1,0-.05H4.3a.39.39,0,0,0,0-.78H3.23a.82.82,0,0,0-.82.83v2H1.82A1.68,1.68,0,0,0,.14,22.89V24a.65.65,0,0,0,.65.65h15a.65.65,0,0,0,.64-.65V22.89A1.67,1.67,0,0,0,14.77,21.22Zm.9,2.64H.91v-1a.9.9,0,0,1,.91-.9h13a.9.9,0,0,1,.9.9Z"/></svg>
