<?xml version="1.0" encoding="utf-8"?><svg xmlns="http://www.w3.org/2000/svg" viewBox="0 0 33.37 49.61"><defs><style>.cls-1{fill:#00cfcc;}</style></defs><title>4Artboard 16</title><g id="Layer_1" data-name="Layer 1"><path class="cls-1" d="M26.38,34.66c4.77-8.54,7-14.25,7-18A16.69,16.69,0,0,0,0,16.68c0,3.73,2.22,9.44,7,18,2.9,5.2,5.81,9.72,6.63,11L16,49.28a.82.82,0,0,0,1.33,0l2.36-3.58C20.06,45.16,23.21,40.34,26.38,34.66Zm-9.7,12.75L15,44.83s-3.28-5-6.61-10.93C3.86,25.82,1.58,20,1.58,16.68a15.11,15.11,0,0,1,30.21,0c0,3.35-2.28,9.14-6.79,17.22-2.93,5.24-5.78,9.66-6.59,10.89Z"/><path class="cls-1" d="M16.68,12.56a4,4,0,1,0,4,4A4,4,0,0,0,16.68,12.56Z"/></g></svg>