<?xml version="1.0" encoding="utf-8"?><svg id="Layer_1" data-name="Layer 1" xmlns="http://www.w3.org/2000/svg" viewBox="0 0 28.29 26.45"><defs><style>.cls-1{fill:none;}.cls-2{fill:#00cfcc;}</style></defs><title>4Artboard 10</title><path class="cls-1" d="M8.91,10.5,6.88,16h1l.43-1.28a.11.11,0,0,1,.11-.08h2.13a.11.11,0,0,1,.11.08L11.06,16H12L10,10.5Zm1.35,3.28a.12.12,0,0,1-.1,0H8.72a.12.12,0,0,1-.1,0,.11.11,0,0,1,0-.11l.71-2.14a.13.13,0,0,1,.12-.08h0a.12.12,0,0,1,.11.08l.73,2.14A.15.15,0,0,1,10.26,13.78Z"/><path class="cls-1" d="M17.25,12a.44.44,0,0,0-.47-.5h-.92v1h.92C17.08,12.52,17.25,12.34,17.25,12Z"/><path class="cls-1" d="M16.88,13.72h-1v1.21h1a.6.6,0,0,0,.68-.6A.59.59,0,0,0,16.88,13.72Z"/><polygon class="cls-1" points="8.88 13.59 10 13.59 9.44 11.94 8.88 13.59"/><path class="cls-1" d="M17.71,13.15a.12.12,0,0,1-.09-.11.1.1,0,0,1,.08-.12,1.06,1.06,0,0,0,.7-1.07,1.38,1.38,0,0,0-1.55-1.35H14.72V16H17a1.51,1.51,0,0,0,1.68-1.51A1.24,1.24,0,0,0,17.71,13.15Zm-2.08-1.76a.11.11,0,0,1,.11-.11h1a.67.67,0,0,1,.71.73.68.68,0,0,1-.71.75h-1a.11.11,0,0,1-.11-.12Zm1.23,3.78H15.74a.11.11,0,0,1-.11-.12V13.6a.11.11,0,0,1,.11-.12h1.14a.84.84,0,0,1,.9.85A.85.85,0,0,1,16.86,15.17Z"/><path class="cls-1" d="M13.22.75A12.48,12.48,0,1,0,20,23.68a4.44,4.44,0,0,1-.71-2.39,4.5,4.5,0,0,1,4.5-4.5,4.45,4.45,0,0,1,1.32.22A12.47,12.47,0,0,0,13.22.75Zm-.94,15.38a.12.12,0,0,1-.1.06H11a.13.13,0,0,1-.11-.08l-.44-1.29H8.47L8,16.1a.13.13,0,0,1-.11.09H6.7a.11.11,0,0,1-.09-.06.1.1,0,0,1,0-.1l2.12-5.69a.13.13,0,0,1,.12-.08h1.23a.13.13,0,0,1,.12.08L12.29,16A.12.12,0,0,1,12.28,16.13Zm1.15.54a.12.12,0,0,1-.12.12.12.12,0,0,1-.12-.12V9.78a.12.12,0,0,1,.12-.12.12.12,0,0,1,.12.12ZM17,16.19H14.6a.12.12,0,0,1-.12-.12V10.38a.12.12,0,0,1,.12-.12h2.25a1.61,1.61,0,0,1,1.79,1.59A1.35,1.35,0,0,1,18.07,13a1.52,1.52,0,0,1,.86,1.44A1.73,1.73,0,0,1,17,16.19Z"/><path class="cls-2" d="M13.22,25.7A12.48,12.48,0,1,1,25.11,17a4.12,4.12,0,0,1,.69.27,13,13,0,0,0,.65-4.06A13.23,13.23,0,1,0,13.22,26.45a13.09,13.09,0,0,0,7.23-2.17,4.47,4.47,0,0,1-.45-.6A12.42,12.42,0,0,1,13.22,25.7Z"/><path class="cls-2" d="M9.44,11.45h0a.13.13,0,0,0-.12.08l-.71,2.14a.11.11,0,0,0,0,.11.12.12,0,0,0,.1,0h1.44a.12.12,0,0,0,.1,0,.15.15,0,0,0,0-.11l-.73-2.14A.12.12,0,0,0,9.44,11.45Zm-.56,2.14.56-1.65L10,13.59Z"/><path class="cls-2" d="M10.06,10.26H8.83a.13.13,0,0,0-.12.08L6.59,16a.1.1,0,0,0,0,.1.11.11,0,0,0,.09.06H7.93A.13.13,0,0,0,8,16.1l.43-1.28h1.95l.44,1.29a.13.13,0,0,0,.11.08h1.21a.12.12,0,0,0,.1-.06.12.12,0,0,0,0-.1l-2.11-5.69A.13.13,0,0,0,10.06,10.26Zm1,5.69-.44-1.28a.11.11,0,0,0-.11-.08H8.38a.11.11,0,0,0-.11.08L7.84,16h-1l2-5.45H10L12,16Z"/><path class="cls-2" d="M16.88,13.48H15.74a.11.11,0,0,0-.11.12v1.45a.11.11,0,0,0,.11.12h1.12a.85.85,0,0,0,.92-.84A.84.84,0,0,0,16.88,13.48Zm0,1.45h-1V13.72h1a.59.59,0,0,1,.66.61A.6.6,0,0,1,16.86,14.93Z"/><path class="cls-2" d="M15.74,12.76h1a.68.68,0,0,0,.71-.75.67.67,0,0,0-.71-.73h-1a.11.11,0,0,0-.11.11v1.25A.11.11,0,0,0,15.74,12.76Zm.12-1.25h.92a.44.44,0,0,1,.47.5c0,.33-.17.51-.47.51h-.92Z"/><path class="cls-2" d="M18.07,13a1.35,1.35,0,0,0,.57-1.15,1.61,1.61,0,0,0-1.79-1.59H14.6a.12.12,0,0,0-.12.12v5.69a.12.12,0,0,0,.12.12H17a1.73,1.73,0,0,0,1.91-1.75A1.52,1.52,0,0,0,18.07,13ZM17,16h-2.3V10.5h2.13a1.38,1.38,0,0,1,1.55,1.35,1.06,1.06,0,0,1-.7,1.07.1.1,0,0,0-.08.12.12.12,0,0,0,.09.11,1.24,1.24,0,0,1,1,1.29A1.51,1.51,0,0,1,17,16Z"/><path class="cls-2" d="M13.31,9.66a.12.12,0,0,0-.12.12v6.89a.12.12,0,0,0,.12.12.12.12,0,0,0,.12-.12V9.78A.12.12,0,0,0,13.31,9.66Z"/><path class="cls-2" d="M25.8,17.28a4.12,4.12,0,0,0-.69-.27,4.45,4.45,0,0,0-1.32-.22,4.5,4.5,0,0,0-4.5,4.5,4.54,4.54,0,0,0,4.5,4.5,4.49,4.49,0,0,0,2-8.51Zm.67,2.47-3.54,3.54a.34.34,0,0,1-.46,0l-1.36-1.37a.31.31,0,0,1,0-.45.32.32,0,0,1,.46,0L22.7,22.6,26,19.29a.33.33,0,1,1,.46.46Z"/></svg>