<svg xmlns="http://www.w3.org/2000/svg" viewBox="0 0 43.63 45.25">
    <g id="Layer_1" data-name="Layer 1">
        <path fill="#fff"
              d="M5.66,11.31a5.66,5.66,0,0,0,5.59-4.85H42.82a.81.81,0,1,0,0-1.61H11.25a5.65,5.65,0,1,0-5.59,6.46Zm0-9.69a4,4,0,1,1-4,4A4,4,0,0,1,5.66,1.62Z"/>
        <path fill="#fff"
              d="M38,33.93a5.67,5.67,0,0,0-5.59,4.85H.81a.81.81,0,1,0,0,1.62H32.38A5.65,5.65,0,1,0,38,33.93Zm0,9.7a4,4,0,1,1,4-4A4,4,0,0,1,38,43.63Z"/>
        <path fill="#fff"
              d="M42.82,21.82h-15a5.82,5.82,0,0,0-11.57,0H.81a.81.81,0,1,0,0,1.61H16.25a5.82,5.82,0,0,0,11.47,0h15.1a.81.81,0,1,0,0-1.61ZM22,26.66a4.21,4.21,0,1,1,4.21-4.2A4.2,4.2,0,0,1,22,26.66Z"/>
    </g>
</svg>
