<svg xmlns="http://www.w3.org/2000/svg" viewBox="0 0 3.59 3.53">
    <defs>
        <style>.cls-1{fill:#00cfcc;}</style>
    </defs>
    <title>Artboard 57</title>
    <g id="Layer_2" data-name="Layer 2">
        <path class="cls-1"
              d="M2.66.25A.32.32,0,0,0,2.36,0a.07.07,0,0,0-.07.06s0,.06.07.06a.19.19,0,0,1,.18.19A.19.19,0,0,1,2.36.5s-.07,0-.07.06a.07.07,0,0,0,.07.06.32.32,0,0,0,.3-.25h.81V.93H.12V.37H1.18A.06.06,0,0,0,1.24.31.06.06,0,0,0,1.18.25H1.07A.18.18,0,0,1,1.24.12a.2.2,0,0,1,.19.19A.2.2,0,0,1,1.24.5a.06.06,0,0,0-.06.06.06.06,0,0,0,.06.06A.31.31,0,0,0,1.55.31.31.31,0,0,0,1.24,0a.3.3,0,0,0-.3.25H0V3.53H3.59V.25Zm.81,3.16H.12V1.05H3.47Z"/>
        <path class="cls-1"
              d="M1.61.12A.2.2,0,0,1,1.8.31.2.2,0,0,1,1.61.5a.06.06,0,0,0-.06.06.06.06,0,0,0,.06.06A.31.31,0,0,0,1.92.31.31.31,0,0,0,1.61,0a.06.06,0,0,0-.06.06A.06.06,0,0,0,1.61.12Z"/>
        <path class="cls-1"
              d="M2,.12A.19.19,0,0,1,2,.5a.06.06,0,0,0-.06.06A.06.06,0,0,0,2,.62.31.31,0,0,0,2.29.31.31.31,0,0,0,2,0a.06.06,0,0,0-.06.06A.06.06,0,0,0,2,.12Z"/>
        <circle class="cls-1" cx="1.36" cy="1.49" r="0.06"/>
        <circle class="cls-1" cx="1.8" cy="1.49" r="0.06"/>
        <circle class="cls-1" cx="2.23" cy="1.49" r="0.06"/>
        <circle class="cls-1" cx="2.67" cy="1.49" r="0.06"/>
        <circle class="cls-1" cx="3.1" cy="1.49" r="0.06"/>
        <circle class="cls-1" cx="0.5" cy="1.98" r="0.06"/>
        <circle class="cls-1" cx="0.93" cy="1.98" r="0.06"/>
        <circle class="cls-1" cx="1.36" cy="1.98" r="0.06"/>
        <circle class="cls-1" cx="1.8" cy="1.98" r="0.06"/>
        <circle class="cls-1" cx="2.23" cy="1.98" r="0.06"/>
        <circle class="cls-1" cx="2.67" cy="1.98" r="0.06"/>
        <circle class="cls-1" cx="3.1" cy="1.98" r="0.06"/>
        <circle class="cls-1" cx="0.5" cy="2.42" r="0.06"/>
        <circle class="cls-1" cx="0.93" cy="2.42" r="0.06"/>
        <circle class="cls-1" cx="1.36" cy="2.42" r="0.06"/>
        <circle class="cls-1" cx="1.8" cy="2.42" r="0.06"/>
        <circle class="cls-1" cx="2.23" cy="2.42" r="0.06"/>
        <circle class="cls-1" cx="2.67" cy="2.42" r="0.06"/>
        <circle class="cls-1" cx="3.1" cy="2.42" r="0.06"/>
        <circle class="cls-1" cx="0.5" cy="2.91" r="0.06"/>
        <circle class="cls-1" cx="0.93" cy="2.91" r="0.06"/>
        <circle class="cls-1" cx="1.36" cy="2.91" r="0.06"/>
        <circle class="cls-1" cx="1.8" cy="2.91" r="0.06"/>
        <circle class="cls-1" cx="2.23" cy="2.91" r="0.06"/>
    </g>
</svg>
