<?xml version="1.0" encoding="utf-8"?><svg id="Layer_1" data-name="Layer 1" xmlns="http://www.w3.org/2000/svg" viewBox="0 0 37.56 55.11"><defs><style>.cls-1{fill:#00cfcc;}</style></defs><title>4Artboard 37</title><path class="cls-1" d="M29.36,38.32C34.57,29,37,22.75,37,18.69a18.22,18.22,0,1,0-36.43,0C.56,22.75,3,29,8.19,38.32c3.17,5.67,6.35,10.61,7.25,12l2.62,4a.9.9,0,0,0,1.44,0l2.58-3.91C22.46,49.78,25.9,44.52,29.36,38.32ZM18.78,52.24l-1.86-2.82c0-.05-3.58-5.42-7.22-11.94C4.78,28.66,2.28,22.34,2.28,18.69a16.5,16.5,0,0,1,33,0c0,3.65-2.49,10-7.41,18.79-3.2,5.73-6.31,10.55-7.19,11.89Z"/><path class="cls-1" d="M18.78,14.18a4.4,4.4,0,1,0,4.39,4.39A4.4,4.4,0,0,0,18.78,14.18Z"/></svg>