<?xml version="1.0" encoding="utf-8"?>
<svg xmlns="http://www.w3.org/2000/svg" viewBox="0 0 53.42 38.09">
    <title>4Artboard 19</title>
    <g id="Layer_1" data-name="Layer 1">
        <path fill="#1b1b1b"
              d="M27.57,22.28,16.2,33.65V1.3a1.3,1.3,0,1,0-2.6,0V33.66L2.22,22.28a1.3,1.3,0,0,0-1.84,0,1.29,1.29,0,0,0,0,1.83L14,37.71a1.3,1.3,0,0,0,1.84,0l13.59-13.6a1.3,1.3,0,1,0-1.84-1.83Z"/>
        <path fill="#1b1b1b"
              d="M53,14,39.45.38a1.3,1.3,0,0,0-1.84,0L24,14a1.3,1.3,0,1,0,1.84,1.83L37.24,4.43V36.79a1.3,1.3,0,1,0,2.59,0V4.43L51.2,15.8a1.29,1.29,0,0,0,.92.38A1.25,1.25,0,0,0,53,15.8,1.29,1.29,0,0,0,53,14Z"/>
    </g>
</svg>
