<?xml version="1.0" encoding="utf-8"?><svg  data-name="Layer 1" xmlns="http://www.w3.org/2000/svg" viewBox="0 0 38.98 22.51"><defs><style>.cls-1{fill:none;}.cls-2{fill:#037098;}</style></defs><title>4Artboard 14</title><path class="cls-1" d="M33.67,7.44A1.39,1.39,0,0,0,32.2,5.86H29.29V9H32.2A1.4,1.4,0,0,0,33.67,7.44Z"/><path class="cls-1" d="M32.48,12.82H29.29v3.83h3.14a1.91,1.91,0,0,0,2.15-1.92A1.88,1.88,0,0,0,32.48,12.82Z"/><path class="cls-1" d="M7.33,2.65.92,19.86H4l1.35-4a.37.37,0,0,1,.36-.25h6.72a.37.37,0,0,1,.35.25l1.38,4h3L10.72,2.65ZM11.6,13a.39.39,0,0,1-.31.15H6.73a.36.36,0,0,1-.3-.15.38.38,0,0,1,0-.34L8.65,5.91A.38.38,0,0,1,9,5.65H9a.4.4,0,0,1,.36.26l2.29,6.75A.38.38,0,0,1,11.6,13Z"/><path class="cls-1" d="M35.13,11a.37.37,0,0,1-.31-.34.38.38,0,0,1,.26-.39,3.3,3.3,0,0,0,2.21-3.36c0-2.55-2-4.27-4.89-4.27H25.66V19.86H33c3.65,0,5.28-2.39,5.28-4.76A3.92,3.92,0,0,0,35.13,11ZM28.54,5.48a.37.37,0,0,1,.37-.37H32.2a2.11,2.11,0,0,1,2.22,2.33A2.14,2.14,0,0,1,32.2,9.79H28.91a.37.37,0,0,1-.37-.37ZM32.43,17.4H28.91a.37.37,0,0,1-.37-.37V12.44a.36.36,0,0,1,.37-.37h3.57a2.64,2.64,0,0,1,2.85,2.66A2.67,2.67,0,0,1,32.43,17.4Z"/><polygon class="cls-1" points="7.25 12.4 10.77 12.4 9 7.2 7.25 12.4"/><path class="cls-2" d="M11.33,2.15A.37.37,0,0,0,11,1.9H7.07a.39.39,0,0,0-.35.25L0,20.1a.4.4,0,0,0,.05.35.37.37,0,0,0,.31.16H4.23a.39.39,0,0,0,.36-.26l1.35-4h6.18l1.37,4a.39.39,0,0,0,.36.26h3.8a.37.37,0,0,0,.31-.16.37.37,0,0,0,0-.35Zm2.79,17.71-1.38-4a.37.37,0,0,0-.35-.25H5.67a.37.37,0,0,0-.36.25L4,19.86h-3L7.33,2.65h3.39l6.39,17.21Z"/><path class="cls-2" d="M9,5.65H9a.38.38,0,0,0-.35.26L6.38,12.66a.38.38,0,0,0,0,.34.36.36,0,0,0,.3.15h4.56A.39.39,0,0,0,11.6,13a.38.38,0,0,0,.05-.34L9.36,5.91A.4.4,0,0,0,9,5.65ZM7.25,12.4,9,7.2l1.77,5.2Z"/><path class="cls-2" d="M32.48,12.07H28.91a.36.36,0,0,0-.37.37V17a.37.37,0,0,0,.37.37h3.52a2.67,2.67,0,0,0,2.9-2.67A2.64,2.64,0,0,0,32.48,12.07Zm0,4.58H29.29V12.82h3.19a1.88,1.88,0,0,1,2.1,1.91A1.91,1.91,0,0,1,32.43,16.65Z"/><path class="cls-2" d="M36.26,10.56A4.3,4.3,0,0,0,38,6.92c0-3-2.26-5-5.64-5H25.29a.38.38,0,0,0-.38.38v18a.38.38,0,0,0,.38.38H33c4.17,0,6-2.77,6-5.51A4.81,4.81,0,0,0,36.26,10.56ZM33,19.86H25.66V2.65H32.4c2.93,0,4.89,1.72,4.89,4.27a3.3,3.3,0,0,1-2.21,3.36.38.38,0,0,0-.26.39.37.37,0,0,0,.31.34,3.92,3.92,0,0,1,3.1,4.09C38.23,17.47,36.6,19.86,33,19.86Z"/><path class="cls-2" d="M28.91,9.79H32.2a2.14,2.14,0,0,0,2.22-2.35A2.11,2.11,0,0,0,32.2,5.11H28.91a.37.37,0,0,0-.37.37V9.42A.37.37,0,0,0,28.91,9.79Zm.38-3.93H32.2a1.39,1.39,0,0,1,1.47,1.58A1.4,1.4,0,0,1,32.2,9H29.29Z"/><path class="cls-2" d="M21.23,0a.38.38,0,0,0-.37.38V22.13a.38.38,0,1,0,.75,0V.38A.38.38,0,0,0,21.23,0Z"/></svg>
