<?xml version="1.0" encoding="utf-8"?><svg xmlns="http://www.w3.org/2000/svg" viewBox="0 0 330.24 62.13"><defs><style>.cls-1{fill:#fff;}</style></defs><title>logo-desktop</title><g id="Labels"><path class="cls-1" d="M31.62,30.17h.09c.14,0,.52-.06.64-.69a5.91,5.91,0,0,0-.63-2.8c-.42,1-.94,2.32-.69,3C31.21,30.14,31.52,30.17,31.62,30.17Z"/><path class="cls-1" d="M61.28,19.64H42.48V.84A.84.84,0,0,0,41.64,0H20.48a.85.85,0,0,0-.84.84v18.8H.84a.85.85,0,0,0-.84.84V33.35c2-.54,4.06-1.08,6.11-1.55,3.4-.78,6.69-1.33,9.67.37a15.14,15.14,0,0,1,3.4,2.94,20,20,0,0,0,2.1,2A9.44,9.44,0,0,0,27,39.35a8.08,8.08,0,0,0,1.78-.14l-.39-.29a14.54,14.54,0,0,1-5-12.27c.31-2.39,1.69-5,4.09-5.31C29,21.12,30.34,22,31.72,24l.07.11a5.75,5.75,0,0,1,2.79-1.87,2.5,2.5,0,0,1,1.93.28,5.72,5.72,0,0,1,2.07,3.36,11.19,11.19,0,0,1-.5,6.58,13.09,13.09,0,0,1-6,6.87,10.9,10.9,0,0,0,6.4-.69A18.69,18.69,0,0,0,43.69,35l.61-.54c2.52-2.25,6-4.82,10.28-4.78a24.8,24.8,0,0,1,5.3.69c.75.17,1.5.37,2.25.57V20.48A.85.85,0,0,0,61.28,19.64Z"/><path class="cls-1" d="M54.57,30.91c-3.86,0-7.08,2.37-9.43,4.46l-.6.54A20.13,20.13,0,0,1,39,39.82a13,13,0,0,1-4.89,1,9.72,9.72,0,0,1-3.77-.72,10.13,10.13,0,0,1-3.41.52,10.7,10.7,0,0,1-6.43-2.49A20.8,20.8,0,0,1,18.26,36a13.71,13.71,0,0,0-3.11-2.71c-2.58-1.48-5.5-1-8.76-.24C4.25,33.52,2.1,34.1,0,34.66v7a.84.84,0,0,0,.84.84h18.8v18.8a.85.85,0,0,0,.84.85H41.64a.84.84,0,0,0,.84-.85V42.48h18.8a.84.84,0,0,0,.85-.84V32.22c-.85-.23-1.69-.45-2.53-.64A23.66,23.66,0,0,0,54.57,30.91Z"/><path class="cls-1" d="M27.9,22.57l-.24,0c-2,.29-2.83,2.79-3,4.22a13.35,13.35,0,0,0,4.49,11.12,6.52,6.52,0,0,0,1.26.8A12,12,0,0,0,36.89,32a9.92,9.92,0,0,0,.47-5.83,4.38,4.38,0,0,0-1.5-2.57,1.22,1.22,0,0,0-1-.14,4.7,4.7,0,0,0-2.42,1.82,8.28,8.28,0,0,1,1.13,4.42,1.92,1.92,0,0,1-1.93,1.71,1.9,1.9,0,0,1-1.82-1.32c-.45-1.2.26-2.88.83-4.22l.05-.1a3.49,3.49,0,0,1,.27-.55c-.11-.18-.22-.36-.33-.52C29.69,23.28,28.78,22.57,27.9,22.57Z"/><polygon class="cls-1" points="93.08 29.68 82.28 29.68 82.28 19.64 79.26 19.64 79.26 42.48 82.28 42.48 82.28 32.44 93.08 32.44 93.08 42.48 96.13 42.48 96.13 19.64 93.08 19.64 93.08 29.68"/><path class="cls-1" d="M107.25,26.69a7.63,7.63,0,0,0-7.91,7.85,7.93,7.93,0,1,0,15.86,0A7.66,7.66,0,0,0,107.25,26.69Zm0,12.94a4.9,4.9,0,0,1-5-5.09,5,5,0,0,1,10,0A4.9,4.9,0,0,1,107.25,39.63Z"/><path class="cls-1" d="M124.64,33.53,122.4,33a2.69,2.69,0,0,1-1.79-1.17,1.68,1.68,0,0,1,0-1.2,2.24,2.24,0,0,1,2.27-1.36A2.17,2.17,0,0,1,125.22,31H128c-.26-3.08-2.69-4.28-5.25-4.28s-5,1.65-5.26,3.86c-.26,2.79,1.3,4.18,4.06,4.93l2.07.48c1.11.26,2,.82,2,1.92s-.94,1.88-2.3,2a4,4,0,0,1-2.4-.52,2.36,2.36,0,0,1-1.23-1.72h-2.69c.09,3.11,2.92,4.86,5.64,4.86,3.15,0,5.87-1.71,5.87-4.54C128.56,36.22,127.78,34.31,124.64,33.53Z"/><path class="cls-1" d="M139.65,26.69a6.13,6.13,0,0,0-5.28,2.69V27h-3V49.52h3V39.89a6,6,0,0,0,5.28,2.59,7.46,7.46,0,0,0,7.59-7.85A7.54,7.54,0,0,0,139.65,26.69Zm-.29,12.91a4.81,4.81,0,0,1-5-4.93,4.93,4.93,0,1,1,9.86,0A4.73,4.73,0,0,1,139.36,39.6Z"/><path class="cls-1" d="M151.65,19.64a1.92,1.92,0,1,0,0,3.83,1.92,1.92,0,1,0,0-3.83Z"/><rect class="cls-1" x="150.19" y="27.34" width="2.92" height="15.15"/><polygon class="cls-1" points="161.15 21.63 158.2 21.63 158.2 27.34 155.48 27.34 155.48 29.84 158.2 29.84 158.2 42.48 161.15 42.48 161.15 29.84 164.37 29.84 164.37 27.34 161.15 27.34 161.15 21.63"/><path class="cls-1" d="M178.51,29.28a6.14,6.14,0,0,0-5.32-2.59,7.55,7.55,0,0,0-7.69,7.88,7.59,7.59,0,0,0,7.69,7.91,6.2,6.2,0,0,0,5.32-2.66v2.66h2.92V27h-2.92ZM173.45,39.6a4.88,4.88,0,0,1-4.93-5.06,4.78,4.78,0,0,1,4.93-5,5,5,0,1,1,0,10Z"/><rect class="cls-1" x="185.38" y="19.64" width="2.95" height="22.84"/><path class="cls-1" d="M211,39.56a8.31,8.31,0,0,1-8.26-8.49A8.33,8.33,0,0,1,211,22.55a8.22,8.22,0,0,1,6.1,2.74l2.26-1.87A10.79,10.79,0,0,0,211,19.64a11.42,11.42,0,0,0,0,22.83,10.86,10.86,0,0,0,8.43-3.85l-2.26-1.9A8.07,8.07,0,0,1,211,39.56Z"/><path class="cls-1" d="M228.63,26.67a7.63,7.63,0,0,0-7.92,7.85,7.93,7.93,0,1,0,15.86,0A7.66,7.66,0,0,0,228.63,26.67Zm0,12.94a4.9,4.9,0,0,1-5-5.09,5,5,0,0,1,10,0A4.9,4.9,0,0,1,228.63,39.61Z"/><path class="cls-1" d="M257.52,27a5.59,5.59,0,0,0-5.25,3.12,4.8,4.8,0,0,0-4-2.95,6.85,6.85,0,0,0-1.65-.1,5.35,5.35,0,0,0-4.19,2.53V27h-2.95V42.47h2.95V34.29c0-3.18,2.11-4.41,4.22-4.41s3.28,1.49,3.28,4v8.6h2.95V34.29c0-2.53,1.52-4.44,4-4.41,2.17,0,3.47,1.53,3.47,4v8.57h2.95V33.71C263.36,29.46,261.32,27,257.52,27Z"/><path class="cls-1" d="M275.36,26.69a6.16,6.16,0,0,0-5.29,2.69V27h-2.95V49.53h2.95V39.89a6,6,0,0,0,5.29,2.6A7.47,7.47,0,0,0,283,34.64,7.55,7.55,0,0,0,275.36,26.69Zm-.29,12.91a4.81,4.81,0,0,1-5-4.93,4.93,4.93,0,1,1,9.86,0A4.73,4.73,0,0,1,275.07,39.6Z"/><path class="cls-1" d="M297.9,29.29a6.13,6.13,0,0,0-5.32-2.6,7.55,7.55,0,0,0-7.69,7.88,7.61,7.61,0,0,0,7.69,7.92,6.17,6.17,0,0,0,5.32-2.66v2.65h2.92V27H297.9ZM292.84,39.6a4.88,4.88,0,0,1-4.93-5.06,4.78,4.78,0,0,1,4.93-5,5,5,0,1,1,0,10Z"/><path class="cls-1" d="M307.33,30.72V27h-2.95V42.47h2.95V37c0-4,1.23-7.13,4.15-7.13a5.38,5.38,0,0,1,2.24.51l.45-2.75a5.63,5.63,0,0,0-2.63-.59C309.57,27,308.11,28.06,307.33,30.72Z"/><path class="cls-1" d="M330.24,34.54c0-4.8-3.21-7.85-7.52-7.85A7.51,7.51,0,0,0,315,34.54a7.87,7.87,0,0,0,14.73,3.93c-.81-.33-1.75-.65-2.53-1a4.91,4.91,0,0,1-4.35,2.34,4.69,4.69,0,0,1-4.89-4.12h12.29C330.24,35.38,330.24,34.9,330.24,34.54Zm-12.32-1.13a4.59,4.59,0,0,1,4.8-4.06,4.45,4.45,0,0,1,4.6,4.06Z"/></g></svg>