<svg xmlns="http://www.w3.org/2000/svg" viewBox="0 0 1015.75 191.09">
    <defs>
        <style>.path-none{fill:none;}.path-filled{fill:#fff;}</style>
    </defs>
    <title>4Artboard 3</title>
    <g id="Layer_2" data-name="Layer 2">
        <path class="path-none"
              d="M703.21,90.91c-8.39,0-15.37,5.89-15.37,15.26s7,15.67,15.37,15.67,15.36-6.19,15.36-15.67S711.59,90.91,703.21,90.91Z"/>
        <path class="path-none"
              d="M329.89,91c-8.38,0-15.37,5.88-15.37,15.26s7,15.66,15.37,15.66,15.36-6.18,15.36-15.66S338.27,91,329.89,91Z"/>
        <path class="path-none"
              d="M428.64,91c-8.18,0-15.26,5.78-15.26,15.66s7.78,15.16,15.26,15.16c8.38,0,15.07-5.88,15.07-15.16S437,91,428.64,91Z"/>
        <path class="path-none"
              d="M533.48,91c-8.38,0-15.16,6-15.16,15.26s6.78,15.56,15.16,15.56S549,116.11,549,106.23,541,91,533.48,91Z"/>
        <path class="path-none"
              d="M846.05,91c-8.18,0-15.26,5.78-15.26,15.66s7.78,15.17,15.26,15.17c8.38,0,15.07-5.89,15.07-15.17S854.43,91,846.05,91Z"/>
        <path class="path-none"
              d="M900.72,91c-8.38,0-15.17,6-15.17,15.26s6.79,15.57,15.17,15.57,15.46-5.69,15.46-15.57S908.2,91,900.72,91Z"/>
        <path class="path-none"
              d="M992.61,90.28c-7.68,0-13.67,4.69-14.77,12.47h28.94C1005.68,95,1000.09,90.28,992.61,90.28Z"/>
        <path class="path-filled"
              d="M95.44,91.24C96,92.72,97,92.8,97.26,92.79h.28c.43,0,1.6-.17,2-2.12s-.55-5.27-2-8.6C96.26,85.14,94.68,89.21,95.44,91.24Z"/>
        <path class="path-filled"
              d="M48.53,99c4.19,2.4,7.38,5.78,10.45,9a62.42,62.42,0,0,0,6.49,6.25C71,118.6,76.83,120.89,82.93,121a26,26,0,0,0,5.47-.43c-.4-.29-.8-.58-1.19-.89C76.81,111.42,70.25,95.2,72,82c1-7.35,5.2-15.25,12.57-16.33,4.54-.67,8.81,2,13,8.22l.22.32a17.49,17.49,0,0,1,8.59-5.74,7.72,7.72,0,0,1,5.93.87c4.18,2.52,5.94,8.53,6.38,10.31a34.36,34.36,0,0,1-1.57,20.24A40.25,40.25,0,0,1,98.77,121c6.8,1.55,14.08.23,19.68-2.12,6.18-2.58,10.92-6.83,15.94-11.33l1.86-1.66C144,99,154.66,91.08,167.89,91.2a76.29,76.29,0,0,1,16.28,2.13c2.31.53,4.62,1.12,6.92,1.75V63a2.59,2.59,0,0,0-2.59-2.59H130.67V2.59A2.59,2.59,0,0,0,128.08,0H63a2.59,2.59,0,0,0-2.59,2.59V60.41H2.59A2.59,2.59,0,0,0,0,63v39.59c6.17-1.66,12.49-3.34,18.78-4.78C29.24,95.42,39.38,93.72,48.53,99Z"/>
        <path class="path-filled"
              d="M167.85,95.09c-11.89,0-21.77,7.27-29,13.7L137,110.44c-5.27,4.73-10.25,9.19-17,12a39.78,39.78,0,0,1-15,3.08,29.94,29.94,0,0,1-11.58-2.21,31,31,0,0,1-10.5,1.59c-7-.18-13.61-2.75-19.78-7.64a64.74,64.74,0,0,1-6.89-6.63c-3-3.2-5.87-6.22-9.56-8.33-7.94-4.55-16.91-3-26.95-.73-6.56,1.5-13.2,3.28-19.65,5v21.46a2.59,2.59,0,0,0,2.59,2.59H60.41V188.5A2.59,2.59,0,0,0,63,191.09h65.08a2.59,2.59,0,0,0,2.59-2.59V130.67H188.5a2.59,2.59,0,0,0,2.59-2.59v-29c-2.59-.73-5.19-1.41-7.79-2A72.4,72.4,0,0,0,167.85,95.09Z"/>
        <path class="path-filled"
              d="M113.48,98.48a30.49,30.49,0,0,0,1.42-17.93c-.72-2.91-2.3-6.52-4.61-7.91a3.74,3.74,0,0,0-3-.43c-2.79.69-5.56,3-7.45,5.6,2.22,4.37,4.16,10,3.47,13.59-.83,4.34-4.16,5.36-5.93,5.27a5.83,5.83,0,0,1-5.6-4.07c-1.38-3.69.81-8.84,2.57-13l.13-.31c.24-.55.52-1.12.84-1.69-.33-.56-.66-1.09-1-1.58-3-4.44-5.84-6.62-8.54-6.62a4.49,4.49,0,0,0-.73.06c-6.12.89-8.71,8.58-9.27,13-1.52,11.79,4.55,26.82,13.83,34.21a22.05,22.05,0,0,0,3.86,2.46C102.88,115.45,110.24,107,113.48,98.48Z"/>
        <polygon class="path-filled"
                 points="286.3 91.3 253.08 91.3 253.08 60.41 243.8 60.41 243.8 130.67 253.08 130.67 253.08 99.78 286.3 99.78 286.3 130.67 295.68 130.67 295.68 60.41 286.3 60.41 286.3 91.3"/>
        <path class="path-filled"
              d="M329.89,82.09c-13.27,0-24.35,9.37-24.35,24.14s11.08,24.44,24.35,24.44,24.44-9.68,24.44-24.44S343.16,82.09,329.89,82.09Zm0,39.8c-8.38,0-15.37-6.18-15.37-15.66S321.51,91,329.89,91s15.36,5.88,15.36,15.26S338.27,121.89,329.89,121.89Z"/>
        <path class="path-filled"
              d="M383.36,103.14l-6.89-1.7c-2.39-.7-4.59-1.7-5.48-3.59a5.13,5.13,0,0,1-.1-3.69c.69-2.5,3.59-4.19,7-4.19,3.59,0,6.78,1.79,7.28,5.28h8.68c-.8-9.47-8.28-13.16-16.16-13.16-8.28,0-15.47,5.08-16.16,11.87-.8,8.58,4,12.87,12.47,15.16l6.38,1.5c3.39.8,6.29,2.49,6.19,5.89s-2.89,5.78-7.09,6.08a12.29,12.29,0,0,1-7.38-1.6,7.21,7.21,0,0,1-3.79-5.28H360c.3,9.58,9,15,17.36,15,9.68,0,18.06-5.28,18.06-14C395.43,111.42,393,105.53,383.36,103.14Z"/>
        <path class="path-filled"
              d="M429.54,82.09c-6.48,0-13.17,3-16.26,8.28V83.08H404.2v69.24h9.08V122.69c3.09,5.39,9.78,8,16.26,8,12.77,0,23.35-9.38,23.35-24.14S442.31,82.09,429.54,82.09Zm-.9,39.7c-7.48,0-15.26-5.18-15.26-15.16S420.46,91,428.64,91c8.38,0,15.07,6.38,15.07,15.66S437,121.79,428.64,121.79Z"/>
        <ellipse class="path-filled" cx="466.45" cy="66.3" rx="6.29" ry="5.89"/>
        <rect class="path-filled" x="461.96" y="84.08" width="8.98" height="46.59"/>
        <polygon class="path-filled"
                 points="495.68 66.52 486.6 66.52 486.6 84.08 478.22 84.08 478.22 91.77 486.6 91.77 486.6 130.67 495.68 130.67 495.68 91.77 505.55 91.77 505.55 84.08 495.68 84.08 495.68 66.52"/>
        <path class="path-filled"
              d="M549.05,90.07c-3.1-5.29-9.88-8-16.36-8-12.78,0-23.65,9.37-23.65,24.24s10.87,24.34,23.65,24.34c6.48,0,13.26-2.89,16.36-8.18v8.18h9V83.08h-9Zm-15.57,31.72c-8.38,0-15.16-6.38-15.16-15.56S525.1,91,533.48,91C541,91,549,96.25,549,106.23S541.76,121.79,533.48,121.79Z"/>
        <rect class="path-filled" x="570.19" y="60.41" width="9.08" height="70.26"/>
        <path class="path-filled"
              d="M649.06,121.68c-14.29,0-25.42-11.62-25.42-26.12s11.13-26.21,25.42-26.21a25.4,25.4,0,0,1,18.77,8.44L674.78,72a33.32,33.32,0,0,0-25.72-11.62c-19.36,0-34.65,15.69-34.65,35.15a34.71,34.71,0,0,0,34.65,35.06A33.42,33.42,0,0,0,675,118.8l-7-5.86A24.76,24.76,0,0,1,649.06,121.68Z"/>
        <path class="path-filled"
              d="M703.21,82c-13.27,0-24.35,9.38-24.35,24.14s11.08,24.45,24.35,24.45,24.44-9.68,24.44-24.45S716.47,82,703.21,82Zm0,39.81c-8.39,0-15.37-6.19-15.37-15.67s7-15.26,15.37-15.26,15.36,5.89,15.36,15.26S711.59,121.84,703.21,121.84Z"/>
        <path class="path-filled"
              d="M792.09,83c-4.59,0-11.87,1.3-16.16,9.58-2.2-5.09-6.29-8.18-12.17-9.08a21.18,21.18,0,0,0-5.09-.3c-3.79.3-10.38,2.59-12.87,7.78V83h-9.08v47.59h9.08V105.48c0-9.78,6.48-13.57,13-13.57,6.09,0,10.08,4.59,10.08,12.27v26.44h9.07V105.48c0-7.79,4.69-13.67,12.38-13.57C797,91.91,801,96.6,801,104.28v26.34h9.08V103.68C810.05,90.61,803.76,83,792.09,83Z"/>
        <path class="path-filled"
              d="M847,82.1c-6.48,0-13.17,3-16.26,8.28V83.09h-9.08v69.24h9.08V122.7c3.09,5.39,9.78,8,16.26,8,12.77,0,23.35-9.37,23.35-24.14S859.72,82.1,847,82.1Zm-.9,39.71c-7.48,0-15.26-5.19-15.26-15.17S837.87,91,846.05,91c8.38,0,15.07,6.38,15.07,15.66S854.43,121.81,846.05,121.81Z"/>
        <path class="path-filled"
              d="M916.28,90.08c-3.09-5.29-9.88-8-16.36-8-12.77,0-23.65,9.38-23.65,24.24s10.88,24.35,23.65,24.35c6.48,0,13.27-2.9,16.36-8.19v8.17h9V83.1h-9Zm-15.56,31.73c-8.38,0-15.17-6.39-15.17-15.57S892.34,91,900.72,91c7.48,0,15.46,5.28,15.46,15.26S909,121.81,900.72,121.81Z"/>
        <path class="path-filled"
              d="M945.28,94.5V83H936.2v47.59h9.08v-17c0-12.37,3.79-22,12.77-22a16.29,16.29,0,0,1,6.88,1.59l1.4-8.48c-1.3-.9-4.79-1.79-8.08-1.79C952.16,83,947.67,86.32,945.28,94.5Z"/>
        <path class="path-filled"
              d="M1015.75,106.24c0-14.76-9.87-24.14-23.14-24.14s-23.85,9.38-23.85,24.14,10.58,24.45,23.85,24.45c9,0,17.46-4.19,21.45-12.38-2.5-1-5.39-2-7.78-3-2.6,4.59-7.78,7.18-13.37,7.18-7.88,0-14-4.88-15.07-12.67h37.82C1015.75,108.84,1015.75,107.34,1015.75,106.24Zm-37.91-3.49c1.1-7.78,7.09-12.47,14.77-12.47,7.48,0,13.07,4.69,14.17,12.47Z"/>
    </g>
</svg>
