<svg xmlns="http://www.w3.org/2000/svg" viewBox="0 0 1015.75 191.09">
    <g id="Layer_2" data-name="Layer 2">
        <path class="fill-white"
              d="M48.84,98.41c4.27,2.44,7.49,5.85,10.59,9.15a62.15,62.15,0,0,0,6.42,6.2C71.24,118,77,120.26,83,120.42a25.36,25.36,0,0,0,3.89-.2l0,0C76.26,111.79,69.6,95.32,71.33,81.89c1-7.58,5.41-15.74,13.1-16.87,4.71-.69,9.11,2,13.41,8.15a17.66,17.66,0,0,1,8.38-5.34,8.29,8.29,0,0,1,6.4,1c4.38,2.64,6.21,8.85,6.66,10.69a35,35,0,0,1-1.59,20.62,41.31,41.31,0,0,1-17.13,20.62,33.37,33.37,0,0,0,17.65-2.4c6.08-2.55,10.78-6.76,15.76-11.22l1.86-1.67c7.81-6.92,18.45-14.84,31.76-14.84h.3a76.9,76.9,0,0,1,16.42,2.14q3.39.78,6.78,1.71V63a2.59,2.59,0,0,0-2.59-2.59H130.67V2.59A2.59,2.59,0,0,0,128.08,0H63a2.59,2.59,0,0,0-2.59,2.59V60.41H2.59A2.59,2.59,0,0,0,0,63v38.94c6.11-1.64,12.37-3.31,18.64-4.74C29.22,94.79,39.5,93.06,48.84,98.41Z"/>
        <path class="fill-white"
              d="M112.9,98.25a29.87,29.87,0,0,0,1.4-17.55c-.66-2.66-2.19-6.23-4.33-7.52a3.1,3.1,0,0,0-2.51-.36,13.58,13.58,0,0,0-6.87,5.06c1.21,2.44,4.22,9.13,3.36,13.63-.92,4.78-4.71,5.9-6.58,5.79a6.42,6.42,0,0,1-6.15-4.48c-1.47-3.93.77-9.2,2.58-13.43l.13-.31a15.72,15.72,0,0,1,.69-1.44c-.26-.43-.52-.85-.79-1.24-2.91-4.27-5.54-6.34-8-6.34a4.58,4.58,0,0,0-.64,0c-5.75.84-8.2,8.22-8.74,12.45-1.5,11.59,4.48,26.37,13.6,33.64a21.35,21.35,0,0,0,3.5,2.26C101.92,115.06,109.5,107.16,112.9,98.25Z"/>
        <path class="fill-white"
              d="M97.22,92.16h.34c.19,0,1,0,1.34-1.61.26-1.36-.25-3.89-1.35-6.82C96.62,86,95.43,89.43,96,91,96.44,92.12,97.05,92.18,97.22,92.16Z"/>
        <path class="fill-white"
              d="M167.85,95.71h-.12c-11.71,0-21.37,7.24-28.48,13.55l-1.85,1.65c-5.31,4.76-10.33,9.25-17.21,12.13a40.5,40.5,0,0,1-15.28,3.13A30.55,30.55,0,0,1,93.31,124a31.71,31.71,0,0,1-10.49,1.55c-7.1-.18-13.88-2.79-20.16-7.77a66.86,66.86,0,0,1-6.95-6.68c-3-3.18-5.81-6.17-9.42-8.23-7.75-4.44-16.59-2.93-26.5-.66-6.61,1.51-13.3,3.3-19.79,5.05v20.82a2.59,2.59,0,0,0,2.59,2.59H60.41V188.5A2.59,2.59,0,0,0,63,191.09h65.08a2.59,2.59,0,0,0,2.59-2.59V130.67H188.5a2.59,2.59,0,0,0,2.59-2.59V99.77c-2.64-.75-5.28-1.44-7.92-2A72,72,0,0,0,167.85,95.71Z"/>
        <polygon class="fill-white"
                 points="295.68 130.67 286.3 130.67 286.3 99.78 253.08 99.78 253.08 130.67 243.8 130.67 243.8 60.41 253.08 60.41 253.08 91.3 286.3 91.3 286.3 60.41 295.68 60.41 295.68 130.67"/>
        <path class="fill-white"
              d="M345.25,106.23c0-9.38-7-15.26-15.36-15.26s-15.37,5.88-15.37,15.26,7,15.66,15.37,15.66,15.36-6.18,15.36-15.66m-39.71,0c0-14.77,11.08-24.14,24.35-24.14s24.44,9.37,24.44,24.14-11.17,24.44-24.44,24.44-24.35-9.68-24.35-24.44"/>
        <path class="fill-white"
              d="M361.51,94c.69-6.79,7.88-11.87,16.16-11.87,7.88,0,15.36,3.69,16.16,13.16h-8.68c-.5-3.49-3.69-5.28-7.28-5.28-3.39,0-6.29,1.69-7,4.19a5.13,5.13,0,0,0,.1,3.69c.89,1.9,3.09,2.89,5.48,3.59l6.89,1.7c9.67,2.39,12.07,8.28,12.07,13.57,0,8.68-8.38,14-18.06,14-8.38,0-17.06-5.38-17.36-15h8.28a7.21,7.21,0,0,0,3.79,5.28,12.29,12.29,0,0,0,7.38,1.6c4.2-.3,7-2.69,7.09-6.08s-2.8-5.09-6.19-5.89l-6.38-1.5c-8.48-2.29-13.27-6.58-12.47-15.16"/>
        <path class="fill-white"
              d="M428.64,121.79c8.38,0,15.07-5.88,15.07-15.16S437,91,428.64,91c-8.18,0-15.26,5.78-15.26,15.66s7.78,15.16,15.26,15.16M413.28,90.37c3.09-5.29,9.78-8.28,16.26-8.28,12.77,0,23.35,9.67,23.35,24.44s-10.58,24.14-23.35,24.14c-6.48,0-13.17-2.59-16.26-8v29.63H404.2V83.08h9.08Z"/>
        <path class="fill-white" d="M470.94,84.08h-9v46.59h9Zm-4.49-23.67a5.9,5.9,0,1,1,0,11.78,5.9,5.9,0,1,1,0-11.78"/>
        <polygon class="fill-white"
                 points="505.55 84.08 505.55 91.77 495.68 91.77 495.68 130.67 486.6 130.67 486.6 91.77 478.22 91.77 478.22 84.08 486.6 84.08 486.6 66.52 495.68 66.52 495.68 84.08 505.55 84.08"/>
        <path class="fill-white"
              d="M533.48,91c-8.38,0-15.16,6-15.16,15.26s6.78,15.56,15.16,15.56S549,116.11,549,106.23,541,91,533.48,91m15.57,31.52c-3.1,5.29-9.88,8.18-16.36,8.18-12.78,0-23.65-9.58-23.65-24.34s10.87-24.24,23.65-24.24c6.48,0,13.26,2.69,16.36,8v-7h9v47.59h-9Z"/>
        <rect class="fill-white" x="570.19" y="60.41" width="9.08" height="70.26"/>
        <path class="fill-white"
              d="M675,118.8a33.42,33.42,0,0,1-25.92,11.82,34.71,34.71,0,0,1-34.65-35.06c0-19.46,15.29-35.15,34.65-35.15A33.32,33.32,0,0,1,674.78,72l-6.95,5.76a25.4,25.4,0,0,0-18.77-8.44c-14.29,0-25.42,11.72-25.42,26.21s11.13,26.12,25.42,26.12a24.76,24.76,0,0,0,19-8.74Z"/>
        <path class="fill-white"
              d="M718.57,106.17c0-9.37-7-15.26-15.36-15.26s-15.37,5.89-15.37,15.26,7,15.67,15.37,15.67,15.36-6.19,15.36-15.67m-39.71,0c0-14.76,11.08-24.14,24.35-24.14s24.44,9.38,24.44,24.14-11.18,24.45-24.44,24.45-24.35-9.68-24.35-24.45"/>
        <path class="fill-white"
              d="M777.92,105.48v25.14h-9.07V104.18c0-7.68-4-12.27-10.08-12.27-6.49,0-13,3.79-13,13.57v25.14h-9.08V83h9.08v8c2.49-5.19,9.08-7.48,12.87-7.78a21.18,21.18,0,0,1,5.09.3c5.88.9,10,4,12.17,9.08C780.22,84.33,787.5,83,792.09,83c11.67,0,18,7.58,18,20.65v26.94H801V104.28c0-7.68-4-12.37-10.67-12.37-7.69-.1-12.38,5.78-12.38,13.57"/>
        <path class="fill-white"
              d="M846.05,121.81c8.38,0,15.07-5.89,15.07-15.17S854.43,91,846.05,91c-8.18,0-15.26,5.78-15.26,15.66s7.78,15.17,15.26,15.17M830.69,90.38c3.09-5.29,9.78-8.28,16.26-8.28,12.77,0,23.35,9.67,23.35,24.44S859.72,130.68,847,130.68c-6.48,0-13.17-2.59-16.26-8v29.63h-9.08V83.09h9.08Z"/>
        <path class="fill-white"
              d="M900.72,91c-8.38,0-15.17,6-15.17,15.26s6.79,15.57,15.17,15.57,15.46-5.69,15.46-15.57S908.2,91,900.72,91m15.56,31.52c-3.09,5.29-9.88,8.19-16.36,8.19-12.77,0-23.65-9.58-23.65-24.35S887.15,82.1,899.92,82.1c6.48,0,13.27,2.69,16.36,8v-7h9v47.57h-9Z"/>
        <path class="fill-white"
              d="M945.28,130.62H936.2V83h9.08V94.5c2.39-8.18,6.88-11.47,13-11.47,3.29,0,6.78.89,8.08,1.79l-1.4,8.48a16.29,16.29,0,0,0-6.88-1.59c-9,0-12.77,9.58-12.77,22Z"/>
        <path class="fill-white"
              d="M1006.78,102.75c-1.1-7.78-6.69-12.47-14.17-12.47-7.68,0-13.67,4.69-14.77,12.47Zm8.88,7.08H977.84c1.1,7.79,7.19,12.67,15.07,12.67,5.59,0,10.77-2.59,13.37-7.18,2.39,1,5.28,2,7.78,3-4,8.19-12.47,12.38-21.45,12.38-13.27,0-23.85-9.68-23.85-24.45S979.34,82.1,992.61,82.1s23.14,9.38,23.14,24.14c0,1.1,0,2.6-.09,3.59"/>
    </g>
</svg>
