<svg xmlns="http://www.w3.org/2000/svg" viewBox="0 0 110.01 15.11">
    <defs>
        <linearGradient id="linear-gradient" x1="2830.76" y1="2117.59" x2="2830.9" y2="2117.59" gradientTransform="matrix(0 -104.04 -104.04 0 220325.1 294532.38)" gradientUnits="userSpaceOnUse">
            <stop offset="0" stop-color="#33c886"/>
            <stop offset="1" stop-color="#12cf6c"/>
        </linearGradient>
    </defs>
    <g id="Pull_Out_Modal" data-name="Pull Out Modal">
        <g id="reviewsio-logo1">
            <path d="M23.63 7.64c1.83 0 3.13-.94 3.13-2.51 0-1.49-1.15-2.4-3.11-2.4H19.9v4.91zm-5.1-5.51a.7.7 0 01.67-.7h4.56a4.8 4.8 0 013.45 1.22 3.36 3.36 0 01.94 2.4c0 2-1.36 3.16-3.25 3.53l3 3.89a.75.75 0 01.23.5.72.72 0 01-.7.68.8.8 0 01-.64-.36l-3.4-4.42H19.9V13a.69.69 0 11-1.38 0V2.13zM30.91 12.9V2.13a.7.7 0 01.68-.7h7.56a.63.63 0 01.62.63.62.62 0 01-.62.62h-6.87v4.16h6.08a.63.63 0 110 1.25h-6.08v4.25h6.95a.63.63 0 110 1.26h-7.64a.7.7 0 01-.68-.7M46.29 13.16l-4.7-10.82a.68.68 0 01-.07-.34.71.71 0 01.7-.67.75.75 0 01.71.52l4.21 10.07 4.22-10.09a.8.8 0 01.64-.48.67.67 0 01.67.66.59.59 0 01-.05.27L48 13.16a.83.83 0 01-.8.57h-.07a.8.8 0 01-.79-.57M55.25 2a.69.69 0 111.37 0v11a.69.69 0 11-1.37 0zM60 12.9V2.13a.7.7 0 01.68-.7h7.55a.63.63 0 01.63.63.62.62 0 01-.63.62h-6.85v4.16h6.08a.63.63 0 110 1.25h-6.08v4.25h6.95a.63.63 0 110 1.26h-7.64a.7.7 0 01-.68-.7M70.74 2.35a1.08 1.08 0 01-.07-.35.72.72 0 01.72-.69.79.79 0 01.71.57l3.35 9.66 3.18-9.69a.69.69 0 01.68-.54h.09a.69.69 0 01.67.54l3.18 9.69 3.37-9.69a.7.7 0 01.66-.54A.72.72 0 0188 2a1 1 0 01-.09.33L84 13.16a.76.76 0 01-.71.59h-.11a.77.77 0 01-.71-.59l-3.16-9.35-3.15 9.35a.76.76 0 01-.71.59h-.1a.74.74 0 01-.71-.59l-3.9-10.81zM89.7 12.14a.63.63 0 01-.26-.53.66.66 0 01.66-.67.61.61 0 01.41.15 5.52 5.52 0 003.84 1.45c1.64 0 2.71-.87 2.71-2.07 0-1.13-.61-1.77-3.16-2.31-2.8-.61-4.08-1.51-4.08-3.51 0-1.91 1.68-3.32 4-3.32a6.21 6.21 0 013.88 1.2.68.68 0 01.3.47.68.68 0 01-1.06.54 5.11 5.11 0 00-3.14-1.06c-1.58 0-2.59.87-2.59 2 0 1.15.63 1.79 3.3 2.36s4 1.58 4 3.44c0 2.08-1.73 3.44-4.15 3.44a7.13 7.13 0 01-4.6-1.63M100.51 12.22a.44.44 0 01.45.46v.19a.45.45 0 01-.45.47.46.46 0 01-.47-.47v-.19a.45.45 0 01.47-.46M102.6 8.6a.38.38 0 11.75 0V13a.38.38 0 11-.75 0zm-.07-1.91a.44.44 0 01.88 0v.13a.44.44 0 01-.88 0zM109.25 10.8a1.9 1.9 0 00-1.87-2 1.85 1.85 0 00-1.84 1.94 1.89 1.89 0 001.86 2 1.86 1.86 0 001.85-1.94m-4.48 0a2.6 2.6 0 012.63-2.62 2.57 2.57 0 012.61 2.6 2.61 2.61 0 01-2.63 2.63 2.58 2.58 0 01-2.61-2.61"/>
            <path d="M0 7.55A7.56 7.56 0 107.55 0 7.56 7.56 0 000 7.55zm5.39 1l-3.5-2.66h4.25l1.41-4.26L9 5.89h4.25L9.73 8.51l1.37 4.33-3.55-2.73L4 12.84z" fill="url(#linear-gradient)"/>
        </g>
    </g>
</svg>
