<?xml version="1.0" encoding="utf-8"?><svg xmlns="http://www.w3.org/2000/svg" viewBox="0 0 330.24 62.13"><defs><style>.cls-1{fill:#fff;}</style></defs><title>logo-mobile</title><g id="Labels"><path class="cls-1" d="M61.28,19.64H42.48V.84A.84.84,0,0,0,41.64,0H20.48a.85.85,0,0,0-.84.84v18.8H.84a.85.85,0,0,0-.84.84V33.14c2-.53,4-1.07,6.06-1.54,3.44-.78,6.78-1.34,9.82.4a15,15,0,0,1,3.44,3,20.69,20.69,0,0,0,2.09,2A9.25,9.25,0,0,0,27,39.15a8.86,8.86,0,0,0,1.26-.06h0a14.74,14.74,0,0,1-5-12.45c.32-2.47,1.76-5.12,4.26-5.49,1.53-.22,3,.64,4.36,2.65a5.77,5.77,0,0,1,2.72-1.74,2.7,2.7,0,0,1,2.08.31,5.94,5.94,0,0,1,2.17,3.48,11.36,11.36,0,0,1-.52,6.7,13.42,13.42,0,0,1-5.57,6.71,10.85,10.85,0,0,0,5.74-.79,18.4,18.4,0,0,0,5.13-3.64l.6-.55c2.54-2.25,6-4.82,10.33-4.82h.1a24.5,24.5,0,0,1,5.33.7c.74.16,1.47.35,2.21.55V20.48A.85.85,0,0,0,61.28,19.64Z"/><path class="cls-1" d="M30.54,25.71c.06-.15.14-.31.22-.47-.08-.14-.17-.27-.25-.4-1-1.39-1.8-2.06-2.61-2.06h-.21c-1.87.28-2.67,2.67-2.84,4.05a13.1,13.1,0,0,0,4.42,10.93,6.55,6.55,0,0,0,1.14.74,11.87,11.87,0,0,0,6.29-6.57,9.65,9.65,0,0,0,.46-5.7,4.22,4.22,0,0,0-1.41-2.45,1,1,0,0,0-.81-.12,4.49,4.49,0,0,0-2.24,1.65c.4.79,1.38,3,1.1,4.43a2.12,2.12,0,0,1-2.14,1.88,2.08,2.08,0,0,1-2-1.45c-.48-1.28.25-3,.84-4.37Z"/><path class="cls-1" d="M31.61,30h.11c.06,0,.34,0,.44-.52a5.05,5.05,0,0,0-.45-2.22,4.56,4.56,0,0,0-.49,2.37C31.35,30,31.55,30,31.61,30Z"/><path class="cls-1" d="M54.57,31.12h0c-3.8,0-7,2.35-9.26,4.4l-.6.54A19.76,19.76,0,0,1,39.08,40a13.15,13.15,0,0,1-5,1,10,10,0,0,1-3.77-.7,10.6,10.6,0,0,1-3.41.5,10.89,10.89,0,0,1-6.56-2.53,21.18,21.18,0,0,1-2.26-2.17,14,14,0,0,0-3.06-2.68c-2.52-1.44-5.39-.95-8.62-.21C4.29,33.72,2.11,34.3,0,34.87v6.77a.84.84,0,0,0,.84.84h18.8v18.8a.85.85,0,0,0,.84.85H41.64a.84.84,0,0,0,.84-.85V42.48h18.8a.84.84,0,0,0,.85-.84v-9.2c-.86-.25-1.72-.47-2.58-.67A23.09,23.09,0,0,0,54.57,31.12Z"/><polygon class="cls-1" points="93.08 29.68 82.28 29.68 82.28 19.64 79.26 19.64 79.26 42.48 82.28 42.48 82.28 32.44 93.08 32.44 93.08 42.48 96.13 42.48 96.13 19.64 93.08 19.64 93.08 29.68"/><path class="cls-1" d="M107.25,26.69a7.63,7.63,0,0,0-7.91,7.85,7.93,7.93,0,1,0,15.86,0A7.66,7.66,0,0,0,107.25,26.69Zm0,12.94a4.9,4.9,0,0,1-5-5.09,5,5,0,0,1,10,0A4.9,4.9,0,0,1,107.25,39.63Z"/><path class="cls-1" d="M124.64,33.53,122.4,33a2.69,2.69,0,0,1-1.79-1.17,1.68,1.68,0,0,1,0-1.2,2.24,2.24,0,0,1,2.27-1.36A2.17,2.17,0,0,1,125.22,31H128c-.26-3.08-2.69-4.28-5.25-4.28s-5,1.65-5.26,3.86c-.26,2.79,1.3,4.18,4.06,4.93l2.07.48c1.11.26,2,.82,2,1.92s-.94,1.88-2.3,2a4,4,0,0,1-2.4-.52,2.36,2.36,0,0,1-1.23-1.72h-2.69c.09,3.11,2.92,4.86,5.64,4.86,3.15,0,5.87-1.71,5.87-4.54C128.56,36.22,127.78,34.31,124.64,33.53Z"/><path class="cls-1" d="M139.65,26.69a6.13,6.13,0,0,0-5.28,2.69V27h-3V49.52h3V39.89a6,6,0,0,0,5.28,2.59,7.46,7.46,0,0,0,7.59-7.85A7.54,7.54,0,0,0,139.65,26.69Zm-.29,12.91a4.81,4.81,0,0,1-5-4.93,4.93,4.93,0,1,1,9.86,0A4.73,4.73,0,0,1,139.36,39.6Z"/><rect class="cls-1" x="150.19" y="27.34" width="2.92" height="15.15"/><path class="cls-1" d="M151.65,19.64a1.92,1.92,0,1,0,0,3.83,1.92,1.92,0,1,0,0-3.83Z"/><polygon class="cls-1" points="161.15 21.63 158.2 21.63 158.2 27.34 155.48 27.34 155.48 29.84 158.2 29.84 158.2 42.48 161.15 42.48 161.15 29.84 164.37 29.84 164.37 27.34 161.15 27.34 161.15 21.63"/><path class="cls-1" d="M178.51,29.28a6.14,6.14,0,0,0-5.32-2.59,7.55,7.55,0,0,0-7.69,7.88,7.59,7.59,0,0,0,7.69,7.91,6.2,6.2,0,0,0,5.32-2.66v2.66h2.92V27h-2.92ZM173.45,39.6a4.88,4.88,0,0,1-4.93-5.06,4.78,4.78,0,0,1,4.93-5,5,5,0,1,1,0,10Z"/><rect class="cls-1" x="185.38" y="19.64" width="2.95" height="22.84"/><path class="cls-1" d="M211,39.56a8.31,8.31,0,0,1-8.26-8.49A8.33,8.33,0,0,1,211,22.55a8.22,8.22,0,0,1,6.1,2.74l2.26-1.87A10.79,10.79,0,0,0,211,19.64a11.42,11.42,0,0,0,0,22.83,10.86,10.86,0,0,0,8.43-3.85l-2.26-1.9A8.07,8.07,0,0,1,211,39.56Z"/><path class="cls-1" d="M228.63,26.67a7.63,7.63,0,0,0-7.92,7.85,7.93,7.93,0,1,0,15.86,0A7.66,7.66,0,0,0,228.63,26.67Zm0,12.94a4.9,4.9,0,0,1-5-5.09,5,5,0,0,1,10,0A4.9,4.9,0,0,1,228.63,39.61Z"/><path class="cls-1" d="M257.52,27a5.59,5.59,0,0,0-5.25,3.12,4.8,4.8,0,0,0-4-2.95,6.85,6.85,0,0,0-1.65-.1,5.35,5.35,0,0,0-4.19,2.53V27h-2.95V42.47h2.95V34.29c0-3.18,2.11-4.41,4.22-4.41s3.28,1.49,3.28,4v8.6h2.95V34.29c0-2.53,1.52-4.44,4-4.41,2.17,0,3.47,1.53,3.47,4v8.57h2.95V33.71C263.36,29.46,261.32,27,257.52,27Z"/><path class="cls-1" d="M275.36,26.69a6.16,6.16,0,0,0-5.29,2.69V27h-2.95V49.53h2.95V39.89a6,6,0,0,0,5.29,2.6A7.47,7.47,0,0,0,283,34.64,7.55,7.55,0,0,0,275.36,26.69Zm-.29,12.91a4.81,4.81,0,0,1-5-4.93,4.93,4.93,0,1,1,9.86,0A4.73,4.73,0,0,1,275.07,39.6Z"/><path class="cls-1" d="M297.9,29.29a6.13,6.13,0,0,0-5.32-2.6,7.55,7.55,0,0,0-7.69,7.88,7.61,7.61,0,0,0,7.69,7.92,6.17,6.17,0,0,0,5.32-2.66v2.65h2.92V27H297.9ZM292.84,39.6a4.88,4.88,0,0,1-4.93-5.06,4.78,4.78,0,0,1,4.93-5,5,5,0,1,1,0,10Z"/><path class="cls-1" d="M307.33,30.72V27h-2.95V42.47h2.95V37c0-4,1.23-7.13,4.15-7.13a5.38,5.38,0,0,1,2.24.51l.45-2.75a5.6,5.6,0,0,0-2.63-.59C309.57,27,308.11,28.06,307.33,30.72Z"/><path class="cls-1" d="M330.24,34.54c0-4.8-3.21-7.85-7.52-7.85A7.51,7.51,0,0,0,315,34.54a7.87,7.87,0,0,0,14.73,3.93c-.81-.33-1.75-.65-2.53-1a4.91,4.91,0,0,1-4.35,2.34,4.69,4.69,0,0,1-4.89-4.12h12.29C330.24,35.38,330.24,34.9,330.24,34.54Zm-12.32-1.13a4.59,4.59,0,0,1,4.8-4.06,4.45,4.45,0,0,1,4.6,4.06Z"/></g></svg>