<?xml version="1.0" encoding="utf-8"?><svg xmlns="http://www.w3.org/2000/svg" viewBox="0 0 23.47 23.47"><defs><style>.cls-1{fill:#fff;}</style></defs><title>make-enquiry-tick</title><g id="Labels"><path class="cls-1" d="M11.73,23.47A11.74,11.74,0,1,1,23.47,11.73,11.74,11.74,0,0,1,11.73,23.47Zm0-22.14a10.41,10.41,0,1,0,10.41,10.4A10.42,10.42,0,0,0,11.73,1.33Z"/><path class="cls-1" d="M10.31,15.5a.61.61,0,0,1-.42-.16l-4.2-3.45A.68.68,0,0,1,5.6,11a.67.67,0,0,1,.94-.09l3.71,3.06,6.68-7.2a.67.67,0,0,1,.94,0,.66.66,0,0,1,0,.94L10.8,15.28A.64.64,0,0,1,10.31,15.5Z"/></g></svg>