<?xml version="1.0" encoding="utf-8"?><svg  data-name="Layer 1" xmlns="http://www.w3.org/2000/svg" viewBox="0 0 49.12 71.33"><defs><style>.cls-1{fill:#72b3e7;}.cls-2{fill:#dc036e;}.cls-3,.cls-8{opacity:0.1;}.cls-3{isolation:isolate;}.cls-4{fill:#fff;}.cls-5{fill:#027096;}.cls-6{fill:#485059;}.cls-7{fill:#b9bcbf;}</style></defs><title>make-enquiry</title><path id="SVGCleanerId_0" data-name="SVGCleanerId 0" class="cls-1" d="M45.44,71.32H3.67A3.67,3.67,0,0,1,0,67.65V15.12a3.67,3.67,0,0,1,3.67-3.67H45.44a3.67,3.67,0,0,1,3.67,3.67V67.65A3.68,3.68,0,0,1,45.44,71.32Z"/><path id="SVGCleanerId_0-2" data-name="SVGCleanerId 0" class="cls-2" d="M46.54,71.33H2.59A2.58,2.58,0,0,1,0,68.75V14a2.57,2.57,0,0,1,2.58-2.58h44A2.58,2.58,0,0,1,49.12,14V68.75A2.59,2.59,0,0,1,46.54,71.33Z"/><path class="cls-3" d="M3.91,66.87V20.48a2.2,2.2,0,0,1,2.24-2.16H43a2.21,2.21,0,0,1,2.24,2.16V66.87A2.21,2.21,0,0,1,43,69H6.15A2.2,2.2,0,0,1,3.91,66.87Z"/><path class="cls-4" d="M3.91,66.32V16.46A1.29,1.29,0,0,1,5.2,15.17H43.93a1.29,1.29,0,0,1,1.29,1.29V66.32a1.29,1.29,0,0,1-1.29,1.29H5.2A1.29,1.29,0,0,1,3.91,66.32Z"/><path class="cls-5" d="M15.15,28.94a.7.7,0,0,0-.44-.16.69.69,0,0,0-.43.17,1.29,1.29,0,0,0-.4.68,2.46,2.46,0,0,0,.25,1.64,3.74,3.74,0,0,0,1.12,1.35l.15.09a2,2,0,0,0,.44-.21,2.74,2.74,0,0,0,1.32-2.9c-.12-.38-.3-.61-.54-.68s-.53.19-.71.42l0,0-.09.12c.05.11.1.22.14.33l0,0A.36.36,0,0,0,16,30a1.93,1.93,0,0,1,.11.34.55.55,0,0,1-.1.43.32.32,0,0,1-.24.13.46.46,0,0,1-.48-.45,1.42,1.42,0,0,1,.27-.87l0-.06a1.64,1.64,0,0,0-.44-.53"/><path class="cls-5" d="M9.63,31.27l.13-.05a3,3,0,0,1,1.7-.17,2.41,2.41,0,0,1,1.21.88l0,0a2.4,2.4,0,0,0,.61.52,2.62,2.62,0,0,0,.82.31,2.43,2.43,0,0,0,1,0,2.78,2.78,0,0,1-.32-.26,4,4,0,0,1-1-1.58,2.29,2.29,0,0,1,0-1.69,1.13,1.13,0,0,1,.59-.59.81.81,0,0,1,.8.11,1.79,1.79,0,0,1,.48.54,2.06,2.06,0,0,1,.46-.47.65.65,0,0,1,.75,0,1.29,1.29,0,0,1,.45.77,2.94,2.94,0,0,1-1.51,3.06l-.22.11h.06l.45,0h0a3.48,3.48,0,0,0,1-.08,3.26,3.26,0,0,0,1.3-.77c.13-.1.25-.22.37-.32a8.83,8.83,0,0,1,.73-.62,3,3,0,0,1,1.44-.6,6.12,6.12,0,0,1,1.9.14h0l.15,0v-2a.2.2,0,0,0-.2-.2l-4.48,0,0-4.47a.2.2,0,0,0-.2-.2l-5,0A.22.22,0,0,0,13,24l0,4.47-4.47,0a.2.2,0,0,0-.2.2v2.94a6.11,6.11,0,0,0,1.3-.35"/><path class="cls-5" d="M15.59,30.63a.25.25,0,0,0,.2,0,.23.23,0,0,0,.13-.19.71.71,0,0,0-.09-.42l0-.05a1.12,1.12,0,0,0-.05-.13l-.08-.21a1.24,1.24,0,0,0-.21.52q-.06.34.12.45"/><path class="cls-5" d="M21.39,30.6a3,3,0,0,0-1.81.66l-.62.53a7.07,7.07,0,0,1-.65.56,2.94,2.94,0,0,1-1.6.66h-.42a4.64,4.64,0,0,1-.65,0,.92.92,0,0,1-.27-.08A2.6,2.6,0,0,1,14,33a2.81,2.81,0,0,1-.86-.34,2.77,2.77,0,0,1-.67-.6l0-.05a3.19,3.19,0,0,0-.6-.56,1.77,1.77,0,0,0-1-.24,4.06,4.06,0,0,0-1.29.31,6.77,6.77,0,0,1-.8.25l-.45.07,0,1.89a.2.2,0,0,0,.2.2l4.47,0,0,4.48a.2.2,0,0,0,.2.2l5,0a.2.2,0,0,0,.2-.2l0-4.48,4.48,0a.2.2,0,0,0,.2-.2l0-2.82a7.09,7.09,0,0,0-1.7-.19"/><path class="cls-2" d="M39.59,29H28.14a1.21,1.21,0,0,1-1.21-1.21V26.18A1.21,1.21,0,0,1,28.14,25H39.59a1.21,1.21,0,0,1,1.2,1.21v1.64A1.21,1.21,0,0,1,39.59,29Z"/><path class="cls-6" d="M39.48,34.05H28.24a1,1,0,0,1,0-2.09H39.48a1,1,0,1,1,0,2.09Z"/><path class="cls-6" d="M37.75,45.43H11.36a1,1,0,0,1,0-2.09H37.75a1,1,0,0,1,0,2.09Z"/><path class="cls-6" d="M37.75,50.11H11.36a1,1,0,0,1,0-2.09H37.75a1,1,0,0,1,0,2.09Z"/><path class="cls-6" d="M37.75,54.8H11.36a1,1,0,0,1,0-2.09H37.75a1,1,0,0,1,0,2.09Z"/><path class="cls-6" d="M37.75,59.48H11.36a1,1,0,0,1,0-2.09H37.75a1,1,0,0,1,0,2.09Z"/><path class="cls-3" d="M46.53,11.45A2.58,2.58,0,0,1,49.11,14V68.74a2.59,2.59,0,0,1-2.58,2.58H23c17.37-8.9,16-42.55,15.56-59.87Z"/><path class="cls-7" d="M32.87,9H30.7a1.15,1.15,0,0,1-1.09-1.56A5.6,5.6,0,0,0,30,5.1a5.42,5.42,0,0,0-10.84.32,5.38,5.38,0,0,0,.36,1.93A1.17,1.17,0,0,1,18.41,9H16.24a1.31,1.31,0,0,0-1.31,1.31V17.5a1.31,1.31,0,0,0,1.31,1.32H32.87a1.31,1.31,0,0,0,1.31-1.32V10.26A1.31,1.31,0,0,0,32.87,9ZM24.55,7.56a2.14,2.14,0,1,1,2.14-2.14A2.13,2.13,0,0,1,24.55,7.56Z"/><path class="cls-3" d="M21.75,8.39A14.59,14.59,0,0,1,21.47,1a5.42,5.42,0,0,0-2.34,4.45,5.48,5.48,0,0,0,.36,1.94A1.17,1.17,0,0,1,18.41,9H16.24a1.31,1.31,0,0,0-1.31,1.31V17.5a1.31,1.31,0,0,0,1.31,1.32H26.43a10.16,10.16,0,0,1-4.34-8.57A5.37,5.37,0,0,0,21.75,8.39Z"/><g class="cls-8"><path d="M28.69,13.35H20.42a1,1,0,0,1,0-2.09h8.27a1,1,0,0,1,0,2.09Z"/><path d="M28.69,16.51H20.42a1,1,0,0,1,0-2.09h8.27a1,1,0,0,1,0,2.09Z"/></g></svg>
