<?xml version="1.0" encoding="utf-8"?><svg xmlns="http://www.w3.org/2000/svg" viewBox="0 0 46.38 68.97"><defs><style>.cls-1{fill:#037098;}</style></defs><title>map</title><g id="Labels"><path class="cls-1" d="M36.67,48.19c6.63-11.88,9.71-19.82,9.71-25A23.19,23.19,0,0,0,0,23.19c0,5.18,3.09,13.12,9.72,25,4,7.21,8.07,13.5,9.22,15.25l3.33,5.06a1.14,1.14,0,0,0,1.84,0l3.29-5C27.89,62.77,32.27,56.08,36.67,48.19ZM23.19,65.9l-2.36-3.58c0-.07-4.56-6.91-9.2-15.2C5.37,35.89,2.19,27.84,2.19,23.19a21,21,0,0,1,42,0c0,4.65-3.17,12.7-9.44,23.93-4.07,7.29-8,13.43-9.15,15.14Z"/><path class="cls-1" d="M23.19,17.45A5.6,5.6,0,1,0,28.78,23,5.59,5.59,0,0,0,23.19,17.45Z"/></g></svg>