<?xml version="1.0" encoding="utf-8"?><svg xmlns="http://www.w3.org/2000/svg" viewBox="0 0 28.54 28.54"><defs><style>.cls-1{fill:#037098;}.cls-2{fill:#fff;}</style></defs><title>more-info</title><g id="Labels"><g id="Layer_1-2" data-name="Layer 1"><circle class="cls-1" cx="14.27" cy="14.27" r="14.27"/><path class="cls-2" d="M13.28,19a5.7,5.7,0,0,0-.47,1.67c0,.21.11.36.31.36.52-.05,1.88-1.45,2-1.66a.15.15,0,0,1,.21,0l0,0,.28.29c.11.1.16.15,0,.26a6.48,6.48,0,0,1-4.81,2.7.66.66,0,0,1-.75-.56.86.86,0,0,1,0-.16,29.94,29.94,0,0,1,1.45-4.63l.73-2a8.07,8.07,0,0,0,.42-1.51.28.28,0,0,0-.25-.31h-.06c-.42,0-1.62,1.35-2,1.77a.2.2,0,0,1-.28,0l0,0L9.85,15c-.11-.08-.16-.13-.11-.23s2.5-3.18,4.79-3.18c.62,0,.94.32.94.84a10.19,10.19,0,0,1-.78,2.7Zm.21-12.9A1.65,1.65,0,0,1,15.1,4.54a1.58,1.58,0,0,1,1.76,1.37.28.28,0,0,1,0,.09,1.81,1.81,0,0,1-1.72,1.67,1.56,1.56,0,0,1-1.66-1.46Z"/></g></g></svg>