<?xml version="1.0" encoding="utf-8"?><svg xmlns="http://www.w3.org/2000/svg" viewBox="0 0 69.09 67.73"><defs><style>.cls-1{isolation:isolate;}.cls-2{fill:#e5e5e5;}.cls-3{fill:#037098;}.cls-4{opacity:0.1;}.cls-4,.cls-6,.cls-8{mix-blend-mode:multiply;}.cls-5,.cls-6{fill:#0d69f2;}.cls-6{opacity:0.4;}.cls-7{fill:#8e00fe;}.cls-8{fill:#5e15d1;opacity:0.2;}</style></defs><title>nhs-tariff</title><g class="cls-1"><g  data-name="Layer 1"><path class="cls-2" d="M55.57,17.52a1.16,1.16,0,0,1-.65-.2,12.69,12.69,0,0,0-7.06-2.14H21.24a12.72,12.72,0,0,0-7.07,2.14,1.15,1.15,0,0,1-1.16.07L8.34,15.06l1-2.09,4.09,2a14.88,14.88,0,0,1,7.77-2.16H47.86A14.94,14.94,0,0,1,55.64,15l4.08-2,1.05,2.09-4.68,2.33A1.06,1.06,0,0,1,55.57,17.52Z"/><path class="cls-3" d="M50.9,67.73H18.2a4.67,4.67,0,0,1,4.67-4.67H46.22A4.68,4.68,0,0,1,50.9,67.73Z"/><path class="cls-4" d="M46.22,63.06H36.88a4.67,4.67,0,0,1,4.67,4.67H50.9A4.68,4.68,0,0,0,46.22,63.06Z"/><polygon class="cls-3" points="41.55 63.06 27.54 63.06 32.21 58.39 36.88 58.39 41.55 63.06"/><rect class="cls-2" x="32.21" y="9.34" width="4.67" height="49.05"/><path class="cls-3" d="M37.17,8.17l.92-3.64a3.71,3.71,0,0,0,.1-.88A3.64,3.64,0,0,0,34.55,0a3.8,3.8,0,0,0-.89.11A3.65,3.65,0,0,0,31,4.53l.91,3.64H28.71v2.34H40.39V8.17Z"/><path class="cls-2" d="M24.82,41.47,13.53,16.82,2.23,41.47A1.17,1.17,0,0,1,.68,42h0a1.16,1.16,0,0,1-.57-1.55h0l12.36-27A1.16,1.16,0,0,1,14,13a1.17,1.17,0,0,1,.58.58L27,40.49A1.17,1.17,0,0,1,26.37,42h0a1.17,1.17,0,0,1-1.55-.57Z"/><path class="cls-2" d="M66.86,41.47,55.57,16.82,44.27,41.47a1.17,1.17,0,0,1-1.55.57h0a1.17,1.17,0,0,1-.57-1.55h0l12.36-27A1.16,1.16,0,0,1,56.05,13a1.17,1.17,0,0,1,.58.58L69,40.49A1.17,1.17,0,0,1,68.41,42h0a1.17,1.17,0,0,1-1.55-.57Z"/><path class="cls-5" d="M42.72,42H68.41a7,7,0,0,1-7,7H49.73a7,7,0,0,1-7-7Z"/><path class="cls-6" d="M61.41,42a7,7,0,0,1-7,7h7a7,7,0,0,0,7-7Z"/><path class="cls-7" d="M.68,42H26.37a7,7,0,0,1-7,7H7.69a7,7,0,0,1-7-7Z"/><path class="cls-8" d="M19.37,42a7,7,0,0,1-7,7h7a7,7,0,0,0,7-7Z"/></g></g></svg>
