<?xml version="1.0" encoding="utf-8"?><svg xmlns="http://www.w3.org/2000/svg" viewBox="0 0 53.37 38.21"><defs><style>.cls-1{fill:#1d1d1b;}</style></defs><title>order-by</title><g id="Labels"><g id="Layer_1-2" data-name="Layer 1"><path class="cls-1" d="M27.57,22.28,16.2,33.65V1.3a1.3,1.3,0,1,0-2.6,0V33.66L2.22,22.28a1.3,1.3,0,0,0-1.84,0h0a1.29,1.29,0,0,0,0,1.83h0L14,37.71a1.3,1.3,0,0,0,1.84,0h0l13.59-13.6a1.3,1.3,0,1,0-1.73-1.94,1.14,1.14,0,0,0-.11.11Z"/><path class="cls-1" d="M53,14,39.45.38a1.3,1.3,0,0,0-1.84,0h0L24,14a1.3,1.3,0,1,0,1.73,1.94l.11-.11,11.4-11.4V36.79a1.3,1.3,0,0,0,2.59.23.89.89,0,0,0,0-.23V4.43L51.2,15.8a1.28,1.28,0,0,0,.92.38A1.23,1.23,0,0,0,53,15.8,1.29,1.29,0,0,0,53,14Z"/></g></g></svg>