<?xml version="1.0" encoding="utf-8"?><svg  data-name="Layer 1" xmlns="http://www.w3.org/2000/svg" viewBox="0 0 61.53 61.53"><defs><style>.cls-1{fill:#00707c;}.cls-2{opacity:0.1;}</style></defs><title>paid-for</title><path class="cls-1" d="M46.48,24.49H37.05V15.07a.79.79,0,0,0-.78-.79h-11a.8.8,0,0,0-.79.79v9.42H15.06a.8.8,0,0,0-.79.79v11a.79.79,0,0,0,.79.79h9.42v9.43a.79.79,0,0,0,.79.78h11a.78.78,0,0,0,.78-.78V37.06h9.43a.78.78,0,0,0,.78-.79v-11A.79.79,0,0,0,46.48,24.49Z"/><g class="cls-2"><path d="M26.84,24.49V14.28H25.27a.8.8,0,0,0-.79.79v9.42Z"/><path d="M37.05,34.7v2.36h9.43a.78.78,0,0,0,.78-.79V34.7Z"/><path d="M36.27,44.91H27.63a.78.78,0,0,1-.79-.78V34.7H15.06a.79.79,0,0,1-.79-.78v2.35a.79.79,0,0,0,.79.79h9.42v9.43a.79.79,0,0,0,.79.78h11a.78.78,0,0,0,.78-.78V44.13A.78.78,0,0,1,36.27,44.91Z"/></g><path class="cls-1" d="M30.77,0A30.77,30.77,0,1,0,61.53,30.77,30.8,30.8,0,0,0,30.77,0ZM57.13,30.77A26.36,26.36,0,1,1,30.77,4.41,26.4,26.4,0,0,1,57.13,30.77Z"/></svg>
