<?xml version="1.0" encoding="utf-8"?><svg xmlns="http://www.w3.org/2000/svg" viewBox="0 0 60.5 25.68"><defs><style>.cls-1{isolation:isolate;}.cls-2{fill:#efa00b;}.cls-3{fill:#ed9e0d;}.cls-4{opacity:0.2;mix-blend-mode:multiply;}</style></defs><title>quality</title><g class="cls-1"><g id="Layer_1" data-name="Layer 1"><path class="cls-2" d="M20.72,7.57l4.74,4.17L24.07,17.9a.5.5,0,0,0,.75.54l5.43-3.22,5.43,3.22a.5.5,0,0,0,.75-.54L35,11.74l4.75-4.17a.51.51,0,0,0-.29-.88l-6.29-.58L30.72.3a.51.51,0,0,0-.93,0l-2.5,5.81L21,6.69A.5.5,0,0,0,20.72,7.57Z"/><path class="cls-3" d="M20.72,7.57l4.74,4.17L24.07,17.9a.5.5,0,0,0,.75.54l5.43-3.22,5.43,3.22a.5.5,0,0,0,.75-.54L35,11.74l4.75-4.17a.51.51,0,0,0-.29-.88l-6.29-.58L30.72.3a.51.51,0,0,0-.93,0l-2.5,5.81L21,6.69A.5.5,0,0,0,20.72,7.57Z"/><g class="cls-4"><path class="cls-3" d="M28.55,3.17a22.25,22.25,0,0,1,5.92,14.55l1.21.72a.5.5,0,0,0,.75-.54L35,11.74l4.75-4.17a.51.51,0,0,0-.29-.88l-6.29-.58L30.72.3a.51.51,0,0,0-.93,0Z"/></g><path class="cls-2" d="M.17,14.74l4.75,4.17L3.53,25.07a.5.5,0,0,0,.75.54l5.43-3.22,5.43,3.22a.5.5,0,0,0,.75-.54L14.5,18.91l4.74-4.17a.5.5,0,0,0-.28-.88l-6.29-.59-2.5-5.8a.51.51,0,0,0-.93,0l-2.49,5.8-6.29.59A.51.51,0,0,0,.17,14.74Z"/><path class="cls-3" d="M.17,14.74l4.75,4.17L3.53,25.07a.5.5,0,0,0,.75.54l5.43-3.22,5.43,3.22a.5.5,0,0,0,.75-.54L14.5,18.91l4.74-4.17a.5.5,0,0,0-.28-.88l-6.29-.59-2.5-5.8a.51.51,0,0,0-.93,0l-2.49,5.8-6.29.59A.51.51,0,0,0,.17,14.74Z"/><g class="cls-4"><path class="cls-3" d="M8,10.34a22.25,22.25,0,0,1,5.92,14.55l1.21.72a.5.5,0,0,0,.75-.54L14.5,18.91l4.74-4.17a.5.5,0,0,0-.28-.88l-6.29-.59-2.5-5.8a.51.51,0,0,0-.93,0Z"/></g><path class="cls-2" d="M41.26,14.74,46,18.91l-1.39,6.16a.5.5,0,0,0,.75.54l5.43-3.22,5.43,3.22a.5.5,0,0,0,.75-.54l-1.39-6.16,4.74-4.17a.5.5,0,0,0-.28-.88l-6.29-.59-2.5-5.8a.51.51,0,0,0-.93,0l-2.49,5.8-6.29.59A.51.51,0,0,0,41.26,14.74Z"/><path class="cls-3" d="M41.26,14.74,46,18.91l-1.39,6.16a.5.5,0,0,0,.75.54l5.43-3.22,5.43,3.22a.5.5,0,0,0,.75-.54l-1.39-6.16,4.74-4.17a.5.5,0,0,0-.28-.88l-6.29-.59-2.5-5.8a.51.51,0,0,0-.93,0l-2.49,5.8-6.29.59A.51.51,0,0,0,41.26,14.74Z"/><g class="cls-4"><path class="cls-3" d="M49.1,10.34A22.25,22.25,0,0,1,55,24.89l1.21.72a.5.5,0,0,0,.75-.54l-1.39-6.16,4.74-4.17a.5.5,0,0,0-.28-.88l-6.29-.59-2.5-5.8a.51.51,0,0,0-.93,0Z"/></g></g></g></svg>