<?xml version="1.0" encoding="utf-8"?><svg xmlns="http://www.w3.org/2000/svg" xmlns:xlink="http://www.w3.org/1999/xlink" viewBox="0 0 87.61 58.97"><defs><style>.cls-1{fill:none;}.cls-2,.cls-5{isolation:isolate;}.cls-3{fill:#ccc;}.cls-4{fill:#fff;}.cls-5{opacity:0.1;}.cls-6{fill:#037098;}.cls-7{opacity:0.9;}.cls-8{fill:#8c02fc;}.cls-9{opacity:0.7;}.cls-10{opacity:0.5;}.cls-11{fill:#b9bcbf;}.cls-12{fill:#485059;}.cls-13{fill:#8e00fe;}.cls-14{fill:#0d69f2;}.cls-15{fill:#5e14cf;}.cls-16{opacity:0.37;}.cls-17,.cls-18{mix-blend-mode:screen;}.cls-18{opacity:0.33;}.cls-19{fill:#e5e5e5;}.cls-20{clip-path:url(#clip-path);}</style><clipPath id="clip-path"><circle class="cls-1" cx="28.33" cy="20.41" r="15.37"/></clipPath></defs><title>search-and-compare</title><g class="cls-2"><g  data-name="Layer 1"><path class="cls-3" d="M85,17.28V51.05H31.8V17.28H85m1.29-2.58H30.51A1.29,1.29,0,0,0,29.22,16V52.34a1.29,1.29,0,0,0,1.29,1.29H86.32a1.29,1.29,0,0,0,1.29-1.29V16a1.29,1.29,0,0,0-1.29-1.29Z"/><rect class="cls-3" x="52.23" y="53.47" width="12.38" height="4.51" rx="0.16"/><path class="cls-3" d="M64.44,53.63v4.18h-12V53.63h12m0-.32h-12a.32.32,0,0,0-.33.32v4.18a.33.33,0,0,0,.33.33h12a.33.33,0,0,0,.33-.33V53.63a.32.32,0,0,0-.33-.32Z"/><path class="cls-3" d="M50.05,58.81a.16.16,0,0,1-.15-.12.16.16,0,0,1,.05-.18l2.34-1.67,12.15,0,2.44,1.7a.18.18,0,0,1,.06.18.18.18,0,0,1-.16.12Z"/><path class="cls-3" d="M64.44,57l2.34,1.68H50.05L52.39,57h12m0-.33h-12a.39.39,0,0,0-.19.06l-2.34,1.68a.33.33,0,0,0-.12.36.32.32,0,0,0,.31.23H66.78a.32.32,0,0,0,.31-.23.33.33,0,0,0-.12-.36L64.63,56.7a.39.39,0,0,0-.19-.06Z"/><polyline class="cls-4" points="85.03 17.28 85.03 51.05 31.8 51.05 31.8 17.28 85.03 17.28"/><g class="cls-5"><path d="M86.32,14.7H76L48.1,53.63H86.32a1.29,1.29,0,0,0,1.29-1.29V16A1.29,1.29,0,0,0,86.32,14.7Z"/></g><path class="cls-6" d="M78.74,30.27l-.44-.43a.06.06,0,0,0-.08,0l-2.35,2.35-1.05-1a0,0,0,0,0-.07,0l-.44.43a.06.06,0,0,0,0,.08l1.09,1.09.44.44a0,0,0,0,0,.07,0l.44-.44,2.39-2.39A.06.06,0,0,0,78.74,30.27Z"/><path class="cls-6" d="M78.74,35.08l-.44-.43a.06.06,0,0,0-.08,0L75.87,37l-1.05-1a0,0,0,0,0-.07,0l-.44.43a.06.06,0,0,0,0,.08l1.09,1.09.44.44a0,0,0,0,0,.07,0l.44-.44,2.39-2.39A.06.06,0,0,0,78.74,35.08Z"/><path class="cls-6" d="M78.74,39.89l-.44-.43a.06.06,0,0,0-.08,0l-2.35,2.35-1.05-1.05a0,0,0,0,0-.07,0l-.44.43a.06.06,0,0,0,0,.08l1.09,1.09.44.44a0,0,0,0,0,.07,0l.44-.44L78.74,40A.06.06,0,0,0,78.74,39.89Z"/><g class="cls-7"><circle class="cls-8" cx="34.02" cy="19.64" r="0.6"/></g><g class="cls-9"><circle class="cls-8" cx="36.44" cy="19.64" r="0.6"/></g><g class="cls-10"><circle class="cls-8" cx="38.85" cy="19.64" r="0.6"/></g><path class="cls-3" d="M81.42,20.23H42.05a.59.59,0,0,1-.58-.59.58.58,0,0,1,.58-.58H81.42Z"/><path class="cls-3" d="M43.6,24.25H33.71a.59.59,0,0,1,0-1.17H43.6a.59.59,0,1,1,0,1.17Z"/><path class="cls-11" d="M44.06,32.27H38.52a.58.58,0,0,1-.58-.58.59.59,0,0,1,.58-.59h5.54a.6.6,0,0,1,.59.59A.59.59,0,0,1,44.06,32.27Z"/><path class="cls-11" d="M36.53,32.27h0a.58.58,0,0,1-.58-.58.59.59,0,0,1,.58-.59h0a.59.59,0,0,1,.59.59A.58.58,0,0,1,36.53,32.27Z"/><path class="cls-11" d="M44.06,36.37H38.52a.59.59,0,0,1,0-1.17h5.54a.59.59,0,1,1,0,1.17Z"/><path class="cls-11" d="M36.53,36.37h0a.59.59,0,0,1,0-1.17h0a.59.59,0,1,1,0,1.17Z"/><path class="cls-11" d="M44.06,40.47H38.52a.59.59,0,0,1,0-1.17h5.54a.59.59,0,1,1,0,1.17Z"/><path class="cls-11" d="M36.53,40.47h0a.59.59,0,0,1,0-1.17h0a.59.59,0,1,1,0,1.17Z"/><path class="cls-11" d="M61.46,47.74l-6.09-.05a.64.64,0,0,1-.64-.64V45.7a.64.64,0,0,1,.64-.64h6.09a.64.64,0,0,1,.64.64v1.4A.63.63,0,0,1,61.46,47.74Z"/><path class="cls-12" d="M59.75,36.87H57.08a.55.55,0,1,1,0-1.09h2.67a.55.55,0,1,1,0,1.09Z"/><path class="cls-12" d="M59.75,41.57H57.08a.55.55,0,0,1,0-1.1h2.67a.55.55,0,1,1,0,1.1Z"/><path class="cls-6" d="M60.75,30.27l-.44-.43a.06.06,0,0,0-.08,0l-2.35,2.35-1.05-1a0,0,0,0,0-.07,0l-.44.43a.06.06,0,0,0,0,.08l1.09,1.09.44.44a0,0,0,0,0,.07,0l.44-.44,2.39-2.39A.06.06,0,0,0,60.75,30.27Z"/><path class="cls-11" d="M79.57,47.74l-6.09-.05a.64.64,0,0,1-.64-.64V45.7a.64.64,0,0,1,.64-.64h6.09a.64.64,0,0,1,.64.64v1.4A.63.63,0,0,1,79.57,47.74Z"/><rect class="cls-3" x="48.82" y="27.69" width="1.1" height="23.36"/><rect class="cls-3" x="66.95" y="27.69" width="1.1" height="23.36"/><rect class="cls-3" x="31.8" y="27.14" width="53.24" height="1.1"/><path class="cls-13" d="M60,23.09h-.86v-.86a.07.07,0,0,0-.07-.07H58a.07.07,0,0,0-.07.07v.86H57.1a.07.07,0,0,0-.07.07v1a.07.07,0,0,0,.07.07H58v.86a.07.07,0,0,0,.07.07h1a.07.07,0,0,0,.07-.07v-.86H60a.07.07,0,0,0,.07-.07v-1A.07.07,0,0,0,60,23.09Z"/><path class="cls-14" d="M78,23.09H77.1v-.86a.07.07,0,0,0-.07-.07H76a.07.07,0,0,0-.07.07v.86h-.86a.07.07,0,0,0-.07.07v1a.07.07,0,0,0,.07.07H76v.86a.07.07,0,0,0,.07.07h1a.07.07,0,0,0,.07-.07v-.86H78a.07.07,0,0,0,.07-.07v-1A.07.07,0,0,0,78,23.09Z"/><path class="cls-15" d="M18.14,39.89c-5.22,5.56-5.69,11.9-9.87,16s-6.78,1.72-6.78,1.72-3.07-1.74-.4-7S9.65,43.06,13.38,36.4Z"/><g class="cls-16"><path d="M.14,55.65a3.24,3.24,0,0,0,1.35,2S4.08,60,8.27,55.91s4.65-10.46,9.87-16l-3.65-2.68c-5.22,5.57-5.69,11.91-9.87,16C2.79,55,1.28,55.59.14,55.65Z"/></g><g class="cls-17"><path class="cls-15" d="M18.14,39.89c-5.22,5.56-5.69,11.9-9.87,16s-6.78,1.72-6.78,1.72-3.07-1.74-.4-7S9.65,43.06,13.38,36.4Z"/></g><g class="cls-18"><path class="cls-15" d="M18.14,39.89c-5.22,5.56-5.69,11.9-9.87,16s-6.78,1.72-6.78,1.72-3.07-1.74-.4-7S9.65,43.06,13.38,36.4Z"/></g><ellipse class="cls-19" cx="17.24" cy="36.13" rx="3.87" ry="5.03" transform="translate(-22.1 28.69) rotate(-53.79)"/><g class="cls-5"><path d="M13.72,38.06A6.05,6.05,0,0,0,15,39.25c2.24,1.64,5.08,1.57,6.34-.15s.47-4.45-1.77-6.09a6.32,6.32,0,0,0-1.5-.82c1.25,1.58,1.52,3.55.53,4.9S15.6,38.78,13.72,38.06Z"/></g><g class="cls-20"><path class="cls-3" d="M65.69,2.69V37.9H10.18V2.69H65.69M67,0H8.84A1.35,1.35,0,0,0,7.49,1.35v37.9a1.35,1.35,0,0,0,1.35,1.34H67a1.34,1.34,0,0,0,1.34-1.34V1.35A1.34,1.34,0,0,0,67,0Z"/><rect class="cls-3" x="31.49" y="40.42" width="12.91" height="4.7" rx="0.17"/><path class="cls-3" d="M44.23,40.59V45H31.65V40.59H44.23m0-.33H31.65a.33.33,0,0,0-.33.33V45a.34.34,0,0,0,.33.34H44.23a.34.34,0,0,0,.33-.34V40.59a.33.33,0,0,0-.33-.33Z"/><path class="cls-3" d="M29.22,46a.16.16,0,0,1-.16-.12.14.14,0,0,1,.06-.18l2.44-1.75,12.66,0,2.54,1.79a.14.14,0,0,1,.06.18.16.16,0,0,1-.16.12Z"/><path class="cls-3" d="M44.23,44.07l2.43,1.75H29.22l2.43-1.75H44.23m0-.33H31.65a.31.31,0,0,0-.19.06L29,45.55a.33.33,0,0,0-.12.38.34.34,0,0,0,.32.23H46.66a.34.34,0,0,0,.32-.23.33.33,0,0,0-.12-.38L44.42,43.8a.33.33,0,0,0-.19-.06Z"/><polyline class="cls-4" points="65.69 2.69 65.69 37.9 10.19 37.9 10.19 2.69 65.69 2.69"/><g class="cls-5"><path d="M67,0H56.3L27.18,40.59H67a1.34,1.34,0,0,0,1.34-1.34V1.34A1.34,1.34,0,0,0,67,0Z"/></g><path class="cls-6" d="M59.13,16.24l-.45-.46a.08.08,0,0,0-.09,0l-2.45,2.45-1.09-1.09a.06.06,0,0,0-.08,0l-.46.45a.08.08,0,0,0,0,.09l1.14,1.13.45.46a.06.06,0,0,0,.08,0l.46-.46,2.49-2.49A.06.06,0,0,0,59.13,16.24Z"/><path class="cls-6" d="M59.13,21.25l-.45-.45a.08.08,0,0,0-.09,0l-2.45,2.45-1.09-1.1a.06.06,0,0,0-.08,0l-.46.46a.06.06,0,0,0,0,.08l1.14,1.14.45.45a.06.06,0,0,0,.08,0l.46-.45,2.49-2.49A.07.07,0,0,0,59.13,21.25Z"/><path class="cls-6" d="M59.13,26.27l-.45-.46a.08.08,0,0,0-.09,0l-2.45,2.46-1.09-1.1a.06.06,0,0,0-.08,0l-.46.46a.06.06,0,0,0,0,.08l1.14,1.13.45.46a.06.06,0,0,0,.08,0l.46-.46,2.49-2.49A.06.06,0,0,0,59.13,26.27Z"/><g class="cls-7"><circle class="cls-8" cx="12.5" cy="5.15" r="0.63"/></g><g class="cls-9"><circle class="cls-8" cx="15.02" cy="5.15" r="0.63"/></g><g class="cls-10"><circle class="cls-8" cx="17.54" cy="5.15" r="0.63"/></g><path class="cls-3" d="M61.92,5.76h-41a.61.61,0,0,1-.61-.61.61.61,0,0,1,.61-.61h41Z"/><path class="cls-3" d="M22.49,10H12.18a.61.61,0,0,1,0-1.22H22.49a.61.61,0,0,1,0,1.22Z"/><path class="cls-11" d="M23,18.32H17.2a.61.61,0,0,1-.61-.61.61.61,0,0,1,.61-.61H23a.61.61,0,0,1,.61.61A.61.61,0,0,1,23,18.32Z"/><path class="cls-11" d="M15.12,18.32h0a.61.61,0,0,1-.61-.61.61.61,0,0,1,.61-.61h0a.61.61,0,0,1,.61.61A.61.61,0,0,1,15.12,18.32Z"/><path class="cls-11" d="M23,22.6H17.2a.61.61,0,0,1-.61-.61.61.61,0,0,1,.61-.61H23a.61.61,0,0,1,.61.61A.61.61,0,0,1,23,22.6Z"/><path class="cls-11" d="M15.12,22.6h0a.61.61,0,0,1-.61-.61.61.61,0,0,1,.61-.61h0a.61.61,0,0,1,.61.61A.61.61,0,0,1,15.12,22.6Z"/><path class="cls-11" d="M23,26.87H17.2a.61.61,0,0,1,0-1.22H23a.61.61,0,1,1,0,1.22Z"/><path class="cls-11" d="M15.12,26.87h0a.61.61,0,0,1,0-1.22h0a.61.61,0,0,1,0,1.22Z"/><path class="cls-11" d="M41.12,34.46l-6.36-.06a.67.67,0,0,1-.67-.67v-1.4a.67.67,0,0,1,.67-.67h6.36a.67.67,0,0,1,.67.67v1.46A.67.67,0,0,1,41.12,34.46Z"/><path class="cls-12" d="M39.33,23.12H36.55a.57.57,0,0,1-.57-.57.56.56,0,0,1,.57-.57h2.78a.57.57,0,0,1,0,1.14Z"/><path class="cls-12" d="M39.33,28H36.55a.58.58,0,0,1-.57-.58.57.57,0,0,1,.57-.57h2.78a.57.57,0,0,1,.57.57A.56.56,0,0,1,39.33,28Z"/><path class="cls-6" d="M40.37,16.24l-.45-.46a.06.06,0,0,0-.08,0l-2.45,2.45-1.1-1.09a.06.06,0,0,0-.08,0l-.46.45a.07.07,0,0,0,0,.09l1.14,1.13.46.46a.06.06,0,0,0,.08,0l.45-.46,2.49-2.49A.06.06,0,0,0,40.37,16.24Z"/><path class="cls-11" d="M60,34.46l-6.36-.06a.67.67,0,0,1-.66-.67v-1.4a.67.67,0,0,1,.66-.67H60a.67.67,0,0,1,.67.67v1.46A.67.67,0,0,1,60,34.46Z"/><rect class="cls-3" x="27.94" y="13.54" width="1.14" height="24.36"/><rect class="cls-3" x="46.84" y="13.54" width="1.14" height="24.36"/><rect class="cls-3" x="10.18" y="12.97" width="55.51" height="1.14"/></g><path class="cls-15" d="M9.55,23.19A19,19,0,1,0,25.46,1.54,19,19,0,0,0,9.55,23.19Zm3.76-.58A15.19,15.19,0,1,1,30.62,35.34,15.19,15.19,0,0,1,13.31,22.61Z"/><path class="cls-15" d="M11.43,22.9A17.1,17.1,0,1,0,25.75,3.42,17.11,17.11,0,0,0,11.43,22.9Zm1.88-.29A15.19,15.19,0,1,1,30.62,35.34,15.19,15.19,0,0,1,13.31,22.61Z"/></g></g></svg>
