<?xml version="1.0" encoding="utf-8"?>
<!-- Generator: Adobe Illustrator 21.1.0, SVG Export Plug-In . SVG Version: 6.00 Build 0)  -->
<svg version="1.1" id="Capa_1" xmlns="http://www.w3.org/2000/svg" xmlns:xlink="http://www.w3.org/1999/xlink" x="0px" y="0px"
	 viewBox="0 0 512 512" style="enable-background:new 0 0 512 512;" xml:space="preserve">
<g>
	<g>
		<path style="fill:#00cecd;" d="M456.7,354.3c-7.4-12.8-21.6-19.3-35.5-17.4L405,308.8c7.6-6.2,14.6-13,20.9-20.2l69,69
			c2,2,4.5,2.9,7.1,2.9c2.6,0,5.1-1,7.1-2.9c3.9-3.9,3.9-10.2,0-14.1l-70.7-70.7c36.8-53.6,42-125.7,7.4-185.6
			c-0.8-1.4-1.6-2.8-2.5-4.1L509,17.1c3.9-3.9,3.9-10.2,0-14.1c-3.9-3.9-10.2-3.9-14.1,0l-63.3,63.3c-5.2-6.6-10.9-12.8-16.9-18.5
			l30.6-30.6c3.9-3.9,3.9-10.2,0-14.1c-3.9-3.9-10.2-3.9-14.1,0l-31.8,31.8C345.3-5.6,270.1-12.5,208,23.4c-4,2.3-7.9,4.8-11.7,7.4
			L168.6,3C164.7-1,158.4-1,154.4,3c-3.9,3.9-3.9,10.2,0,14.1l26,26c-8.6,7.5-16.3,15.7-23.1,24.5L92.7,2.9C90.8,1.1,88.3,0,85.6,0
			H10C4.5,0,0,4.5,0,10v130.7c0,2.7,1.1,5.2,2.9,7.1l29.3,29.3c2,2,4.5,2.9,7.1,2.9c2.6,0,5.1-1,7.1-2.9c3.9-3.9,3.9-10.2,0-14.1
			L20,136.6V20h61.5l64,64c0.1,0.1,0.3,0.3,0.4,0.4c-27,45.1-32.9,101.3-13.3,152.1l-6.3,6.4l-17.7-17.7c-3.9-3.9-10.2-3.9-14.1,0
			c-3.9,3.9-3.9,10.2,0,14.1l24.8,24.8c2,2,4.5,2.9,7.1,2.9c2.6,0,5.1-1,7.1-2.9l8.2-8.2c0.9,1.7,1.8,3.4,2.8,5.1
			c6.2,10.7,13.4,20.6,21.4,29.4l-81.1,81.1c-1.9,1.9-2.9,4.4-2.9,7.1s1.1,5.2,2.9,7.1L207.9,509c1.9,1.9,4.4,2.9,7.1,2.9l15.1,0
			c0,0,0,0,0,0c2.7,0,5.2-1.1,7.1-2.9l71.1-71.1c3.9-3.9,3.9-10.2,0-14.1c-3.9-3.9-10.2-3.9-14.1,0L225.9,492l-6.8,0L105.8,378.7
			l74.1-74.1c32,28.2,73.3,43.5,115.4,43.5c20.8,0,41.8-3.7,61.9-11.5l16,27.8c-9,11.1-10.7,27-3.2,40.1l1,1.8l-86.7,86.7
			c-3.9,3.9-3.9,10.2,0,14.1c2,2,4.5,2.9,7.1,2.9s5.1-1,7.1-2.9l82.9-82.9l39.1,67.7c4.7,8.2,12.4,14.1,21.6,16.5
			c3.1,0.8,6.2,1.2,9.2,1.2c6.1,0,12.2-1.6,17.7-4.8l25.1-14.5c17-9.8,22.8-31.5,13-48.5L456.7,354.3z M372,307.4
			c-73.5,42.5-167.9,17.2-210.4-56.4C119.2,177.5,144.5,83.1,218,40.7c24.2-14,50.6-20.6,76.7-20.6c53.3,0,105.1,27.6,133.6,77
			C470.8,170.6,445.6,264.9,372,307.4z M375.6,328.2c2.2-1.1,4.3-2.3,6.5-3.5c2.3-1.3,4.5-2.7,6.7-4.1l13.8,24l-13.2,7.6
			L375.6,328.2z M484.2,473l-25.1,14.5c-3.6,2.1-7.8,2.6-11.8,1.5s-7.3-3.6-9.4-7.2l-50.5-87.5c-4.3-7.4-1.7-16.9,5.7-21.2
			l25.1-14.5c7.4-4.3,16.9-1.7,21.2,5.7l50.5,87.5C494.2,459.2,491.6,468.7,484.2,473z"/>
	</g>
</g>
<g>
	<g>
		<path style="fill:#00cecd;" d="M409.5,108c-5.5-9.6-12.1-18.1-19.4-25.7c-0.1-0.1-0.2-0.2-0.3-0.3c0,0-0.1-0.1-0.1-0.1
			c-41.2-42.2-107.3-53-160.7-22.2c-1.7,1-3.5,2.1-5.1,3.1c0,0,0,0,0,0c-15.3,9.8-27.9,22.3-37.7,36.5c-0.4,0.5-0.7,1-1,1.5
			c-26.9,40.5-30.4,94.5-4.5,139.3c6.2,10.7,13.6,20.2,22.1,28.4c0.1,0.1,0.1,0.2,0.2,0.2c0.2,0.2,0.5,0.5,0.8,0.7
			c24.8,23.8,57.9,36.7,91.6,36.7c22.4,0,45.1-5.7,65.8-17.7c2.7-1.6,5.3-3.2,7.8-4.9c0,0,0.1-0.1,0.1-0.1
			C426,245.1,444.3,168.3,409.5,108z M295.2,286.1c-25.5,0-50.6-8.7-70.6-24.9l55.4-55.4l67.4,67.4
			C330.8,282,312.9,286.2,295.2,286.1z M364.5,262.1l-77.4-77.4c-1.9-1.9-4.4-2.9-7.1-2.9s-5.2,1.1-7.1,2.9l-62.7,62.7
			c-4.5-5.3-8.7-11-12.3-17.3c-19.9-34.6-19.3-75.4-2-108.4l29.9,29.9L208,169.4c-3.9,3.9-3.9,10.2,0,14.1c2,2,4.5,2.9,7.1,2.9
			s5.1-1,7.1-2.9l24.8-24.8c3.9-3.9,3.9-10.2,0-14.1l-40-40c6-7.6,13.1-14.5,21.1-20.5l39.7,39.7c1.9,1.9,4.4,2.9,7.1,2.9
			c2.7,0,5.2-1.1,7.1-2.9l31.2-31.2c3.9-3.9,3.9-10.2,0-14.1c-3.9-3.9-10.2-3.9-14.1,0l-24.2,24.2l-29.2-29.2
			c15.7-7.7,32.5-11.4,49.2-11.4c26.7,0,53,9.6,73.5,27.3l-60.5,60.5c-1.9,1.9-2.9,4.4-2.9,7.1c0,2.7,1.1,5.2,2.9,7.1L361,217
			c2,2,4.5,2.9,7.1,2.9c2.6,0,5.1-1,7.1-2.9c3.9-3.9,3.9-10.2,0-14.1l-46.1-46.1l53.2-53.2c3.6,4.5,6.9,9.3,9.9,14.4
			C420.3,166.8,407.5,228.1,364.5,262.1z"/>
	</g>
</g>
<g>
	<g>
		<path style="fill:#00cecd;" d="M337.9,394.1c-1.9-1.9-4.4-2.9-7.1-2.9c-2.6,0-5.2,1.1-7.1,2.9c-1.9,1.9-2.9,4.4-2.9,7.1
			c0,2.6,1.1,5.2,2.9,7.1c1.9,1.9,4.4,2.9,7.1,2.9c2.6,0,5.2-1.1,7.1-2.9s2.9-4.4,2.9-7.1C340.9,398.6,339.8,396,337.9,394.1z"/>
	</g>
</g>
<g>
	<g>
		<path style="fill:#00cecd;" d="M77.8,194.4c-1.9-1.9-4.4-2.9-7.1-2.9c-2.6,0-5.2,1.1-7.1,2.9c-1.9,1.9-2.9,4.4-2.9,7.1
			s1.1,5.2,2.9,7.1c1.9,1.9,4.4,2.9,7.1,2.9c2.6,0,5.2-1.1,7.1-2.9c1.9-1.9,2.9-4.4,2.9-7.1S79.6,196.2,77.8,194.4z"/>
	</g>
</g>
<g>
	<g>
		<path style="fill:#00cecd;" d="M103.7,279.7l-86.6-86.6c-3.9-3.9-10.2-3.9-14.1,0c-3.9,3.9-3.9,10.2,0,14.1l79.5,79.5L3,366.2
			c-3.9,3.9-3.9,10.2,0,14.1c2,2,4.5,2.9,7.1,2.9s5.1-1,7.1-2.9l86.5-86.5c0.7-0.7,1.3-1.5,1.8-2.4c0.8-1.5,1.1-3.1,1.1-4.7
			C106.6,284.2,105.6,281.6,103.7,279.7z"/>
	</g>
</g>
<g>
	<g>
		<path style="fill:#00cecd;" d="M162.7,494.9l-93.6-93.6c-3.9-3.9-10.2-3.9-14.1,0l-52,52c-3.9,3.9-3.9,10.2,0,14.1
			c3.9,3.9,10.2,3.9,14.1,0L62,422.5l86.5,86.5c2,2,4.5,2.9,7.1,2.9s5.1-1,7.1-2.9C166.6,505.1,166.6,498.8,162.7,494.9z"/>
	</g>
</g>
</svg>
