<?xml version="1.0" encoding="utf-8"?>
<svg  data-name="Layer 1" xmlns="http://www.w3.org/2000/svg" viewBox="0 0 58.49 63.6">
    <defs>
        <style>
            .cls-1{fill:#027096;}.cls-2{fill:none;}.cls-3{fill:#e5e5e5;}.cls-4{opacity:0.1;}.cls-5{fill:#485059;}.cls-6{opacity:0.15;}
        </style>
    </defs>
    <title>self-pay</title>
    <path class="cls-1"
          d="M29.58,12.33a9.29,9.29,0,0,0-4,5.88L18.12,54.65a2.51,2.51,0,0,0,1.95,3l28.25,5.91a2.52,2.52,0,0,0,3-1.95l7-35.9A9.31,9.31,0,0,0,57,18.85l-4.83-7.37A11.65,11.65,0,0,0,36,8.11Zm15.5,6.55a4,4,0,1,1,1.16-5.53A4,4,0,0,1,45.08,18.88Z"/>
    <path class="cls-2" d="M42.89,11.56a4,4,0,1,0,4,4A4,4,0,0,0,42.89,11.56Z"/>
    <path class="cls-3" d="M42.89,7.57a8,8,0,1,0,8,8A8,8,0,0,0,42.89,7.57Zm0,12a4,4,0,1,1,4-4A4,4,0,0,1,42.89,19.54Z"/>
    <path class="cls-2" d="M42.89,11.56a4,4,0,1,0,4,4A4,4,0,0,0,42.89,11.56Z"/>
    <path class="cls-3"
          d="M33.49,5.58a9.2,9.2,0,0,0-6.56,2.74L.74,34.72a2.52,2.52,0,0,0,0,3.57L21.15,58.7a2.53,2.53,0,0,0,3.57,0L50.24,32.49A9.25,9.25,0,0,0,52.86,26V5.58Zm9.4,18a8,8,0,1,1,8-8A8,8,0,0,1,42.89,23.53Z"/>
    <g class="cls-4">
        <path d="M42.89,7.57a8,8,0,1,0,8,8A8,8,0,0,0,42.89,7.57Zm0,12a4,4,0,1,1,4-4A4,4,0,0,1,42.89,19.54Z"/>
    </g>
    <path class="cls-5"
          d="M58,.47A1.58,1.58,0,0,0,56.85,0h0a1.55,1.55,0,0,0-1.12.47l-14,14a1.57,1.57,0,0,0-.46,1.12,1.6,1.6,0,0,0,.46,1.13,1.62,1.62,0,0,0,1.13.46A1.6,1.6,0,0,0,44,16.68l14-14A1.6,1.6,0,0,0,58,.47Z"/>
    <path class="cls-5"
          d="M32.05,39.55,21.47,50.13a1.59,1.59,0,0,0,0,2.25,1.61,1.61,0,0,0,2.25,0L34.29,41.8a1.59,1.59,0,1,0-2.24-2.25Z"/>
    <path class="cls-3"
          d="M22.59,53.28a2,2,0,0,1-1.44-3.47L31.73,39.23a2,2,0,0,1,2.88,2.88L24,52.69A2.07,2.07,0,0,1,22.59,53.28Zm9.77-13.42L21.78,50.44a1.14,1.14,0,0,0,0,1.62,1.18,1.18,0,0,0,1.63,0L34,41.48a1.15,1.15,0,0,0-1.62-1.62Z"/>
    <path class="cls-5"
          d="M36.71,35.57h0a1.54,1.54,0,0,0-1.59,1.58,1.6,1.6,0,0,0,.47,1.13,1.61,1.61,0,0,0,2.25,0,1.6,1.6,0,0,0,.45-1.11A1.68,1.68,0,0,0,37.83,36,1.61,1.61,0,0,0,36.71,35.57Z"/>
    <path class="cls-3"
          d="M36.69,39.17a2,2,0,1,1,0-4h0a2,2,0,0,1,1.43.58,2.1,2.1,0,0,1,.58,1.43,2,2,0,0,1-.57,1.42A2,2,0,0,1,36.69,39.17Zm0-3.16a1.15,1.15,0,0,0-.81,2,1.14,1.14,0,0,0,2-.83,1.18,1.18,0,0,0-.33-.81,1.13,1.13,0,0,0-.8-.32Z"/>
    <path class="cls-5"
          d="M17.37,39,28,28.4a1.6,1.6,0,0,0,0-2.25,1.58,1.58,0,0,0-2.24,0L15.12,36.73a1.59,1.59,0,0,0-.47,1.13,1.59,1.59,0,0,0,1.59,1.58A1.6,1.6,0,0,0,17.37,39Z"/>
    <path class="cls-3"
          d="M16.24,39.88a2,2,0,0,1-1.43-.59,2.08,2.08,0,0,1-.6-1.43,2,2,0,0,1,.59-1.44L25.38,25.83a2,2,0,0,1,2.88,2.88L17.68,39.29A2,2,0,0,1,16.24,39.88ZM26.82,26.13a1.15,1.15,0,0,0-.81.33L15.43,37a1.18,1.18,0,0,0-.33.81,1.14,1.14,0,0,0,.33.81,1.17,1.17,0,0,0,1.62,0L27.63,28.08a1.15,1.15,0,0,0,0-1.62A1.13,1.13,0,0,0,26.82,26.13Z"/>
    <path class="cls-5"
          d="M23.58,40.39a1.62,1.62,0,0,0,1.13.46,1.59,1.59,0,0,0,1.12-.46l7.05-7.06a1.59,1.59,0,0,0,0-2.25,1.61,1.61,0,0,0-2.25,0l-7,7.06A1.59,1.59,0,0,0,23.58,40.39Z"/>
    <path class="cls-3"
          d="M24.71,41.29a2,2,0,0,1-1.44-.59h0a2,2,0,0,1,0-2.88l7.05-7a2,2,0,0,1,2.88,2.87L26.14,40.7A2,2,0,0,1,24.71,41.29Zm-.82-1.22a1.18,1.18,0,0,0,1.63,0l7.05-7a1.16,1.16,0,0,0,0-1.63,1.15,1.15,0,0,0-1.62,0l-7,7.05A1.16,1.16,0,0,0,23.89,40.07Z"/>
    <path class="cls-5"
          d="M19.06,43.31h0a1.63,1.63,0,0,0-1.12.47l-1.41,1.41a1.59,1.59,0,0,0-.47,1.13,1.63,1.63,0,0,0,.47,1.12,1.57,1.57,0,0,0,1.12.46,1.64,1.64,0,0,0,1.13-.46L20.19,46a1.59,1.59,0,0,0-1.13-2.71Z"/>
    <path class="cls-3"
          d="M17.65,48.35a2,2,0,0,1-1.43-.59,2.11,2.11,0,0,1-.6-1.44,2.05,2.05,0,0,1,.59-1.44l1.42-1.41a2.06,2.06,0,0,1,1.43-.6h0a2,2,0,0,1,1.44,3.46l-1.41,1.42A2.06,2.06,0,0,1,17.65,48.35Zm1.41-4.59a1.18,1.18,0,0,0-.81.33L16.84,45.5a1.15,1.15,0,1,0,1.63,1.62l1.41-1.41a1.16,1.16,0,0,0,0-1.62,1.18,1.18,0,0,0-.82-.33Z"/>
    <path class="cls-5"
          d="M19.48,24.74a1.59,1.59,0,0,0-2.25,0L6.65,35.32A1.59,1.59,0,0,0,7.78,38a1.57,1.57,0,0,0,1.12-.47L19.48,27A1.59,1.59,0,0,0,19.48,24.74Z"/>
    <path class="cls-3"
          d="M7.78,38.47a2.1,2.1,0,0,1-1.44-.59,2,2,0,0,1,0-2.88L16.92,24.42a2.05,2.05,0,0,1,2.87,0h0a2,2,0,0,1,0,2.87L9.22,37.88A2.1,2.1,0,0,1,7.78,38.47ZM18.36,24.72a1.15,1.15,0,0,0-.81.33L7,35.63a1.14,1.14,0,0,0,0,1.62,1.2,1.2,0,0,0,1.62,0L19.17,26.67a1.14,1.14,0,0,0-.81-2Z"/>
    <path class="cls-5"
          d="M21.88,23.92a1.57,1.57,0,0,0,1.59-1.59,1.55,1.55,0,0,0-1.59-1.57,1.43,1.43,0,0,0-1.11.44,1.58,1.58,0,0,0,0,2.27A1.6,1.6,0,0,0,21.88,23.92Z"/>
    <path class="cls-3"
          d="M21.88,24.37a2,2,0,0,1-2-2,2,2,0,0,1,.61-1.44,2.08,2.08,0,0,1,2.86,0,2.07,2.07,0,0,1,.59,1.44,2,2,0,0,1-2,2Zm-.09-3.17a1,1,0,0,0-.7.32,1.11,1.11,0,0,0-.35.81,1.23,1.23,0,0,0,.34.84,1.21,1.21,0,0,0,1.63,0,1.14,1.14,0,0,0,.31-.8,1.16,1.16,0,0,0-.33-.81,1.14,1.14,0,0,0-.81-.32Z"/>
    <path class="cls-5"
          d="M12.31,39.54a1.56,1.56,0,0,0-.47,1.14,1.53,1.53,0,0,0,.45,1.1,1.58,1.58,0,0,0,2.27,0,1.61,1.61,0,0,0,.45-1.1,1.56,1.56,0,0,0-.47-1.13A1.69,1.69,0,0,0,12.31,39.54Z"/>
    <path class="cls-3"
          d="M13.42,42.7A2,2,0,0,1,12,42.09a1.92,1.92,0,0,1-.59-1.41A2,2,0,0,1,12,39.22a2.14,2.14,0,0,1,2.85,0,2.07,2.07,0,0,1,.61,1.45,2,2,0,0,1-.58,1.4A2,2,0,0,1,13.42,42.7Zm0-3.13a1.12,1.12,0,0,0-.79.28h0a1.16,1.16,0,0,0,0,1.6,1.17,1.17,0,0,0,1.66,0,1.18,1.18,0,0,0,.32-.79,1.17,1.17,0,0,0-.34-.82A1.21,1.21,0,0,0,13.41,39.57Z"/>
    <path class="cls-5"
          d="M23,43.21A1.61,1.61,0,0,0,23,41a1.7,1.7,0,0,0-2.27,0,1.59,1.59,0,0,0,0,2.25,1.6,1.6,0,0,0,1.11.45A1.63,1.63,0,0,0,23,43.21Z"/>
    <path class="cls-3"
          d="M21.88,44.11a2,2,0,0,1-1.42-.57,2,2,0,0,1,0-2.87,2.14,2.14,0,0,1,2.9,0,2.06,2.06,0,0,1,0,2.88l0,0A2.07,2.07,0,0,1,21.88,44.11Zm0-3.14a1.24,1.24,0,0,0-.84.31,1.23,1.23,0,0,0-.31.8,1.19,1.19,0,0,0,.34.83,1.22,1.22,0,0,0,1.62,0,1.17,1.17,0,0,0,.32-.82,1.16,1.16,0,0,0-.33-.81A1.12,1.12,0,0,0,21.89,41Z"/>
    <g class="cls-6">
        <path d="M36.47,61.07l11.8,2.47a2.52,2.52,0,0,0,3-1.95L55.4,40.38A38.59,38.59,0,0,1,36.47,61.07Z"/>
    </g>
    <g class="cls-4">
        <path d="M21.16,58.7a2.53,2.53,0,0,0,3.57,0L39,44A38.3,38.3,0,0,1,17.19,54.73Z"/>
    </g>
</svg>
