<?xml version="1.0" encoding="utf-8"?><svg xmlns="http://www.w3.org/2000/svg" viewBox="0 0 23.47 23.47"><defs><style>.cls-1{fill:#fff;}</style></defs><title>special-offer-white</title><g id="Labels"><path class="cls-1" d="M5.8,7.51a2.83,2.83,0,1,1,2.82,2.81A2.8,2.8,0,0,1,5.8,7.51Zm4.23,0A1.42,1.42,0,0,0,8.62,6.09,1.39,1.39,0,0,0,7.2,7.51,1.37,1.37,0,0,0,8.62,8.93,1.39,1.39,0,0,0,10,7.51ZM14.39,5.1h1.33L9,18.91H7.67ZM12.08,16.31a2.83,2.83,0,1,1,2.82,2.81A2.78,2.78,0,0,1,12.08,16.31Zm4.24,0a1.44,1.44,0,0,0-1.42-1.44,1.4,1.4,0,0,0-1.4,1.44,1.35,1.35,0,0,0,1.4,1.39A1.39,1.39,0,0,0,16.32,16.31Z"/><path class="cls-1" d="M11.73,23.47A11.74,11.74,0,1,1,23.47,11.73,11.74,11.74,0,0,1,11.73,23.47Zm0-22.14a10.41,10.41,0,1,0,10.41,10.4A10.42,10.42,0,0,0,11.73,1.33Z"/></g></svg>