<svg xmlns="http://www.w3.org/2000/svg" width="20" height="20" viewBox="0 0 20 20">
    <g>
        <g>
            <g>
                <g>
                    <g>
                        <path fill="#ed0373"
                              d="M18.032 13.268a8.626 8.626 0 0 1-1.901 2.863 8.624 8.624 0 0 1-6.124 2.535 8.728 8.728 0 0 1-3.27-.633A8.613 8.613 0 0 1 3.87 16.13a8.612 8.612 0 0 1-1.902-2.869 8.727 8.727 0 0 1 .001-6.53A8.623 8.623 0 0 1 3.87 3.87a8.624 8.624 0 0 1 6.124-2.535c1.113 0 2.225.211 3.27.633A8.613 8.613 0 0 1 16.13 3.87a8.613 8.613 0 0 1 1.902 2.869 8.728 8.728 0 0 1-.001 6.53zm1.237-7.03a9.948 9.948 0 0 0-2.195-3.312A9.949 9.949 0 0 0 13.762.73 10.06 10.06 0 0 0 6.23.732a9.958 9.958 0 0 0-3.305 2.194A9.958 9.958 0 0 0 0 9.993c0 1.281.243 2.563.73 3.769a9.948 9.948 0 0 0 2.196 3.312 9.949 9.949 0 0 0 3.312 2.195 10.061 10.061 0 0 0 7.531-.001 9.958 9.958 0 0 0 3.305-2.194A9.958 9.958 0 0 0 20 10.007c0-1.281-.243-2.563-.73-3.769z"/>
                    </g>
                </g>
            </g>
            <g>
                <g>
                    <g>
                        <path fill="#ed0373"
                              d="M14.845 5.155a.761.761 0 0 0-1.076 0l-8.614 8.614a.761.761 0 0 0 1.076 1.076l8.614-8.614a.761.761 0 0 0 0-1.076z"/>
                    </g>
                </g>
            </g>
            <g>
                <g>
                    <g>
                        <path fill="#ed0373"
                              d="M8.619 6.536a.756.756 0 0 1-.42.42.764.764 0 0 1-.992-.993.756.756 0 0 1 .419-.42.764.764 0 0 1 .993.993zm1.41-1.146a2.28 2.28 0 0 0-2.116-1.425A2.287 2.287 0 0 0 5.796 5.39a2.287 2.287 0 0 0 1.258 2.976A2.287 2.287 0 0 0 10.03 7.11a2.287 2.287 0 0 0 0-1.719z"/>
                    </g>
                </g>
            </g>
            <g>
                <g>
                    <g>
                        <path fill="#ed0373"
                              d="M13.21 13.626a.756.756 0 0 1-.419.419.764.764 0 0 1-.992-.993.756.756 0 0 1 .419-.418.763.763 0 0 1 .992.992zm1.411-1.146a2.281 2.281 0 0 0-2.117-1.425 2.287 2.287 0 0 0-2.116 1.425 2.287 2.287 0 0 0 1.257 2.976 2.287 2.287 0 0 0 2.976-1.257 2.287 2.287 0 0 0 0-1.719z"/>
                    </g>
                </g>
            </g>
        </g>
    </g>
</svg>
