<svg class="svg-icon" xmlns="http://www.w3.org/2000/svg" viewBox="0 0 40.17 40.17">
    <path fill="#de026d"
          d="M10.34,13.27a4.35,4.35,0,0,1,4.37-4.39,4.38,4.38,0,1,1,0,8.76A4.31,4.31,0,0,1,10.34,13.27Zm6.56,0a2.2,2.2,0,0,0-2.19-2.2,2.16,2.16,0,0,0-2.2,2.2,2.12,2.12,0,0,0,2.2,2.21A2.16,2.16,0,0,0,16.9,13.27Zm6.76-3.74h2.07L15.33,31h-2.1Zm-3.57,17.4a4.35,4.35,0,0,1,4.37-4.4,4.4,4.4,0,0,1,4.4,4.4,4.36,4.36,0,0,1-4.4,4.37A4.31,4.31,0,0,1,20.09,26.93Zm6.56,0a2.22,2.22,0,0,0-2.19-2.23,2.18,2.18,0,0,0-2.17,2.23,2.1,2.1,0,0,0,2.17,2.16A2.14,2.14,0,0,0,26.65,26.93Z"></path>
    <path fill="#de026d"
          d="M20.08,40.17A20.09,20.09,0,1,1,40.17,20.09,20.11,20.11,0,0,1,20.08,40.17Zm0-37.38a17.3,17.3,0,1,0,17.31,17.3A17.31,17.31,0,0,0,20.08,2.79Z"></path>
</svg>
