<?xml version="1.0" encoding="utf-8"?><svg id="Layer_1" data-name="Layer 1" xmlns="http://www.w3.org/2000/svg" viewBox="0 0 61.61 61.73"><defs><style>.cls-1{fill:#027096;}.cls-2{opacity:0.15;}.cls-3{fill:#485059;}</style></defs><title>waiting-times</title><path class="cls-1" d="M59.81,30.88h-.56a1.83,1.83,0,0,0-1.85,1.78,10.43,10.43,0,0,1-.35,2.76c-.06.26-.13.56-.2.93a26.58,26.58,0,1,1-26-32.1,26.37,26.37,0,0,1,20.37,9.61l-5.78-.19a1.69,1.69,0,0,0-1.59,1.77V16a1.88,1.88,0,0,0,.54,1.3,1.31,1.31,0,0,0,.89.34h.07L56,18a1.94,1.94,0,0,0,1.35-.54,2,2,0,0,0,.63-1.5L57.67,5.3a1.72,1.72,0,0,0-1.79-1.62l-.51,0a1.71,1.71,0,0,0-1.65,1.73l.16,5a30.81,30.81,0,1,0,6.81,28.29,31.06,31.06,0,0,0,.92-6.23A1.82,1.82,0,0,0,59.81,30.88Z"/><g class="cls-2"><path d="M46.93,16h-.07a1.32,1.32,0,0,1-.89-.35,1.86,1.86,0,0,1-.54-1.3v-.53s0-.11,0-.16h-.05a1.68,1.68,0,0,0-1.58,1.77V16a1.85,1.85,0,0,0,.53,1.31,1.31,1.31,0,0,0,.9.34h.06L56,18a2,2,0,0,0,1.35-.53,2,2,0,0,0,.55-1.13,1.59,1.59,0,0,1-.3.06Z"/></g><path class="cls-3" d="M30.8,9.87a1,1,0,0,0-.95,1v3.71a1,1,0,0,0,1.91,0V10.82A1,1,0,0,0,30.8,9.87Z"/><path class="cls-3" d="M30.8,46.25a1,1,0,0,0-.95,1v3.71a1,1,0,0,0,1.91,0V47.2A1,1,0,0,0,30.8,46.25Z"/><path class="cls-3" d="M50.84,29.91h-20v1.91h20a1,1,0,1,0,0-1.91Z"/><path class="cls-3" d="M15.42,30.87a1,1,0,0,0-1-1h-3.7a1,1,0,0,0,0,1.91h3.7A1,1,0,0,0,15.42,30.87Z"/><path class="cls-3" d="M21.61,13A1,1,0,1,0,20,14l1.22,2.1a1,1,0,0,0,1.3.35,1,1,0,0,0,.36-1.31Z"/><path class="cls-3" d="M40.44,45.64a1,1,0,0,0-1.31-.35,1,1,0,0,0-.35,1.31L40,48.7a1,1,0,1,0,1.65-1Z"/><path class="cls-3" d="M46.54,22.89l2.1-1.22a1,1,0,1,0-1-1.65l-2.1,1.21a1,1,0,0,0-.35,1.31A1,1,0,0,0,46.54,22.89Z"/><path class="cls-3" d="M15.07,38.84,13,40.06a1,1,0,1,0,1,1.65L16,40.5a1,1,0,0,0,.35-1.31A1,1,0,0,0,15.07,38.84Z"/><path class="cls-3" d="M16,21.23,13.93,20a1,1,0,1,0-1,1.65l2.1,1.22a1,1,0,0,0,1.31-.35A1,1,0,0,0,16,21.23Z"/><path class="cls-3" d="M48.64,40.06l-2.1-1.22a1,1,0,1,0-1,1.66l2.1,1.21a1,1,0,1,0,1-1.65Z"/><path class="cls-3" d="M22.47,45.29a1,1,0,0,0-1.3.35L20,47.74a1,1,0,0,0,1.66,1l1.22-2.1A1,1,0,0,0,22.47,45.29Z"/><path class="cls-3" d="M37.33,24.34a1,1,0,0,0-1.36,0l-4.85,4.85,1.35,1.36,4.86-4.85A1,1,0,0,0,37.33,24.34Z"/><path class="cls-3" d="M30.8,9.87a1,1,0,0,1,1,1v3.71a1,1,0,0,1-1.91,0V10.82A1,1,0,0,1,30.8,9.87Z"/><path class="cls-3" d="M40,13a1,1,0,1,1,1.65,1l-1.21,2.1a1,1,0,0,1-1.31.35,1,1,0,0,1-.35-1.31Z"/><path class="cls-1" d="M33.36,30.87a2.56,2.56,0,1,1-2.56-2.56A2.56,2.56,0,0,1,33.36,30.87Z"/><g class="cls-2"><path d="M2.72,27.76A33.51,33.51,0,0,1,7.07,11.23a30.85,30.85,0,0,0,23.79,50.5,30.09,30.09,0,0,0,4.26-.32A33.69,33.69,0,0,1,2.72,27.76Z"/></g><g class="cls-2"><path d="M33.36,30.87a2.56,2.56,0,1,1-2.56-2.56A2.56,2.56,0,0,1,33.36,30.87Z"/></g></svg>